<?xml version="1.0" encoding="UTF-8" standalone="no"?>
<svg xmlns="http://www.w3.org/2000/svg" viewBox="0 0 1280 960" version="1.1" xmlns:xlink="http://www.w3.org/1999/xlink" viewbox="0 0 1280.0px 960.0px">
<defs xmlns:inkscape="http://www.inkscape.org/namespaces/inkscape">
<filter id="d" style="color-interpolation-filters:sRGB" height="1.14" width="1.0979" y="-.069990" x="-.048937">
<feGaussianBlur stdDeviation="21.6452"/>
</filter>
</defs>
<metadata xmlns:rdf="http://www.w3.org/1999/02/22-rdf-syntax-ns#" xmlns:cc="http://creativecommons.org/ns#" xmlns:dc="http://purl.org/dc/elements/1.1/">
<rdf:RDF>
<cc:Work rdf:about="">
<dc:title/>
<dc:format>image/svg+xml</dc:format>
<dc:type rdf:resource="http://purl.org/dc/dcmitype/StillImage"/>
</cc:Work>
</rdf:RDF>
</metadata>
<g xmlns:inkscape="http://www.inkscape.org/namespaces/inkscape" height="745" width="1065" y="107" x="107">
<g opacity=".74438" transform="translate(-36.847 .94915)" filter="url(#d)">
<g height="745" width="1065" y="107" x="107">
<rect opacity=".978" stroke-linejoin="round" ry="68.009" height="742.22" width="1061.5" stroke="#000" y="107.87" x="147.87" stroke-width="2.2345"/>
</g>
</g>
</g>
<defs>
<clipPath id="g" clipPathUnits="userSpaceOnUse">
<rect rx="67" ry="67" height="745" width="1065" y="107" x="107"/>
</clipPath>
</defs>
<image y="0" width="1280" xlink:href="back.png" x="0" height="960"/>
<g y="107" width="1065" height="745" x="107" clip-path="url(#g)">
<g y="75" width="1280" x="106" transform="translate(106,75) scale(1.667)" height="960">
<svg xmlns:rdf="http://www.w3.org/1999/02/22-rdf-syntax-ns#" height="480" width="640" version="1.1" xmlns:cc="http://creativecommons.org/ns#" xmlns:dc="http://purl.org/dc/elements/1.1/">
<metadata>
<rdf:RDF>
<cc:Work rdf:about="">
<dc:format>image/svg+xml</dc:format>
<dc:type rdf:resource="http://purl.org/dc/dcmitype/StillImage"/>
</cc:Work>
</rdf:RDF>
</metadata>
<defs>
<clipPath id="f" clipPathUnits="userSpaceOnUse">
<rect y="0" width="640" height="480" x="0" fill-opacity=".67"/>
</clipPath>
</defs>
<g clip-path="url(#f)">
<g transform="matrix(.9375 0 0 .9375 155.92 2.9297e-7)">
<rect fill-rule="evenodd" height="256.07" width="429.52" y=".44916" x="-165.86" stroke-width="1pt" fill="#fff"/>
<path d="m-165.86 0.44988-0.0179 19.219 102.5 63.221 38.565 1.3414-141.05-83.781z" fill="#c00"/>
<path d="m-121.97 0.44988 124.26 77.916v-77.916h-124.26z" fill="#006"/>
<path d="m18.866 0.44988v99.468h-184.73v56.839h184.73v99.468h56.839v-99.468h184.73v-56.839h-184.73v-99.468h-56.839z" fill="#c00"/>
<path d="m92.283 0.44988v73.417l121.57-72.848-121.57-0.56912z" fill="#006"/>
<path d="m96.12 81.871 34.19-0.33 132.82-80.522-35.24 0.6889-131.77 80.163z" fill="#c00"/>
<path d="m261.78 22.495-101.46 60.395 100.11 0.44974v89.995h-85.258l84.47 54.942 1.2386 27.948-45.116-0.64654-123.48-72.77v73.417h-89.995v-73.417l-115.83 73.22-52.315 0.19657v255.78h852.58v-511.55l-424.04-0.46m-428.54 28.869l-0.4499 53.121 89.757 1.3497-89.307-54.471z" fill="#006"/>
<path d="m-165.86 173.33v54.471l85.258-53.902-85.258-0.56863z" fill="#006"/>
<path d="m162.45 175.58-35.543-0.33108 133.97 80.072-0.881-18.319-97.55-61.422zm-295.02 81.091 125.62-79.172-32.994 0.26265-125.92 78.791" fill="#c00"/>
</g>
<g transform="matrix(2.0302 0 0 2.0302 -20.748 -474.95)">
<path d="m269 356 1 1-1-1z" fill="#49497d"/>
<path d="m270 356 1 1-1-1z" fill="#0e0e6e"/>
<path d="m267 357 1 1-1-1z" fill="#262678"/>
<path d="m268 357 1 1-1-1z" fill="#808067"/>
<path d="m271 357 1 1-1-1z" fill="#58587b"/>
<path d="m234 358 1 1-1-1z" fill="#0e0e6e"/>
<path d="m265 358 1 1-1-1z" fill="#1b1b74"/>
<path d="m266 358 1 1-1-1z" fill="#6e6c70"/>
<path d="m235.76 359.81c0 25.838-2.978 54.955 16.28 75.19 3.962 4.163 11.499 13.656 17.96 13.292 6.764-0.381 15.462-10.39 19.331-15.292 16.764-22.052 14.099-48.355 14.669-73.95-7.57 3.3996-11.34 4.5196-17.96 4.4998-4.903 0.5039-12.467-2.7917-16.99-4.9474-2.956 1.9739-7.244 4.3279-14.95 4.5922-8.9 0.3915-11.72-1.1167-18.34-3.3848z" fill="#cc3"/>
<path d="m272 358 1 1-1-1z" fill="#99994e"/>
<path d="m273 358 1 1-1-1z" fill="#49497d"/>
<path d="m304 358 1 1-1-1z" fill="#0e0e6e"/>
<path d="m235 359 1 1-1-1z" fill="#a4a43d"/>
<path d="m236 359 1 1-1-1z" fill="#6e6c70"/>
<path d="m237 359 1 1-1-1z" fill="#3a3a7c"/>
<path d="m263 359 1 1-1-1z" fill="#1b1b74"/>
<path d="m264 359 1 1-1-1z" fill="#6e6c70"/>
<path d="m265 359 1 1-1-1z" fill="#a4a43d"/>
<path d="m269 359 1 1-1-1z" fill="#d0d045"/>
<path d="m273 359 1 1-1-1z" fill="#a4a43d"/>
<path d="m274 359 1 1-1-1z" fill="#8d8d5b"/>
<path d="m275 359 1 1-1-1z" fill="#3a3a7c"/>
<path d="m301 359 1 1-1-1z" fill="#262678"/>
<path d="m302 359 1 1-1-1z" fill="#53527c"/>
<path d="m303 359 1 1-1-1z" fill="#8d8d5b"/>
<path d="m239 360 1 1-1-1z" fill="#737370"/>
<path d="m240 360 1 1-1-1z" fill="#53527c"/>
<path d="m241 360 1 1-1-1z" fill="#1b1b74"/>
<path d="m261 360 1 1-1-1z" fill="#262678"/>
<path d="m262 360 1 1-1-1z" fill="#6e6c70"/>
<path d="m263 360 1 1-1-1z" fill="#a4a43d"/>
<path d="m268 360 1 1-1-1z" fill="#e5e59d"/>
<path d="m237.81 362.62c-0.538 13.573-0.125 28.857 1.997 43.38 2.346 7.587 2.032 11.755 5.518 16.302l48.798-0.38c2.94-4.784 5.121-12.038 5.402-14.922 2.725-14.667 2.79-30.853 2.855-45.33-4.907 2.6083-11.333 4.4568-17.57 3.6458-5-0.3813-9.62-1.5225-15-4.5633-4.667 2.7961-6.294 4.0724-14 4.3989-6 0.2959-10.86 0.7818-18-2.5316z" fill="#fff"/>
<path d="m270 360 1 1-1-1z" fill="#f2f1d7"/>
<path d="m271 360 1 1-1-1z" fill="#d9d868"/>
<path d="m275 360 1 1-1-1z" fill="#a4a43d"/>
<path d="m276 360 1 1-1-1z" fill="#99994e"/>
<path d="m277 360 1 1-1-1z" fill="#49497d"/>
<path d="m278 360 1 1-1-1z" fill="#0e0e6e"/>
<path d="m298 360 1 1-1-1z" fill="#3a3a7c"/>
<path d="m299 360 1 1-1-1z" fill="#667"/>
<path d="m300 360 1 1-1-1z" fill="#99994e"/>
<path d="m301 360 1 1-1-1m-60 1 1 1-1-1z" fill="#a4a43d"/>
<path d="m242 361 1 1-1-1z" fill="#99994e"/>
<path d="m243 361 1 1-1-1z" fill="#6e6c70"/>
<path d="m244 361 1 1-1-1z" fill="#49497d"/>
<path d="m245 361 1 1-1-1m13 0 1 1-1-1z" fill="#1b1b74"/>
<path d="m259 361 1 1-1-1z" fill="#53527c"/>
<path d="m260 361 1 1-1-1z" fill="#8d8d5b"/>
<path d="m261 361 1 1-1-1z" fill="#a4a43d"/>
<path d="m266 361 1 1-1-1z" fill="#e5e59d"/>
<path d="m267 361 1 1-1-1z" fill="#fbfaf2"/>
<path d="m272 361 1 1-1-1z" fill="#f2f1d2"/>
<path d="m273 361 1 1-1-1z" fill="#d9d868"/>
<path d="m278 361 1 1-1-1z" fill="#a4a43d"/>
<path d="m279 361 1 1-1-1z" fill="#6e6c70"/>
<path d="m280 361 1 1-1-1z" fill="#3a3a7c"/>
<path d="m293 361 1 1-1-1z" fill="#0e0e6e"/>
<path d="m294 361 1 1-1-1z" fill="#32327b"/>
<path d="m295 361 1 1-1-1z" fill="#58587b"/>
<path d="m296 361 1 1-1-1z" fill="#808067"/>
<path d="m297.67 361.33 0.666 0.3334-0.666-0.3334z" fill="#a4a43d"/>
<path d="m237 362 1 1-1-1z" fill="#dddc7a"/>
<path d="m238 362 1 1-1-1z" fill="#d0d045"/>
<path d="m245.67 362.33 0.666 0.3334-0.666-0.3334z" fill="#a4a43d"/>
<path d="m247 362 1 1-1-1z" fill="#808067"/>
<path d="m248 362 1 1-1-1z" fill="#667"/>
<path d="m249 362 1 1-1-1z" fill="#58587b"/>
<path d="m250 362 1 1-1-1z" fill="#49497d"/>
<path d="m256 362 1 1-1-1z" fill="#737370"/>
<path d="m257 362 1 1-1-1z" fill="#99994e"/>
<path d="m258 362 1 1-1-1z" fill="#a4a43d"/>
<path d="m264 362 1 1-1-1z" fill="#e5e59d"/>
<path d="m265 362 1 1-1-1z" fill="#fbfaf2"/>
<path d="m274 362 1 1-1-1z" fill="#f2f1d2"/>
<path d="m275 362 1 1-1-1z" fill="#d9d868"/>
<path d="m280.67 362.33 0.666 0.3334-0.666-0.3334z" fill="#a4a43d"/>
<path d="m282 362 1 1-1-1z" fill="#808067"/>
<path d="m283 362 1 1-1-1z" fill="#667"/>
<path d="m284 362 1 1-1-1z" fill="#58587b"/>
<path d="m285 362 1 1-1-1z" fill="#3a3a7c"/>
<path d="m289.67 362.33 0.666 0.3334-0.666-0.3334z" fill="#58587b"/>
<path d="m291 362 1 1-1-1z" fill="#737370"/>
<path d="m292 362 1 1-1-1z" fill="#99994e"/>
<path d="m293 362 1 1-1-1z" fill="#a4a43d"/>
<path d="m301 362 1 1-1-1z" fill="#dddc7a"/>
<path d="m302 362 1 1-1-1z" fill="#d0d045"/>
<path d="m239 363 1 1-1-1z" fill="#f2f1d7"/>
<path d="m240 363 1 1-1-1z" fill="#e0dea1"/>
<path d="m241 363 1 1-1-1z" fill="#dddc7a"/>
<path d="m261 363 1 1-1-1z" fill="#d9d868"/>
<path d="m262 363 1 1-1-1z" fill="#e5e3af"/>
<path d="m276 363 1 1-1-1z" fill="#f6f6e4"/>
<path d="m277 363 1 1-1-1z" fill="#e1e18c"/>
<path d="m297 363 1 1-1-1z" fill="#d4d456"/>
<path d="m298 363 1 1-1-1z" fill="#e1e18c"/>
<path d="m299 363 1 1-1-1z" fill="#eeedc1"/>
<path d="m243 364 1 1-1-1z" fill="#f2f1d2"/>
<path d="m244 364 1 1-1-1z" fill="#e0dea1"/>
<path d="m245 364 1 1-1-1z" fill="#dddc7a"/>
<path d="m246 364 1 1-1-1z" fill="#d0d045"/>
<path d="m258 364 1 1-1-1z" fill="#dddc7a"/>
<path d="m259 364 1 1-1-1z" fill="#e5e3af"/>
<path d="m260 364 1 1-1-1z" fill="#f6f6e4"/>
<path d="m279 364 1 1-1-1z" fill="#eeedc1"/>
<path d="m280 364 1 1-1-1z" fill="#e1e18c"/>
<path d="m281 364 1 1-1-1z" fill="#d4d456"/>
<path d="m293 364 1 1-1-1z" fill="#d9d868"/>
<path d="m294 364 1 1-1-1z" fill="#e1e18c"/>
<path d="m295 364 1 1-1-1z" fill="#eeedc1"/>
<path d="m296 364 1 1-1-1z" fill="#f6f6e4"/>
<path d="m248 365 1 1-1-1z" fill="#f2f1d7"/>
<path d="m249 365 1 1-1-1z" fill="#f2f1d2"/>
<path d="m250 365 1 1-1-1z" fill="#eeedc1"/>
<path d="m254.67 365.33 0.666 0.3334-0.666-0.3334z" fill="#f2f1d2"/>
<path d="m256 365 1 1-1-1z" fill="#fbfaf2"/>
<path d="m261 365 2 2v-2h-2z" fill="#fef8f1"/>
<path d="m283 365 1 1-1-1z" fill="#f2f1d7"/>
<path d="m284 365 1 1-1-1z" fill="#f2f1d2"/>
<path d="m285 365 1 1-1-1z" fill="#e5e3af"/>
<path d="m286.67 365.33 0.666 0.3334-0.666-0.3334z" fill="#e5e59d"/>
<path d="m288 365 1 1-1-1z" fill="#e0dea1"/>
<path d="m289.67 365.33 0.666 0.3334-0.666-0.3334z" fill="#f2f1d2"/>
<path d="m291 365 1 1-1-1z" fill="#fbfaf2"/>
<path d="m259 366 1 1-1-1z" fill="#fef8f1"/>
<path d="m260 366 1 1-1-1z" fill="#fbbe66"/>
<path d="m259 367 1 1-1-1z" fill="#fbc477"/>
<path d="m261 367 1 1-1-1z" fill="#fcb144"/>
<path d="m259 368 1 1-1-1z" fill="#fe9f11"/>
<path d="m261 368 1 1-1-1z" fill="#fea522"/>
<path d="m258 369 1 1-1-1m4 0 1 1-1-1z" fill="#fae3c9"/>
<path d="m267 369 1 1-1-1z" fill="#fbead6"/>
<path d="m268 369 1 1-1-1z" fill="#f9d6aa"/>
<path d="m272 369 1 1-1-1z" fill="#fae3c9"/>
<path d="m273 369 1 1-1-1z" fill="#fef8f1"/>
<path d="m258 370 1 1-1-1z" fill="#f9d099"/>
<path d="m262 370 1 1-1-1z" fill="#fdab33"/>
<path d="m264 370 1 1-1-1z" fill="#fcf1e4"/>
<path d="m265 370 1 1-1-1z" fill="#fbc477"/>
<path d="m266 370 1 1-1-1z" fill="#fea522"/>
<path d="m274 370 1 1-1-1z" fill="#fcb755"/>
<path d="m275 370 1 1-1-1z" fill="#f9d6aa"/>
<path d="m258 371 1 1-1-1z" fill="#faca88"/>
<path d="m263 371 1 1-1-1m13 0 1 1-1-1z" fill="#fea522"/>
<path d="m277 371 1 1-1-1z" fill="#f8dcbb"/>
<path d="m237 372 1 1-1-1z" fill="#f6f6e4"/>
<path d="m258 372 1 1-1-1z" fill="#fbc477"/>
<path d="m278 372 1 1-1-1z" fill="#fbbe66"/>
<path d="m279 372 1 1-1-1z" fill="#f8dcbb"/>
<path d="m258 373 1 1-1-1z" fill="#faca88"/>
<path d="m281 373 1 1-1-1z" fill="#fcb755"/>
<path d="m282 373 1 1-1-1z" fill="#f8dcbb"/>
<path d="m257 374 1 1-1-1z" fill="#fef8f1"/>
<path d="m258 374 1 1-1-1z" fill="#fe9f11"/>
<path d="m286 374 1 1-1-1z" fill="#fdab33"/>
<path d="m287 374 1 1-1-1z" fill="#fcb144"/>
<path d="m288 374 1 1-1-1z" fill="#fbc477"/>
<path d="m289 374 2 2-2-2z" fill="#f9d6aa"/>
<path d="m290 374 1 1-1-1z" fill="#fef8f1"/>
<path d="m257 375 1 1-1-1z" fill="#fcb144"/>
<path d="m271 375 1 1-1-1z" fill="#fdab33"/>
<path d="m272 375 1 1-1-1z" fill="#fbc477"/>
<path d="m276 375 1 1-1-1z" fill="#fbc477"/>
<path d="m277 375 1 1-1-1z" fill="#fea522"/>
<path d="m256 376 1 1-1-1z" fill="#fae3c9"/>
<path d="m269 376 1 1-1-1z" fill="#fcb144"/>
<path d="m270 376 1 1-1-1z" fill="#fae3c9"/>
<path d="m278 376 1 1-1-1z" fill="#f8dcbb"/>
<path d="m279 376 1 1-1-1z" fill="#fdab33"/>
<path d="m285 376 1 1-1-1z" fill="#fe9f11"/>
<path d="m286 376 1 1-1-1z" fill="#fcb755"/>
<path d="m287 376 1 1-1-1z" fill="#f9d099"/>
<path d="m288 376 1 1-1-1z" fill="#fbead6"/>
<path d="m256 377 1 1-1-1z" fill="#fcb144"/>
<path d="m268 377 1 1-1-1z" fill="#fbbe66"/>
<path d="m280 377 1 1-1-1z" fill="#f9d099"/>
<path d="m284 377 1 1-1-1z" fill="#fbead6"/>
<path d="m255 378 1 1-1-1z" fill="#fcf1e4"/>
<path d="m267 378 1 1-1-1z" fill="#fbbe66"/>
<path d="m281 378 1 1-1-1z" fill="#f9d099"/>
<path d="m284 378 1 1-1-1z" fill="#fae3c9"/>
<path d="m255 379 1 1-1-1z" fill="#fbc477"/>
<path d="m266 379 1 1-1-1m16 0 1 1-1-1z" fill="#fcb144"/>
<path d="m284 379 1 1-1-1z" fill="#fbbe66"/>
<path d="m237 380 1 1-1-1z" fill="#f6f6e4"/>
<path d="m255 380 1 1-1-1z" fill="#fea522"/>
<path d="m266 380 1 1-1-1z" fill="#fbead6"/>
<path d="m282 380 1 1-1-1z" fill="#fcf1e4"/>
<path d="m285 380 1 1-1-1z" fill="#fef8f1"/>
<path d="m254 381 1 1-1-1z" fill="#fcf1e4"/>
<path d="m265 381 1 1-1-1z" fill="#fbbe66"/>
<path d="m283 381 1 1-1-1z" fill="#faca88"/>
<path d="m285 381 1 1-1-1z" fill="#f9d099"/>
<path d="m254 382 1 1-1-1z" fill="#f9d6aa"/>
<path d="m265 382 1 1-1-1z" fill="#fcf1e4"/>
<path d="m270 382 1 1-1-1z" fill="#fae3c9"/>
<path d="m271 382 1 1-1-1z" fill="#fea522"/>
<path d="m272 382 1 1-1-1z" fill="#fcb144"/>
<path d="m273 382 1 1-1-1z" fill="#f9d6aa"/>
<path d="m283 382 1 1-1-1z" fill="#fef8f1"/>
<path d="m284 382 1 1-1-1z" fill="#fea522"/>
<path d="m285 382 1 1-1-1z" fill="#fdab33"/>
<path d="m254 383-1 3 1-3z" fill="#faca88"/>
<path d="m264 383 1 1-1-1z" fill="#fea522"/>
<path d="m265 383 1 1-1-1z" fill="#fef8f1"/>
<path d="m270 383 1 1-1-1z" fill="#f9d099"/>
<path d="m274 383 1 1-1-1z" fill="#fdab33"/>
<path d="m275 383 1 1-1-1z" fill="#fae3c9"/>
<path d="m284 383 1 1-1-1z" fill="#f8dcbb"/>
<path d="m285 383 1 1-1-1z" fill="#f90"/>
<path d="m286.33 383.67 0.334 0.6666-0.334-0.6666z" fill="#fbead6"/>
<path d="m266 384 1 1-1-1z" fill="#fea522"/>
<path d="m267 384 1 1-1-1z" fill="#fbbe66"/>
<path d="m268 384 1 1-1-1z" fill="#faca88"/>
<path d="m269 384 1 1-1-1z" fill="#fcb144"/>
<path d="m270 384 1 1-1-1z" fill="#fae3c9"/>
<path d="m271 384 1 1-1-1z" fill="#fe9f11"/>
<path d="m276 384 1 1-1-1z" fill="#fdab33"/>
<path d="m277 384 1 1-1-1z" fill="#fbc477"/>
<path d="m278 384 1 1-1-1z" fill="#faca88"/>
<path d="m279 384 1 1-1-1z" fill="#f9d6aa"/>
<path d="m280.67 384.33 0.666 0.3334-0.666-0.3334z" fill="#fae3c9"/>
<path d="m282 384 1 1-1-1z" fill="#fef8f1"/>
<path d="m285 384 1 1-1-1z" fill="#fbc477"/>
<path d="m242 385 1 1-1-1z" fill="#fef8f1"/>
<path d="m243 385 1 1-1-1z" fill="#fcf1e4"/>
<path d="m269 385 1 1-1-1z" fill="#fcb755"/>
<path d="m271 385 1 1-1-1z" fill="#fbead6"/>
<path d="m272 385 1 1-1-1z" fill="#fea522"/>
<path d="m280 385 1 1-1-1z" fill="#fe9f11"/>
<path d="m281 385-1 2 1-2z" fill="#fcb144"/>
<path d="m283 385 1 1-1-1z" fill="#fe9f11"/>
<path d="m284 385 1 1-1-1z" fill="#fbbe66"/>
<path d="m285 385 1 1-1-1z" fill="#fcf1e4"/>
<path d="m242 386 1 1-1-1z" fill="#fae3c9"/>
<path d="m243 386 2 2-2-2z" fill="#fe9f11"/>
<path d="m244 386 1 1-1-1z" fill="#fbead6"/>
<path d="m253 386 1 1-1-1z" fill="#fbead6"/>
<path d="m254 386 1 1-1-1z" fill="#fae3c9"/>
<path d="m263 386 1 1-1-1z" fill="#fe9f11"/>
<path d="m264 386 1 1-1-1z" fill="#fbc477"/>
<path d="m265 386 1 1-1-1z" fill="#fea522"/>
<path d="m268 386 1 1-1-1z" fill="#fbc477"/>
<path d="m269 386 1 1-1-1z" fill="#fef8f1"/>
<path d="m273 386 1 1-1-1z" fill="#fbc477"/>
<path d="m281 386 1 1-1-1z" fill="#fff"/>
<path d="m282 386 1 1-1-1z" fill="#fdab33"/>
<path d="m286 386 1 1-1-1z" fill="#fbc477"/>
<path d="m242 387 1 1-1-1z" fill="#fef8f1"/>
<path d="m245 387 1 1-1-1z" fill="#fbead6"/>
<path d="m250 387 1 1-1-1z" fill="#f9d6aa"/>
<path d="m255 387 1 1-1-1z" fill="#fe9f11"/>
<path d="m256.67 387.33 0.666 0.3334-0.666-0.3334z" fill="#f9d6aa"/>
<path d="m263 387 1 1-1-1z" fill="#f8dcbb"/>
<path d="m266 387 1 1-1-1z" fill="#fcf1e4"/>
<path d="m274 387 1 1-1-1z" fill="#f9d6aa"/>
<path d="m281 387 1 1-1-1z" fill="#fdab33"/>
<path d="m287 387 1 1-1-1z" fill="#fcb755"/>
<path d="m288 387 1 1-1-1z" fill="#fef8f1"/>
<path d="m234 388 1 1-1-1z" fill="#53527c"/>
<path d="m243 388 1 1-1-1z" fill="#fcb755"/>
<path d="m245 388 1 1-1-1z" fill="#fea522"/>
<path d="m249 388 1 1-1-1z" fill="#fbead6"/>
<path d="m251 388 1 1-1-1z" fill="#fe9f11"/>
<path d="m252 388 1 1-1-1z" fill="#fcf1e4"/>
<path d="m255 388 1 1-1-1z" fill="#fbbe66"/>
<path d="m256 388 1 1-1-1z" fill="#fbc477"/>
<path d="m257 388 1 1-1-1z" fill="#fbbe66"/>
<path d="m262 388 1 1-1-1z" fill="#fea522"/>
<path d="m275 388 1 1-1-1z" fill="#f9d6aa"/>
<path d="m288 388 1 1-1-1z" fill="#fcb144"/>
<path d="m304 388 1 1-1-1z" fill="#8d8d5b"/>
<path d="m237 389 1 1-1-1z" fill="#e5e3af"/>
<path d="m243 389 1 1-1-1z" fill="#f8dcbb"/>
<path d="m246 389 1 1-1-1z" fill="#fdab33"/>
<path d="m249 389 1 1-1-1z" fill="#fe9f11"/>
<path d="m251 389 1 1-1-1z" fill="#faca88"/>
<path d="m255 389 1 1-1-1z" fill="#fcf1e4"/>
<path d="m262 389 1 1-1-1m14 0 1 1-1-1z" fill="#f9d099"/>
<path d="m289 389 1 1-1-1z" fill="#fbbe66"/>
<path d="m244 390 1 1-1-1z" fill="#fea522"/>
<path d="m247 390 1 1-1-1z" fill="#fdab33"/>
<path d="m248 390 1 1-1-1z" fill="#fea522"/>
<path d="m250 390 1 1-1-1z" fill="#fe9f11"/>
<path d="m251 390 1 1-1-1z" fill="#fef8f1"/>
<path d="m256 390 1 1-1-1z" fill="#fbbe66"/>
<path d="m262 390 1 1-1-1z" fill="#fef8f1"/>
<path d="m277 390 1 1-1-1z" fill="#fbbe66"/>
<path d="m290 390 1 1-1-1z" fill="#f9d099"/>
<path d="m244 391 1 1-1-1z" fill="#f9d6aa"/>
<path d="m250 391 1 1-1-1z" fill="#f9d099"/>
<path d="m256 391 1 1-1-1z" fill="#fcf1e4"/>
<path d="m261 391 1 1-1-1m17 0 1 1-1-1z" fill="#fdab33"/>
<path d="m291 391 1 1-1-1z" fill="#fbead6"/>
<path d="m245 392 1 1-1-1z" fill="#fea522"/>
<path d="m249 392 1 1-1-1z" fill="#fe9f11"/>
<path d="m257 392 1 1-1-1z" fill="#fcb144"/>
<path d="m261 392 1 1-1-1z" fill="#faca88"/>
<path d="m278 392 1 1-1-1z" fill="#f8dcbb"/>
<path d="m291 392 1 1-1-1z" fill="#fcb144"/>
<path d="m237 393 1 1-1-1z" fill="#d3d079"/>
<path d="m245 393 1 1-1-1z" fill="#faca88"/>
<path d="m257 393 1 1-1-1z" fill="#faca88"/>
<path d="m261 393 1 1-1-1m17 0 1 1-1-1z" fill="#fae3c9"/>
<path d="m292 393 1 1-1-1z" fill="#f8dcbb"/>
<path d="m301 393 1 1-1-1z" fill="#f2f1d7"/>
<path d="m304.33 393.67 0.334 0.6666-0.334-0.6666z" fill="#58587b"/>
<path d="m237.33 394.67 0.334 0.6666-0.334-0.6666z" fill="#d9d868"/>
<path d="m245 394 1 1-1-1z" fill="#f8dcbb"/>
<path d="m277 394 1 1-1-1z" fill="#f9d6aa"/>
<path d="m278 394 1 1-1-1z" fill="#fe9f11"/>
<path d="m292 394 1 1-1-1z" fill="#fcb144"/>
<path d="m301.33 394.67 0.334 0.6666-0.334-0.6666z" fill="#f2f1d2"/>
<path d="m245 395 1 1-1-1z" fill="#fcf1e4"/>
<path d="m276 395 1 1-1-1z" fill="#fef8f1"/>
<path d="m277 395 1 1-1-1z" fill="#fe9f11"/>
<path d="m280 395-1 2 1-2z" fill="#fdab33"/>
<path d="m281 395 1 1-1-1z" fill="#fcb755"/>
<path d="m293 395 1 1-1-1z" fill="#fea522"/>
<path d="m294 395 1 1-1-1z" fill="#f9d099"/>
<path d="m304 395 1 1-1-1z" fill="#53527c"/>
<path d="m235.33 396.67 0.334 0.666-0.334-0.666z" fill="#808067"/>
<path d="m246 396 1 1-1-1m3 0 1 1-1-1z" fill="#fea522"/>
<path d="m260 396 1 1-1-1z" fill="#fe9f11"/>
<path d="m276 396 1 1-1-1z" fill="#fae3c9"/>
<path d="m280 396 1 1-1-1z" fill="#fef8f1"/>
<path d="m282 396 1 1-1-1z" fill="#fcb144"/>
<path d="m295 396 1 1-1-1z" fill="#fcb755"/>
<path d="m296 396 2 2-2-2z" fill="#fef8f1"/>
<path d="m301.33 396.67 0.334 0.666-0.334-0.666z" fill="#e5e59d"/>
<path d="m304.33 396.67 0.334 0.666-0.334-0.666z" fill="#32327b"/>
<path d="m246.33 397.67 0.334 0.666-0.334-0.666z" fill="#fcb755"/>
<path d="m250 397 1 1-1-1z" fill="#fef8f1"/>
<path d="m260 397 1 1-1-1z" fill="#fbbe66"/>
<path d="m276 397 1 1-1-1z" fill="#fbead6"/>
<path d="m278 397 1 1-1-1z" fill="#fe9f11"/>
<path d="m279 397 1 1-1-1z" fill="#fcf1e4"/>
<path d="m282 397 1 1-1-1z" fill="#fbead6"/>
<path d="m296 397 1 1-1-1z" fill="#fdab33"/>
<path d="m235 398 1 1-1-1z" fill="#667"/>
<path d="m238 398 1 1-1-1z" fill="#f6f6e4"/>
<path d="m250 398 1 1-1-1z" fill="#f9d6aa"/>
<path d="m258 398 1 1-1-1z" fill="#fdab33"/>
<path d="m259 398 1 1-1-1z" fill="#fe9f11"/>
<path d="m260 398 1 1-1-1z" fill="#fcf1e4"/>
<path d="m277 398 1 1-1-1z" fill="#fea522"/>
<path d="m278 398 1 1-1-1m5 0 1 1-1-1z" fill="#faca88"/>
<path d="m297 398 1 1-1-1z" fill="#fcb144"/>
<path d="m301 398 1 1-1-1z" fill="#dddc7a"/>
<path d="m235 399 1 1-1-1z" fill="#58587b"/>
<path d="m238 399 1 1-1-1z" fill="#f2f1d2"/>
<path d="m246.33 399.67 0.334 0.666-0.334-0.666z" fill="#fcb144"/>
<path d="m250 399 1 1-1-1z" fill="#fea522"/>
<path d="m260 399 1 1-1-1z" fill="#fef8f1"/>
<path d="m261 399 1 1-1-1z" fill="#fea522"/>
<path d="m263 399 1 1-1-1z" fill="#fcb144"/>
<path d="m264 399 1 1-1-1z" fill="#fbead6"/>
<path d="m277 399 1 1-1-1z" fill="#f8dcbb"/>
<path d="m278 399 1 1-1-1z" fill="#fcf1e4"/>
<path d="m283 399 1 1-1-1z" fill="#fef8f1"/>
<path d="m284 399 1 1-1-1z" fill="#fe9f11"/>
<path d="m298 399 1 1-1-1z" fill="#fbead6"/>
<path d="m301 399 1 1-1-1z" fill="#d9d868"/>
<path d="m235 400 1 1-1-1z" fill="#3a3a7c"/>
<path d="m238 400 1 1-1-1z" fill="#e5e3af"/>
<path d="m251 400 1 1-1-1z" fill="#faca88"/>
<path d="m261 400 1 1-1-1z" fill="#fbead6"/>
<path d="m264 400 1 1-1-1z" fill="#fe9f11"/>
<path d="m265 400 1 1-1-1z" fill="#fcf1e4"/>
<path d="m276 400 1 1-1-1z" fill="#fbead6"/>
<path d="m277 400 1 1-1-1z" fill="#fae3c9"/>
<path d="m278 400 1 1-1-1z" fill="#fbead6"/>
<path d="m284 400 1 1-1-1m8 0 1 1-1-1z" fill="#fbbe66"/>
<path d="m293 400 1 1-1-1z" fill="#fcf1e4"/>
<path d="m294 400 1 1-1-1z" fill="#fef8f1"/>
<path d="m295 400 1 1-1-1z" fill="#f8dcbb"/>
<path d="m296 400 1 1-1-1z" fill="#fcb755"/>
<path d="m298 400 1 1-1-1z" fill="#fae3c9"/>
<path d="m303 400 1 1-1-1z" fill="#808067"/>
<path d="m235 401 1 1-1-1z" fill="#32327b"/>
<path d="m236.33 401.67 0.334 0.666-0.334-0.666z" fill="#a4a43d"/>
<path d="m238 401 1 1-1-1z" fill="#e5e59d"/>
<path d="m246 401 1 1-1-1z" fill="#fbc477"/>
<path d="m252 401 1 1-1-1z" fill="#f9d6aa"/>
<path d="m262 401 1 1-1-1z" fill="#fbbe66"/>
<path d="m265 401 1 1-1-1z" fill="#f9d099"/>
<path d="m274 401 1 1-1-1z" fill="#fae3c9"/>
<path d="m275 401 1 1-1-1z" fill="#fcb144"/>
<path d="m279 401 1 1-1-1z" fill="#fae3c9"/>
<path d="m284 401 1 1-1-1z" fill="#f8dcbb"/>
<path d="m292 401 1 1-1-1z" fill="#f9d099"/>
<path d="m297 401 1 1-1-1z" fill="#fbc477"/>
<path d="m298 401 1 1-1-1z" fill="#fbead6"/>
<path d="m303 401 1 1-1-1z" fill="#737370"/>
<path d="m238 402 1 1-1-1z" fill="#d9d868"/>
<path d="m246 402 1 1-1-1z" fill="#f9d099"/>
<path d="m253 402 1 1-1-1m9 0 1 1-1-1z" fill="#f9d6aa"/>
<path d="m265 402 1 1-1-1z" fill="#fbc477"/>
<path d="m270 402 1 1-1-1z" fill="#fef8f1"/>
<path d="m271 402 1 1-1-1z" fill="#f8dcbb"/>
<path d="m272 402 1 1-1-1z" fill="#fbc477"/>
<path d="m273 402 1 1-1-1z" fill="#fea522"/>
<path d="m279 402 1 1-1-1z" fill="#fbead6"/>
<path d="m300 402 1 1-1-1z" fill="#f2f1d2"/>
<path d="m303 402 1 1-1-1z" fill="#58587b"/>
<path d="m236 403 1 1-1-1z" fill="#99994e"/>
<path d="m238 403 1 1-1-1z" fill="#d0d045"/>
<path d="m254 403 1 1-1-1z" fill="#fcb144"/>
<path d="m255 403 1 1-1-1z" fill="#fae3c9"/>
<path d="m262 403 1 1-1-1z" fill="#fef8f1"/>
<path d="m266 403 1 1-1-1z" fill="#fcb755"/>
<path d="m267 403 1 1-1-1z" fill="#fbc477"/>
<path d="m268 403 1 1-1-1z" fill="#fcb144"/>
<path d="m269 403 1 1-1-1z" fill="#fea522"/>
<path d="m277 403 1 1-1-1z" fill="#fe9f11"/>
<path d="m278 403 1 1-1-1z" fill="#f9d6aa"/>
<path d="m292 403 1 1-1-1z" fill="#fef8f1"/>
<path d="m300 403 1 1-1-1z" fill="#e0dea1"/>
<path d="m303 403 1 1-1-1z" fill="#3a3a7c"/>
<path d="m236 404 1 1-1-1z" fill="#737370"/>
<path d="m239 404 1 1-1-1z" fill="#fbfaf2"/>
<path d="m247 404 1 1-1-1z" fill="#fea522"/>
<path d="m256 404 1 1-1-1z" fill="#fe9f11"/>
<path d="m257 404 1 1-1-1z" fill="#fcb144"/>
<path d="m258 404 1 1-1-1z" fill="#fbc477"/>
<path d="m259 404 1 1-1-1z" fill="#faca88"/>
<path d="m260 404 1 1-1-1z" fill="#fbc477"/>
<path d="m261 404 1 1-1-1z" fill="#fcb144"/>
<path d="m262 404 1 1-1-1z" fill="#fdab33"/>
<path d="m276 404 1 1-1-1z" fill="#fbc477"/>
<path d="m277 404 1 1-1-1z" fill="#fef8f1"/>
<path d="m291 404 1 1-1-1z" fill="#fdab33"/>
<path d="m300 404 1 1-1-1z" fill="#e1e18c"/>
<path d="m302.33 404.67 0.334 0.666-0.334-0.666z" fill="#a4a43d"/>
<path d="m303 404 1 1-1-1z" fill="#262678"/>
<path d="m236 405 1 1-1-1z" fill="#58587b"/>
<path d="m239 405 1 1-1-1z" fill="#f2f1d2"/>
<path d="m247 405 1 1-1-1z" fill="#faca88"/>
<path d="m274 405 1 1-1-1z" fill="#fe9f11"/>
<path d="m275 405 1 1-1-1z" fill="#fbead6"/>
<path d="m284 405 1 1-1-1z" fill="#fbc477"/>
<path d="m291 405 1 1-1-1z" fill="#faca88"/>
<path d="m300 405 1 1-1-1z" fill="#d4d456"/>
<path d="m236 406 1 1-1-1z" fill="#32327b"/>
<path d="m239 406 1 1-1-1z" fill="#e5e59d"/>
<path d="m247 406 1 1-1-1z" fill="#fef8f1"/>
<path d="m248 406 1 1-1-1z" fill="#fe9f11"/>
<path d="m274 406 1 1-1-1z" fill="#fbead6"/>
<path d="m284 406 1 1-1-1z" fill="#fea522"/>
<path d="m291 406 1 1-1-1z" fill="#fcf1e4"/>
<path d="m302 406 1 1-1-1z" fill="#808067"/>
<path d="m236 407 1 1-1-1z" fill="#0e0e6e"/>
<path d="m237 407 1 1-1-1z" fill="#a4a43d"/>
<path d="m239 407 1 1-1-1z" fill="#d9d868"/>
<path d="m248 407 1 1-1-1z" fill="#f8dcbb"/>
<path d="m283 407 1 1-1-1z" fill="#f9d6aa"/>
<path d="m290 407 1 1-1-1z" fill="#faca88"/>
<path d="m299 407 1 1-1-1z" fill="#f2f1d2"/>
<path d="m302 407 1 1-1-1z" fill="#58587b"/>
<path d="m237 408 1 1-1-1z" fill="#8d8d5b"/>
<path d="m249 408 1 1-1-1z" fill="#f9d6aa"/>
<path d="m269 408 1 1-1-1z" fill="#fdab33"/>
<path d="m270 408 1 1-1-1z" fill="#fff"/>
<path d="m271.67 408.33 0.666 0.334-0.666-0.334z" fill="#fcb144"/>
<path d="m282 408-1 2 1-2z" fill="#fef8f1"/>
<path d="m283 408 1 1-1-1z" fill="#fe9f11"/>
<path d="m289 408-1 2 1-2z" fill="#fdab33"/>
<path d="m299 408 1 1-1-1z" fill="#e5e59d"/>
<path d="m302 408 1 1-1-1z" fill="#3a3a7c"/>
<path d="m237 409 1 1-1-1z" fill="#667"/>
<path d="m240 409 1 1-1-1z" fill="#f2f1d2"/>
<path d="m250 409 1 1-1-1z" fill="#f9d6aa"/>
<path d="m269 409 1 1-1-1z" fill="#fe9f11"/>
<path d="m270 409 1 1-1-1z" fill="#faca88"/>
<path d="m271 409 1 1-1-1z" fill="#fea522"/>
<path d="m272 409 1 1-1-1z" fill="#fcf1e4"/>
<path d="m282 409 1 1-1-1z" fill="#fdab33"/>
<path d="m289 409 1 1-1-1z" fill="#fef8f1"/>
<path d="m299 409 1 1-1-1z" fill="#d9d868"/>
<path d="m301 409 1 1-1-1z" fill="#a4a43d"/>
<path d="m302 409 1 1-1-1z" fill="#0e0e6e"/>
<path d="m237 410 1 1-1-1z" fill="#3a3a7c"/>
<path d="m240 410 1 1-1-1z" fill="#e5e59d"/>
<path d="m251 410 2 2-2-2z" fill="#fae3c9"/>
<path d="m252 410 1 1-1-1z" fill="#fe9f11"/>
<path d="m271 410 1 1-1-1z" fill="#f8dcbb"/>
<path d="m280 410 1 1-1-1z" fill="#fcf1e4"/>
<path d="m281 410 1 1-1-1z" fill="#fdab33"/>
<path d="m287 410 1 1-1-1z" fill="#fcb144"/>
<path d="m288 410 1 1-1-1z" fill="#fef8f1"/>
<path d="m298 410 1 1-1-1z" fill="#fbfaf2"/>
<path d="m301 410 1 1-1-1z" fill="#8d8d5b"/>
<path d="m237 411 1 1-1-1z" fill="#0e0e6e"/>
<path d="m238 411 1 1-1-1z" fill="#a4a43d"/>
<path d="m240 411 1 1-1-1z" fill="#d4d456"/>
<path d="m270 411 1 1-1-1z" fill="#f9d6aa"/>
<path d="m279 411 1 1-1-1z" fill="#f9d099"/>
<path d="m280 411 1 1-1-1z" fill="#fe9f11"/>
<path d="m286 411 1 1-1-1z" fill="#faca88"/>
<path d="m298 411 1 1-1-1z" fill="#eeedc1"/>
<path d="m301 411 1 1-1-1z" fill="#58587b"/>
<path d="m238 412 1 1-1-1z" fill="#737370"/>
<path d="m241 412 1 1-1-1z" fill="#f6f6e4"/>
<path d="m252 412 1 1-1-1z" fill="#fbbe66"/>
<path d="m268 412 1 1-1-1z" fill="#fcb144"/>
<path d="m269.33 412.67 0.334 0.666-0.334-0.666z" fill="#f8dcbb"/>
<path d="m277 412 1 1-1-1z" fill="#fbbe66"/>
<path d="m278 412 1 1-1-1z" fill="#fe9f11"/>
<path d="m284 412 1 1-1-1z" fill="#fbc477"/>
<path d="m285 412 1 1-1-1z" fill="#fcf1e4"/>
<path d="m298 412 1 1-1-1z" fill="#d3d079"/>
<path d="m300 412 1 1-1-1z" fill="#a4a43d"/>
<path d="m301 412 1 1-1-1z" fill="#262678"/>
<path d="m238 413 1 1-1-1z" fill="#49497d"/>
<path d="m241 413 1 1-1-1z" fill="#e0dea1"/>
<path d="m251 413 1 1-1-1z" fill="#fae3c9"/>
<path d="m265 413 1 1-1-1z" fill="#fdab33"/>
<path d="m266 413 1 1-1-1z" fill="#fbc477"/>
<path d="m267 413 1 1-1-1z" fill="#fbead6"/>
<path d="m270 413 1 1-1-1z" fill="#fcb144"/>
<path d="m283 413 1 1-1-1z" fill="#f9d6aa"/>
<path d="m300 413 1 1-1-1z" fill="#99994e"/>
<path d="m238 414 1 1-1-1z" fill="#0e0e6e"/>
<path d="m239 414 1 1-1-1z" fill="#a4a43d"/>
<path d="m241 414 1 1-1-1z" fill="#d4d456"/>
<path d="m250 414 1 1-1-1z" fill="#f9d099"/>
<path d="m251 414 1 1-1-1m5 0 1 1-1-1z" fill="#fe9f11"/>
<path d="m257 414 1 1-1-1z" fill="#f9d6aa"/>
<path d="m258 414 1 1-1-1z" fill="#f9d099"/>
<path d="m262 414 1 1-1-1z" fill="#f9d6aa"/>
<path d="m263 414 1 1-1-1z" fill="#fae3c9"/>
<path d="m264 414 1 1-1-1z" fill="#fef8f1"/>
<path d="m272 414 1 1-1-1z" fill="#fbead6"/>
<path d="m273 414 1 1-1-1z" fill="#fae3c9"/>
<path d="m274 414 1 1-1-1z" fill="#faca88"/>
<path d="m275 414 1 1-1-1z" fill="#fbc477"/>
<path d="m276 414 1 1-1-1z" fill="#fdab33"/>
<path d="m281 414 1 1-1-1z" fill="#fe9f11"/>
<path d="m282 414 1 1-1-1z" fill="#f9d6aa"/>
<path d="m297 414 1 1-1-1z" fill="#e5e3af"/>
<path d="m300 414 1 1-1-1z" fill="#667"/>
<path d="m239 415 1 1-1-1z" fill="#737370"/>
<path d="m242 415 1 1-1-1z" fill="#f2f1d7"/>
<path d="m249 415 1 1-1-1z" fill="#fea522"/>
<path d="m254 415 1 1-1-1z" fill="#fe9f11"/>
<path d="m255 415 1 1-1-1z" fill="#fbbe66"/>
<path d="m256 415 1 1-1-1z" fill="#fcf1e4"/>
<path d="m280 415 1 1-1-1z" fill="#fea522"/>
<path d="m281 415 1 1-1-1z" fill="#fbead6"/>
<path d="m297 415 1 1-1-1z" fill="#dddc7a"/>
<path d="m299 415 1 1-1-1z" fill="#a4a43d"/>
<path d="m300 415 1 1-1-1z" fill="#262678"/>
<path d="m239 416 1 1-1-1z" fill="#49497d"/>
<path d="m240.33 416.67 0.334 0.666-0.334-0.666z" fill="#a4a43d"/>
<path d="m242 416 1 1-1-1z" fill="#d3d079"/>
<path d="m250 416 1 1-1-1z" fill="#f9d099"/>
<path d="m251 416 1 1-1-1z" fill="#fcb144"/>
<path d="m252 416 1 1-1-1z" fill="#faca88"/>
<path d="m253 416 1 1-1-1z" fill="#f8dcbb"/>
<path d="m254 416 1 1-1-1z" fill="#fef8f1"/>
<path d="m276 416 1 1-1-1z" fill="#f8dcbb"/>
<path d="m280 416 1 1-1-1z" fill="#fcf1e4"/>
<path d="m296 416 1 1-1-1z" fill="#f6f6e4"/>
<path d="m299 416 1 1-1-1z" fill="#8d8d5b"/>
<path d="m243 417 1 1-1-1z" fill="#fbfaf2"/>
<path d="m276 417 1 1-1-1z" fill="#fbbe66"/>
<path d="m279 417 1 1-1-1z" fill="#faca88"/>
<path d="m296 417 1 1-1-1z" fill="#e1e18c"/>
<path d="m299 417 1 1-1-1z" fill="#49497d"/>
<path d="m240 418 1 1-1-1z" fill="#58587b"/>
<path d="m243 418 1 1-1-1z" fill="#e5e59d"/>
<path d="m276 418 1 1-1-1z" fill="#fe9f11"/>
<path d="m278 418 1 1-1-1z" fill="#fdab33"/>
<path d="m295 418 1 1-1-1z" fill="#fbfaf2"/>
<path d="m298 418 1 1-1-1z" fill="#a4a43d"/>
<path d="m299 418 1 1-1-1z" fill="#0e0e6e"/>
<path d="m240 419 1 1-1-1z" fill="#1b1b74"/>
<path d="m241 419 1 1-1-1z" fill="#a4a43d"/>
<path d="m243 419 1 1-1-1z" fill="#d0d045"/>
<path d="m275 419 1 1-1-1z" fill="#fbead6"/>
<path d="m277 419 1 1-1-1z" fill="#fe9f11"/>
<path d="m278 419 1 1-1-1z" fill="#fbead6"/>
<path d="m295 419 1 1-1-1z" fill="#e5e59d"/>
<path d="m298 419 1 1-1-1z" fill="#667"/>
<path d="m241 420 1 1-1-1z" fill="#6e6c70"/>
<path d="m244 420 1 1-1-1z" fill="#e5e3af"/>
<path d="m275.33 420.67 0.334 0.666-0.334-0.666z" fill="#faca88"/>
<path d="m277 420 1 1-1-1z" fill="#fae3c9"/>
<path d="m294 420 1 1-1-1z" fill="#fbfaf2"/>
<path d="m297 420 1 1-1-1z" fill="#a4a43d"/>
<path d="m298 420 1 1-1-1m-57 1 1 1-1-1z" fill="#1b1b74"/>
<path d="m242 421 1 1-1-1z" fill="#a4a43d"/>
<path d="m244 421 1 1-1-1z" fill="#d0d045"/>
<path d="m245 421 1 1-1-1z" fill="#fbfaf2"/>
<path d="m276 421 1 1-1-1z" fill="#f9d6aa"/>
<path d="m294 421 1 1-1-1z" fill="#e5e59d"/>
<path d="m297 421 1 1-1-1m-55 1 1 1-1-1z" fill="#6e6c70"/>
<path d="m245 422 1 1-1-1z" fill="#8cbf84"/>
<path d="m245.43 422c3.473 7.309 15.757 24.553 25.14 24.217 9.113-0.326 19.404-17.151 23.43-24.217h-48.57z" fill="#0cf"/>
<path d="m296 422 1 1-1-1z" fill="#a4a43d"/>
<path d="m297 422 1 1-1-1m-55 1 1 1-1-1z" fill="#1b1b74"/>
<path d="m243 423 1 1-1-1z" fill="#a4a43d"/>
<path d="m245 423 1 1-1-1z" fill="#adb333"/>
<path d="m246 423 1 1-1-1z" fill="#1ac5b5"/>
<path d="m293 423 1 1-1-1z" fill="#68b070"/>
<path d="m296 423 1 1-1-1z" fill="#667"/>
<path d="m243 424 1 1-1-1z" fill="#58587b"/>
<path d="m246 424 1 1-1-1z" fill="#7fb15c"/>
<path d="m292 424 1 1-1-1z" fill="#27c2aa"/>
<path d="m295 424-1 2 1-2z" fill="#a4a43d"/>
<path d="m296 424 1 1-1-1m-53 1 1 1-1-1z" fill="#0e0e6e"/>
<path d="m244 425 2 2-2-2z" fill="#a4a43d"/>
<path d="m247 425 1 1-1-1z" fill="#34be9e"/>
<path d="m292 425 1 1-1-1z" fill="#96b247"/>
<path d="m295 425 1 1-1-1z" fill="#53527c"/>
<path d="m244 426 1 1-1-1z" fill="#3a3a7c"/>
<path d="m247 426 1 1-1-1z" fill="#a2b23d"/>
<path d="m248 426 1 1-1-1z" fill="#0dc9c1"/>
<path d="m291 426 1 1-1-1z" fill="#5bb47c"/>
<path d="m294 426 1 1-1-1z" fill="#8d8d5b"/>
<path d="m245 427 1 1-1-1z" fill="#737370"/>
<path d="m248 427 1 1-1-1z" fill="#74b166"/>
<path d="m290 427 1 1-1-1z" fill="#27c2aa"/>
<path d="m293 427-1 2 1-2z" fill="#a4a43d"/>
<path d="m294 427 1 1-1-1z" fill="#262678"/>
<path d="m245 428 1 1-1-1z" fill="#0e0e6e"/>
<path d="m246 428 2 2-2-2z" fill="#a4a43d"/>
<path d="m249 428 1 1-1-1z" fill="#42bb92"/>
<path d="m289 428 1 1-1-1z" fill="#0dc9c1"/>
<path d="m290 428 1 1-1-1z" fill="#96b247"/>
<path d="m293 428 1 1-1-1z" fill="#58587b"/>
<path d="m246 429 1 1-1-1z" fill="#3a3a7c"/>
<path d="m249 429 1 1-1-1z" fill="#adb333"/>
<path d="m250 429 1 1-1-1z" fill="#27c2aa"/>
<path d="m289 429 1 1-1-1z" fill="#74b166"/>
<path d="m292 429 1 1-1-1z" fill="#8d8d5b"/>
<path d="m247 430 1 1-1-1z" fill="#6e6c70"/>
<path d="m250 430 1 1-1-1z" fill="#96b247"/>
<path d="m251 430 1 1-1-1z" fill="#0dc9c1"/>
<path d="m288 430 1 1-1-1z" fill="#42bb92"/>
<path d="m291 430-2 3 2-3z" fill="#a4a43d"/>
<path d="m292 430 1 1-1-1z" fill="#1b1b74"/>
<path d="m247 431 1 1-1-1z" fill="#0e0e6e"/>
<path d="m248 431 1 1-1-1z" fill="#8d8d5b"/>
<path d="m251 431 1 1-1-1z" fill="#7fb15c"/>
<path d="m287 431 1 1-1-1z" fill="#34be9e"/>
<path d="m291 431 1 1-1-1z" fill="#3a3a7c"/>
<path d="m248 432 1 1-1-1z" fill="#1b1b74"/>
<path d="m249 432 11 11-11-11z" fill="#a4a43d"/>
<path d="m252 432 1 1-1-1z" fill="#74b166"/>
<path d="m286 432 1 1-1-1z" fill="#27c2aa"/>
<path d="m287 432 1 1-1-1z" fill="#adb333"/>
<path d="m290 432 1 1-1-1z" fill="#667"/>
<path d="m249 433 1 1-1-1z" fill="#32327b"/>
<path d="m253 433 1 1-1-1z" fill="#42bb92"/>
<path d="m285 433-4 5 4-5z" fill="#0dc9c1"/>
<path d="m286 433 1 1-1-1z" fill="#adb333"/>
<path d="m289 433 1 1-1-1z" fill="#737370"/>
<path d="m250 434 1 1-1-1z" fill="#49497d"/>
<path d="m254 434 1 1-1-1z" fill="#42bb92"/>
<path d="m285 434 1 1-1-1z" fill="#96b247"/>
<path d="m288 434-1 2 1-2z" fill="#8d8d5b"/>
<path d="m289 434 1 1-1-1z" fill="#0e0e6e"/>
<path d="m251 435 1 1-1-1z" fill="#53527c"/>
<path d="m255 435 1 1-1-1z" fill="#42bb92"/>
<path d="m284 435 1 1-1-1z" fill="#96b247"/>
<path d="m288 435 1 1-1-1z" fill="#0e0e6e"/>
<path d="m252 436 1 1-1-1z" fill="#6e6c70"/>
<path d="m256 436 1 1-1-1z" fill="#42bb92"/>
<path d="m283 436 1 1-1-1z" fill="#96b247"/>
<path d="m286 436-2 3 2-3z" fill="#a4a43d"/>
<path d="m287 436 1 1-1-1z" fill="#262678"/>
<path d="m253 437 1 1-1-1z" fill="#6e6c70"/>
<path d="m257 437 1 1-1-1z" fill="#42bb92"/>
<path d="m282 437 1 1-1-1z" fill="#96b247"/>
<path d="m286 437 1 1-1-1z" fill="#262678"/>
<path d="m254 438 1 1-1-1z" fill="#6e6c70"/>
<path d="m258 438 1 1-1-1z" fill="#68b070"/>
<path d="m280 438 1 1-1-1z" fill="#27c2aa"/>
<path d="m281 438 1 1-1-1z" fill="#adb333"/>
<path d="m285 438 1 1-1-1z" fill="#262678"/>
<path d="m255 439 1 1-1-1z" fill="#667"/>
<path d="m259 439 1 1-1-1z" fill="#74b166"/>
<path d="m279 439 1 1-1-1z" fill="#34be9e"/>
<path d="m280 439 1 1-1-1z" fill="#adb333"/>
<path d="m283 439-1 2 1-2z" fill="#8d8d5b"/>
<path d="m284 439 1 1-1-1z" fill="#262678"/>
<path d="m256 440 1 1-1-1z" fill="#49497d"/>
<path d="m260 440 1 1-1-1z" fill="#96b247"/>
<path d="m261 440 1 1-1-1z" fill="#0dc9c1"/>
<path d="m278 440 1 1-1-1z" fill="#42bb92"/>
<path d="m283 440 1 1-1-1z" fill="#0e0e6e"/>
<path d="m257 441 1 1-1-1z" fill="#49497d"/>
<path d="m261 441 1 1-1-1z" fill="#a2b23d"/>
<path d="m262 441 1 1-1-1z" fill="#27c2aa"/>
<path d="m277 441 1 1-1-1z" fill="#74b166"/>
<path d="m280 441-3 4 3-4z" fill="#a4a43d"/>
<path d="m281 441 1 1-1-1z" fill="#808067"/>
<path d="m282 441 1 1-1-1z" fill="#0e0e6e"/>
<path d="m258 442 1 1-1-1z" fill="#262678"/>
<path d="m262 442 1 1-1-1z" fill="#adb333"/>
<path d="m263 442 1 1-1-1z" fill="#42bb92"/>
<path d="m275 442 1 1-1-1z" fill="#0dc9c1"/>
<path d="m276 442 1 1-1-1z" fill="#96b247"/>
<path d="m280 442 1 1-1-1z" fill="#6e6c70"/>
<path d="m259 443 1 1-1-1z" fill="#1b1b74"/>
<path d="m260 443 1 1-1-1z" fill="#8d8d5b"/>
<path d="m264 443 1 1-1-1z" fill="#74b166"/>
<path d="m265 443 1 1-1-1z" fill="#0dc9c1"/>
<path d="m274 443 1 1-1-1z" fill="#34be9e"/>
<path d="m275 443 1 1-1-1z" fill="#adb333"/>
<path d="m279 443 1 1-1-1z" fill="#49497d"/>
<path d="m260 444 1 1-1-1z" fill="#0e0e6e"/>
<path d="m261 444 1 1-1-1z" fill="#6e6c70"/>
<path d="m262 444 2 2-2-2z" fill="#a4a43d"/>
<path d="m265 444 1 1-1-1z" fill="#96b247"/>
<path d="m266 444 1 1-1-1z" fill="#27c2aa"/>
<path d="m273 444 1 1-1-1z" fill="#68b070"/>
<path d="m278 444 1 1-1-1z" fill="#32327b"/>
<path d="m262 445 1 1-1-1z" fill="#49497d"/>
<path d="m267 445 1 1-1-1z" fill="#5bb47c"/>
<path d="m271 445 1 1-1-1z" fill="#27c2aa"/>
<path d="m272 445 1 1-1-1z" fill="#96b247"/>
<path d="m275 445-1 2 1-2z" fill="#a4a43d"/>
<path d="m276 445 1 1-1-1z" fill="#808067"/>
<path d="m277 445 1 1-1-1z" fill="#0e0e6e"/>
<path d="m263 446 1 1-1-1z" fill="#262678"/>
<path d="m264 446 1 1-1-1z" fill="#8d8d5b"/>
<path d="m268 446 1 1-1-1z" fill="#8bb252"/>
<path d="m269 446 1 1-1-1z" fill="#1ac5b5"/>
<path d="m270 446 1 1-1-1z" fill="#5bb47c"/>
<path d="m275 446 1 1-1-1z" fill="#58587b"/>
<path d="m264 447 1 1-1-1z" fill="#0e0e6e"/>
<path d="m265 447 1 1-1-1z" fill="#667"/>
<path d="m266 447 1 1-1-1z" fill="#a4a43d"/>
<path d="m273 447 1 1-1-1z" fill="#99994e"/>
<path d="m274 447 1 1-1-1m-8 1 1 1-1-1z" fill="#32327b"/>
<path d="m267 448 1 1-1-1z" fill="#99994e"/>
<path d="m271 448 1 1-1-1z" fill="#a4a43d"/>
<path d="m272 448 1 1-1-1z" fill="#667"/>
<path d="m273 448 1 1-1-1m-6 1 1 1-1-1z" fill="#0e0e6e"/>
<path d="m268 449 1 1-1-1z" fill="#667"/>
<path d="m269 449 1 1-1-1z" fill="#a4a43d"/>
<path d="m270 449 1 1-1-1z" fill="#99994e"/>
<path d="m271 449 1 1-1-1z" fill="#32327b"/>
<path d="m269 450 1 1-1-1z" fill="#262678"/>
<path d="m270 450 1 1-1-1z" fill="#0e0e6e"/>
<g transform="translate(0,296)">
<path d="m271 87c1.543 3.6293 6.49 7.637 7.85 9.6011-1.731 1.964-2.077 1.7501-1.85 5.3989 3.01-3.1493 3.064-3.4776 5-3 4.241 4.232 0.759 13.321-2.746 15.297-3.504 2.108-2.868-0.073-8.12 2.569 2.408 2.059 5.198-0.302 7.478 0.329 1.239 1.47-0.589 4.149 0.374 6.672 2.015-0.194 1.773-4.262 2.242-5.737 1.472-5.404 10.322-9.173 10.772-14.13 1.866-0.876 3.731-0.274 6 1-1.13-4.644-4.868-4.594-5.87-6.0444-2.385-3.6446-4.499-7.8024-9.593-8.881-3.867-0.8188-3.578 0.2463-6.056-1.444-1.54-1.202-6.23-3.474-5.48-1.631z" fill="#f90"/>
<path transform="translate(15.078 -30.977)" fill="#fff" d="m267.04 122.1c0 0.44513-0.36084 0.80597-0.80597 0.80597-0.44512 0-0.80597-0.36084-0.80597-0.80597 0-0.44512 0.36085-0.80597 0.80597-0.80597 0.44513 0 0.80597 0.36085 0.80597 0.80597z" fill-rule="evenodd"/>
</g>
<g transform="matrix(-.46716 -.88417 .88417 -.46716 308.31 678.65)">
<path d="m271 87c1.543 3.6293 6.49 7.637 7.85 9.6011-1.731 1.964-2.077 1.7501-1.85 5.3989 3.01-3.1493 3.064-3.4776 5-3 4.241 4.232 0.759 13.321-2.746 15.297-3.504 2.108-2.868-0.073-8.12 2.569 2.408 2.059 5.198-0.302 7.478 0.329 1.239 1.47-0.589 4.149 0.374 6.672 2.015-0.194 1.773-4.262 2.242-5.737 1.472-5.404 10.322-9.173 10.772-14.13 1.866-0.876 3.731-0.274 6 1-1.13-4.644-4.868-4.594-5.87-6.0444-2.385-3.6446-4.499-7.8024-9.593-8.881-3.867-0.8188-3.578 0.2463-6.056-1.444-1.54-1.202-6.23-3.474-5.48-1.631z" fill="#f90"/>
<path transform="translate(15.078 -30.977)" fill="#fff" d="m267.04 122.1c0 0.44513-0.36084 0.80597-0.80597 0.80597-0.44512 0-0.80597-0.36084-0.80597-0.80597 0-0.44512 0.36085-0.80597 0.80597-0.80597 0.44513 0 0.80597 0.36085 0.80597 0.80597z" fill-rule="evenodd"/>
</g>
<g transform="matrix(-.51504 .85717 -.85717 -.51504 493 213.06)">
<path d="m271 87c1.543 3.6293 6.49 7.637 7.85 9.6011-1.731 1.964-2.077 1.7501-1.85 5.3989 3.01-3.1493 3.064-3.4776 5-3 4.241 4.232 0.759 13.321-2.746 15.297-3.504 2.108-2.868-0.073-8.12 2.569 2.408 2.059 5.198-0.302 7.478 0.329 1.239 1.47-0.589 4.149 0.374 6.672 2.015-0.194 1.773-4.262 2.242-5.737 1.472-5.404 10.322-9.173 10.772-14.13 1.866-0.876 3.731-0.274 6 1-1.13-4.644-4.868-4.594-5.87-6.0444-2.385-3.6446-4.499-7.8024-9.593-8.881-3.867-0.8188-3.578 0.2463-6.056-1.444-1.54-1.202-6.23-3.474-5.48-1.631z" fill="#f90"/>
<path transform="translate(15.078 -30.977)" fill="#fff" d="m267.04 122.1c0 0.44513-0.36084 0.80597-0.80597 0.80597-0.44512 0-0.80597-0.36084-0.80597-0.80597 0-0.44512 0.36085-0.80597 0.80597-0.80597 0.44513 0 0.80597 0.36085 0.80597 0.80597z" fill-rule="evenodd"/>
</g>
</g>
</g>
</svg>
</g>
</g>
<image y="0" width="1280" xlink:href="fore.png" x="0" height="960"/>
<defs xmlns:inkscape="http://www.inkscape.org/namespaces/inkscape">
<clipPath id="e" clipPathUnits="userSpaceOnUse">
<rect rx="67" ry="67" height="745" width="1065" y="107" x="107"/>
</clipPath>
<linearGradient id="c" y2="271.72" gradientUnits="userSpaceOnUse" x2="334.98" y1="-224.86" x1="10.981">
<stop stop-color="#fff" offset="0"/>
<stop stop-color="#fff" stop-opacity="0" offset="1"/>
</linearGradient>
</defs>
<g xmlns:inkscape="http://www.inkscape.org/namespaces/inkscape" xmlns:rdf="http://www.w3.org/1999/02/22-rdf-syntax-ns#" clip-path="url(#e)" height="745" width="1065" y="107" x="107" xmlns:cc="http://creativecommons.org/ns#" xmlns:sodipodi="http://sodipodi.sourceforge.net/DTD/sodipodi-0.dtd" xmlns:dc="http://purl.org/dc/elements/1.1/">
<g transform="translate(106,75) scale(1.667)" height="960" width="1280" y="75" x="106">
<svg height="480" width="640" version="1" y="0" x="0">
<metadata>
<rdf:RDF>
<cc:Work rdf:about="">
<dc:format>image/svg+xml</dc:format>
<dc:type rdf:resource="http://purl.org/dc/dcmitype/StillImage"/>
<dc:title/>
</cc:Work>
</rdf:RDF>
</metadata>
<rect fill-rule="evenodd" height="480" width="640" y="0" x="0" stroke-width="1pt" fill="url(#c)"/>
</svg>
</g>
</g>
</svg>
