<?xml version="1.0" encoding="UTF-8" standalone="no"?>
<svg xmlns="http://www.w3.org/2000/svg" viewBox="0 0 1280 960" version="1.1" xmlns:xlink="http://www.w3.org/1999/xlink" viewbox="0 0 1280.0px 960.0px">
<defs xmlns:inkscape="http://www.inkscape.org/namespaces/inkscape">
<filter id="c" style="color-interpolation-filters:sRGB" height="1.14" width="1.0979" y="-.069990" x="-.048937">
<feGaussianBlur stdDeviation="21.6452"/>
</filter>
</defs>
<metadata xmlns:rdf="http://www.w3.org/1999/02/22-rdf-syntax-ns#" xmlns:cc="http://creativecommons.org/ns#" xmlns:dc="http://purl.org/dc/elements/1.1/">
<rdf:RDF>
<cc:Work rdf:about="">
<dc:title/>
<dc:format>image/svg+xml</dc:format>
<dc:type rdf:resource="http://purl.org/dc/dcmitype/StillImage"/>
</cc:Work>
</rdf:RDF>
</metadata>
<g xmlns:inkscape="http://www.inkscape.org/namespaces/inkscape" height="745" width="1065" y="107" x="107">
<g opacity=".74438" transform="translate(-36.847 .94915)" filter="url(#c)">
<g height="745" width="1065" y="107" x="107">
<rect opacity=".978" stroke-linejoin="round" ry="68.009" height="742.22" width="1061.5" stroke="#000" y="107.87" x="147.87" stroke-width="2.2345"/>
</g>
</g>
</g>
<defs>
<clipPath id="e" clipPathUnits="userSpaceOnUse">
<rect rx="67" ry="67" height="745" width="1065" y="107" x="107"/>
</clipPath>
</defs>
<image y="0" width="1280" xlink:href="back.png" x="0" height="960"/>
<g y="107" width="1065" height="745" x="107" clip-path="url(#e)">
<g y="75" width="1280" x="106" transform="translate(106,75) scale(1.667)" height="960">
<svg xmlns:rdf="http://www.w3.org/1999/02/22-rdf-syntax-ns#" height="480" width="640" version="1.1" xmlns:cc="http://creativecommons.org/ns#" xmlns:dc="http://purl.org/dc/elements/1.1/">
<metadata>
<rdf:RDF>
<cc:Work rdf:about="">
<dc:format>image/svg+xml</dc:format>
<dc:type rdf:resource="http://purl.org/dc/dcmitype/StillImage"/>
</cc:Work>
</rdf:RDF>
</metadata>
<g stroke-width="1pt" transform="matrix(.86011 0 0 .95321 0 -15.191)" fill-rule="evenodd">
<rect y="15.937" width="744.09" fill="#f00" x="0" height="255.53"/>
<rect y="263.97" width="744.09" x="0" height="255.53"/>
</g>
<g transform="translate(-113.16 4.8627)">
<path stroke-width="1pt" transform="translate(0 279.06)" fill="#ffec00" d="m341.83-135.75c165.22 43.304 58.989 255.64-71.216 167.26-2.939 4.5148-5.877 9.0297-8.817 13.545 76.628 54.658 152.57 10.66 173.9-46.358 22.297-58.788-7.521-141.48-92.511-150.03-0.451 5.192-0.904 10.384-1.355 15.576z" fill-rule="evenodd"/>
<rect fill-rule="evenodd" transform="matrix(.90642 .42239 -.42345 .90592 0 279.06)" height="23.949" width="23.972" y="-77.07" x="276.34" stroke-width="1pt" fill="#ffec00"/>
<rect fill-rule="evenodd" transform="translate(0 279.06)" height="23.942" width="23.979" y="-52.576" x="432.1" stroke-width="1pt" fill="#ffec00"/>
<rect fill-rule="evenodd" transform="matrix(.93193 -.36263 .36360 .93156 0 279.06)" height="23.947" width="23.974" y="67.214" x="424.9" stroke-width="1pt" fill="#ffec00"/>
<rect fill-rule="evenodd" transform="matrix(.71094 -.70325 .70434 .70986 0 279.06)" height="23.961" width="23.961" y="191.67" x="365.04" stroke-width="1pt" fill="#ffec00"/>
<rect fill-rule="evenodd" transform="matrix(.93575 .35267 -.35362 .93539 0 279.06)" height="23.947" width="23.974" y="-280" x="287.71" stroke-width="1pt" fill="#ffec00"/>
<rect fill-rule="evenodd" transform="matrix(.92874 .37073 -.37172 .92835 0 279.06)" height="23.947" width="23.974" y="-172.06" x="393.33" stroke-width="1pt" fill="#ffec00"/>
<rect fill-rule="evenodd" transform="matrix(.92012 -.39163 .39265 .91969 0 279.06)" height="23.948" width="23.973" y="192.4" x="308.48" stroke-width="1pt" fill="#ffec00"/>
<rect fill-rule="evenodd" transform="translate(0 279.06)" height="23.942" width="23.979" y="58.906" x="319.88" stroke-width="1pt" fill="#ffec00"/>
<path stroke-width="1pt" transform="translate(0 279.06)" fill="#ffec00" d="m361.17-57.03-20.351-15.006-20.244 14.469 8.034-22.918-20.347-14.957 24.447-0.171 8.568-22.551 7.782 22.703 24.702-0.2416-19.587 15.232 6.996 23.441z" fill-rule="evenodd"/>
<path stroke-width="1pt" transform="translate(0 279.06)" fill="#fe0" d="m449.19 62.453c-1.211 0.4184-6.229 12.389-9.675 18.248 1.797 0.5092 2.559 0.5965 3.625 1.0254 13.655 4.8007 20.384 9.1807 26.186 17.505 2.888 2.7911 7.032 2.9311 10.198 0.6972 0 0 2.795-1.1156 6.429-5.0223 2.969-4.5195 2.195-8.1095-1.383-11.16-10.944-7.9507-22.9-13.901-35.38-21.294z" fill-rule="evenodd"/>
<path stroke-width="1pt" transform="matrix(2.2895 0 0 2.286 21.377 13.672)" d="m199.62 154.99c0 1.0448-0.847 1.8918-1.8918 1.8918s-1.8918-0.847-1.8918-1.8918 0.847-1.8918 1.8918-1.8918 1.8918 0.847 1.8918 1.8918z" fill-rule="evenodd"/>
<path stroke-width="1pt" transform="scale(2.2895 2.286)" d="m199.62 154.99c0 1.0448-0.847 1.8918-1.8918 1.8918s-1.8918-0.847-1.8918-1.8918 0.847-1.8918 1.8918-1.8918 1.8918 0.847 1.8918 1.8918z" fill-rule="evenodd"/>
<path stroke-width="1pt" transform="matrix(2.2895 0 0 2.286 10.898 6.9754)" d="m199.62 154.99c0 1.0448-0.847 1.8918-1.8918 1.8918s-1.8918-0.847-1.8918-1.8918 0.847-1.8918 1.8918-1.8918 1.8918 0.847 1.8918 1.8918z" fill-rule="evenodd"/>
<path stroke-width="1pt" transform="translate(0 279.06)" fill="#fe0" d="m437.63 79.744c-42.57-24.273-87.31-50.521-129.88-74.796-18.751-11.636-19.683-33.385-7.17-49.876 1.302-2.3363 2.836-1.7579 3.514-0.5234 1.463 8.0284 5.969 16.324 11.37 21.495 44.693 28.383 87.732 55.804 131.71 85.613-3.448 5.7676-6.104 12.322-9.55 18.087z" fill-rule="evenodd"/>
<rect fill-rule="evenodd" transform="matrix(.74495 .66712 -.66826 .74393 0 279.06)" height="23.959" width="23.963" y="-257.7" x="319.65" stroke-width="1pt" fill="#ffec00"/>
<path stroke="#000" stroke-width="2.2878pt" fill="none" d="m444.7 64.898-124.96-75.522" transform="translate(0 279.06)"/>
<path stroke="#000" stroke-width="2.2878pt" fill="none" d="m429.27 47.47-42.24-27.279" transform="translate(0 279.06)"/>
<path stroke="#000" stroke-width="2.2878pt" fill="none" d="m405.24 62.878-42.75-24.756" transform="translate(0 279.06)"/>
</g>
</svg>
</g>
</g>
<image y="0" width="1280" xlink:href="fore.png" x="0" height="960"/>
<defs xmlns:inkscape="http://www.inkscape.org/namespaces/inkscape">
<clipPath id="d" clipPathUnits="userSpaceOnUse">
<rect rx="67" ry="67" height="745" width="1065" y="107" x="107"/>
</clipPath>
<linearGradient id="b" y2="271.72" gradientUnits="userSpaceOnUse" x2="334.98" y1="-224.86" x1="10.981">
<stop stop-color="#fff" offset="0"/>
<stop stop-color="#fff" stop-opacity="0" offset="1"/>
</linearGradient>
</defs>
<g xmlns:inkscape="http://www.inkscape.org/namespaces/inkscape" xmlns:rdf="http://www.w3.org/1999/02/22-rdf-syntax-ns#" clip-path="url(#d)" height="745" width="1065" y="107" x="107" xmlns:cc="http://creativecommons.org/ns#" xmlns:sodipodi="http://sodipodi.sourceforge.net/DTD/sodipodi-0.dtd" xmlns:dc="http://purl.org/dc/elements/1.1/">
<g transform="translate(106,75) scale(1.667)" height="960" width="1280" y="75" x="106">
<svg height="480" width="640" version="1" y="0" x="0">
<metadata>
<rdf:RDF>
<cc:Work rdf:about="">
<dc:format>image/svg+xml</dc:format>
<dc:type rdf:resource="http://purl.org/dc/dcmitype/StillImage"/>
<dc:title/>
</cc:Work>
</rdf:RDF>
</metadata>
<rect fill-rule="evenodd" height="480" width="640" y="0" x="0" stroke-width="1pt" fill="url(#b)"/>
</svg>
</g>
</g>
</svg>
