<?xml version="1.0" encoding="UTF-8" standalone="no"?>
<svg xmlns="http://www.w3.org/2000/svg" viewBox="0 0 1280 960" version="1.1" xmlns:xlink="http://www.w3.org/1999/xlink" viewbox="0 0 1280.0px 960.0px">
<defs xmlns:inkscape="http://www.inkscape.org/namespaces/inkscape">
<filter id="c" style="color-interpolation-filters:sRGB" height="1.14" width="1.0979" y="-.069990" x="-.048937">
<feGaussianBlur stdDeviation="21.6452"/>
</filter>
</defs>
<metadata xmlns:rdf="http://www.w3.org/1999/02/22-rdf-syntax-ns#" xmlns:cc="http://creativecommons.org/ns#" xmlns:dc="http://purl.org/dc/elements/1.1/">
<rdf:RDF>
<cc:Work rdf:about="">
<dc:title/>
<dc:format>image/svg+xml</dc:format>
<dc:type rdf:resource="http://purl.org/dc/dcmitype/StillImage"/>
</cc:Work>
</rdf:RDF>
</metadata>
<g xmlns:inkscape="http://www.inkscape.org/namespaces/inkscape" height="745" width="1065" y="107" x="107">
<g opacity=".74438" transform="translate(-36.847 .94915)" filter="url(#c)">
<g height="745" width="1065" y="107" x="107">
<rect opacity=".978" stroke-linejoin="round" ry="68.009" height="742.22" width="1061.5" stroke="#000" y="107.87" x="147.87" stroke-width="2.2345"/>
</g>
</g>
</g>
<defs>
<clipPath id="e" clipPathUnits="userSpaceOnUse">
<rect rx="67" ry="67" height="745" width="1065" y="107" x="107"/>
</clipPath>
</defs>
<image y="0" width="1280" xlink:href="back.png" x="0" height="960"/>
<g y="107" width="1065" height="745" x="107" clip-path="url(#e)">
<g y="75" width="1280" x="106" transform="translate(106,75) scale(1.667)" height="960">
<svg xmlns:rdf="http://www.w3.org/1999/02/22-rdf-syntax-ns#" height="480" width="640" version="1" y="0" x="0" xmlns:cc="http://creativecommons.org/ns#" xmlns:dc="http://purl.org/dc/elements/1.1/">
<metadata>
<rdf:RDF>
<cc:Work rdf:about="">
<dc:format>image/svg+xml</dc:format>
<dc:type rdf:resource="http://purl.org/dc/dcmitype/StillImage"/>
</cc:Work>
</rdf:RDF>
</metadata>
<g stroke-width="1pt">
<rect y="0" width="640" fill="#006" x="0" height="480"/>
<g transform="scale(5.7614 8.3333)">
<path d="m0 0v3.3541l53.292 26.646h6.708v-3.354l-53.292-26.646h-6.708zm60 0v3.354l-53.292 26.646h-6.708v-3.354l53.292-26.646h6.708z" fill="#fff"/>
<path d="m25 0v30h10v-30h-10zm-25 10v10h60v-10h-60z" fill="#fff"/>
<path d="m0 12v6h60v-6h-60zm27-12v30h6v-30h-6z" fill="#c00"/>
<path d="m0 30 20-10h4.472l-20 10h-4.472zm0-30 20 10h-4.472l-15.528-7.7639v-2.2361zm35.528 10 20-10h4.472l-20 10h-4.472zm24.472 20-20-10h4.472l15.528 7.764v2.236z" fill="#c00"/>
</g>
<g fill="#fff" transform="matrix(1.0075 0 0 1.0075 1.3538 -37.74)" fill-rule="evenodd">
<polygon points="38.774 47.003 33.127 47.494 33.905 53.109 30 49 26.095 53.109 26.873 47.494 21.226 47.003 26.1 44.11 22.964 39.389 28.264 41.396 30 36 30 36 31.736 41.396 37.036 39.389 33.9 44.11" transform="matrix(7.6727 0 0 7.6727 -1.3148 66.42)"/>
<g transform="matrix(6.9999 0 0 6.9999 -135.43 119.74)">
<polygon points="88.143 49.576 86.649 47.328 89.174 48.284 90 45.714 90 45.714 90.826 48.284 93.351 47.328 91.857 49.576 94.178 50.954 91.489 51.188 91.86 53.861 90 51.905 88.14 53.861 88.511 51.188 85.822 50.954"/>
<polygon points="88.143 9.5762 86.649 7.3279 89.174 8.2839 90 5.7143 90 5.7143 90.826 8.2839 93.351 7.3279 91.857 9.5762 94.178 10.954 91.489 11.188 91.86 13.861 90 11.905 88.14 13.861 88.511 11.188 85.822 10.954"/>
<polygon points="73.143 25.826 71.649 23.578 74.174 24.534 75 21.964 75 21.964 75.826 24.534 78.351 23.578 76.857 25.826 79.178 27.204 76.489 27.438 76.86 30.111 75 28.155 73.14 30.111 73.511 27.438 70.822 27.204"/>
<polygon points="101.48 21.826 99.983 19.578 102.51 20.534 103.33 17.964 103.33 17.964 104.16 20.534 106.68 19.578 105.19 21.826 107.51 23.204 104.82 23.438 105.19 26.111 103.33 24.155 101.47 26.111 101.84 23.438 99.155 23.204"/>
<polygon points="96 33.611 94.53 34.522 94.943 32.843 93.622 31.728 95.347 31.601 96 30 96 30 96.653 31.601 98.378 31.728 97.057 32.843 97.47 34.522"/>
</g>
</g>
</g>
</svg>
</g>
</g>
<image y="0" width="1280" xlink:href="fore.png" x="0" height="960"/>
<defs xmlns:inkscape="http://www.inkscape.org/namespaces/inkscape">
<clipPath id="d" clipPathUnits="userSpaceOnUse">
<rect rx="67" ry="67" height="745" width="1065" y="107" x="107"/>
</clipPath>
<linearGradient id="b" y2="271.72" gradientUnits="userSpaceOnUse" x2="334.98" y1="-224.86" x1="10.981">
<stop stop-color="#fff" offset="0"/>
<stop stop-color="#fff" stop-opacity="0" offset="1"/>
</linearGradient>
</defs>
<g xmlns:inkscape="http://www.inkscape.org/namespaces/inkscape" xmlns:rdf="http://www.w3.org/1999/02/22-rdf-syntax-ns#" clip-path="url(#d)" height="745" width="1065" y="107" x="107" xmlns:cc="http://creativecommons.org/ns#" xmlns:sodipodi="http://sodipodi.sourceforge.net/DTD/sodipodi-0.dtd" xmlns:dc="http://purl.org/dc/elements/1.1/">
<g transform="translate(106,75) scale(1.667)" height="960" width="1280" y="75" x="106">
<svg height="480" width="640" version="1" y="0" x="0">
<metadata>
<rdf:RDF>
<cc:Work rdf:about="">
<dc:format>image/svg+xml</dc:format>
<dc:type rdf:resource="http://purl.org/dc/dcmitype/StillImage"/>
<dc:title/>
</cc:Work>
</rdf:RDF>
</metadata>
<rect fill-rule="evenodd" height="480" width="640" y="0" x="0" stroke-width="1pt" fill="url(#b)"/>
</svg>
</g>
</g>
</svg>
