<?xml version="1.0" encoding="UTF-8" standalone="no"?>
<svg xmlns="http://www.w3.org/2000/svg" viewBox="0 0 1280 960" version="1.1" xmlns:xlink="http://www.w3.org/1999/xlink" viewbox="0 0 1280.0px 960.0px">
<defs xmlns:inkscape="http://www.inkscape.org/namespaces/inkscape">
<filter id="c" style="color-interpolation-filters:sRGB" height="1.14" width="1.0979" y="-.069990" x="-.048937">
<feGaussianBlur stdDeviation="21.6452"/>
</filter>
</defs>
<metadata xmlns:rdf="http://www.w3.org/1999/02/22-rdf-syntax-ns#" xmlns:cc="http://creativecommons.org/ns#" xmlns:dc="http://purl.org/dc/elements/1.1/">
<rdf:RDF>
<cc:Work rdf:about="">
<dc:title/>
<dc:format>image/svg+xml</dc:format>
<dc:type rdf:resource="http://purl.org/dc/dcmitype/StillImage"/>
</cc:Work>
</rdf:RDF>
</metadata>
<g xmlns:inkscape="http://www.inkscape.org/namespaces/inkscape" height="745" width="1065" y="107" x="107">
<g opacity=".74438" transform="translate(-36.847 .94915)" filter="url(#c)">
<g height="745" width="1065" y="107" x="107">
<rect opacity=".978" stroke-linejoin="round" ry="68.009" height="742.22" width="1061.5" stroke="#000" y="107.87" x="147.87" stroke-width="2.2345"/>
</g>
</g>
</g>
<defs>
<clipPath id="e" clipPathUnits="userSpaceOnUse">
<rect rx="67" ry="67" height="745" width="1065" y="107" x="107"/>
</clipPath>
</defs>
<image y="0" width="1280" xlink:href="back.png" x="0" height="960"/>
<g y="107" width="1065" height="745" x="107" clip-path="url(#e)">
<g y="75" width="1280" x="106" transform="translate(106,75) scale(1.667)" height="960">
<svg xmlns:rdf="http://www.w3.org/1999/02/22-rdf-syntax-ns#" height="480" width="640" version="1.1" xmlns:cc="http://creativecommons.org/ns#" xmlns:dc="http://purl.org/dc/elements/1.1/">
<metadata>
<rdf:RDF>
<cc:Work rdf:about="">
<dc:format>image/svg+xml</dc:format>
<dc:type rdf:resource="http://purl.org/dc/dcmitype/StillImage"/>
</cc:Work>
</rdf:RDF>
</metadata>
<g fill-rule="evenodd">
<g stroke-width="1pt" transform="matrix(1.25 0 0 .9375 0 .000014084)">
<rect clip-path="none" height="512" width="170.67" y="-.000014655" x="0" fill="#00009d"/>
<rect clip-path="none" height="512" width="170.67" y="-.000014655" x="341.33" fill="#00009d"/>
<rect clip-path="none" height="512" width="170.67" y="-.000014655" x="170.67" fill="#ffd400"/>
</g>
<g transform="matrix(1.4589 0 0 1.4589 -222.87 -145.15)">
<path d="m372.32 365.16c7.962 0.556 3.563-0.361 11.525 0.195l0.555-47.217h30.553c-0.181-56.391 21.723-103.92 47.86-144.21 1.571-2.021 0.544-2.89-1.199-2.443-19.726 3.081-40.02 13.437-53.922 27.813-1.622 1.991 0.233 2.301 1.15 2.183 7.613-2.282 6.113 6.244 5.561 9.665-7.803 24.929-14.613 49.084-17.113 77.769-0.003 1.995-0.317 3.446-1.263 3.542-3.518 0.185-6.959 0.135-10.516 0.125-1.297 0.012-1.58-1.421-1.666-2.777 0.185-28.886-0.072-57.771 0.113-86.657 0.089-1.906 6.991-9.644 8.114-9.674 3.535-0.091 5.025-0.004 8.978-0.071 1.03-0.008 1.251-3.18 0.073-3.334-2.407 0-6.873-0.22-9.28-0.22-1.14 0.044-17.29-12.273-17.327-14.804-0.185-3.888-0.076-7.703-0.261-11.591 0.212-0.957-4.509-1.177-4.444 0.073v10.809c-0.809 5.15 2.324 175.08 2.509 190.82z"/>
<path d="m371.9 365.16c-7.962 0.556-3.563-0.361-11.525 0.195l-0.555-47.217h-30.553c0.181-56.391-21.723-103.92-47.86-144.21-1.571-2.021-0.544-2.89 1.199-2.443 19.726 3.081 40.02 13.437 53.922 27.813 1.622 1.991-0.233 2.301-1.15 2.183-7.613-2.282-6.113 6.244-5.561 9.665 7.803 24.929 14.613 49.084 17.113 77.769 0.003 1.995 0.317 3.446 1.263 3.542 3.518 0.185 6.959 0.135 10.516 0.125 1.297 0.012 1.58-1.421 1.666-2.777-0.185-28.886 0.072-57.771-0.113-86.657-0.089-1.906-6.991-9.644-8.114-9.674-3.535-0.091-5.025-0.004-8.978-0.071-1.03-0.008-1.251-3.18-0.073-3.334 2.407 0 6.873-0.22 9.28-0.22 1.14 0.044 17.29-12.273 17.327-14.804 0.185-3.888 0.076-7.703 0.261-11.591-0.212-0.957 4.509-1.177 4.444 0.073v10.809c0.809 5.15-2.324 175.08-2.509 190.82z"/>
</g>
</g>
</svg>
</g>
</g>
<image y="0" width="1280" xlink:href="fore.png" x="0" height="960"/>
<defs xmlns:inkscape="http://www.inkscape.org/namespaces/inkscape">
<clipPath id="d" clipPathUnits="userSpaceOnUse">
<rect rx="67" ry="67" height="745" width="1065" y="107" x="107"/>
</clipPath>
<linearGradient id="b" y2="271.72" gradientUnits="userSpaceOnUse" x2="334.98" y1="-224.86" x1="10.981">
<stop stop-color="#fff" offset="0"/>
<stop stop-color="#fff" stop-opacity="0" offset="1"/>
</linearGradient>
</defs>
<g xmlns:inkscape="http://www.inkscape.org/namespaces/inkscape" xmlns:rdf="http://www.w3.org/1999/02/22-rdf-syntax-ns#" clip-path="url(#d)" height="745" width="1065" y="107" x="107" xmlns:cc="http://creativecommons.org/ns#" xmlns:sodipodi="http://sodipodi.sourceforge.net/DTD/sodipodi-0.dtd" xmlns:dc="http://purl.org/dc/elements/1.1/">
<g transform="translate(106,75) scale(1.667)" height="960" width="1280" y="75" x="106">
<svg height="480" width="640" version="1" y="0" x="0">
<metadata>
<rdf:RDF>
<cc:Work rdf:about="">
<dc:format>image/svg+xml</dc:format>
<dc:type rdf:resource="http://purl.org/dc/dcmitype/StillImage"/>
<dc:title/>
</cc:Work>
</rdf:RDF>
</metadata>
<rect fill-rule="evenodd" height="480" width="640" y="0" x="0" stroke-width="1pt" fill="url(#b)"/>
</svg>
</g>
</g>
</svg>
