<?xml version="1.0" encoding="UTF-8" standalone="no"?>
<svg xmlns="http://www.w3.org/2000/svg" viewBox="0 0 1280 960" version="1.1" xmlns:xlink="http://www.w3.org/1999/xlink" viewbox="0 0 1280.0px 960.0px">
<defs xmlns:inkscape="http://www.inkscape.org/namespaces/inkscape">
<filter id="d" style="color-interpolation-filters:sRGB" height="1.14" width="1.0979" y="-.069990" x="-.048937">
<feGaussianBlur stdDeviation="21.6452"/>
</filter>
</defs>
<metadata xmlns:rdf="http://www.w3.org/1999/02/22-rdf-syntax-ns#" xmlns:cc="http://creativecommons.org/ns#" xmlns:dc="http://purl.org/dc/elements/1.1/">
<rdf:RDF>
<cc:Work rdf:about="">
<dc:title/>
<dc:format>image/svg+xml</dc:format>
<dc:type rdf:resource="http://purl.org/dc/dcmitype/StillImage"/>
</cc:Work>
</rdf:RDF>
</metadata>
<g xmlns:inkscape="http://www.inkscape.org/namespaces/inkscape" height="745" width="1065" y="107" x="107">
<g opacity=".74438" transform="translate(-36.847 .94915)" filter="url(#d)">
<g height="745" width="1065" y="107" x="107">
<rect opacity=".978" stroke-linejoin="round" ry="68.009" height="742.22" width="1061.5" stroke="#000" y="107.87" x="147.87" stroke-width="2.2345"/>
</g>
</g>
</g>
<defs>
<clipPath id="g" clipPathUnits="userSpaceOnUse">
<rect rx="67" ry="67" height="745" width="1065" y="107" x="107"/>
</clipPath>
</defs>
<image y="0" width="1280" xlink:href="back.png" x="0" height="960"/>
<g y="107" width="1065" height="745" x="107" clip-path="url(#g)">
<g y="75" width="1280" x="106" transform="translate(106,75) scale(1.667)" height="960">
<svg xmlns:rdf="http://www.w3.org/1999/02/22-rdf-syntax-ns#" height="480" width="640" version="1.1" xmlns:cc="http://creativecommons.org/ns#" xmlns:dc="http://purl.org/dc/elements/1.1/">
<metadata>
<rdf:RDF>
<cc:Work rdf:about="">
<dc:format>image/svg+xml</dc:format>
<dc:type rdf:resource="http://purl.org/dc/dcmitype/StillImage"/>
</cc:Work>
</rdf:RDF>
</metadata>
<defs>
<clipPath id="f" clipPathUnits="userSpaceOnUse">
<rect y=".0000011252" width="682.6" height="512" x="5.67e-8" fill-opacity=".67"/>
</clipPath>
</defs>
<g fill-rule="evenodd" transform="matrix(.93759 0 0 .93750 -5.3161e-8 -.0000010549)" clip-path="url(#f)">
<rect height="340.11" width="1024" y=".0001683" x=".001" stroke-width="1pt" fill="#b20000"/>
<rect height="171.89" width="1024" y="340.11" x=".001" stroke-width="1pt" fill="#429f00"/>
<rect height="512" width="113.37" y="-2.0117e-7" x=".001" stroke-width="1.0004pt" fill="#fff"/>
<g stroke-width="1pt" transform="matrix(.30472 0 0 .24491 145.76 147.53)" fill="#b20000">
<rect y="-106.3" width="3.5433" x="-201.97" transform="matrix(5 0 0 5 549.21 -35.433)" height="7.0866"/>
<rect y="-106.3" width="10.63" x="-191.34" transform="matrix(5 0 0 5 549.21 -35.433)" height="7.0866"/>
<rect y="-113.39" width="3.5433" x="-187.8" transform="matrix(5 0 0 5 549.21 -35.433)" height="7.0866"/>
<rect y="-113.39" width="3.5433" x="-170.08" transform="matrix(5 0 0 5 549.21 -35.433)" height="7.0866"/>
<rect y="-106.3" width="10.63" x="-155.91" transform="matrix(5 0 0 5 549.21 -35.433)" height="7.0866"/>
<rect y="-113.39" width="3.5433" x="-152.36" transform="matrix(5 0 0 5 549.21 -35.433)" height="7.0866"/>
<rect y="-99.213" width="7.0866" x="-194.88" transform="matrix(5 0 0 5 549.21 -35.433)" height="7.0866"/>
<rect y="-99.213" width="7.0866" x="-184.25" transform="matrix(5 0 0 5 549.21 -35.433)" height="7.0866"/>
<rect y="-99.213" width="7.0866" x="-159.45" transform="matrix(5 0 0 5 549.21 -35.433)" height="7.0866"/>
<rect y="-99.213" width="7.0866" x="-148.82" transform="matrix(5 0 0 5 549.21 -35.433)" height="7.0866"/>
<rect y="-92.126" width="7.0866" x="-198.43" transform="matrix(5 0 0 5 549.21 -35.433)" height="7.0866"/>
<rect y="-92.126" width="7.0866" x="-180.71" transform="matrix(5 0 0 5 549.21 -35.433)" height="7.0866"/>
<rect y="-92.126" width="7.0866" x="-162.99" transform="matrix(5 0 0 5 549.21 -35.433)" height="7.0866"/>
<rect y="-92.126" width="7.0866" x="-145.28" transform="matrix(5 0 0 5 549.21 -35.433)" height="7.0866"/>
<rect y="-106.3" width="3.5433" x="-138.19" transform="matrix(5 0 0 5 549.21 -35.433)" height="7.0866"/>
<rect y="-85.039" width="7.0866" x="-201.97" transform="matrix(5 0 0 5 549.21 -35.433)" height="7.0866"/>
<rect y="-85.039" width="7.0866" x="-177.17" transform="matrix(5 0 0 5 549.21 -35.433)" height="7.0866"/>
<rect y="-85.039" width="7.0866" x="-141.73" transform="matrix(5 0 0 5 549.21 -35.433)" height="7.0866"/>
<rect y="-63.78" width="7.0866" x="-198.43" transform="matrix(5 0 0 5 549.21 -35.433)" height="7.0866"/>
<rect y="-56.693" width="7.0866" x="-194.88" transform="matrix(5 0 0 5 549.21 -35.433)" height="7.0866"/>
<rect y="-63.78" width="7.0866" x="-180.71" transform="matrix(5 0 0 5 549.21 -35.433)" height="7.0866"/>
<rect y="-56.693" width="7.0866" x="-184.25" transform="matrix(5 0 0 5 549.21 -35.433)" height="7.0866"/>
<rect y="-49.606" width="10.63" x="-191.34" transform="matrix(5 0 0 5 549.21 -35.433)" height="7.0866"/>
<rect y="-42.52" width="3.5433" x="-187.8" transform="matrix(5 0 0 5 549.21 -35.433)" height="7.0866"/>
<rect y="-63.779" width="7.0866" x="-162.99" transform="matrix(5 0 0 5 549.21 -35.433)" height="7.0866"/>
<rect y="-56.693" width="7.0866" x="-159.45" transform="matrix(5 0 0 5 549.21 -35.433)" height="7.0866"/>
<rect y="-63.78" width="7.0866" x="-145.28" transform="matrix(5 0 0 5 549.21 -35.433)" height="7.0866"/>
<rect y="-56.693" width="7.0866" x="-148.82" transform="matrix(5 0 0 5 549.21 -35.433)" height="7.0866"/>
<rect y="-49.606" width="10.63" x="-155.91" transform="matrix(5 0 0 5 549.21 -35.433)" height="7.0866"/>
<rect y="-42.52" width="3.5433" x="-152.36" transform="matrix(5 0 0 5 549.21 -35.433)" height="7.0866"/>
<rect y="-49.606" width="3.5433" x="-170.08" transform="matrix(5 0 0 5 549.21 -35.433)" height="7.0866"/>
<rect y="-49.606" width="3.5433" x="-205.51" transform="matrix(5 0 0 5 549.21 -35.433)" height="7.0866"/>
<rect y="-49.606" width="3.5433" x="-134.65" transform="matrix(5 0 0 5 549.21 -35.433)" height="7.0866"/>
<rect y="-14.173" width="3.5433" x="-187.8" transform="matrix(5 0 0 5 549.21 -35.433)" height="7.0866"/>
<rect y="-7.0866" width="10.63" x="-191.34" transform="matrix(5 0 0 5 549.21 -35.433)" height="7.0866"/>
<rect y=".000068" width="17.717" x="-194.88" transform="matrix(5 0 0 5 549.21 -35.433)" height="7.0866"/>
<rect y="-14.173" width="3.5433" x="-152.36" transform="matrix(5 0 0 5 549.21 -35.433)" height="7.0866"/>
<rect y="-7.0866" width="10.63" x="-155.91" transform="matrix(5 0 0 5 549.21 -35.433)" height="7.0866"/>
<rect y=".000068" width="17.717" x="-159.45" transform="matrix(5 0 0 5 549.21 -35.433)" height="7.0866"/>
<rect y="35.433" width="17.717" x="-155.91" transform="matrix(5 0 0 5 549.21 -35.433)" height="7.0866"/>
<rect y="7.0866" width="24.803" x="-162.99" transform="matrix(5 0 0 5 549.21 -35.433)" height="7.0866"/>
<rect y="7.0866" width="24.803" x="-198.43" transform="matrix(5 0 0 5 549.21 -35.433)" height="7.0866"/>
<rect y="42.52" width="10.63" x="-194.88" transform="matrix(5 0 0 5 549.21 -35.433)" height="7.0866"/>
<rect y="35.433" width="17.717" x="-198.43" transform="matrix(5 0 0 5 549.21 -35.433)" height="7.0866"/>
<rect y="21.26" width="17.717" x="-148.82" transform="matrix(5 0 0 5 549.21 -35.433)" height="7.0866"/>
<rect y="42.52" width="10.63" x="-152.36" transform="matrix(5 0 0 5 549.21 -35.433)" height="7.0866"/>
<rect y="49.606" width="3.5433" x="-191.34" transform="matrix(5 0 0 5 549.21 -35.433)" height="7.0866"/>
<rect y="49.606" width="3.5433" x="-148.82" transform="matrix(5 0 0 5 549.21 -35.433)" height="7.0866"/>
<rect y="21.26" width="17.717" x="-205.51" transform="matrix(5 0 0 5 549.21 -35.433)" height="7.0866"/>
<rect y="35.433" width="10.63" x="-173.62" transform="matrix(5 0 0 5 549.21 -35.433)" height="7.0866"/>
<rect y="42.52" width="3.5433" x="-170.08" transform="matrix(5 0 0 5 549.21 -35.433)" height="7.0866"/>
<rect y="21.26" width="24.803" x="-180.71" transform="matrix(5 0 0 5 549.21 -35.433)" height="7.0866"/>
<rect y="-85.039" width="7.0866" x="-166.54" transform="matrix(5 0 0 5 549.21 -35.433)" height="7.0866"/>
<rect y="-77.953" width="10.63" x="-173.62" transform="matrix(5 0 0 5 549.21 -35.433)" height="7.0866"/>
<rect y="-70.866" width="7.0866" x="-177.17" transform="matrix(5 0 0 5 549.21 -35.433)" height="7.0866"/>
<rect y="-70.866" width="7.0866" x="-166.54" transform="matrix(5 0 0 5 549.21 -35.433)" height="7.0866"/>
<rect y="-77.953" width="7.0866" x="-205.51" transform="matrix(5 0 0 5 549.21 -35.433)" height="7.0866"/>
<rect y="-70.866" width="7.0866" x="-201.97" transform="matrix(5 0 0 5 549.21 -35.433)" height="7.0866"/>
<rect y="-77.953" width="7.0866" x="-138.19" transform="matrix(5 0 0 5 549.21 -35.433)" height="7.0866"/>
<rect y="-70.866" width="7.0866" x="-141.73" transform="matrix(5 0 0 5 549.21 -35.433)" height="7.0866"/>
<rect y="-7.0866" width="3.5433" x="-205.51" transform="matrix(5 0 0 5 549.21 -35.433)" height="7.0866"/>
<rect y="-7.0866" width="3.5433" x="-134.65" transform="matrix(5 0 0 5 549.21 -35.433)" height="7.0866"/>
<rect y="49.606" width="10.63" x="-173.62" transform="matrix(5 0 0 5 549.21 -35.433)" height="7.0866"/>
<rect y="56.693" width="7.0866" x="-177.17" transform="matrix(5 0 0 5 549.21 -35.433)" height="7.0866"/>
<rect y="56.693" width="7.0866" x="-166.54" transform="matrix(5 0 0 5 549.21 -35.433)" height="7.0866"/>
<rect y="63.78" width="7.0866" x="-180.71" transform="matrix(5 0 0 5 549.21 -35.433)" height="7.0866"/>
<rect y="63.78" width="7.0866" x="-162.99" transform="matrix(5 0 0 5 549.21 -35.433)" height="7.0866"/>
<rect y="70.866" width="7.0866" x="-184.25" transform="matrix(5 0 0 5 549.21 -35.433)" height="7.0866"/>
<rect y="70.866" width="7.0866" x="-159.45" transform="matrix(5 0 0 5 549.21 -35.433)" height="7.0866"/>
<rect y="77.953" width="7.0866" x="-187.8" transform="matrix(5 0 0 5 549.21 -35.433)" height="7.0866"/>
<rect y="77.953" width="7.0866" x="-155.91" transform="matrix(5 0 0 5 549.21 -35.433)" height="7.0866"/>
<rect y="85.039" width="10.63" x="-194.88" transform="matrix(5 0 0 5 549.21 -35.433)" height="7.0866"/>
<rect y="85.039" width="10.63" x="-152.36" transform="matrix(5 0 0 5 549.21 -35.433)" height="7.0866"/>
<rect y="77.953" width="7.0866" x="-145.28" transform="matrix(5 0 0 5 549.21 -35.433)" height="7.0866"/>
<rect y="70.866" width="7.0866" x="-141.73" transform="matrix(5 0 0 5 549.21 -35.433)" height="7.0866"/>
<rect y="63.78" width="7.0866" x="-138.19" transform="matrix(5 0 0 5 549.21 -35.433)" height="7.0866"/>
<rect y="77.953" width="7.0866" x="-198.43" transform="matrix(5 0 0 5 549.21 -35.433)" height="7.0866"/>
<rect y="70.866" width="7.0866" x="-201.97" transform="matrix(5 0 0 5 549.21 -35.433)" height="7.0866"/>
<rect y="63.78" width="7.0866" x="-205.51" transform="matrix(5 0 0 5 549.21 -35.433)" height="7.0866"/>
<rect y="92.126" width="3.5433" x="-191.34" transform="matrix(5 0 0 5 549.21 -35.433)" height="7.0866"/>
<rect y="92.126" width="3.5433" x="-148.82" transform="matrix(5 0 0 5 549.21 -35.433)" height="7.0866"/>
<rect y="70.866" width="3.5433" x="-170.08" transform="matrix(5 0 0 5 549.21 -35.433)" height="7.0866"/>
<rect y="92.126" width="3.5433" x="-180.71" transform="matrix(5 0 0 5 549.21 -35.433)" height="7.0866"/>
<rect y="92.126" width="3.5433" x="-159.45" transform="matrix(5 0 0 5 549.21 -35.433)" height="7.0866"/>
<rect y="92.126" width="3.5433" x="-170.08" transform="matrix(5 0 0 5 549.21 -35.433)" height="7.0866"/>
<rect y="92.126" width="3.5433" x="-205.51" transform="matrix(5 0 0 5 549.21 -35.433)" height="7.0866"/>
<rect y="92.126" width="3.5433" x="-134.65" transform="matrix(5 0 0 5 549.21 -35.433)" height="7.0866"/>
<rect y="-7.0866" width="3.5433" x="-170.08" transform="matrix(5 0 0 5 549.21 -35.433)" height="7.0866"/>
<rect y="-77.953" width="3.5433" x="-187.8" transform="matrix(5 0 0 5 549.21 -35.433)" height="7.0866"/>
<rect y="-77.953" width="3.5433" x="-152.36" transform="matrix(5 0 0 5 549.21 -35.433)" height="7.0866"/>
<rect y="-28.346" width="10.63" x="-173.62" transform="matrix(5 0 0 5 549.21 -35.433)" height="7.0866"/>
<rect y="-21.26" width="10.63" x="-180.71" transform="matrix(5 0 0 5 549.21 -35.433)" height="7.0866"/>
<rect y="-14.173" width="3.5433" x="-177.17" transform="matrix(5 0 0 5 549.21 -35.433)" height="7.0866"/>
<rect y="-28.346" width="7.0866" x="-184.25" transform="matrix(5 0 0 5 549.21 -35.433)" height="7.0866"/>
<rect y="-35.433" width="10.63" x="-180.71" transform="matrix(5 0 0 5 549.21 -35.433)" height="7.0866"/>
<rect y="-42.52" width="3.5433" x="-177.17" transform="matrix(5 0 0 5 549.21 -35.433)" height="7.0866"/>
<rect y="-35.433" width="10.63" x="-166.54" transform="matrix(5 0 0 5 549.21 -35.433)" height="7.0866"/>
<rect y="-42.52" width="3.5433" x="-162.99" transform="matrix(5 0 0 5 549.21 -35.433)" height="7.0866"/>
<rect y="-28.346" width="7.0866" x="-159.45" transform="matrix(5 0 0 5 549.21 -35.433)" height="7.0866"/>
<rect y="-21.26" width="10.63" x="-166.54" transform="matrix(5 0 0 5 549.21 -35.433)" height="7.0866"/>
<rect y="-14.173" width="3.5433" x="-162.99" transform="matrix(5 0 0 5 549.21 -35.433)" height="7.0866"/>
<rect y="-28.346" width="7.0866" x="-148.82" transform="matrix(5 0 0 5 549.21 -35.433)" height="7.0866"/>
<rect y="-35.433" width="10.63" x="-145.28" transform="matrix(5 0 0 5 549.21 -35.433)" height="7.0866"/>
<rect y="-28.346" width="7.0866" x="-138.19" transform="matrix(5 0 0 5 549.21 -35.433)" height="7.0866"/>
<rect y="-21.26" width="10.63" x="-145.28" transform="matrix(5 0 0 5 549.21 -35.433)" height="7.0866"/>
<rect y="-14.173" width="3.5433" x="-141.73" transform="matrix(5 0 0 5 549.21 -35.433)" height="7.0866"/>
<rect y="-42.52" width="3.5433" x="-141.73" transform="matrix(5 0 0 5 549.21 -35.433)" height="7.0866"/>
<rect y="-28.346" width="7.0866" x="-205.51" transform="matrix(5 0 0 5 549.21 -35.433)" height="7.0866"/>
<rect y="-35.433" width="10.63" x="-201.97" transform="matrix(5 0 0 5 549.21 -35.433)" height="7.0866"/>
<rect y="-28.346" width="7.0866" x="-194.88" transform="matrix(5 0 0 5 549.21 -35.433)" height="7.0866"/>
<rect y="-21.26" width="10.63" x="-201.97" transform="matrix(5 0 0 5 549.21 -35.433)" height="7.0866"/>
<rect y="-14.173" width="3.5433" x="-198.43" transform="matrix(5 0 0 5 549.21 -35.433)" height="7.0866"/>
<rect y="-42.52" width="3.5433" x="-198.43" transform="matrix(5 0 0 5 549.21 -35.433)" height="7.0866"/>
<rect y="14.173" width="14.173" x="-201.97" transform="matrix(5 0 0 5 549.21 -35.433)" height="7.0866"/>
<rect y="14.173" width="14.173" x="-184.25" transform="matrix(5 0 0 5 549.21 -35.433)" height="7.0866"/>
<rect y="14.173" width="14.173" x="-166.54" transform="matrix(5 0 0 5 549.21 -35.433)" height="7.0866"/>
<rect y="14.173" width="14.173" x="-148.82" transform="matrix(5 0 0 5 549.21 -35.433)" height="7.0866"/>
<rect y="28.346" width="17.717" x="-177.17" transform="matrix(5 0 0 5 549.21 -35.433)" height="7.0866"/>
<rect y="28.346" width="17.717" x="-201.97" transform="matrix(5 0 0 5 549.21 -35.433)" height="7.0866"/>
<rect y="28.346" width="17.717" x="-152.36" transform="matrix(5 0 0 5 549.21 -35.433)" height="7.0866"/>
<rect y="56.693" width="3.5433" x="-134.65" transform="matrix(5 0 0 5 549.21 -35.433)" height="7.0866"/>
<rect y="56.693" width="3.5433" x="-205.51" transform="matrix(5 0 0 5 549.21 -35.433)" height="7.0866"/>
<rect y="-297.64" width="3.5433" x="-201.97" transform="matrix(5 0 0 -5 549.21 -35.433)" height="7.0866"/>
<rect y="-297.64" width="10.63" x="-191.34" transform="matrix(5 0 0 -5 549.21 -35.433)" height="7.0866"/>
<rect y="-304.72" width="3.5433" x="-187.8" transform="matrix(5 0 0 -5 549.21 -35.433)" height="7.0866"/>
<rect y="-304.72" width="3.5433" x="-170.08" transform="matrix(5 0 0 -5 549.21 -35.433)" height="7.0866"/>
<rect y="-297.64" width="10.63" x="-155.91" transform="matrix(5 0 0 -5 549.21 -35.433)" height="7.0866"/>
<rect y="-304.72" width="3.5433" x="-152.36" transform="matrix(5 0 0 -5 549.21 -35.433)" height="7.0866"/>
<rect y="-290.55" width="7.0866" x="-194.88" transform="matrix(5 0 0 -5 549.21 -35.433)" height="7.0866"/>
<rect y="-290.55" width="7.0866" x="-184.25" transform="matrix(5 0 0 -5 549.21 -35.433)" height="7.0866"/>
<rect y="-290.55" width="7.0866" x="-159.45" transform="matrix(5 0 0 -5 549.21 -35.433)" height="7.0866"/>
<rect y="-290.55" width="7.0866" x="-148.82" transform="matrix(5 0 0 -5 549.21 -35.433)" height="7.0866"/>
<rect y="-283.46" width="7.0866" x="-180.71" transform="matrix(5 0 0 -5 549.21 -35.433)" height="7.0866"/>
<rect y="-283.46" width="7.0866" x="-162.99" transform="matrix(5 0 0 -5 549.21 -35.433)" height="7.0866"/>
<rect y="-283.46" width="7.0866" x="-145.28" transform="matrix(5 0 0 -5 549.21 -35.433)" height="7.0866"/>
<rect y="-297.64" width="3.5433" x="-138.19" transform="matrix(5 0 0 -5 549.21 -35.433)" height="7.0866"/>
<rect y="-276.38" width="7.0866" x="-201.97" transform="matrix(5 0 0 -5 549.21 -35.433)" height="7.0866"/>
<rect y="-276.38" width="7.0866" x="-177.17" transform="matrix(5 0 0 -5 549.21 -35.433)" height="7.0866"/>
<rect y="-276.38" width="7.0866" x="-141.73" transform="matrix(5 0 0 -5 549.21 -35.433)" height="7.0866"/>
<rect y="-255.12" width="7.0866" x="-198.43" transform="matrix(5 0 0 -5 549.21 -35.433)" height="7.0866"/>
<rect y="-248.03" width="7.0866" x="-194.88" transform="matrix(5 0 0 -5 549.21 -35.433)" height="7.0866"/>
<rect y="-255.12" width="7.0866" x="-180.71" transform="matrix(5 0 0 -5 549.21 -35.433)" height="7.0866"/>
<rect y="-248.03" width="7.0866" x="-184.25" transform="matrix(5 0 0 -5 549.21 -35.433)" height="7.0866"/>
<rect y="-240.94" width="10.63" x="-191.34" transform="matrix(5 0 0 -5 549.21 -35.433)" height="7.0866"/>
<rect y="-233.86" width="3.5433" x="-187.8" transform="matrix(5 0 0 -5 549.21 -35.433)" height="7.0866"/>
<rect y="-255.12" width="7.0866" x="-162.99" transform="matrix(5 0 0 -5 549.21 -35.433)" height="7.0866"/>
<rect y="-248.03" width="7.0866" x="-159.45" transform="matrix(5 0 0 -5 549.21 -35.433)" height="7.0866"/>
<rect y="-255.12" width="7.0866" x="-145.28" transform="matrix(5 0 0 -5 549.21 -35.433)" height="7.0866"/>
<rect y="-248.03" width="7.0866" x="-148.82" transform="matrix(5 0 0 -5 549.21 -35.433)" height="7.0866"/>
<rect y="-240.94" width="10.63" x="-155.91" transform="matrix(5 0 0 -5 549.21 -35.433)" height="7.0866"/>
<rect y="-233.86" width="3.5433" x="-152.36" transform="matrix(5 0 0 -5 549.21 -35.433)" height="7.0866"/>
<rect y="-240.94" width="3.5433" x="-170.08" transform="matrix(5 0 0 -5 549.21 -35.433)" height="7.0866"/>
<rect y="-240.94" width="3.5433" x="-205.51" transform="matrix(5 0 0 -5 549.21 -35.433)" height="7.0866"/>
<rect y="-240.94" width="3.5433" x="-134.65" transform="matrix(5 0 0 -5 549.21 -35.433)" height="7.0866"/>
<rect y="-205.51" width="3.5433" x="-187.8" transform="matrix(5 0 0 -5 549.21 -35.433)" height="7.0866"/>
<rect y="-198.43" width="10.63" x="-191.34" transform="matrix(5 0 0 -5 549.21 -35.433)" height="7.0866"/>
<rect y="-191.34" width="17.717" x="-194.88" transform="matrix(5 0 0 -5 549.21 -35.433)" height="7.0866"/>
<rect y="-205.51" width="3.5433" x="-152.36" transform="matrix(5 0 0 -5 549.21 -35.433)" height="7.0866"/>
<rect y="-198.43" width="10.63" x="-155.91" transform="matrix(5 0 0 -5 549.21 -35.433)" height="7.0866"/>
<rect y="-191.34" width="17.717" x="-159.45" transform="matrix(5 0 0 -5 549.21 -35.433)" height="7.0866"/>
<rect y="-155.91" width="17.717" x="-155.91" transform="matrix(5 0 0 -5 549.21 -35.433)" height="7.0866"/>
<rect y="-184.25" width="24.803" x="-162.99" transform="matrix(5 0 0 -5 549.21 -35.433)" height="7.0866"/>
<rect y="-184.25" width="24.803" x="-198.43" transform="matrix(5 0 0 -5 549.21 -35.433)" height="7.0866"/>
<rect y="-148.82" width="10.63" x="-194.88" transform="matrix(5 0 0 -5 549.21 -35.433)" height="7.0905"/>
<rect y="-155.91" width="17.717" x="-198.43" transform="matrix(5 0 0 -5 549.21 -35.433)" height="7.0866"/>
<rect y="-170.08" width="17.717" x="-148.82" transform="matrix(5 0 0 -5 549.21 -35.433)" height="7.0866"/>
<rect y="-148.82" width="10.63" x="-152.36" transform="matrix(5 0 0 -5 549.21 -35.433)" height="7.0866"/>
<rect y="-170.08" width="17.717" x="-205.51" transform="matrix(5 0 0 -5 549.21 -35.433)" height="7.0866"/>
<rect y="-155.91" width="10.63" x="-173.62" transform="matrix(5 0 0 -5 549.21 -35.433)" height="7.0866"/>
<rect y="-148.82" width="3.5433" x="-170.08" transform="matrix(5 0 0 -5 549.21 -35.433)" height="7.0866"/>
<rect y="-170.08" width="24.803" x="-180.71" transform="matrix(5 0 0 -5 549.21 -35.433)" height="7.0866"/>
<rect y="-276.38" width="7.0866" x="-166.54" transform="matrix(5 0 0 -5 549.21 -35.433)" height="7.0866"/>
<rect y="-269.29" width="10.63" x="-173.62" transform="matrix(5 0 0 -5 549.21 -35.433)" height="7.0866"/>
<rect y="-262.2" width="7.0866" x="-177.17" transform="matrix(5 0 0 -5 549.21 -35.433)" height="7.0866"/>
<rect y="-262.2" width="7.0866" x="-166.54" transform="matrix(5 0 0 -5 549.21 -35.433)" height="7.0866"/>
<rect y="-269.29" width="7.0866" x="-205.51" transform="matrix(5 0 0 -5 549.21 -35.433)" height="7.0866"/>
<rect y="-262.2" width="7.0866" x="-201.97" transform="matrix(5 0 0 -5 549.21 -35.433)" height="7.0866"/>
<rect y="-269.29" width="7.0866" x="-138.19" transform="matrix(5 0 0 -5 549.21 -35.433)" height="7.0866"/>
<rect y="-262.2" width="7.0866" x="-141.73" transform="matrix(5 0 0 -5 549.21 -35.433)" height="7.0866"/>
<rect y="-198.43" width="3.5433" x="-205.51" transform="matrix(5 0 0 -5 549.21 -35.433)" height="7.0866"/>
<rect y="-198.43" width="3.5433" x="-134.65" transform="matrix(5 0 0 -5 549.21 -35.433)" height="7.0866"/>
<rect y="-134.65" width="7.0866" x="-177.17" transform="matrix(5 0 0 -5 549.21 -35.433)" height="7.0866"/>
<rect y="-134.65" width="7.0866" x="-166.54" transform="matrix(5 0 0 -5 549.21 -35.433)" height="7.0866"/>
<rect y="-127.56" width="7.0866" x="-180.71" transform="matrix(5 0 0 -5 549.21 -35.433)" height="7.0866"/>
<rect y="-127.56" width="7.0866" x="-162.99" transform="matrix(5 0 0 -5 549.21 -35.433)" height="7.0866"/>
<rect y="-120.47" width="7.0866" x="-184.25" transform="matrix(5 0 0 -5 549.21 -35.433)" height="7.0866"/>
<rect y="-120.47" width="7.0866" x="-159.45" transform="matrix(5 0 0 -5 549.21 -35.433)" height="7.0866"/>
<rect y="-113.39" width="7.0866" x="-187.8" transform="matrix(5 0 0 -5 549.21 -35.433)" height="7.0866"/>
<rect y="-113.39" width="7.0866" x="-155.91" transform="matrix(5 0 0 -5 549.21 -35.433)" height="7.0866"/>
<rect y="-106.3" width="10.63" x="-194.88" transform="matrix(5 0 0 -5 549.21 -35.433)" height="7.0866"/>
<rect y="-106.3" width="10.63" x="-152.36" transform="matrix(5 0 0 -5 549.21 -35.433)" height="7.0866"/>
<rect y="-113.39" width="7.0866" x="-145.28" transform="matrix(5 0 0 -5 549.21 -35.433)" height="7.0866"/>
<rect y="-120.47" width="7.0866" x="-141.73" transform="matrix(5 0 0 -5 549.21 -35.433)" height="7.0866"/>
<rect y="-127.56" width="7.0866" x="-138.19" transform="matrix(5 0 0 -5 549.21 -35.433)" height="7.0866"/>
<rect y="-113.39" width="7.0866" x="-198.43" transform="matrix(5 0 0 -5 549.21 -35.433)" height="7.0866"/>
<rect y="-120.47" width="7.0866" x="-201.97" transform="matrix(5 0 0 -5 549.21 -35.433)" height="7.0866"/>
<rect y="-127.56" width="7.0866" x="-205.51" transform="matrix(5 0 0 -5 549.21 -35.433)" height="7.0866"/>
<rect y="-99.213" width="3.5433" x="-191.34" transform="matrix(5 0 0 -5 549.21 -35.433)" height="7.0866"/>
<rect y="-120.47" width="3.5433" x="-170.08" transform="matrix(5 0 0 -5 549.21 -35.433)" height="7.0866"/>
<rect y="-198.43" width="3.5433" x="-170.08" transform="matrix(5 0 0 -5 549.21 -35.433)" height="7.0866"/>
<rect y="-269.29" width="3.5433" x="-187.8" transform="matrix(5 0 0 -5 549.21 -35.433)" height="7.0866"/>
<rect y="-269.29" width="3.5433" x="-152.36" transform="matrix(5 0 0 -5 549.21 -35.433)" height="7.0866"/>
<rect y="-219.69" width="10.63" x="-173.62" transform="matrix(5 0 0 -5 549.21 -35.433)" height="7.0866"/>
<rect y="-212.6" width="10.63" x="-180.71" transform="matrix(5 0 0 -5 549.21 -35.433)" height="7.0866"/>
<rect y="-205.51" width="3.5433" x="-177.17" transform="matrix(5 0 0 -5 549.21 -35.433)" height="7.0866"/>
<rect y="-219.69" width="7.0866" x="-184.25" transform="matrix(5 0 0 -5 549.21 -35.433)" height="7.0866"/>
<rect y="-226.77" width="10.63" x="-180.71" transform="matrix(5 0 0 -5 549.21 -35.433)" height="7.0866"/>
<rect y="-233.86" width="3.5433" x="-177.17" transform="matrix(5 0 0 -5 549.21 -35.433)" height="7.0866"/>
<rect y="-226.77" width="10.63" x="-166.54" transform="matrix(5 0 0 -5 549.21 -35.433)" height="7.0866"/>
<rect y="-233.86" width="3.5433" x="-162.99" transform="matrix(5 0 0 -5 549.21 -35.433)" height="7.0866"/>
<rect y="-219.69" width="7.0866" x="-159.45" transform="matrix(5 0 0 -5 549.21 -35.433)" height="7.0866"/>
<rect y="-212.6" width="10.63" x="-166.54" transform="matrix(5 0 0 -5 549.21 -35.433)" height="7.0866"/>
<rect y="-205.51" width="3.5433" x="-162.99" transform="matrix(5 0 0 -5 549.21 -35.433)" height="7.0866"/>
<rect y="-219.69" width="7.0866" x="-148.82" transform="matrix(5 0 0 -5 549.21 -35.433)" height="7.0866"/>
<rect y="-226.77" width="10.63" x="-145.28" transform="matrix(5 0 0 -5 549.21 -35.433)" height="7.0866"/>
<rect y="-219.69" width="7.0866" x="-138.19" transform="matrix(5 0 0 -5 549.21 -35.433)" height="7.0866"/>
<rect y="-212.6" width="10.63" x="-145.28" transform="matrix(5 0 0 -5 549.21 -35.433)" height="7.0866"/>
<rect y="-205.51" width="3.5433" x="-141.73" transform="matrix(5 0 0 -5 549.21 -35.433)" height="7.0866"/>
<rect y="-233.86" width="3.5433" x="-141.73" transform="matrix(5 0 0 -5 549.21 -35.433)" height="7.0866"/>
<rect y="-219.69" width="7.0866" x="-205.51" transform="matrix(5 0 0 -5 549.21 -35.433)" height="7.0866"/>
<rect y="-226.77" width="10.63" x="-201.97" transform="matrix(5 0 0 -5 549.21 -35.433)" height="7.0866"/>
<rect y="-219.69" width="7.0866" x="-194.88" transform="matrix(5 0 0 -5 549.21 -35.433)" height="7.0866"/>
<rect y="-212.6" width="10.63" x="-201.97" transform="matrix(5 0 0 -5 549.21 -35.433)" height="7.0866"/>
<rect y="-205.51" width="3.5433" x="-198.43" transform="matrix(5 0 0 -5 549.21 -35.433)" height="7.0866"/>
<rect y="-233.86" width="3.5433" x="-198.43" transform="matrix(5 0 0 -5 549.21 -35.433)" height="7.0866"/>
<rect y="-177.17" width="14.173" x="-201.97" transform="matrix(5 0 0 -5 549.21 -35.433)" height="7.0866"/>
<rect y="-177.17" width="14.173" x="-184.25" transform="matrix(5 0 0 -5 549.21 -35.433)" height="7.0866"/>
<rect y="-177.17" width="14.173" x="-166.54" transform="matrix(5 0 0 -5 549.21 -35.433)" height="7.0866"/>
<rect y="-177.17" width="14.173" x="-148.82" transform="matrix(5 0 0 -5 549.21 -35.433)" height="7.0866"/>
<rect y="-162.99" width="17.717" x="-177.17" transform="matrix(5 0 0 -5 549.21 -35.433)" height="7.0866"/>
<rect y="-162.99" width="17.717" x="-201.97" transform="matrix(5 0 0 -5 549.21 -35.433)" height="7.0866"/>
<rect y="-162.99" width="17.717" x="-152.36" transform="matrix(5 0 0 -5 549.21 -35.433)" height="7.0866"/>
<rect y="-134.65" width="3.5433" x="-134.65" transform="matrix(5 0 0 -5 549.21 -35.433)" height="7.0866"/>
<rect y="-134.65" width="3.5433" x="-205.51" transform="matrix(5 0 0 -5 549.21 -35.433)" height="7.0866"/>
<rect y="99.213" width="3.5433" x="-173.62" transform="matrix(5 0 0 5 549.21 -35.433)" height="7.0866"/>
<rect y="99.213" width="3.5433" x="-166.54" transform="matrix(5 0 0 5 549.21 -35.433)" height="7.0866"/>
<rect y="85.039" width="3.5433" x="-166.54" transform="matrix(5 0 0 5 549.21 -35.433)" height="7.0866"/>
<rect y="85.039" width="3.5433" x="-173.62" transform="matrix(5 0 0 5 549.21 -35.433)" height="7.0866"/>
<rect y="276.38" width="7.0866" x="-198.43" transform="matrix(5 0 0 5 549.21 -35.433)" height="7.0866"/>
<rect y="-141.73" width="3.5433" x="-148.82" transform="matrix(5 0 0 -5 549.21 -35.433)" height="7.0866"/>
<rect y="-141.73" width="3.5433" x="-191.34" transform="matrix(5 0 0 -5 549.21 -35.433)" height="7.0866"/>
<rect y="637.8" width="53.149" x="-318.9" height="35.433"/>
</g>
</g>
</svg>
</g>
</g>
<image y="0" width="1280" xlink:href="fore.png" x="0" height="960"/>
<defs xmlns:inkscape="http://www.inkscape.org/namespaces/inkscape">
<clipPath id="e" clipPathUnits="userSpaceOnUse">
<rect rx="67" ry="67" height="745" width="1065" y="107" x="107"/>
</clipPath>
<linearGradient id="c" y2="271.72" gradientUnits="userSpaceOnUse" x2="334.98" y1="-224.86" x1="10.981">
<stop stop-color="#fff" offset="0"/>
<stop stop-color="#fff" stop-opacity="0" offset="1"/>
</linearGradient>
</defs>
<g xmlns:inkscape="http://www.inkscape.org/namespaces/inkscape" xmlns:rdf="http://www.w3.org/1999/02/22-rdf-syntax-ns#" clip-path="url(#e)" height="745" width="1065" y="107" x="107" xmlns:cc="http://creativecommons.org/ns#" xmlns:sodipodi="http://sodipodi.sourceforge.net/DTD/sodipodi-0.dtd" xmlns:dc="http://purl.org/dc/elements/1.1/">
<g transform="translate(106,75) scale(1.667)" height="960" width="1280" y="75" x="106">
<svg height="480" width="640" version="1" y="0" x="0">
<metadata>
<rdf:RDF>
<cc:Work rdf:about="">
<dc:format>image/svg+xml</dc:format>
<dc:type rdf:resource="http://purl.org/dc/dcmitype/StillImage"/>
<dc:title/>
</cc:Work>
</rdf:RDF>
</metadata>
<rect fill-rule="evenodd" height="480" width="640" y="0" x="0" stroke-width="1pt" fill="url(#c)"/>
</svg>
</g>
</g>
</svg>
