<?xml version="1.0" encoding="UTF-8" standalone="no"?>
<svg xmlns="http://www.w3.org/2000/svg" viewBox="0 0 1280 960" version="1.1" xmlns:xlink="http://www.w3.org/1999/xlink" viewbox="0 0 1280.0px 960.0px">
<defs xmlns:inkscape="http://www.inkscape.org/namespaces/inkscape">
<filter id="d" style="color-interpolation-filters:sRGB" height="1.14" width="1.0979" y="-.069990" x="-.048937">
<feGaussianBlur stdDeviation="21.6452"/>
</filter>
</defs>
<metadata xmlns:rdf="http://www.w3.org/1999/02/22-rdf-syntax-ns#" xmlns:cc="http://creativecommons.org/ns#" xmlns:dc="http://purl.org/dc/elements/1.1/">
<rdf:RDF>
<cc:Work rdf:about="">
<dc:title/>
<dc:format>image/svg+xml</dc:format>
<dc:type rdf:resource="http://purl.org/dc/dcmitype/StillImage"/>
</cc:Work>
</rdf:RDF>
</metadata>
<g xmlns:inkscape="http://www.inkscape.org/namespaces/inkscape" height="745" width="1065" y="107" x="107">
<g opacity=".74438" transform="translate(-36.847 .94915)" filter="url(#d)">
<g height="745" width="1065" y="107" x="107">
<rect opacity=".978" stroke-linejoin="round" ry="68.009" height="742.22" width="1061.5" stroke="#000" y="107.87" x="147.87" stroke-width="2.2345"/>
</g>
</g>
</g>
<defs>
<clipPath id="g" clipPathUnits="userSpaceOnUse">
<rect rx="67" ry="67" height="745" width="1065" y="107" x="107"/>
</clipPath>
</defs>
<image y="0" width="1280" xlink:href="back.png" x="0" height="960"/>
<g y="107" width="1065" height="745" x="107" clip-path="url(#g)">
<g y="75" width="1280" x="106" transform="translate(106,75) scale(1.667)" height="960">
<svg xmlns:rdf="http://www.w3.org/1999/02/22-rdf-syntax-ns#" fill-opacity=".14118" height="480" width="640" version="1.1" xmlns:cc="http://creativecommons.org/ns#" fill="#28ff09" xmlns:dc="http://purl.org/dc/elements/1.1/">
<metadata>
<rdf:RDF>
<cc:Work rdf:about="">
<dc:format>image/svg+xml</dc:format>
<dc:type rdf:resource="http://purl.org/dc/dcmitype/StillImage"/>
</cc:Work>
</rdf:RDF>
</metadata>
<defs>
<clipPath id="f" clipPathUnits="userSpaceOnUse">
<rect fill-opacity=".67" height="512" width="682.67" y="-.0000041" x="-79.06" fill="#000"/>
</clipPath>
</defs>
<g fill-opacity="1" transform="matrix(.9375 0 0 .9375 74.118 .0000038438)" clip-path="url(#f)">
<g transform="matrix(.70757 0 0 1 79.779 -.0000041)">
<rect y="0" width="512" fill="#fff" x="1.919" height="512"/>
<rect y="0" width="256" fill="#bf0a30" x="-254.08" height="512"/>
<rect y="0" width="256" fill="#bf0a30" x="513.92" height="512"/>
</g>
<path d="m135.31 247.41-14.067 4.8081 65.456 57.446c4.9517 14.764-1.7184 19.116-5.9683 26.859l71.06-9.0192-1.8508 71.512 14.718-0.42336-3.2096-70.918 71.13 8.4323c-4.4022-9.2965-8.3199-14.233-4.2474-29.098l65.413-54.425-11.447-4.1437c-9.359-7.2222 4.0438-34.784 6.0657-52.178 0 0-38.195 13.135-40.698 6.2622l-9.7261-18.685-34.748 38.172c-3.7965 0.90916-5.4138-0.60195-6.3042-3.809l16.053-79.766-25.419 14.297c-2.1281 0.90992-4.2561 0.12489-5.6586-2.3552l-24.45-49.06-25.21 50.95c-1.9008 1.8257-3.8028 2.0373-5.3813 0.79578l-24.204-13.578 14.529 79.143c-1.1552 3.1421-3.9239 4.0263-7.1797 2.3254l-33.216-37.737c-4.3448 6.9615-7.2896 18.336-13.033 20.885-5.7435 2.3866-24.98-4.8231-37.873-7.6378 4.4047 15.895 18.176 42.302 9.4614 50.957z" fill="#bf0a30"/>
</g>
</svg>
</g>
</g>
<image y="0" width="1280" xlink:href="fore.png" x="0" height="960"/>
<defs xmlns:inkscape="http://www.inkscape.org/namespaces/inkscape">
<clipPath id="e" clipPathUnits="userSpaceOnUse">
<rect rx="67" ry="67" height="745" width="1065" y="107" x="107"/>
</clipPath>
<linearGradient id="c" y2="271.72" gradientUnits="userSpaceOnUse" x2="334.98" y1="-224.86" x1="10.981">
<stop stop-color="#fff" offset="0"/>
<stop stop-color="#fff" stop-opacity="0" offset="1"/>
</linearGradient>
</defs>
<g xmlns:inkscape="http://www.inkscape.org/namespaces/inkscape" xmlns:rdf="http://www.w3.org/1999/02/22-rdf-syntax-ns#" clip-path="url(#e)" height="745" width="1065" y="107" x="107" xmlns:cc="http://creativecommons.org/ns#" xmlns:sodipodi="http://sodipodi.sourceforge.net/DTD/sodipodi-0.dtd" xmlns:dc="http://purl.org/dc/elements/1.1/">
<g transform="translate(106,75) scale(1.667)" height="960" width="1280" y="75" x="106">
<svg height="480" width="640" version="1" y="0" x="0">
<metadata>
<rdf:RDF>
<cc:Work rdf:about="">
<dc:format>image/svg+xml</dc:format>
<dc:type rdf:resource="http://purl.org/dc/dcmitype/StillImage"/>
<dc:title/>
</cc:Work>
</rdf:RDF>
</metadata>
<rect fill-rule="evenodd" height="480" width="640" y="0" x="0" stroke-width="1pt" fill="url(#c)"/>
</svg>
</g>
</g>
</svg>
