<?xml version="1.0" encoding="UTF-8" standalone="no"?>
<svg xmlns="http://www.w3.org/2000/svg" viewBox="0 0 1280 960" version="1.1" xmlns:xlink="http://www.w3.org/1999/xlink" viewbox="0 0 1280.0px 960.0px">
<defs xmlns:inkscape="http://www.inkscape.org/namespaces/inkscape">
<filter id="d" style="color-interpolation-filters:sRGB" height="1.14" width="1.0979" y="-.069990" x="-.048937">
<feGaussianBlur stdDeviation="21.6452"/>
</filter>
</defs>
<metadata xmlns:rdf="http://www.w3.org/1999/02/22-rdf-syntax-ns#" xmlns:cc="http://creativecommons.org/ns#" xmlns:dc="http://purl.org/dc/elements/1.1/">
<rdf:RDF>
<cc:Work rdf:about="">
<dc:title/>
<dc:format>image/svg+xml</dc:format>
<dc:type rdf:resource="http://purl.org/dc/dcmitype/StillImage"/>
</cc:Work>
</rdf:RDF>
</metadata>
<g xmlns:inkscape="http://www.inkscape.org/namespaces/inkscape" height="745" width="1065" y="107" x="107">
<g opacity=".74438" transform="translate(-36.847 .94915)" filter="url(#d)">
<g height="745" width="1065" y="107" x="107">
<rect opacity=".978" stroke-linejoin="round" ry="68.009" height="742.22" width="1061.5" stroke="#000" y="107.87" x="147.87" stroke-width="2.2345"/>
</g>
</g>
</g>
<defs>
<clipPath id="g" clipPathUnits="userSpaceOnUse">
<rect rx="67" ry="67" height="745" width="1065" y="107" x="107"/>
</clipPath>
</defs>
<image y="0" width="1280" xlink:href="back.png" x="0" height="960"/>
<g y="107" width="1065" height="745" x="107" clip-path="url(#g)">
<g y="75" width="1280" x="106" transform="translate(106,75) scale(1.667)" height="960">
<svg xmlns:rdf="http://www.w3.org/1999/02/22-rdf-syntax-ns#" height="480" width="640" version="1" y="0" x="0" xmlns:cc="http://creativecommons.org/ns#" xmlns:dc="http://purl.org/dc/elements/1.1/">
<metadata>
<rdf:RDF>
<cc:Work rdf:about="">
<dc:format>image/svg+xml</dc:format>
<dc:type rdf:resource="http://purl.org/dc/dcmitype/StillImage"/>
</cc:Work>
</rdf:RDF>
</metadata>
<defs>
<clipPath id="f" clipPathUnits="userSpaceOnUse">
<rect y=".000014384" width="682.67" height="512" x="-61.312" fill-opacity=".67"/>
</clipPath>
</defs>
<g stroke-width="1pt" clip-path="url(#f)" transform="matrix(.9375 0 0 .9375 57.48 -.000013485)" fill-rule="evenodd">
<rect y="3.4988" width="1037.9" fill="#ffc621" x="-237.99" height="498"/>
<rect y="342.5" width="1039.3" fill="#ef2118" x="-240" height="169.5"/>
<rect y=".00001351" width="1038" fill="#298c08" x="-237.99" height="180"/>
<ellipse d="m 733.8736,352.9678 c 0,110.26463 -89.38716,199.65177 -199.6518,199.65177 -110.26464,0 -199.65179,-89.38714 -199.65179,-199.65177 0,-110.26462 89.38715,-199.65176 199.65179,-199.65176 110.26464,0 199.6518,89.38714 199.6518,199.65176 z" rx="199.65" ry="199.65" transform="matrix(.53920 0 0 .53920 -25.807 73.951)" cy="352.97" cx="534.22" fill="#006bc6"/>
<path d="m214.25 188.2-6.4322 4.5218 23.494 33.021 6.2666-3.996-23.329-33.546zm29.41 77.942-9.6609-6.7363 3.9923-12.676-48.122 0.67185-13.929-10.664 65.691-0.70797 12.183-36.908 6.5443 14.924-16.699 52.098zm76.522-70.679-6.2542-4.7649-24.378 32.374 5.7032 4.766 24.929-32.375zm-65.412 51.587 3.5027-11.245 13.29-0.0243-15.182-45.67 5.9577-16.5 20.524 62.407 38.864 0.46047-12.248 10.748-54.709-0.17578zm90.672 51.165 2.6146-7.4151-38.295-13.262-2.785 6.8905 38.465 13.786zm-69.179-46.416 11.777-0.11916 4.1039 12.641 38.803-28.469 17.532 0.60391-53.092 38.693 11.493 37.128-13.989-8.3571-16.629-52.12zm-19.749 102.08 7.8616 0.11485 0.36342-40.524-7.4189-0.44323-0.80611 40.853zm21.944-80.365 3.8666 11.125-10.673 7.9182 39.353 27.705 5.0162 16.81-53.597-37.989-31.528 22.728 3.4622-15.923 44.101-32.375zm-103.27 12.986 2.325 7.5111 38.646-12.203-1.8764-7.1919-39.094 11.884zm83.21-4.0198-9.3805 7.1212-10.835-7.696-14.157 45.997-14.431 9.9747 19.525-62.727-31.375-22.94 16.213-1.6386 44.44 31.908z" fill="#ffc621"/>
</g>
</svg>
</g>
</g>
<image y="0" width="1280" xlink:href="fore.png" x="0" height="960"/>
<defs xmlns:inkscape="http://www.inkscape.org/namespaces/inkscape">
<clipPath id="e" clipPathUnits="userSpaceOnUse">
<rect rx="67" ry="67" height="745" width="1065" y="107" x="107"/>
</clipPath>
<linearGradient id="c" y2="271.72" gradientUnits="userSpaceOnUse" x2="334.98" y1="-224.86" x1="10.981">
<stop stop-color="#fff" offset="0"/>
<stop stop-color="#fff" stop-opacity="0" offset="1"/>
</linearGradient>
</defs>
<g xmlns:inkscape="http://www.inkscape.org/namespaces/inkscape" xmlns:rdf="http://www.w3.org/1999/02/22-rdf-syntax-ns#" clip-path="url(#e)" height="745" width="1065" y="107" x="107" xmlns:cc="http://creativecommons.org/ns#" xmlns:sodipodi="http://sodipodi.sourceforge.net/DTD/sodipodi-0.dtd" xmlns:dc="http://purl.org/dc/elements/1.1/">
<g transform="translate(106,75) scale(1.667)" height="960" width="1280" y="75" x="106">
<svg height="480" width="640" version="1" y="0" x="0">
<metadata>
<rdf:RDF>
<cc:Work rdf:about="">
<dc:format>image/svg+xml</dc:format>
<dc:type rdf:resource="http://purl.org/dc/dcmitype/StillImage"/>
<dc:title/>
</cc:Work>
</rdf:RDF>
</metadata>
<rect fill-rule="evenodd" height="480" width="640" y="0" x="0" stroke-width="1pt" fill="url(#c)"/>
</svg>
</g>
</g>
</svg>
