<?xml version="1.0" encoding="UTF-8" standalone="no"?>
<svg xmlns="http://www.w3.org/2000/svg" viewBox="0 0 1280 960" version="1.1" xmlns:xlink="http://www.w3.org/1999/xlink" viewbox="0 0 1280.0px 960.0px">
<defs xmlns:inkscape="http://www.inkscape.org/namespaces/inkscape">
<filter id="c" style="color-interpolation-filters:sRGB" height="1.14" width="1.0979" y="-.069990" x="-.048937">
<feGaussianBlur stdDeviation="21.6452"/>
</filter>
</defs>
<metadata xmlns:rdf="http://www.w3.org/1999/02/22-rdf-syntax-ns#" xmlns:cc="http://creativecommons.org/ns#" xmlns:dc="http://purl.org/dc/elements/1.1/">
<rdf:RDF>
<cc:Work rdf:about="">
<dc:title/>
<dc:format>image/svg+xml</dc:format>
<dc:type rdf:resource="http://purl.org/dc/dcmitype/StillImage"/>
</cc:Work>
</rdf:RDF>
</metadata>
<g xmlns:inkscape="http://www.inkscape.org/namespaces/inkscape" height="745" width="1065" y="107" x="107">
<g opacity=".74438" transform="translate(-36.847 .94915)" filter="url(#c)">
<g height="745" width="1065" y="107" x="107">
<rect opacity=".978" stroke-linejoin="round" ry="68.009" height="742.22" width="1061.5" stroke="#000" y="107.87" x="147.87" stroke-width="2.2345"/>
</g>
</g>
</g>
<defs>
<clipPath id="e" clipPathUnits="userSpaceOnUse">
<rect rx="67" ry="67" height="745" width="1065" y="107" x="107"/>
</clipPath>
</defs>
<image y="0" width="1280" xlink:href="back.png" x="0" height="960"/>
<g y="107" width="1065" height="745" x="107" clip-path="url(#e)">
<g y="75" width="1280" x="106" transform="translate(106,75) scale(1.667)" height="960">
<svg xmlns:rdf="http://www.w3.org/1999/02/22-rdf-syntax-ns#" height="480" width="640" version="1.1" xmlns:cc="http://creativecommons.org/ns#" xmlns:dc="http://purl.org/dc/elements/1.1/">
<metadata>
<rdf:RDF>
<cc:Work rdf:about="">
<dc:format>image/svg+xml</dc:format>
<dc:type rdf:resource="http://purl.org/dc/dcmitype/StillImage"/>
</cc:Work>
</rdf:RDF>
</metadata>
<g fill-rule="evenodd">
<rect height="480" width="640" y="0" x="0" stroke-width="1pt" fill="#f00"/>
<g transform="translate(83.911 -.15476)">
<rect height="314.41" width="360.91" y="83.609" x="62.085" stroke-width="1pt" fill="#009a00"/>
<path stroke-width="1pt" d="m62.085 398.02h360.91l-180.46-157.19-180.46 157.19z" fill="#ffca00"/>
<path stroke-width="1pt" d="m62.085 83.683 180.46 157.19 180.45-157.19h-360.91z" fill="#ffca00"/>
<polygon d="m 256.43826,57.228493 -17.16617,-12.243548 -17.18785,12.213117 6.33967,-20.10947 -16.9267,-12.572548 21.08431,-0.184787 6.72656,-19.9833795 6.69115,19.9952645 21.08395,0.222141 -16.94895,12.54254 z" stroke-width="1pt" points="256.44 57.228 239.27 44.985 222.08 57.198 228.42 37.089 211.5 24.516 232.58 24.331 239.31 4.3479 246 24.343 267.08 24.565 250.13 37.108" transform="matrix(.95788 0 0 .95788 -151.84 6.7037)" fill="#ffce00"/>
<polygon d="m 256.43826,57.228493 -17.16617,-12.243548 -17.18785,12.213117 6.33967,-20.10947 -16.9267,-12.572548 21.08431,-0.184787 6.72656,-19.9833795 6.69115,19.9952645 21.08395,0.222141 -16.94895,12.54254 z" stroke-width="1pt" points="256.44 57.228 239.27 44.985 222.08 57.198 228.42 37.089 211.5 24.516 232.58 24.331 239.31 4.3479 246 24.343 267.08 24.565 250.13 37.108" transform="matrix(.95788 0 0 .95788 13.047 7.193)" fill="#ffce00"/>
<polygon d="m 256.43826,57.228493 -17.16617,-12.243548 -17.18785,12.213117 6.33967,-20.10947 -16.9267,-12.572548 21.08431,-0.184787 6.72656,-19.9833795 6.69115,19.9952645 21.08395,0.222141 -16.94895,12.54254 z" stroke-width="1pt" points="256.44 57.228 239.27 44.985 222.08 57.198 228.42 37.089 211.5 24.516 232.58 24.331 239.31 4.3479 246 24.343 267.08 24.565 250.13 37.108" transform="matrix(.95788 0 0 .95788 178.04 6.9277)" fill="#ffce00"/>
<polygon d="m 256.43826,57.228493 -17.16617,-12.243548 -17.18785,12.213117 6.33967,-20.10947 -16.9267,-12.572548 21.08431,-0.184787 6.72656,-19.9833795 6.69115,19.9952645 21.08395,0.222141 -16.94895,12.54254 z" stroke-width="1pt" points="256.44 57.228 239.27 44.985 222.08 57.198 228.42 37.089 211.5 24.516 232.58 24.331 239.31 4.3479 246 24.343 267.08 24.565 250.13 37.108" transform="matrix(.95788 0 0 .95788 -151.84 414.13)" fill="#ffce00"/>
<polygon d="m 256.43826,57.228493 -17.16617,-12.243548 -17.18785,12.213117 6.33967,-20.10947 -16.9267,-12.572548 21.08431,-0.184787 6.72656,-19.9833795 6.69115,19.9952645 21.08395,0.222141 -16.94895,12.54254 z" stroke-width="1pt" points="256.44 57.228 239.27 44.985 222.08 57.198 228.42 37.089 211.5 24.516 232.58 24.331 239.31 4.3479 246 24.343 267.08 24.565 250.13 37.108" transform="matrix(.95788 0 0 .95788 13.047 414.62)" fill="#ffce00"/>
<polygon d="m 256.43826,57.228493 -17.16617,-12.243548 -17.18785,12.213117 6.33967,-20.10947 -16.9267,-12.572548 21.08431,-0.184787 6.72656,-19.9833795 6.69115,19.9952645 21.08395,0.222141 -16.94895,12.54254 z" stroke-width="1pt" points="256.44 57.228 239.27 44.985 222.08 57.198 228.42 37.089 211.5 24.516 232.58 24.331 239.31 4.3479 246 24.343 267.08 24.565 250.13 37.108" transform="matrix(.95788 0 0 .95788 178.04 414.36)" fill="#ffce00"/>
<path fill="#f00" d="m455.81 246.95c0 25.234-20.456 45.689-45.689 45.689-25.234 0-45.689-20.456-45.689-45.689 0-25.234 20.456-45.689 45.689-45.689 25.234 0 45.689 20.456 45.689 45.689z" transform="matrix(.95788 0 0 .95788 -150.8 6.7037)"/>
<polygon d="m 256.43826,57.228493 -17.16617,-12.243548 -17.18785,12.213117 6.33967,-20.10947 -16.9267,-12.572548 21.08431,-0.184787 6.72656,-19.9833795 6.69115,19.9952645 21.08395,0.222141 -16.94895,12.54254 z" stroke-width="1pt" points="256.44 57.228 239.27 44.985 222.08 57.198 228.42 37.089 211.5 24.516 232.58 24.331 239.31 4.3479 246 24.343 267.08 24.565 250.13 37.108" transform="matrix(1.1378 0 0 1.1378 -29.933 205.08)" fill="#ffce00"/>
<g transform="matrix(.93812 0 0 .93812 88.677 -6.8325)">
<path d="m-2.7888 298.95s2.3668-19.607 1.0149-32.791c-1.3529-13.184-35.158-16.903-35.158-16.903l-0.33797 30.763s27.045 21.974 34.481 18.931z" fill="#f00"/>
<path d="m-52.145 221.2s3.2582 17.276-1.3519 51.723c-2.4628 18.703 17.917 31.439 42.933 37.186-5.0706-8.7893-18.592-22.988-15.212-49.018 18.255 2.3658 35.495 37.862 35.495 37.862s13.658-50.331-13.86-58.145c-26.744-7.514-48.004-19.269-48.004-19.607z" fill="#ffce00"/>
</g>
</g>
</g>
</svg>
</g>
</g>
<image y="0" width="1280" xlink:href="fore.png" x="0" height="960"/>
<defs xmlns:inkscape="http://www.inkscape.org/namespaces/inkscape">
<clipPath id="d" clipPathUnits="userSpaceOnUse">
<rect rx="67" ry="67" height="745" width="1065" y="107" x="107"/>
</clipPath>
<linearGradient id="b" y2="271.72" gradientUnits="userSpaceOnUse" x2="334.98" y1="-224.86" x1="10.981">
<stop stop-color="#fff" offset="0"/>
<stop stop-color="#fff" stop-opacity="0" offset="1"/>
</linearGradient>
</defs>
<g xmlns:inkscape="http://www.inkscape.org/namespaces/inkscape" xmlns:rdf="http://www.w3.org/1999/02/22-rdf-syntax-ns#" clip-path="url(#d)" height="745" width="1065" y="107" x="107" xmlns:cc="http://creativecommons.org/ns#" xmlns:sodipodi="http://sodipodi.sourceforge.net/DTD/sodipodi-0.dtd" xmlns:dc="http://purl.org/dc/elements/1.1/">
<g transform="translate(106,75) scale(1.667)" height="960" width="1280" y="75" x="106">
<svg height="480" width="640" version="1" y="0" x="0">
<metadata>
<rdf:RDF>
<cc:Work rdf:about="">
<dc:format>image/svg+xml</dc:format>
<dc:type rdf:resource="http://purl.org/dc/dcmitype/StillImage"/>
<dc:title/>
</cc:Work>
</rdf:RDF>
</metadata>
<rect fill-rule="evenodd" height="480" width="640" y="0" x="0" stroke-width="1pt" fill="url(#b)"/>
</svg>
</g>
</g>
</svg>
