<?xml version="1.0" encoding="UTF-8" standalone="no"?>
<svg xmlns="http://www.w3.org/2000/svg" viewBox="0 0 1280 960" version="1.1" xmlns:xlink="http://www.w3.org/1999/xlink" viewbox="0 0 1280.0px 960.0px">
<defs xmlns:inkscape="http://www.inkscape.org/namespaces/inkscape">
<filter id="c" style="color-interpolation-filters:sRGB" height="1.14" width="1.0979" y="-.069990" x="-.048937">
<feGaussianBlur stdDeviation="21.6452"/>
</filter>
</defs>
<metadata xmlns:rdf="http://www.w3.org/1999/02/22-rdf-syntax-ns#" xmlns:cc="http://creativecommons.org/ns#" xmlns:dc="http://purl.org/dc/elements/1.1/">
<rdf:RDF>
<cc:Work rdf:about="">
<dc:title/>
<dc:format>image/svg+xml</dc:format>
<dc:type rdf:resource="http://purl.org/dc/dcmitype/StillImage"/>
</cc:Work>
</rdf:RDF>
</metadata>
<g xmlns:inkscape="http://www.inkscape.org/namespaces/inkscape" height="745" width="1065" y="107" x="107">
<g opacity=".74438" transform="translate(-36.847 .94915)" filter="url(#c)">
<g height="745" width="1065" y="107" x="107">
<rect opacity=".978" stroke-linejoin="round" ry="68.009" height="742.22" width="1061.5" stroke="#000" y="107.87" x="147.87" stroke-width="2.2345"/>
</g>
</g>
</g>
<defs>
<clipPath id="e" clipPathUnits="userSpaceOnUse">
<rect rx="67" ry="67" height="745" width="1065" y="107" x="107"/>
</clipPath>
</defs>
<image y="0" width="1280" xlink:href="back.png" x="0" height="960"/>
<g y="107" width="1065" height="745" x="107" clip-path="url(#e)">
<g y="75" width="1280" x="106" transform="translate(106,75) scale(1.667)" height="960">
<svg xmlns:rdf="http://www.w3.org/1999/02/22-rdf-syntax-ns#" height="480" width="640" version="1.1" xmlns:cc="http://creativecommons.org/ns#" xmlns:dc="http://purl.org/dc/elements/1.1/">
<metadata>
<rdf:RDF>
<cc:Work rdf:about="">
<dc:format>image/svg+xml</dc:format>
<dc:type rdf:resource="http://purl.org/dc/dcmitype/StillImage"/>
</cc:Work>
</rdf:RDF>
</metadata>
<g transform="matrix(1.3333 0 0 1 -106.67 .0000061225)" fill-rule="evenodd">
<rect height="480" width="478.18" y=".000024395" x="81.824" stroke-width="1pt" fill="#399408"/>
<path d="m80.13 0.0000012049c-0.629 0.073355 464.71 241.48 464.71 241.48l-464.84 238.29 0.13-479.77z" fill="#fff"/>
<path d="m80.215 20.186c2.5958 0 419.3 217.89 416.93 220.03l-415.74 223.05-1.185-443.08z" fill="#ffde08"/>
<path d="m81.402 0.78343c1.3857 0 218.21 240.92 218.21 240.92l-218.21 235.28v-476.2z"/>
<path d="m80.215 33.902c1.243-14.986 195.68 208.4 195.68 208.4l-195.69 209.4 0.000002-417.79z" fill="#de2110"/>
</g>
</svg>
</g>
</g>
<image y="0" width="1280" xlink:href="fore.png" x="0" height="960"/>
<defs xmlns:inkscape="http://www.inkscape.org/namespaces/inkscape">
<clipPath id="d" clipPathUnits="userSpaceOnUse">
<rect rx="67" ry="67" height="745" width="1065" y="107" x="107"/>
</clipPath>
<linearGradient id="b" y2="271.72" gradientUnits="userSpaceOnUse" x2="334.98" y1="-224.86" x1="10.981">
<stop stop-color="#fff" offset="0"/>
<stop stop-color="#fff" stop-opacity="0" offset="1"/>
</linearGradient>
</defs>
<g xmlns:inkscape="http://www.inkscape.org/namespaces/inkscape" xmlns:rdf="http://www.w3.org/1999/02/22-rdf-syntax-ns#" clip-path="url(#d)" height="745" width="1065" y="107" x="107" xmlns:cc="http://creativecommons.org/ns#" xmlns:sodipodi="http://sodipodi.sourceforge.net/DTD/sodipodi-0.dtd" xmlns:dc="http://purl.org/dc/elements/1.1/">
<g transform="translate(106,75) scale(1.667)" height="960" width="1280" y="75" x="106">
<svg height="480" width="640" version="1" y="0" x="0">
<metadata>
<rdf:RDF>
<cc:Work rdf:about="">
<dc:format>image/svg+xml</dc:format>
<dc:type rdf:resource="http://purl.org/dc/dcmitype/StillImage"/>
<dc:title/>
</cc:Work>
</rdf:RDF>
</metadata>
<rect fill-rule="evenodd" height="480" width="640" y="0" x="0" stroke-width="1pt" fill="url(#b)"/>
</svg>
</g>
</g>
</svg>
