<?xml version="1.0" encoding="UTF-8" standalone="no"?>
<svg xmlns="http://www.w3.org/2000/svg" viewBox="0 0 1280 960" version="1.1" xmlns:xlink="http://www.w3.org/1999/xlink" viewbox="0 0 1280.0px 960.0px">
<defs xmlns:inkscape="http://www.inkscape.org/namespaces/inkscape">
<filter id="d" style="color-interpolation-filters:sRGB" height="1.14" width="1.0979" y="-.069990" x="-.048937">
<feGaussianBlur stdDeviation="21.6452"/>
</filter>
</defs>
<metadata xmlns:rdf="http://www.w3.org/1999/02/22-rdf-syntax-ns#" xmlns:cc="http://creativecommons.org/ns#" xmlns:dc="http://purl.org/dc/elements/1.1/">
<rdf:RDF>
<cc:Work rdf:about="">
<dc:title/>
<dc:format>image/svg+xml</dc:format>
<dc:type rdf:resource="http://purl.org/dc/dcmitype/StillImage"/>
</cc:Work>
</rdf:RDF>
</metadata>
<g xmlns:inkscape="http://www.inkscape.org/namespaces/inkscape" height="745" width="1065" y="107" x="107">
<g opacity=".74438" transform="translate(-36.847 .94915)" filter="url(#d)">
<g height="745" width="1065" y="107" x="107">
<rect opacity=".978" stroke-linejoin="round" ry="68.009" height="742.22" width="1061.5" stroke="#000" y="107.87" x="147.87" stroke-width="2.2345"/>
</g>
</g>
</g>
<defs>
<clipPath id="g" clipPathUnits="userSpaceOnUse">
<rect rx="67" ry="67" height="745" width="1065" y="107" x="107"/>
</clipPath>
</defs>
<image y="0" width="1280" xlink:href="back.png" x="0" height="960"/>
<g y="107" width="1065" height="745" x="107" clip-path="url(#g)">
<g y="75" width="1280" x="106" transform="translate(106,75) scale(1.667)" height="960">
<svg xmlns:rdf="http://www.w3.org/1999/02/22-rdf-syntax-ns#" height="480" width="640" version="1" y="0" x="0" xmlns:cc="http://creativecommons.org/ns#" xmlns:dc="http://purl.org/dc/elements/1.1/">
<metadata>
<rdf:RDF>
<cc:Work rdf:about="">
<dc:format>image/svg+xml</dc:format>
<dc:type rdf:resource="http://purl.org/dc/dcmitype/StillImage"/>
</cc:Work>
</rdf:RDF>
</metadata>
<defs>
<clipPath id="f" clipPathUnits="userSpaceOnUse">
<rect y="0" width="682.67" height="512" x="-89.048" fill-opacity=".67"/>
</clipPath>
</defs>
<g transform="matrix(.9375 0 0 .9375 83.483 0)" clip-path="url(#f)">
<rect fill-rule="evenodd" transform="scale(-1)" height="512" width="731.43" y="-512" x="-618" stroke-width="1pt" fill="#ba0000"/>
<g transform="matrix(.68808 0 0 .68808 -123.29 4.5459)">
<g transform="translate(6.25 -3.75)">
<path fill="#fff" d="m524.45 357.28s-75.02-32.301-64.255-116c10.421-40.29 28.828-67.727 62.17-82.661 15.629-4.863 31.607-6.947 47.93-8.336-4.284 4.052-7.872 8.104-9.724 13.198-3.59 9.146-0.927 17.945 3.819 26.743 6.02 10.188 9.607 20.723 10.766 34.384 2.199 19.218-6.02 37.743-21.186 48.973-9.61 7.409-20.954 9.956-30.217 18.407-7.177 7.063-11.576 14.126-13.197 26.396-0.232 23.386 6.137 26.629 13.894 38.9z" fill-rule="evenodd"/>
<path stroke="#000" stroke-width="2.3449pt" fill="#ba0000" d="m510.21 236.18v-0.347" fill-rule="evenodd"/>
<path stroke="#ba0000" stroke-width="2.3449pt" d="m514.95 348.59c-29.18-25.82-26.63-90.76-4.4-112.41" fill="none"/>
<polygon points="569.1 365.81 591.04 433.16 591.04 433.16 533.77 391.48 476.5 433.15 498.45 365.81 441.12 324.21 511.95 324.28 533.78 256.9 555.61 324.28 626.44 324.23" fill="#ba0000" transform="matrix(.13567 -.030684 .026985 .12909 441.38 191.89)" fill-rule="evenodd"/>
</g>
<g transform="matrix(.29302 .95611 -.95611 .29302 725 -258.13)">
<path fill="#fff" d="m524.45 357.28s-75.02-32.301-64.255-116c10.421-40.29 28.828-67.727 62.17-82.661 15.629-4.863 31.607-6.947 47.93-8.336-4.284 4.052-7.872 8.104-9.724 13.198-3.59 9.146-0.927 17.945 3.819 26.743 6.02 10.188 9.607 20.723 10.766 34.384 2.199 19.218-6.02 37.743-21.186 48.973-9.61 7.409-20.954 9.956-30.217 18.407-7.177 7.063-11.576 14.126-13.197 26.396-0.232 23.386 6.137 26.629 13.894 38.9z" fill-rule="evenodd"/>
<path stroke="#000" stroke-width="2.3449pt" fill="#ba0000" d="m510.21 236.18v-0.347" fill-rule="evenodd"/>
<path stroke="#ba0000" stroke-width="2.3449pt" d="m514.95 348.59c-29.18-25.82-26.63-90.76-4.4-112.41" fill="none"/>
<polygon points="569.1 365.81 591.04 433.16 591.04 433.16 533.77 391.48 476.5 433.15 498.45 365.81 441.12 324.21 511.95 324.28 533.78 256.9 555.61 324.28 626.44 324.23" fill="#ba0000" transform="matrix(.13567 -.030684 .026985 .12909 441.38 191.89)" fill-rule="evenodd"/>
</g>
<g transform="matrix(-.81354 .58150 -.58150 -.81354 1177.1 339.55)">
<path fill="#fff" d="m524.45 357.28s-75.02-32.301-64.255-116c10.421-40.29 28.828-67.727 62.17-82.661 15.629-4.863 31.607-6.947 47.93-8.336-4.284 4.052-7.872 8.104-9.724 13.198-3.59 9.146-0.927 17.945 3.819 26.743 6.02 10.188 9.607 20.723 10.766 34.384 2.199 19.218-6.02 37.743-21.186 48.973-9.61 7.409-20.954 9.956-30.217 18.407-7.177 7.063-11.576 14.126-13.197 26.396-0.232 23.386 6.137 26.629 13.894 38.9z" fill-rule="evenodd"/>
<path stroke="#000" stroke-width="2.3449pt" fill="#ba0000" d="m510.21 236.18v-0.347" fill-rule="evenodd"/>
<path stroke="#ba0000" stroke-width="2.3449pt" d="m514.95 348.59c-29.18-25.82-26.63-90.76-4.4-112.41" fill="none"/>
<polygon points="569.1 365.81 591.04 433.16 591.04 433.16 533.77 391.48 476.5 433.15 498.45 365.81 441.12 324.21 511.95 324.28 533.78 256.9 555.61 324.28 626.44 324.23" fill="#ba0000" transform="matrix(.13567 -.030684 .026985 .12909 441.38 191.89)" fill-rule="evenodd"/>
</g>
<g transform="matrix(-.78657 -.61750 .61750 -.78657 732.78 966.96)">
<path fill="#fff" d="m524.45 357.28s-75.02-32.301-64.255-116c10.421-40.29 28.828-67.727 62.17-82.661 15.629-4.863 31.607-6.947 47.93-8.336-4.284 4.052-7.872 8.104-9.724 13.198-3.59 9.146-0.927 17.945 3.819 26.743 6.02 10.188 9.607 20.723 10.766 34.384 2.199 19.218-6.02 37.743-21.186 48.973-9.61 7.409-20.954 9.956-30.217 18.407-7.177 7.063-11.576 14.126-13.197 26.396-0.232 23.386 6.137 26.629 13.894 38.9z" fill-rule="evenodd"/>
<path stroke="#000" stroke-width="2.3449pt" fill="#ba0000" d="m510.21 236.18v-0.347" fill-rule="evenodd"/>
<path stroke="#ba0000" stroke-width="2.3449pt" d="m514.95 348.59c-29.18-25.82-26.63-90.76-4.4-112.41" fill="none"/>
<polygon points="569.1 365.81 591.04 433.16 591.04 433.16 533.77 391.48 476.5 433.15 498.45 365.81 441.12 324.21 511.95 324.28 533.78 256.9 555.61 324.28 626.44 324.23" fill="#ba0000" transform="matrix(.13567 -.030684 .026985 .12909 441.38 191.89)" fill-rule="evenodd"/>
</g>
<g transform="matrix(.32107 -.94705 .94705 .32107 25.287 742.5)">
<path fill="#fff" d="m524.45 357.28s-75.02-32.301-64.255-116c10.421-40.29 28.828-67.727 62.17-82.661 15.629-4.863 31.607-6.947 47.93-8.336-4.284 4.052-7.872 8.104-9.724 13.198-3.59 9.146-0.927 17.945 3.819 26.743 6.02 10.188 9.607 20.723 10.766 34.384 2.199 19.218-6.02 37.743-21.186 48.973-9.61 7.409-20.954 9.956-30.217 18.407-7.177 7.063-11.576 14.126-13.197 26.396-0.232 23.386 6.137 26.629 13.894 38.9z" fill-rule="evenodd"/>
<path stroke="#000" stroke-width="2.3449pt" fill="#ba0000" d="m510.21 236.18v-0.347" fill-rule="evenodd"/>
<path stroke="#ba0000" stroke-width="2.3449pt" d="m514.95 348.59c-29.18-25.82-26.63-90.76-4.4-112.41" fill="none"/>
<polygon points="569.1 365.81 591.04 433.16 591.04 433.16 533.77 391.48 476.5 433.15 498.45 365.81 441.12 324.21 511.95 324.28 533.78 256.9 555.61 324.28 626.44 324.23" fill="#ba0000" transform="matrix(.13567 -.030684 .026985 .12909 441.38 191.89)" fill-rule="evenodd"/>
</g>
</g>
</g>
</svg>
</g>
</g>
<image y="0" width="1280" xlink:href="fore.png" x="0" height="960"/>
<defs xmlns:inkscape="http://www.inkscape.org/namespaces/inkscape">
<clipPath id="e" clipPathUnits="userSpaceOnUse">
<rect rx="67" ry="67" height="745" width="1065" y="107" x="107"/>
</clipPath>
<linearGradient id="c" y2="271.72" gradientUnits="userSpaceOnUse" x2="334.98" y1="-224.86" x1="10.981">
<stop stop-color="#fff" offset="0"/>
<stop stop-color="#fff" stop-opacity="0" offset="1"/>
</linearGradient>
</defs>
<g xmlns:inkscape="http://www.inkscape.org/namespaces/inkscape" xmlns:rdf="http://www.w3.org/1999/02/22-rdf-syntax-ns#" clip-path="url(#e)" height="745" width="1065" y="107" x="107" xmlns:cc="http://creativecommons.org/ns#" xmlns:sodipodi="http://sodipodi.sourceforge.net/DTD/sodipodi-0.dtd" xmlns:dc="http://purl.org/dc/elements/1.1/">
<g transform="translate(106,75) scale(1.667)" height="960" width="1280" y="75" x="106">
<svg height="480" width="640" version="1" y="0" x="0">
<metadata>
<rdf:RDF>
<cc:Work rdf:about="">
<dc:format>image/svg+xml</dc:format>
<dc:type rdf:resource="http://purl.org/dc/dcmitype/StillImage"/>
<dc:title/>
</cc:Work>
</rdf:RDF>
</metadata>
<rect fill-rule="evenodd" height="480" width="640" y="0" x="0" stroke-width="1pt" fill="url(#c)"/>
</svg>
</g>
</g>
</svg>
