<?xml version="1.0" encoding="UTF-8" standalone="no"?>
<svg xmlns="http://www.w3.org/2000/svg" viewBox="0 0 1280 960" version="1.1" xmlns:xlink="http://www.w3.org/1999/xlink" viewbox="0 0 1280.0px 960.0px">
<defs xmlns:inkscape="http://www.inkscape.org/namespaces/inkscape">
<filter id="d" style="color-interpolation-filters:sRGB" height="1.14" width="1.0979" y="-.069990" x="-.048937">
<feGaussianBlur stdDeviation="21.6452"/>
</filter>
</defs>
<metadata xmlns:rdf="http://www.w3.org/1999/02/22-rdf-syntax-ns#" xmlns:cc="http://creativecommons.org/ns#" xmlns:dc="http://purl.org/dc/elements/1.1/">
<rdf:RDF>
<cc:Work rdf:about="">
<dc:title/>
<dc:format>image/svg+xml</dc:format>
<dc:type rdf:resource="http://purl.org/dc/dcmitype/StillImage"/>
</cc:Work>
</rdf:RDF>
</metadata>
<g xmlns:inkscape="http://www.inkscape.org/namespaces/inkscape" height="745" width="1065" y="107" x="107">
<g opacity=".74438" transform="translate(-36.847 .94915)" filter="url(#d)">
<g height="745" width="1065" y="107" x="107">
<rect opacity=".978" stroke-linejoin="round" ry="68.009" height="742.22" width="1061.5" stroke="#000" y="107.87" x="147.87" stroke-width="2.2345"/>
</g>
</g>
</g>
<defs>
<clipPath id="g" clipPathUnits="userSpaceOnUse">
<rect rx="67" ry="67" height="745" width="1065" y="107" x="107"/>
</clipPath>
</defs>
<image y="0" width="1280" xlink:href="back.png" x="0" height="960"/>
<g y="107" width="1065" height="745" x="107" clip-path="url(#g)">
<g y="75" width="1280" x="106" transform="translate(106,75) scale(1.667)" height="960">
<svg xmlns:rdf="http://www.w3.org/1999/02/22-rdf-syntax-ns#" height="480" width="640" version="1.1" xmlns:cc="http://creativecommons.org/ns#" xmlns:dc="http://purl.org/dc/elements/1.1/">
<metadata>
<rdf:RDF>
<cc:Work rdf:about="">
<dc:format>image/svg+xml</dc:format>
<dc:type rdf:resource="http://purl.org/dc/dcmitype/StillImage"/>
</cc:Work>
</rdf:RDF>
</metadata>
<defs>
<clipPath id="f" clipPathUnits="userSpaceOnUse">
<rect y=".0000078594" width="682.67" height="512" x="-85.311" fill-opacity=".67"/>
</clipPath>
</defs>
<g fill-rule="evenodd" transform="matrix(.93750 0 0 .93750 79.98 -.0000073682)" clip-path="url(#f)">
<rect height="512" width="896" y=".000014203" x="-191.96" stroke-width="1pt" fill="#fff"/>
<rect height="168.16" width="896" y="343.84" x="-191.96" stroke-width="1pt" fill="#da0000"/>
<g stroke-width="1pt" transform="matrix(1.5197 0 0 1.5197 -70.36 36.806)" fill="#fff">
<rect y="206.72" width="32.289" x="32.067" height="2.2217"/>
<rect y="217.83" width="2.2217" x="36.881" height="2.1576"/>
<rect y="-64.44" width="2.2217" x="217.76" transform="rotate(90)" height="6.453"/>
<rect y="206.72" width="2.2217" x="67.911" height="13.266"/>
<rect y="-80.765" width="2.2217" x="217.76" transform="rotate(90)" height="12.229"/>
<rect y="212.57" width="2.2217" x="57.987" height="7.4157"/>
<rect y="206.72" width="2.2217" x="67.911" transform="translate(11.035 -.000015259)" height="13.266"/>
<rect y="206.72" width="2.2217" x="73.391" height="13.266"/>
<rect y="-43.903" width="2.2217" x="212" transform="matrix(0 1 -1 0 .0092220 -.000015259)" height="11.785"/>
<rect y="-69.772" width="2.2217" x="212" transform="rotate(90)" height="11.785"/>
<rect y="212.57" width="2.2217" x="57.987" height="7.4157"/>
<rect y="212.57" width="2.2217" x="57.987" height="7.4157"/>
<rect y="212.57" width="2.2217" x="57.987" height="7.4157"/>
<rect y="212.57" width="2.2217" x="32.299" transform="translate(-.17213 -.000015259)" height="7.4157"/>
<rect y="212.57" width="2.2217" x="51.082" height="7.4157"/>
<rect y="212.57" width="2.2217" x="41.691" transform="translate(0 -.000015259)" height="7.4157"/>
<rect y="-52.641" width="2.2217" x="217.76" transform="rotate(90)" height="9.9621"/>
<rect y="-53.304" width="2.2217" x="212" transform="rotate(90)" height="6.3161"/>
</g>
<g stroke-width="1pt" transform="matrix(1.5197 0 0 1.5197 -150.96 36.806)" fill="#fff">
<rect y="206.72" width="32.289" x="32.067" height="2.2217"/>
<rect y="217.83" width="2.2217" x="36.881" height="2.1576"/>
<rect y="-64.44" width="2.2217" x="217.76" transform="rotate(90)" height="6.453"/>
<rect y="206.72" width="2.2217" x="67.911" height="13.266"/>
<rect y="-80.765" width="2.2217" x="217.76" transform="rotate(90)" height="12.229"/>
<rect y="212.57" width="2.2217" x="57.987" height="7.4157"/>
<rect y="206.72" width="2.2217" x="67.911" transform="translate(11.035 -.000015259)" height="13.266"/>
<rect y="206.72" width="2.2217" x="73.391" height="13.266"/>
<rect y="-43.903" width="2.2217" x="212" transform="matrix(0 1 -1 0 .0092220 -.000015259)" height="11.785"/>
<rect y="-69.772" width="2.2217" x="212" transform="rotate(90)" height="11.785"/>
<rect y="212.57" width="2.2217" x="57.987" height="7.4157"/>
<rect y="212.57" width="2.2217" x="57.987" height="7.4157"/>
<rect y="212.57" width="2.2217" x="57.987" height="7.4157"/>
<rect y="212.57" width="2.2217" x="32.299" transform="translate(-.17213 -.000015259)" height="7.4157"/>
<rect y="212.57" width="2.2217" x="51.082" height="7.4157"/>
<rect y="212.57" width="2.2217" x="41.691" transform="translate(0 -.000015259)" height="7.4157"/>
<rect y="-52.641" width="2.2217" x="217.76" transform="rotate(90)" height="9.9621"/>
<rect y="-53.304" width="2.2217" x="212" transform="rotate(90)" height="6.3161"/>
</g>
<g stroke-width="1pt" transform="matrix(1.5197 0 0 1.5197 9.5646 36.806)" fill="#fff">
<rect y="206.72" width="32.289" x="32.067" height="2.2217"/>
<rect y="217.83" width="2.2217" x="36.881" height="2.1576"/>
<rect y="-64.44" width="2.2217" x="217.76" transform="rotate(90)" height="6.453"/>
<rect y="206.72" width="2.2217" x="67.911" height="13.266"/>
<rect y="-80.765" width="2.2217" x="217.76" transform="rotate(90)" height="12.229"/>
<rect y="212.57" width="2.2217" x="57.987" height="7.4157"/>
<rect y="206.72" width="2.2217" x="67.911" transform="translate(11.035 -.000015259)" height="13.266"/>
<rect y="206.72" width="2.2217" x="73.391" height="13.266"/>
<rect y="-43.903" width="2.2217" x="212" transform="matrix(0 1 -1 0 .0092220 -.000015259)" height="11.785"/>
<rect y="-69.772" width="2.2217" x="212" transform="rotate(90)" height="11.785"/>
<rect y="212.57" width="2.2217" x="57.987" height="7.4157"/>
<rect y="212.57" width="2.2217" x="57.987" height="7.4157"/>
<rect y="212.57" width="2.2217" x="57.987" height="7.4157"/>
<rect y="212.57" width="2.2217" x="32.299" transform="translate(-.17213 -.000015259)" height="7.4157"/>
<rect y="212.57" width="2.2217" x="51.082" height="7.4157"/>
<rect y="212.57" width="2.2217" x="41.691" transform="translate(0 -.000015259)" height="7.4157"/>
<rect y="-52.641" width="2.2217" x="217.76" transform="rotate(90)" height="9.9621"/>
<rect y="-53.304" width="2.2217" x="212" transform="rotate(90)" height="6.3161"/>
</g>
<g stroke-width="1pt" transform="matrix(1.5197 0 0 1.5197 573.95 36.806)" fill="#fff">
<rect y="206.72" width="32.289" x="32.067" height="2.2217"/>
<rect y="217.83" width="2.2217" x="36.881" height="2.1576"/>
<rect y="-64.44" width="2.2217" x="217.76" transform="rotate(90)" height="6.453"/>
<rect y="206.72" width="2.2217" x="67.911" height="13.266"/>
<rect y="-80.765" width="2.2217" x="217.76" transform="rotate(90)" height="12.229"/>
<rect y="212.57" width="2.2217" x="57.987" height="7.4157"/>
<rect y="206.72" width="2.2217" x="67.911" transform="translate(11.035 -.000015259)" height="13.266"/>
<rect y="206.72" width="2.2217" x="73.391" height="13.266"/>
<rect y="-43.903" width="2.2217" x="212" transform="matrix(0 1 -1 0 .0092220 -.000015259)" height="11.785"/>
<rect y="-69.772" width="2.2217" x="212" transform="rotate(90)" height="11.785"/>
<rect y="212.57" width="2.2217" x="57.987" height="7.4157"/>
<rect y="212.57" width="2.2217" x="57.987" height="7.4157"/>
<rect y="212.57" width="2.2217" x="57.987" height="7.4157"/>
<rect y="212.57" width="2.2217" x="32.299" transform="translate(-.17213 -.000015259)" height="7.4157"/>
<rect y="212.57" width="2.2217" x="51.082" height="7.4157"/>
<rect y="212.57" width="2.2217" x="41.691" transform="translate(0 -.000015259)" height="7.4157"/>
<rect y="-52.641" width="2.2217" x="217.76" transform="rotate(90)" height="9.9621"/>
<rect y="-53.304" width="2.2217" x="212" transform="rotate(90)" height="6.3161"/>
</g>
<g stroke-width="1pt" transform="matrix(1.5197 0 0 1.5197 90.01 36.806)" fill="#fff">
<rect y="206.72" width="32.289" x="32.067" height="2.2217"/>
<rect y="217.83" width="2.2217" x="36.881" height="2.1576"/>
<rect y="-64.44" width="2.2217" x="217.76" transform="rotate(90)" height="6.453"/>
<rect y="206.72" width="2.2217" x="67.911" height="13.266"/>
<rect y="-80.765" width="2.2217" x="217.76" transform="rotate(90)" height="12.229"/>
<rect y="212.57" width="2.2217" x="57.987" height="7.4157"/>
<rect y="206.72" width="2.2217" x="67.911" transform="translate(11.035 -.000015259)" height="13.266"/>
<rect y="206.72" width="2.2217" x="73.391" height="13.266"/>
<rect y="-43.903" width="2.2217" x="212" transform="matrix(0 1 -1 0 .0092220 -.000015259)" height="11.785"/>
<rect y="-69.772" width="2.2217" x="212" transform="rotate(90)" height="11.785"/>
<rect y="212.57" width="2.2217" x="57.987" height="7.4157"/>
<rect y="212.57" width="2.2217" x="57.987" height="7.4157"/>
<rect y="212.57" width="2.2217" x="57.987" height="7.4157"/>
<rect y="212.57" width="2.2217" x="32.299" transform="translate(-.17213 -.000015259)" height="7.4157"/>
<rect y="212.57" width="2.2217" x="51.082" height="7.4157"/>
<rect y="212.57" width="2.2217" x="41.691" transform="translate(0 -.000015259)" height="7.4157"/>
<rect y="-52.641" width="2.2217" x="217.76" transform="rotate(90)" height="9.9621"/>
<rect y="-53.304" width="2.2217" x="212" transform="rotate(90)" height="6.3161"/>
</g>
<g stroke-width="1pt" transform="matrix(1.5197 0 0 1.5197 170.75 36.806)" fill="#fff">
<rect y="206.72" width="32.289" x="32.067" height="2.2217"/>
<rect y="217.83" width="2.2217" x="36.881" height="2.1576"/>
<rect y="-64.44" width="2.2217" x="217.76" transform="rotate(90)" height="6.453"/>
<rect y="206.72" width="2.2217" x="67.911" height="13.266"/>
<rect y="-80.765" width="2.2217" x="217.76" transform="rotate(90)" height="12.229"/>
<rect y="212.57" width="2.2217" x="57.987" height="7.4157"/>
<rect y="206.72" width="2.2217" x="67.911" transform="translate(11.035 -.000015259)" height="13.266"/>
<rect y="206.72" width="2.2217" x="73.391" height="13.266"/>
<rect y="-43.903" width="2.2217" x="212" transform="matrix(0 1 -1 0 .0092220 -.000015259)" height="11.785"/>
<rect y="-69.772" width="2.2217" x="212" transform="rotate(90)" height="11.785"/>
<rect y="212.57" width="2.2217" x="57.987" height="7.4157"/>
<rect y="212.57" width="2.2217" x="57.987" height="7.4157"/>
<rect y="212.57" width="2.2217" x="57.987" height="7.4157"/>
<rect y="212.57" width="2.2217" x="32.299" transform="translate(-.17213 -.000015259)" height="7.4157"/>
<rect y="212.57" width="2.2217" x="51.082" height="7.4157"/>
<rect y="212.57" width="2.2217" x="41.691" transform="translate(0 -.000015259)" height="7.4157"/>
<rect y="-52.641" width="2.2217" x="217.76" transform="rotate(90)" height="9.9621"/>
<rect y="-53.304" width="2.2217" x="212" transform="rotate(90)" height="6.3161"/>
</g>
<rect height="168.16" width="896" y=".0000069776" x="-191.96" stroke-width="1pt" fill="#239f40"/>
<g stroke-width="1pt" transform="matrix(1.5197 0 0 1.5197 251.96 36.806)" fill="#fff">
<rect y="206.72" width="32.289" x="32.067" height="2.2217"/>
<rect y="217.83" width="2.2217" x="36.881" height="2.1576"/>
<rect y="-64.44" width="2.2217" x="217.76" transform="rotate(90)" height="6.453"/>
<rect y="206.72" width="2.2217" x="67.911" height="13.266"/>
<rect y="-80.765" width="2.2217" x="217.76" transform="rotate(90)" height="12.229"/>
<rect y="212.57" width="2.2217" x="57.987" height="7.4157"/>
<rect y="206.72" width="2.2217" x="67.911" transform="translate(11.035 -.000015259)" height="13.266"/>
<rect y="206.72" width="2.2217" x="73.391" height="13.266"/>
<rect y="-43.903" width="2.2217" x="212" transform="matrix(0 1 -1 0 .0092220 -.000015259)" height="11.785"/>
<rect y="-69.772" width="2.2217" x="212" transform="rotate(90)" height="11.785"/>
<rect y="212.57" width="2.2217" x="57.987" height="7.4157"/>
<rect y="212.57" width="2.2217" x="57.987" height="7.4157"/>
<rect y="212.57" width="2.2217" x="57.987" height="7.4157"/>
<rect y="212.57" width="2.2217" x="32.299" transform="translate(-.17213 -.000015259)" height="7.4157"/>
<rect y="212.57" width="2.2217" x="51.082" height="7.4157"/>
<rect y="212.57" width="2.2217" x="41.691" transform="translate(0 -.000015259)" height="7.4157"/>
<rect y="-52.641" width="2.2217" x="217.76" transform="rotate(90)" height="9.9621"/>
<rect y="-53.304" width="2.2217" x="212" transform="rotate(90)" height="6.3161"/>
</g>
<g stroke-width="1pt" transform="matrix(1.5197 0 0 1.5197 332.69 36.806)" fill="#fff">
<rect y="206.72" width="32.289" x="32.067" height="2.2217"/>
<rect y="217.83" width="2.2217" x="36.881" height="2.1576"/>
<rect y="-64.44" width="2.2217" x="217.76" transform="rotate(90)" height="6.453"/>
<rect y="206.72" width="2.2217" x="67.911" height="13.266"/>
<rect y="-80.765" width="2.2217" x="217.76" transform="rotate(90)" height="12.229"/>
<rect y="212.57" width="2.2217" x="57.987" height="7.4157"/>
<rect y="206.72" width="2.2217" x="67.911" transform="translate(11.035 -.000015259)" height="13.266"/>
<rect y="206.72" width="2.2217" x="73.391" height="13.266"/>
<rect y="-43.903" width="2.2217" x="212" transform="matrix(0 1 -1 0 .0092220 -.000015259)" height="11.785"/>
<rect y="-69.772" width="2.2217" x="212" transform="rotate(90)" height="11.785"/>
<rect y="212.57" width="2.2217" x="57.987" height="7.4157"/>
<rect y="212.57" width="2.2217" x="57.987" height="7.4157"/>
<rect y="212.57" width="2.2217" x="57.987" height="7.4157"/>
<rect y="212.57" width="2.2217" x="32.299" transform="translate(-.17213 -.000015259)" height="7.4157"/>
<rect y="212.57" width="2.2217" x="51.082" height="7.4157"/>
<rect y="212.57" width="2.2217" x="41.691" transform="translate(0 -.000015259)" height="7.4157"/>
<rect y="-52.641" width="2.2217" x="217.76" transform="rotate(90)" height="9.9621"/>
<rect y="-53.304" width="2.2217" x="212" transform="rotate(90)" height="6.3161"/>
</g>
<g stroke-width="1pt" transform="matrix(1.5197 0 0 1.5197 413.43 36.806)" fill="#fff">
<rect y="206.72" width="32.289" x="32.067" height="2.2217"/>
<rect y="217.83" width="2.2217" x="36.881" height="2.1576"/>
<rect y="-64.44" width="2.2217" x="217.76" transform="rotate(90)" height="6.453"/>
<rect y="206.72" width="2.2217" x="67.911" height="13.266"/>
<rect y="-80.765" width="2.2217" x="217.76" transform="rotate(90)" height="12.229"/>
<rect y="212.57" width="2.2217" x="57.987" height="7.4157"/>
<rect y="206.72" width="2.2217" x="67.911" transform="translate(11.035 -.000015259)" height="13.266"/>
<rect y="206.72" width="2.2217" x="73.391" height="13.266"/>
<rect y="-43.903" width="2.2217" x="212" transform="matrix(0 1 -1 0 .0092220 -.000015259)" height="11.785"/>
<rect y="-69.772" width="2.2217" x="212" transform="rotate(90)" height="11.785"/>
<rect y="212.57" width="2.2217" x="57.987" height="7.4157"/>
<rect y="212.57" width="2.2217" x="57.987" height="7.4157"/>
<rect y="212.57" width="2.2217" x="57.987" height="7.4157"/>
<rect y="212.57" width="2.2217" x="32.299" transform="translate(-.17213 -.000015259)" height="7.4157"/>
<rect y="212.57" width="2.2217" x="51.082" height="7.4157"/>
<rect y="212.57" width="2.2217" x="41.691" transform="translate(0 -.000015259)" height="7.4157"/>
<rect y="-52.641" width="2.2217" x="217.76" transform="rotate(90)" height="9.9621"/>
<rect y="-53.304" width="2.2217" x="212" transform="rotate(90)" height="6.3161"/>
</g>
<g stroke-width="1pt" transform="matrix(1.5197 0 0 1.5197 494.64 36.806)" fill="#fff">
<rect y="206.72" width="32.289" x="32.067" height="2.2217"/>
<rect y="217.83" width="2.2217" x="36.881" height="2.1576"/>
<rect y="-64.44" width="2.2217" x="217.76" transform="rotate(90)" height="6.453"/>
<rect y="206.72" width="2.2217" x="67.911" height="13.266"/>
<rect y="-80.765" width="2.2217" x="217.76" transform="rotate(90)" height="12.229"/>
<rect y="212.57" width="2.2217" x="57.987" height="7.4157"/>
<rect y="206.72" width="2.2217" x="67.911" transform="translate(11.035 -.000015259)" height="13.266"/>
<rect y="206.72" width="2.2217" x="73.391" height="13.266"/>
<rect y="-43.903" width="2.2217" x="212" transform="matrix(0 1 -1 0 .0092220 -.000015259)" height="11.785"/>
<rect y="-69.772" width="2.2217" x="212" transform="rotate(90)" height="11.785"/>
<rect y="212.57" width="2.2217" x="57.987" height="7.4157"/>
<rect y="212.57" width="2.2217" x="57.987" height="7.4157"/>
<rect y="212.57" width="2.2217" x="57.987" height="7.4157"/>
<rect y="212.57" width="2.2217" x="32.299" transform="translate(-.17213 -.000015259)" height="7.4157"/>
<rect y="212.57" width="2.2217" x="51.082" height="7.4157"/>
<rect y="212.57" width="2.2217" x="41.691" transform="translate(0 -.000015259)" height="7.4157"/>
<rect y="-52.641" width="2.2217" x="217.76" transform="rotate(90)" height="9.9621"/>
<rect y="-53.304" width="2.2217" x="212" transform="rotate(90)" height="6.3161"/>
</g>
<g stroke-width="1pt" transform="matrix(1.5197 0 0 1.5197 -232.52 36.806)" fill="#fff">
<rect y="206.72" width="32.289" x="32.067" height="2.2217"/>
<rect y="217.83" width="2.2217" x="36.881" height="2.1576"/>
<rect y="-64.44" width="2.2217" x="217.76" transform="rotate(90)" height="6.453"/>
<rect y="206.72" width="2.2217" x="67.911" height="13.266"/>
<rect y="-80.765" width="2.2217" x="217.76" transform="rotate(90)" height="12.229"/>
<rect y="212.57" width="2.2217" x="57.987" height="7.4157"/>
<rect y="206.72" width="2.2217" x="67.911" transform="translate(11.035 -.000015259)" height="13.266"/>
<rect y="206.72" width="2.2217" x="73.391" height="13.266"/>
<rect y="-43.903" width="2.2217" x="212" transform="matrix(0 1 -1 0 .0092220 -.000015259)" height="11.785"/>
<rect y="-69.772" width="2.2217" x="212" transform="rotate(90)" height="11.785"/>
<rect y="212.57" width="2.2217" x="57.987" height="7.4157"/>
<rect y="212.57" width="2.2217" x="57.987" height="7.4157"/>
<rect y="212.57" width="2.2217" x="57.987" height="7.4157"/>
<rect y="212.57" width="2.2217" x="32.299" transform="translate(-.17213 -.000015259)" height="7.4157"/>
<rect y="212.57" width="2.2217" x="51.082" height="7.4157"/>
<rect y="212.57" width="2.2217" x="41.691" transform="translate(0 -.000015259)" height="7.4157"/>
<rect y="-52.641" width="2.2217" x="217.76" transform="rotate(90)" height="9.9621"/>
<rect y="-53.304" width="2.2217" x="212" transform="rotate(90)" height="6.3161"/>
</g>
<g stroke-width="1pt" transform="matrix(1.5197 0 0 1.5197 -70.36 -170.71)" fill="#fff">
<rect y="206.72" width="32.289" x="32.067" height="2.2217"/>
<rect y="217.83" width="2.2217" x="36.881" height="2.1576"/>
<rect y="-64.44" width="2.2217" x="217.76" transform="rotate(90)" height="6.453"/>
<rect y="206.72" width="2.2217" x="67.911" height="13.266"/>
<rect y="-80.765" width="2.2217" x="217.76" transform="rotate(90)" height="12.229"/>
<rect y="212.57" width="2.2217" x="57.987" height="7.4157"/>
<rect y="206.72" width="2.2217" x="67.911" transform="translate(11.035 -.000015259)" height="13.266"/>
<rect y="206.72" width="2.2217" x="73.391" height="13.266"/>
<rect y="-43.903" width="2.2217" x="212" transform="matrix(0 1 -1 0 .0092220 -.000015259)" height="11.785"/>
<rect y="-69.772" width="2.2217" x="212" transform="rotate(90)" height="11.785"/>
<rect y="212.57" width="2.2217" x="57.987" height="7.4157"/>
<rect y="212.57" width="2.2217" x="57.987" height="7.4157"/>
<rect y="212.57" width="2.2217" x="57.987" height="7.4157"/>
<rect y="212.57" width="2.2217" x="32.299" transform="translate(-.17213 -.000015259)" height="7.4157"/>
<rect y="212.57" width="2.2217" x="51.082" height="7.4157"/>
<rect y="212.57" width="2.2217" x="41.691" transform="translate(0 -.000015259)" height="7.4157"/>
<rect y="-52.641" width="2.2217" x="217.76" transform="rotate(90)" height="9.9621"/>
<rect y="-53.304" width="2.2217" x="212" transform="rotate(90)" height="6.3161"/>
</g>
<g stroke-width="1pt" transform="matrix(1.5197 0 0 1.5197 -150.96 -170.71)" fill="#fff">
<rect y="206.72" width="32.289" x="32.067" height="2.2217"/>
<rect y="217.83" width="2.2217" x="36.881" height="2.1576"/>
<rect y="-64.44" width="2.2217" x="217.76" transform="rotate(90)" height="6.453"/>
<rect y="206.72" width="2.2217" x="67.911" height="13.266"/>
<rect y="-80.765" width="2.2217" x="217.76" transform="rotate(90)" height="12.229"/>
<rect y="212.57" width="2.2217" x="57.987" height="7.4157"/>
<rect y="206.72" width="2.2217" x="67.911" transform="translate(11.035 -.000015259)" height="13.266"/>
<rect y="206.72" width="2.2217" x="73.391" height="13.266"/>
<rect y="-43.903" width="2.2217" x="212" transform="matrix(0 1 -1 0 .0092220 -.000015259)" height="11.785"/>
<rect y="-69.772" width="2.2217" x="212" transform="rotate(90)" height="11.785"/>
<rect y="212.57" width="2.2217" x="57.987" height="7.4157"/>
<rect y="212.57" width="2.2217" x="57.987" height="7.4157"/>
<rect y="212.57" width="2.2217" x="57.987" height="7.4157"/>
<rect y="212.57" width="2.2217" x="32.299" transform="translate(-.17213 -.000015259)" height="7.4157"/>
<rect y="212.57" width="2.2217" x="51.082" height="7.4157"/>
<rect y="212.57" width="2.2217" x="41.691" transform="translate(0 -.000015259)" height="7.4157"/>
<rect y="-52.641" width="2.2217" x="217.76" transform="rotate(90)" height="9.9621"/>
<rect y="-53.304" width="2.2217" x="212" transform="rotate(90)" height="6.3161"/>
</g>
<g stroke-width="1pt" transform="matrix(1.5197 0 0 1.5197 9.5646 -170.71)" fill="#fff">
<rect y="206.72" width="32.289" x="32.067" height="2.2217"/>
<rect y="217.83" width="2.2217" x="36.881" height="2.1576"/>
<rect y="-64.44" width="2.2217" x="217.76" transform="rotate(90)" height="6.453"/>
<rect y="206.72" width="2.2217" x="67.911" height="13.266"/>
<rect y="-80.765" width="2.2217" x="217.76" transform="rotate(90)" height="12.229"/>
<rect y="212.57" width="2.2217" x="57.987" height="7.4157"/>
<rect y="206.72" width="2.2217" x="67.911" transform="translate(11.035 -.000015259)" height="13.266"/>
<rect y="206.72" width="2.2217" x="73.391" height="13.266"/>
<rect y="-43.903" width="2.2217" x="212" transform="matrix(0 1 -1 0 .0092220 -.000015259)" height="11.785"/>
<rect y="-69.772" width="2.2217" x="212" transform="rotate(90)" height="11.785"/>
<rect y="212.57" width="2.2217" x="57.987" height="7.4157"/>
<rect y="212.57" width="2.2217" x="57.987" height="7.4157"/>
<rect y="212.57" width="2.2217" x="57.987" height="7.4157"/>
<rect y="212.57" width="2.2217" x="32.299" transform="translate(-.17213 -.000015259)" height="7.4157"/>
<rect y="212.57" width="2.2217" x="51.082" height="7.4157"/>
<rect y="212.57" width="2.2217" x="41.691" transform="translate(0 -.000015259)" height="7.4157"/>
<rect y="-52.641" width="2.2217" x="217.76" transform="rotate(90)" height="9.9621"/>
<rect y="-53.304" width="2.2217" x="212" transform="rotate(90)" height="6.3161"/>
</g>
<g stroke-width="1pt" transform="matrix(1.5197 0 0 1.5197 573.95 -170.71)" fill="#fff">
<rect y="206.72" width="32.289" x="32.067" height="2.2217"/>
<rect y="217.83" width="2.2217" x="36.881" height="2.1576"/>
<rect y="-64.44" width="2.2217" x="217.76" transform="rotate(90)" height="6.453"/>
<rect y="206.72" width="2.2217" x="67.911" height="13.266"/>
<rect y="-80.765" width="2.2217" x="217.76" transform="rotate(90)" height="12.229"/>
<rect y="212.57" width="2.2217" x="57.987" height="7.4157"/>
<rect y="206.72" width="2.2217" x="67.911" transform="translate(11.035 -.000015259)" height="13.266"/>
<rect y="206.72" width="2.2217" x="73.391" height="13.266"/>
<rect y="-43.903" width="2.2217" x="212" transform="matrix(0 1 -1 0 .0092220 -.000015259)" height="11.785"/>
<rect y="-69.772" width="2.2217" x="212" transform="rotate(90)" height="11.785"/>
<rect y="212.57" width="2.2217" x="57.987" height="7.4157"/>
<rect y="212.57" width="2.2217" x="57.987" height="7.4157"/>
<rect y="212.57" width="2.2217" x="57.987" height="7.4157"/>
<rect y="212.57" width="2.2217" x="32.299" transform="translate(-.17213 -.000015259)" height="7.4157"/>
<rect y="212.57" width="2.2217" x="51.082" height="7.4157"/>
<rect y="212.57" width="2.2217" x="41.691" transform="translate(0 -.000015259)" height="7.4157"/>
<rect y="-52.641" width="2.2217" x="217.76" transform="rotate(90)" height="9.9621"/>
<rect y="-53.304" width="2.2217" x="212" transform="rotate(90)" height="6.3161"/>
</g>
<g stroke-width="1pt" transform="matrix(1.5197 0 0 1.5197 90.01 -170.71)" fill="#fff">
<rect y="206.72" width="32.289" x="32.067" height="2.2217"/>
<rect y="217.83" width="2.2217" x="36.881" height="2.1576"/>
<rect y="-64.44" width="2.2217" x="217.76" transform="rotate(90)" height="6.453"/>
<rect y="206.72" width="2.2217" x="67.911" height="13.266"/>
<rect y="-80.765" width="2.2217" x="217.76" transform="rotate(90)" height="12.229"/>
<rect y="212.57" width="2.2217" x="57.987" height="7.4157"/>
<rect y="206.72" width="2.2217" x="67.911" transform="translate(11.035 -.000015259)" height="13.266"/>
<rect y="206.72" width="2.2217" x="73.391" height="13.266"/>
<rect y="-43.903" width="2.2217" x="212" transform="matrix(0 1 -1 0 .0092220 -.000015259)" height="11.785"/>
<rect y="-69.772" width="2.2217" x="212" transform="rotate(90)" height="11.785"/>
<rect y="212.57" width="2.2217" x="57.987" height="7.4157"/>
<rect y="212.57" width="2.2217" x="57.987" height="7.4157"/>
<rect y="212.57" width="2.2217" x="57.987" height="7.4157"/>
<rect y="212.57" width="2.2217" x="32.299" transform="translate(-.17213 -.000015259)" height="7.4157"/>
<rect y="212.57" width="2.2217" x="51.082" height="7.4157"/>
<rect y="212.57" width="2.2217" x="41.691" transform="translate(0 -.000015259)" height="7.4157"/>
<rect y="-52.641" width="2.2217" x="217.76" transform="rotate(90)" height="9.9621"/>
<rect y="-53.304" width="2.2217" x="212" transform="rotate(90)" height="6.3161"/>
</g>
<g stroke-width="1pt" transform="matrix(1.5197 0 0 1.5197 170.75 -170.71)" fill="#fff">
<rect y="206.72" width="32.289" x="32.067" height="2.2217"/>
<rect y="217.83" width="2.2217" x="36.881" height="2.1576"/>
<rect y="-64.44" width="2.2217" x="217.76" transform="rotate(90)" height="6.453"/>
<rect y="206.72" width="2.2217" x="67.911" height="13.266"/>
<rect y="-80.765" width="2.2217" x="217.76" transform="rotate(90)" height="12.229"/>
<rect y="212.57" width="2.2217" x="57.987" height="7.4157"/>
<rect y="206.72" width="2.2217" x="67.911" transform="translate(11.035 -.000015259)" height="13.266"/>
<rect y="206.72" width="2.2217" x="73.391" height="13.266"/>
<rect y="-43.903" width="2.2217" x="212" transform="matrix(0 1 -1 0 .0092220 -.000015259)" height="11.785"/>
<rect y="-69.772" width="2.2217" x="212" transform="rotate(90)" height="11.785"/>
<rect y="212.57" width="2.2217" x="57.987" height="7.4157"/>
<rect y="212.57" width="2.2217" x="57.987" height="7.4157"/>
<rect y="212.57" width="2.2217" x="57.987" height="7.4157"/>
<rect y="212.57" width="2.2217" x="32.299" transform="translate(-.17213 -.000015259)" height="7.4157"/>
<rect y="212.57" width="2.2217" x="51.082" height="7.4157"/>
<rect y="212.57" width="2.2217" x="41.691" transform="translate(0 -.000015259)" height="7.4157"/>
<rect y="-52.641" width="2.2217" x="217.76" transform="rotate(90)" height="9.9621"/>
<rect y="-53.304" width="2.2217" x="212" transform="rotate(90)" height="6.3161"/>
</g>
<g stroke-width="1pt" transform="matrix(1.5197 0 0 1.5197 251.96 -170.71)" fill="#fff">
<rect y="206.72" width="32.289" x="32.067" height="2.2217"/>
<rect y="217.83" width="2.2217" x="36.881" height="2.1576"/>
<rect y="-64.44" width="2.2217" x="217.76" transform="rotate(90)" height="6.453"/>
<rect y="206.72" width="2.2217" x="67.911" height="13.266"/>
<rect y="-80.765" width="2.2217" x="217.76" transform="rotate(90)" height="12.229"/>
<rect y="212.57" width="2.2217" x="57.987" height="7.4157"/>
<rect y="206.72" width="2.2217" x="67.911" transform="translate(11.035 -.000015259)" height="13.266"/>
<rect y="206.72" width="2.2217" x="73.391" height="13.266"/>
<rect y="-43.903" width="2.2217" x="212" transform="matrix(0 1 -1 0 .0092220 -.000015259)" height="11.785"/>
<rect y="-69.772" width="2.2217" x="212" transform="rotate(90)" height="11.785"/>
<rect y="212.57" width="2.2217" x="57.987" height="7.4157"/>
<rect y="212.57" width="2.2217" x="57.987" height="7.4157"/>
<rect y="212.57" width="2.2217" x="57.987" height="7.4157"/>
<rect y="212.57" width="2.2217" x="32.299" transform="translate(-.17213 -.000015259)" height="7.4157"/>
<rect y="212.57" width="2.2217" x="51.082" height="7.4157"/>
<rect y="212.57" width="2.2217" x="41.691" transform="translate(0 -.000015259)" height="7.4157"/>
<rect y="-52.641" width="2.2217" x="217.76" transform="rotate(90)" height="9.9621"/>
<rect y="-53.304" width="2.2217" x="212" transform="rotate(90)" height="6.3161"/>
</g>
<g stroke-width="1pt" transform="matrix(1.5197 0 0 1.5197 332.69 -170.71)" fill="#fff">
<rect y="206.72" width="32.289" x="32.067" height="2.2217"/>
<rect y="217.83" width="2.2217" x="36.881" height="2.1576"/>
<rect y="-64.44" width="2.2217" x="217.76" transform="rotate(90)" height="6.453"/>
<rect y="206.72" width="2.2217" x="67.911" height="13.266"/>
<rect y="-80.765" width="2.2217" x="217.76" transform="rotate(90)" height="12.229"/>
<rect y="212.57" width="2.2217" x="57.987" height="7.4157"/>
<rect y="206.72" width="2.2217" x="67.911" transform="translate(11.035 -.000015259)" height="13.266"/>
<rect y="206.72" width="2.2217" x="73.391" height="13.266"/>
<rect y="-43.903" width="2.2217" x="212" transform="matrix(0 1 -1 0 .0092220 -.000015259)" height="11.785"/>
<rect y="-69.772" width="2.2217" x="212" transform="rotate(90)" height="11.785"/>
<rect y="212.57" width="2.2217" x="57.987" height="7.4157"/>
<rect y="212.57" width="2.2217" x="57.987" height="7.4157"/>
<rect y="212.57" width="2.2217" x="57.987" height="7.4157"/>
<rect y="212.57" width="2.2217" x="32.299" transform="translate(-.17213 -.000015259)" height="7.4157"/>
<rect y="212.57" width="2.2217" x="51.082" height="7.4157"/>
<rect y="212.57" width="2.2217" x="41.691" transform="translate(0 -.000015259)" height="7.4157"/>
<rect y="-52.641" width="2.2217" x="217.76" transform="rotate(90)" height="9.9621"/>
<rect y="-53.304" width="2.2217" x="212" transform="rotate(90)" height="6.3161"/>
</g>
<g stroke-width="1pt" transform="matrix(1.5197 0 0 1.5197 413.43 -170.71)" fill="#fff">
<rect y="206.72" width="32.289" x="32.067" height="2.2217"/>
<rect y="217.83" width="2.2217" x="36.881" height="2.1576"/>
<rect y="-64.44" width="2.2217" x="217.76" transform="rotate(90)" height="6.453"/>
<rect y="206.72" width="2.2217" x="67.911" height="13.266"/>
<rect y="-80.765" width="2.2217" x="217.76" transform="rotate(90)" height="12.229"/>
<rect y="212.57" width="2.2217" x="57.987" height="7.4157"/>
<rect y="206.72" width="2.2217" x="67.911" transform="translate(11.035 -.000015259)" height="13.266"/>
<rect y="206.72" width="2.2217" x="73.391" height="13.266"/>
<rect y="-43.903" width="2.2217" x="212" transform="matrix(0 1 -1 0 .0092220 -.000015259)" height="11.785"/>
<rect y="-69.772" width="2.2217" x="212" transform="rotate(90)" height="11.785"/>
<rect y="212.57" width="2.2217" x="57.987" height="7.4157"/>
<rect y="212.57" width="2.2217" x="57.987" height="7.4157"/>
<rect y="212.57" width="2.2217" x="57.987" height="7.4157"/>
<rect y="212.57" width="2.2217" x="32.299" transform="translate(-.17213 -.000015259)" height="7.4157"/>
<rect y="212.57" width="2.2217" x="51.082" height="7.4157"/>
<rect y="212.57" width="2.2217" x="41.691" transform="translate(0 -.000015259)" height="7.4157"/>
<rect y="-52.641" width="2.2217" x="217.76" transform="rotate(90)" height="9.9621"/>
<rect y="-53.304" width="2.2217" x="212" transform="rotate(90)" height="6.3161"/>
</g>
<g stroke-width="1pt" transform="matrix(1.5197 0 0 1.5197 494.64 -170.71)" fill="#fff">
<rect y="206.72" width="32.289" x="32.067" height="2.2217"/>
<rect y="217.83" width="2.2217" x="36.881" height="2.1576"/>
<rect y="-64.44" width="2.2217" x="217.76" transform="rotate(90)" height="6.453"/>
<rect y="206.72" width="2.2217" x="67.911" height="13.266"/>
<rect y="-80.765" width="2.2217" x="217.76" transform="rotate(90)" height="12.229"/>
<rect y="212.57" width="2.2217" x="57.987" height="7.4157"/>
<rect y="206.72" width="2.2217" x="67.911" transform="translate(11.035 -.000015259)" height="13.266"/>
<rect y="206.72" width="2.2217" x="73.391" height="13.266"/>
<rect y="-43.903" width="2.2217" x="212" transform="matrix(0 1 -1 0 .0092220 -.000015259)" height="11.785"/>
<rect y="-69.772" width="2.2217" x="212" transform="rotate(90)" height="11.785"/>
<rect y="212.57" width="2.2217" x="57.987" height="7.4157"/>
<rect y="212.57" width="2.2217" x="57.987" height="7.4157"/>
<rect y="212.57" width="2.2217" x="57.987" height="7.4157"/>
<rect y="212.57" width="2.2217" x="32.299" transform="translate(-.17213 -.000015259)" height="7.4157"/>
<rect y="212.57" width="2.2217" x="51.082" height="7.4157"/>
<rect y="212.57" width="2.2217" x="41.691" transform="translate(0 -.000015259)" height="7.4157"/>
<rect y="-52.641" width="2.2217" x="217.76" transform="rotate(90)" height="9.9621"/>
<rect y="-53.304" width="2.2217" x="212" transform="rotate(90)" height="6.3161"/>
</g>
<g stroke-width="1pt" transform="matrix(1.5197 0 0 1.5197 -232.52 -170.71)" fill="#fff">
<rect y="206.72" width="32.289" x="32.067" height="2.2217"/>
<rect y="217.83" width="2.2217" x="36.881" height="2.1576"/>
<rect y="-64.44" width="2.2217" x="217.76" transform="rotate(90)" height="6.453"/>
<rect y="206.72" width="2.2217" x="67.911" height="13.266"/>
<rect y="-80.765" width="2.2217" x="217.76" transform="rotate(90)" height="12.229"/>
<rect y="212.57" width="2.2217" x="57.987" height="7.4157"/>
<rect y="206.72" width="2.2217" x="67.911" transform="translate(11.035 -.000015259)" height="13.266"/>
<rect y="206.72" width="2.2217" x="73.391" height="13.266"/>
<rect y="-43.903" width="2.2217" x="212" transform="matrix(0 1 -1 0 .0092220 -.000015259)" height="11.785"/>
<rect y="-69.772" width="2.2217" x="212" transform="rotate(90)" height="11.785"/>
<rect y="212.57" width="2.2217" x="57.987" height="7.4157"/>
<rect y="212.57" width="2.2217" x="57.987" height="7.4157"/>
<rect y="212.57" width="2.2217" x="57.987" height="7.4157"/>
<rect y="212.57" width="2.2217" x="32.299" transform="translate(-.17213 -.000015259)" height="7.4157"/>
<rect y="212.57" width="2.2217" x="51.082" height="7.4157"/>
<rect y="212.57" width="2.2217" x="41.691" transform="translate(0 -.000015259)" height="7.4157"/>
<rect y="-52.641" width="2.2217" x="217.76" transform="rotate(90)" height="9.9621"/>
<rect y="-53.304" width="2.2217" x="212" transform="rotate(90)" height="6.3161"/>
</g>
<g stroke-width="1pt" transform="matrix(1.0321 0 0 1.0321 -191.96 176.9)" fill="#d90000">
<rect y="157.55" width="5.8601" x="119.3" height="10.178"/>
<rect y="157.55" width="5.8601" x="274.84" height="10.178"/>
<rect y="157.55" width="5.8601" x="-.042406" height="10.178"/>
<rect y="157.55" width="5.8601" x="39.308" transform="translate(39.591 -.000015259)" height="10.178"/>
<rect y="157.55" width="5.8601" x="39.308" transform="translate(117.97 -.000015259)" height="10.178"/>
<rect y="157.55" width="5.8601" x="39.308" transform="translate(156.75 -.000015259)" height="10.178"/>
<rect y="157.55" width="5.8601" x="39.308" transform="translate(196.34 -.000015259)" height="10.178"/>
<rect y="157.55" width="5.8601" x="313.62" height="10.178"/>
<rect y="157.55" width="5.8601" x="510.36" height="10.178"/>
<rect y="157.55" width="5.8601" x="39.308" transform="translate(313.9 -.000015259)" height="10.178"/>
<rect y="157.55" width="5.8601" x="39.308" transform="translate(352.69 -.000015259)" height="10.178"/>
<rect y="157.55" width="5.8601" x="39.308" transform="translate(391.87 -.000015259)" height="10.178"/>
<rect y="157.55" width="5.8601" x="39.308" transform="translate(431.06 -.000015259)" height="10.178"/>
<rect y="157.55" width="5.8601" x="783.46" height="10.178"/>
<rect y="157.55" width="5.8601" x="39.308" transform="translate(509.03 -.000015259)" height="10.178"/>
<rect y="157.55" width="5.8601" x="39.308" transform="translate(548.62 -.000015259)" height="10.178"/>
<rect y="157.55" width="5.8601" x="39.308" transform="translate(588.62 -.000015259)" height="10.178"/>
<rect y="157.55" width="5.8601" x="39.308" transform="translate(626.19 -.000015259)" height="10.178"/>
<rect y="157.55" width="5.8601" x="39.308" transform="translate(666.18 -.000015259)" height="10.178"/>
<rect y="157.55" width="5.8601" x="39.308" transform="translate(705.37 -.000015259)" height="10.178"/>
<rect y="157.55" width="5.8601" x="860.63" height="10.178"/>
<rect y="157.55" width="5.8601" x="39.308" transform="translate(783.75 -.000015259)" height="10.178"/>
<rect y="157.55" width="5.8601" x="39.308" height="10.178"/>
</g>
<g stroke-width="1pt" transform="matrix(1.0321 0 0 1.0321 -191.96 .0000025820)" fill="#239e3f">
<rect y="157.55" width="5.8601" x="119.3" height="10.178"/>
<rect y="157.55" width="5.8601" x="274.84" height="10.178"/>
<rect y="157.55" width="5.8601" x="-.042406" height="10.178"/>
<rect y="157.55" width="5.8601" x="39.308" transform="translate(39.591 -.000015259)" height="10.178"/>
<rect y="157.55" width="5.8601" x="39.308" transform="translate(117.97 -.000015259)" height="10.178"/>
<rect y="157.55" width="5.8601" x="39.308" transform="translate(156.75 -.000015259)" height="10.178"/>
<rect y="157.55" width="5.8601" x="39.308" transform="translate(196.34 -.000015259)" height="10.178"/>
<rect y="157.55" width="5.8601" x="313.62" height="10.178"/>
<rect y="157.55" width="5.8601" x="510.36" height="10.178"/>
<rect y="157.55" width="5.8601" x="39.308" transform="translate(313.9 -.000015259)" height="10.178"/>
<rect y="157.55" width="5.8601" x="39.308" transform="translate(352.69 -.000015259)" height="10.178"/>
<rect y="157.55" width="5.8601" x="39.308" transform="translate(391.87 -.000015259)" height="10.178"/>
<rect y="157.55" width="5.8601" x="39.308" transform="translate(431.06 -.000015259)" height="10.178"/>
<rect y="157.55" width="5.8601" x="783.46" height="10.178"/>
<rect y="157.55" width="5.8601" x="39.308" transform="translate(509.03 -.000015259)" height="10.178"/>
<rect y="157.55" width="5.8601" x="39.308" transform="translate(548.62 -.000015259)" height="10.178"/>
<rect y="157.55" width="5.8601" x="39.308" transform="translate(588.62 -.000015259)" height="10.178"/>
<rect y="157.55" width="5.8601" x="39.308" transform="translate(626.19 -.000015259)" height="10.178"/>
<rect y="157.55" width="5.8601" x="39.308" transform="translate(666.18 -.000015259)" height="10.178"/>
<rect y="157.55" width="5.8601" x="39.308" transform="translate(705.37 -.000015259)" height="10.178"/>
<rect y="157.55" width="5.8601" x="860.63" height="10.178"/>
<rect y="157.55" width="5.8601" x="39.308" transform="translate(783.75 -.000015259)" height="10.178"/>
<rect y="157.55" width="5.8601" x="39.308" height="10.178"/>
</g>
<g transform="matrix(1.0321 0 0 1.0321 -179.65 -532.01)" fill="#da0000">
<path d="m445.16 706.81c8.19 10.039 33.438 65.548-15.241 101.91-22.884 17.223-8.714 18.093-8.037 20.988 36.785-19.539 48.799-46.013 48.52-69.727-0.28-23.715-12.853-44.669-25.242-53.167z"/>
<path d="m450.03 704.23c18.166 9.301 57.701 56.079 15.149 108.85 26.439-5.868 60.053-83.729-15.149-108.85z"/>
<path d="m394.24 704.23c-18.166 9.301-57.701 56.079-15.149 108.85-26.439-5.868-60.053-83.729 15.149-108.85z"/>
<path d="m399.04 706.81c-8.19 10.039-33.438 65.548 15.241 101.91 22.884 17.223 8.714 18.093 8.037 20.988-36.785-19.539-48.799-46.013-48.52-69.727 0.28-23.715 12.853-44.669 25.242-53.167z"/>
<path d="m468.8 824.65c-14.398 0.228-32.549-1.984-46.01-8.979 2.217 4.311 4.059 7.026 6.276 11.337 12.838 1.184 30.554 2.649 39.734-2.358z"/>
<path d="m376.78 824.65c14.398 0.228 32.549-1.984 46.01-8.979-2.217 4.311-4.059 7.026-6.276 11.337-12.838 1.184-30.554 2.649-39.734-2.358z"/>
<path d="m403.19 690.25c2.917 7.753 10.57 8.88 18.762 4.315 5.97 3.582 15.202 3.809 18.386-3.94 2.421 19.169-17.736 14.634-18.487 10.882-7.504 7.254-21.475 3.064-18.661-11.257z"/>
<path d="m422.49 836.72 7.57-8.652 1.082-116.44-9.012-7.931-9.012 7.57 1.802 117.16 7.57 8.291z"/>
</g>
</g>
</svg>
</g>
</g>
<image y="0" width="1280" xlink:href="fore.png" x="0" height="960"/>
<defs xmlns:inkscape="http://www.inkscape.org/namespaces/inkscape">
<clipPath id="e" clipPathUnits="userSpaceOnUse">
<rect rx="67" ry="67" height="745" width="1065" y="107" x="107"/>
</clipPath>
<linearGradient id="c" y2="271.72" gradientUnits="userSpaceOnUse" x2="334.98" y1="-224.86" x1="10.981">
<stop stop-color="#fff" offset="0"/>
<stop stop-color="#fff" stop-opacity="0" offset="1"/>
</linearGradient>
</defs>
<g xmlns:inkscape="http://www.inkscape.org/namespaces/inkscape" xmlns:rdf="http://www.w3.org/1999/02/22-rdf-syntax-ns#" clip-path="url(#e)" height="745" width="1065" y="107" x="107" xmlns:cc="http://creativecommons.org/ns#" xmlns:sodipodi="http://sodipodi.sourceforge.net/DTD/sodipodi-0.dtd" xmlns:dc="http://purl.org/dc/elements/1.1/">
<g transform="translate(106,75) scale(1.667)" height="960" width="1280" y="75" x="106">
<svg height="480" width="640" version="1" y="0" x="0">
<metadata>
<rdf:RDF>
<cc:Work rdf:about="">
<dc:format>image/svg+xml</dc:format>
<dc:type rdf:resource="http://purl.org/dc/dcmitype/StillImage"/>
<dc:title/>
</cc:Work>
</rdf:RDF>
</metadata>
<rect fill-rule="evenodd" height="480" width="640" y="0" x="0" stroke-width="1pt" fill="url(#c)"/>
</svg>
</g>
</g>
</svg>
