<?xml version="1.0" encoding="UTF-8" standalone="no"?>
<svg xmlns="http://www.w3.org/2000/svg" viewBox="0 0 1280 960" version="1.1" xmlns:xlink="http://www.w3.org/1999/xlink" viewbox="0 0 1280.0px 960.0px">
<defs xmlns:inkscape="http://www.inkscape.org/namespaces/inkscape">
<filter id="d" style="color-interpolation-filters:sRGB" height="1.14" width="1.0979" y="-.069990" x="-.048937">
<feGaussianBlur stdDeviation="21.6452"/>
</filter>
</defs>
<metadata xmlns:rdf="http://www.w3.org/1999/02/22-rdf-syntax-ns#" xmlns:cc="http://creativecommons.org/ns#" xmlns:dc="http://purl.org/dc/elements/1.1/">
<rdf:RDF>
<cc:Work rdf:about="">
<dc:title/>
<dc:format>image/svg+xml</dc:format>
<dc:type rdf:resource="http://purl.org/dc/dcmitype/StillImage"/>
</cc:Work>
</rdf:RDF>
</metadata>
<g xmlns:inkscape="http://www.inkscape.org/namespaces/inkscape" height="745" width="1065" y="107" x="107">
<g opacity=".74438" transform="translate(-36.847 .94915)" filter="url(#d)">
<g height="745" width="1065" y="107" x="107">
<rect opacity=".978" stroke-linejoin="round" ry="68.009" height="742.22" width="1061.5" stroke="#000" y="107.87" x="147.87" stroke-width="2.2345"/>
</g>
</g>
</g>
<defs>
<clipPath id="g" clipPathUnits="userSpaceOnUse">
<rect rx="67" ry="67" height="745" width="1065" y="107" x="107"/>
</clipPath>
</defs>
<image y="0" width="1280" xlink:href="back.png" x="0" height="960"/>
<g y="107" width="1065" height="745" x="107" clip-path="url(#g)">
<g y="75" width="1280" x="106" transform="translate(106,75) scale(1.667)" height="960">
<svg xmlns:rdf="http://www.w3.org/1999/02/22-rdf-syntax-ns#" height="480" width="640" version="1" y="0" x="0" xmlns:cc="http://creativecommons.org/ns#" xmlns:dc="http://purl.org/dc/elements/1.1/">
<metadata>
<rdf:RDF>
<cc:Work rdf:about="">
<dc:format>image/svg+xml</dc:format>
<dc:type rdf:resource="http://purl.org/dc/dcmitype/StillImage"/>
</cc:Work>
</rdf:RDF>
</metadata>
<defs>
<clipPath id="f" clipPathUnits="userSpaceOnUse">
<rect y="-.43991" width="682.67" height="512" x="-95.808" fill-opacity=".67"/>
</clipPath>
</defs>
<g fill-rule="evenodd" transform="matrix(.9375 0 0 .9375 89.82 .41242)" clip-path="url(#f)">
<rect transform="scale(-1)" height="512" width="730.17" y="-511.56" x="-610.61" fill="#fff"/>
<path fill="#fff" d="m495.86 1148c0 90.46-73.332 163.79-163.79 163.79-90.46 0-163.79-73.332-163.79-163.79 0-90.46 73.332-163.79 163.79-163.79 90.46 0 163.79 73.332 163.79 163.79z" transform="matrix(.68690 0 0 .68690 -88.735 -532.54)"/>
<path fill="#c70000" d="m733.7 381.73c0 125.78-101.96 227.74-227.74 227.74s-227.74-101.96-227.74-227.74 101.96-227.74 227.74-227.74 227.74 101.96 227.74 227.74z" transform="matrix(.63784 0 0 .64461 -74.972 16.483)"/>
<rect transform="rotate(-49.156)" height="26.201" width="127.92" y="45.309" x="-127.97" stroke-width="1pt"/>
<rect transform="rotate(-49.156)" height="26.201" width="127.92" y="81.527" x="-127.97" stroke-width="1pt"/>
<rect transform="rotate(-49.156)" height="26.201" width="127.92" y="45.309" x="-127.97" stroke-width="1pt"/>
<rect transform="rotate(-49.156)" height="26.201" width="127.92" y="45.309" x="-127.97" stroke-width="1pt"/>
<rect transform="rotate(-49.156)" height="26.201" width="127.92" y="118.52" x="-127.97" stroke-width="1pt"/>
<rect transform="rotate(-49.156)" height="26.201" width="127.92" y="45.309" x="-127.97" stroke-width="1pt"/>
<rect transform="rotate(-49.156)" height="26.201" width="127.92" y="45.309" x="-127.97" stroke-width="1pt"/>
<rect transform="matrix(.64886 .76090 -.76090 .64886 0 0)" height="26.201" width="127.92" y="-330.34" x="320.65" stroke-width="1pt"/>
<rect transform="matrix(.64886 .76090 -.76090 .64886 0 0)" height="26.201" width="127.92" y="-257.13" x="320.65" stroke-width="1pt"/>
<path d="m417.55 133.19 78.602-67.814 14.641 16.953-83.996 75.519-9.2471-24.659z" fill="#fff"/>
<rect transform="matrix(-.64282 .76602 -.76881 -.63948 0 0)" height="25.644" width="125.1" y="-633.05" x="-42.832" stroke-width="1pt"/>
<rect transform="matrix(.64886 .76090 -.76090 .64886 0 0)" height="26.201" width="127.92" y="-294.12" x="320.65" stroke-width="1pt"/>
<rect transform="matrix(-.64282 .76602 -.76881 -.63948 0 0)" height="25.644" width="125.1" y="-668.49" x="-42.832" stroke-width="1pt"/>
<rect transform="matrix(-.64282 .76602 -.76881 -.63948 0 0)" height="25.644" width="125.1" y="-596.84" x="-42.832" stroke-width="1pt"/>
<path d="m104.6 236.68c4.5919 36.974 11.297 78.175 68.199 82.455 21.328 1.2776 62.817-5.0735 77.061-63.19 18.688-55.829 74.975-71.88 113.28-41.613 21.718 14.166 27.727 36.666 29.283 53.557-1.7386 54.243-32.874 101.2-72.823 122.14-45.93 27.3-109.56 27.87-165.3-13.49-25.12-23.57-60.219-67.02-49.7-139.86z" fill="#3d5897"/>
<path d="m435.91 370.59 78.734 67.661-14.591 16.997-87.156-71.851 23.013-12.807z" fill="#fff"/>
<rect transform="matrix(.64886 .76090 -.76090 .64886 0 0)" height="26.201" width="127.92" y="233.21" x="270.57" stroke-width="1pt"/>
<path stroke-width="1pt" d="m-16.188 437.25 78.602-67.814 14.641 16.953-83.996 75.519-9.2471-24.659z" fill="#fff"/>
<rect transform="matrix(.64886 .76090 -.76090 .64886 0 0)" height="26.201" width="127.92" y="196.99" x="270.57" stroke-width="1pt"/>
<rect transform="matrix(.64886 .76090 -.76090 .64886 0 0)" height="26.201" width="127.92" y="270.2" x="270.57" stroke-width="1pt"/>
</g>
</svg>
</g>
</g>
<image y="0" width="1280" xlink:href="fore.png" x="0" height="960"/>
<defs xmlns:inkscape="http://www.inkscape.org/namespaces/inkscape">
<clipPath id="e" clipPathUnits="userSpaceOnUse">
<rect rx="67" ry="67" height="745" width="1065" y="107" x="107"/>
</clipPath>
<linearGradient id="c" y2="271.72" gradientUnits="userSpaceOnUse" x2="334.98" y1="-224.86" x1="10.981">
<stop stop-color="#fff" offset="0"/>
<stop stop-color="#fff" stop-opacity="0" offset="1"/>
</linearGradient>
</defs>
<g xmlns:inkscape="http://www.inkscape.org/namespaces/inkscape" xmlns:rdf="http://www.w3.org/1999/02/22-rdf-syntax-ns#" clip-path="url(#e)" height="745" width="1065" y="107" x="107" xmlns:cc="http://creativecommons.org/ns#" xmlns:sodipodi="http://sodipodi.sourceforge.net/DTD/sodipodi-0.dtd" xmlns:dc="http://purl.org/dc/elements/1.1/">
<g transform="translate(106,75) scale(1.667)" height="960" width="1280" y="75" x="106">
<svg height="480" width="640" version="1" y="0" x="0">
<metadata>
<rdf:RDF>
<cc:Work rdf:about="">
<dc:format>image/svg+xml</dc:format>
<dc:type rdf:resource="http://purl.org/dc/dcmitype/StillImage"/>
<dc:title/>
</cc:Work>
</rdf:RDF>
</metadata>
<rect fill-rule="evenodd" height="480" width="640" y="0" x="0" stroke-width="1pt" fill="url(#c)"/>
</svg>
</g>
</g>
</svg>
