<?xml version="1.0" encoding="UTF-8" standalone="no"?>
<svg xmlns="http://www.w3.org/2000/svg" viewBox="0 0 1280 960" version="1.1" xmlns:xlink="http://www.w3.org/1999/xlink" viewbox="0 0 1280.0px 960.0px">
<defs xmlns:inkscape="http://www.inkscape.org/namespaces/inkscape">
<filter id="d" style="color-interpolation-filters:sRGB" height="1.14" width="1.0979" y="-.069990" x="-.048937">
<feGaussianBlur stdDeviation="21.6452"/>
</filter>
</defs>
<metadata xmlns:rdf="http://www.w3.org/1999/02/22-rdf-syntax-ns#" xmlns:cc="http://creativecommons.org/ns#" xmlns:dc="http://purl.org/dc/elements/1.1/">
<rdf:RDF>
<cc:Work rdf:about="">
<dc:title/>
<dc:format>image/svg+xml</dc:format>
<dc:type rdf:resource="http://purl.org/dc/dcmitype/StillImage"/>
</cc:Work>
</rdf:RDF>
</metadata>
<g xmlns:inkscape="http://www.inkscape.org/namespaces/inkscape" height="745" width="1065" y="107" x="107">
<g opacity=".74438" transform="translate(-36.847 .94915)" filter="url(#d)">
<g height="745" width="1065" y="107" x="107">
<rect opacity=".978" stroke-linejoin="round" ry="68.009" height="742.22" width="1061.5" stroke="#000" y="107.87" x="147.87" stroke-width="2.2345"/>
</g>
</g>
</g>
<defs>
<clipPath id="g" clipPathUnits="userSpaceOnUse">
<rect rx="67" ry="67" height="745" width="1065" y="107" x="107"/>
</clipPath>
</defs>
<image y="0" width="1280" xlink:href="back.png" x="0" height="960"/>
<g y="107" width="1065" height="745" x="107" clip-path="url(#g)">
<g y="75" width="1280" x="106" transform="translate(106,75) scale(1.667)" height="960">
<svg xmlns:rdf="http://www.w3.org/1999/02/22-rdf-syntax-ns#" height="480" width="640" version="1.0" xmlns:cc="http://creativecommons.org/ns#" viewBox="0 0 320 240" xmlns:dc="http://purl.org/dc/elements/1.1/">
<metadata>
<rdf:RDF>
<cc:Work rdf:about="">
<dc:format>image/svg+xml</dc:format>
<dc:type rdf:resource="http://purl.org/dc/dcmitype/StillImage"/>
</cc:Work>
</rdf:RDF>
</metadata>
<defs>
<clipPath id="f" clipPathUnits="userSpaceOnUse">
<rect y="-60" width="400" x="25" height="300"/>
</clipPath>
</defs>
<g transform="matrix(.8 0 0 .8 -20 48)" clip-path="url(#f)">
<rect y="-60" width="450" fill="#fff" x="0" height="300"/>
<rect y="150" width="450" fill="#009543" x="0" height="90"/>
<rect y="-60" width="450" fill="#00209f" x="0" height="90"/>
<g transform="matrix(1.137 0 0 1.137 -30.564 -88.26)">
<path stroke="#000" stroke-width=".87955px" d="m224.57 108.91c-1.5039 0.0324-2.9712 1.6982-2.9712 1.6982l0.12957 17.796-5.6184 5.8859h4.5482l-0.0384 10.205-26.907 36.231-3.9775-1.3748-6.952 14.83s17.195 10.767 42.152 10.473c27.392-0.32574 42.274-10.969 42.274-10.969l-7.1839-14.639-3.5178 1.5298-27.251-36.043-0.0384-10.51h4.5482l-6.1901-5.8127 0.0366-17.731s-1.5405-1.601-3.0443-1.5687z"/>
<path stroke="#000" stroke-width="4.3977" d="m233.95 151.52h-18.605s-6.7528-14.228-5.6582-24.175c1.1146-10.128 6.9029-14.919 14.599-15.004 9.0988-0.10138 13.868 4.4585 15.308 14.599 1.4276 10.048-5.6442 24.58-5.6442 24.58z" fill="none"/>
<path d="m192.05 185.43c-0.30414 0.40552-2.5345 4.8662-2.5345 4.8662l3.8524-0.81104-1.3179-4.0552z" fill="#fff"/>
<path d="m194.28 191.21-4.0552 1.3179 4.8662 1.9262-0.81104-3.2442z" fill="#fff"/>
<path d="m196.11 185.54 2.0276 5.9814 4.9676-1.4193-1.3179-2.8386-5.6773-1.7234z" fill="#fff"/>
<path d="m199.25 193.65 0.70966 2.4331 6.5897 1.6221-2.6359-5.5759-4.6635 1.5207z" fill="#fff"/>
<path d="m206.55 188.58 2.3317 5.5759 4.9676-1.9262-1.6221-2.4331-5.6773-1.2166z" fill="#fff"/>
<path d="m209.79 196.18 0.81103 2.129 7.7049 1.1152-3.2442-5.069-5.2717 1.8248z" fill="#fff"/>
<path d="m217.19 190.2 2.8386 4.9676 7.198-2.6359-0.81103-1.9262-9.2256-0.40552z" fill="#fff"/>
<path d="m221.35 196.99 1.5207 2.6359 8.9214-0.30414-3.3455-4.9676-7.0966 2.6359z" fill="#fff"/>
<path d="m230.78 190.4 2.4331 4.1566 5.6773-2.7372-1.5207-2.2304-6.5897 0.81104z" fill="#fff"/>
<path d="m240.1 193.54-5.6773 2.8386 1.5207 2.4331 7.6035-1.2166-3.4469-4.0552z" fill="#fff"/>
<path d="m241.93 189.18 2.94 3.6497 4.7648-3.751-1.6221-1.7234-6.0828 1.8248z" fill="#fff"/>
<path d="m250.65 191.11-4.5621 3.4469 1.2166 2.129 6.2855-1.6221-2.94-3.9538z" fill="#fff"/>
<path d="m256.93 183.91 1.1152 1.6221-3.1428 4.6635-3.2442-4.1566 5.2717-2.129z" fill="#fff"/>
<path d="m259.06 187.97 1.9262 3.8524-3.8524 1.3179-0.30414-1.8248 2.2304-3.3455z" fill="#fff"/>
</g>
</g>
</svg>
</g>
</g>
<image y="0" width="1280" xlink:href="fore.png" x="0" height="960"/>
<defs xmlns:inkscape="http://www.inkscape.org/namespaces/inkscape">
<clipPath id="e" clipPathUnits="userSpaceOnUse">
<rect rx="67" ry="67" height="745" width="1065" y="107" x="107"/>
</clipPath>
<linearGradient id="c" y2="271.72" gradientUnits="userSpaceOnUse" x2="334.98" y1="-224.86" x1="10.981">
<stop stop-color="#fff" offset="0"/>
<stop stop-color="#fff" stop-opacity="0" offset="1"/>
</linearGradient>
</defs>
<g xmlns:inkscape="http://www.inkscape.org/namespaces/inkscape" xmlns:rdf="http://www.w3.org/1999/02/22-rdf-syntax-ns#" clip-path="url(#e)" height="745" width="1065" y="107" x="107" xmlns:cc="http://creativecommons.org/ns#" xmlns:sodipodi="http://sodipodi.sourceforge.net/DTD/sodipodi-0.dtd" xmlns:dc="http://purl.org/dc/elements/1.1/">
<g transform="translate(106,75) scale(1.667)" height="960" width="1280" y="75" x="106">
<svg height="480" width="640" version="1" y="0" x="0">
<metadata>
<rdf:RDF>
<cc:Work rdf:about="">
<dc:format>image/svg+xml</dc:format>
<dc:type rdf:resource="http://purl.org/dc/dcmitype/StillImage"/>
<dc:title/>
</cc:Work>
</rdf:RDF>
</metadata>
<rect fill-rule="evenodd" height="480" width="640" y="0" x="0" stroke-width="1pt" fill="url(#c)"/>
</svg>
</g>
</g>
</svg>
