<?xml version="1.0" encoding="UTF-8" standalone="no"?>
<svg xmlns="http://www.w3.org/2000/svg" viewBox="0 0 1280 960" version="1.1" xmlns:xlink="http://www.w3.org/1999/xlink" viewbox="0 0 1280.0px 960.0px">
<defs xmlns:inkscape="http://www.inkscape.org/namespaces/inkscape">
<filter id="c" style="color-interpolation-filters:sRGB" height="1.14" width="1.0979" y="-.069990" x="-.048937">
<feGaussianBlur stdDeviation="21.6452"/>
</filter>
</defs>
<metadata xmlns:rdf="http://www.w3.org/1999/02/22-rdf-syntax-ns#" xmlns:cc="http://creativecommons.org/ns#" xmlns:dc="http://purl.org/dc/elements/1.1/">
<rdf:RDF>
<cc:Work rdf:about="">
<dc:title/>
<dc:format>image/svg+xml</dc:format>
<dc:type rdf:resource="http://purl.org/dc/dcmitype/StillImage"/>
</cc:Work>
</rdf:RDF>
</metadata>
<g xmlns:inkscape="http://www.inkscape.org/namespaces/inkscape" height="745" width="1065" y="107" x="107">
<g opacity=".74438" transform="translate(-36.847 .94915)" filter="url(#c)">
<g height="745" width="1065" y="107" x="107">
<rect opacity=".978" stroke-linejoin="round" ry="68.009" height="742.22" width="1061.5" stroke="#000" y="107.87" x="147.87" stroke-width="2.2345"/>
</g>
</g>
</g>
<defs>
<clipPath id="e" clipPathUnits="userSpaceOnUse">
<rect rx="67" ry="67" height="745" width="1065" y="107" x="107"/>
</clipPath>
</defs>
<image y="0" width="1280" xlink:href="back.png" x="0" height="960"/>
<g y="107" width="1065" height="745" x="107" clip-path="url(#e)">
<g y="75" width="1280" x="106" transform="translate(106,75) scale(1.667)" height="960">
<svg xmlns:rdf="http://www.w3.org/1999/02/22-rdf-syntax-ns#" height="480" width="640" version="1.1" xmlns:cc="http://creativecommons.org/ns#" xmlns:dc="http://purl.org/dc/elements/1.1/">
<metadata>
<rdf:RDF>
<cc:Work rdf:about="">
<dc:format>image/svg+xml</dc:format>
<dc:type rdf:resource="http://purl.org/dc/dcmitype/StillImage"/>
</cc:Work>
</rdf:RDF>
</metadata>
<g fill-rule="evenodd">
<rect height="480" width="640" y="-.0000012424" x="0" stroke-width="1pt" fill="#d61517"/>
<rect height="480" width="213.33" y=".0000085924" x="213.33" stroke-width="1pt" fill="#018edf"/>
<path stroke-width="1pt" fill="#ffd700" d="m102.54 244.2c9.9123 0.28641 11.437-3.1522 11.437-6.5908v-11.748c0-1.4326 3.8122-2.8652 3.8122-5.4446 0-2.5788-1.9061-5.444-2.6682-7.1636-1.144 4.2984-3.05 8.5967-6.4819 10.029-1.525-3.4386-1.9061-4.5848-1.1432-6.3044 0.76213-1.719 0-4.2978-1.525-6.8766-1.144 5.444-4.5751 6.8772-4.9561 8.5962-0.38181 1.719-1.525 6.5908-3.8129 4.0114-2.2872-2.5788-3.8122-5.7304-4.9561-9.169-2.2879 6.8766-1.144 8.3098-0.38107 9.456 0.76214 1.1462 1.525 4.5848 1.525 6.0174s-1.525 7.1636-0.76289 8.8831c0.76289 1.719 1.144 6.8766 9.913 6.3038z" fill-opacity=".86667"/>
<path stroke-width="1pt" transform="matrix(.63753 0 0 .47916 -10.775 155.89)" fill="#ffd700" d="m221.01 236.08a39.212 39.212 0 1 1 -78.424 0 39.212 39.212 0 1 1 78.424 0z" fill-opacity=".86667"/>
<path stroke-width="1pt" fill="#ffd700" d="m140 276.43c-13.198 18.438-38.615 23.562-57.462 11.202-4.968-3.2571-8.6015-6.9044-12.058-11.575 3.1169 13.254 12.565 22.638 25.64 25.988 19.245 4.9294 38.903-6.5459 43.879-25.615z" fill-opacity=".86667"/>
<rect fill-opacity=".86667" height="15.473" width="74.379" y="421.71" x="66.874" stroke-width="1pt" fill="#ffd700"/>
<path stroke-width="1pt" fill="#ffd700" d="m70.513 312.35 33.169 20.127 33.55-20.127h-66.719z" fill-opacity=".86667"/>
<rect fill-opacity=".86667" height="15.474" width="67.1" y="334.14" x="70.513" stroke-width="1pt" fill="#ffd700"/>
<path stroke-width="1pt" fill="#ffd700" d="m70.513 447.09 33.169 15.76 33.55-15.76h-66.719z" fill-opacity=".86667"/>
<rect fill-opacity=".86667" height="149.61" width="32.377" y="312.58" x="20.316" stroke-width="1pt" fill="#ffd700"/>
<rect fill-opacity=".86667" height="149.61" width="32.377" y="312.58" x="153.51" stroke-width="1pt" fill="#ffd700"/>
<path stroke-width=".625" fill="#ffd700" d="m81.153 365.13c9.8998-7.3268 24.689-12.815 30.008-6.8765 5.346 6.1435 6.616 11.632 5.4449 16.569-1.582 4.285-8.6891 9.4025-13.942 6.6861-6.0348-2.8469-15.663 7.0236-16.769 12.474-1.4424 5.8147-1.584 12.728 0.07625 19.142-15.812-18.435-16.887-39.764-4.8174-47.994zm26.885 9.1098c-2.7273 1.6039-6.6948-0.0261-8.8557-3.6374-2.1617-3.6117-0.50256-4.9558 2.2238-6.56 2.728-1.6026 5.496-2.861 7.6573 0.75008 2.1612 3.612 1.7017 7.8444-1.0255 9.4474zm15.275 32.746c-9.7756 7.5071-25.881 10.406-31.252 4.5319-5.4022-6.0801-0.92924-13.755 0.17751-18.728 1.5238-4.324 8.5612-8.1102 13.828-5.4675 6.0479 2.7616 15.759-8.0726 14.611-15.015 1.3668-5.8562-0.5086-6.8526-3.359-15.444 15.98 18.248 17.921 41.674 5.9942 50.123zm-21.785-11.558c2.6979-1.6518 5.9434-0.80686 8.1411 2.7828 2.1977 3.5896 2.0478 6.4106-0.6498 8.063-2.6983 1.6511-6.9279 1.5114-9.1256-2.0782s-1.0636-7.1158 1.6343-8.7676z" fill-opacity=".86667"/>
</g>
</svg>
</g>
</g>
<image y="0" width="1280" xlink:href="fore.png" x="0" height="960"/>
<defs xmlns:inkscape="http://www.inkscape.org/namespaces/inkscape">
<clipPath id="d" clipPathUnits="userSpaceOnUse">
<rect rx="67" ry="67" height="745" width="1065" y="107" x="107"/>
</clipPath>
<linearGradient id="b" y2="271.72" gradientUnits="userSpaceOnUse" x2="334.98" y1="-224.86" x1="10.981">
<stop stop-color="#fff" offset="0"/>
<stop stop-color="#fff" stop-opacity="0" offset="1"/>
</linearGradient>
</defs>
<g xmlns:inkscape="http://www.inkscape.org/namespaces/inkscape" xmlns:rdf="http://www.w3.org/1999/02/22-rdf-syntax-ns#" clip-path="url(#d)" height="745" width="1065" y="107" x="107" xmlns:cc="http://creativecommons.org/ns#" xmlns:sodipodi="http://sodipodi.sourceforge.net/DTD/sodipodi-0.dtd" xmlns:dc="http://purl.org/dc/elements/1.1/">
<g transform="translate(106,75) scale(1.667)" height="960" width="1280" y="75" x="106">
<svg height="480" width="640" version="1" y="0" x="0">
<metadata>
<rdf:RDF>
<cc:Work rdf:about="">
<dc:format>image/svg+xml</dc:format>
<dc:type rdf:resource="http://purl.org/dc/dcmitype/StillImage"/>
<dc:title/>
</cc:Work>
</rdf:RDF>
</metadata>
<rect fill-rule="evenodd" height="480" width="640" y="0" x="0" stroke-width="1pt" fill="url(#b)"/>
</svg>
</g>
</g>
</svg>
