<?xml version="1.0" encoding="UTF-8" standalone="no"?>
<svg xmlns="http://www.w3.org/2000/svg" viewBox="0 0 1280 960" version="1.1" xmlns:xlink="http://www.w3.org/1999/xlink" viewbox="0 0 1280.0px 960.0px">
<defs xmlns:inkscape="http://www.inkscape.org/namespaces/inkscape">
<filter id="c" style="color-interpolation-filters:sRGB" height="1.14" width="1.0979" y="-.069990" x="-.048937">
<feGaussianBlur stdDeviation="21.6452"/>
</filter>
</defs>
<metadata xmlns:rdf="http://www.w3.org/1999/02/22-rdf-syntax-ns#" xmlns:cc="http://creativecommons.org/ns#" xmlns:dc="http://purl.org/dc/elements/1.1/">
<rdf:RDF>
<cc:Work rdf:about="">
<dc:title/>
<dc:format>image/svg+xml</dc:format>
<dc:type rdf:resource="http://purl.org/dc/dcmitype/StillImage"/>
</cc:Work>
</rdf:RDF>
</metadata>
<g xmlns:inkscape="http://www.inkscape.org/namespaces/inkscape" height="745" width="1065" y="107" x="107">
<g opacity=".74438" transform="translate(-36.847 .94915)" filter="url(#c)">
<g height="745" width="1065" y="107" x="107">
<rect opacity=".978" stroke-linejoin="round" ry="68.009" height="742.22" width="1061.5" stroke="#000" y="107.87" x="147.87" stroke-width="2.2345"/>
</g>
</g>
</g>
<defs>
<clipPath id="e" clipPathUnits="userSpaceOnUse">
<rect rx="67" ry="67" height="745" width="1065" y="107" x="107"/>
</clipPath>
</defs>
<image y="0" width="1280" xlink:href="back.png" x="0" height="960"/>
<g y="107" width="1065" height="745" x="107" clip-path="url(#e)">
<g y="75" width="1280" x="106" transform="translate(106,75) scale(1.667)" height="960">
<svg xmlns:rdf="http://www.w3.org/1999/02/22-rdf-syntax-ns#" height="480" width="640" version="1" y="0" x="0" xmlns:cc="http://creativecommons.org/ns#" xmlns:dc="http://purl.org/dc/elements/1.1/">
<metadata>
<rdf:RDF>
<cc:Work rdf:about="">
<dc:format>image/svg+xml</dc:format>
<dc:type rdf:resource="http://purl.org/dc/dcmitype/StillImage"/>
</cc:Work>
</rdf:RDF>
</metadata>
<g stroke-width="1pt" fill-rule="evenodd">
<rect y="-7.1136e-7" width="640" fill="#e80008" x=".90062" height="480"/>
<rect y="34.286" width="640" fill="#fff" x=".90062" height="34.286"/>
<rect y="102.86" width="640" fill="#fff" x=".90062" height="34.286"/>
<rect y="171.43" width="640" fill="#fff" x=".90062" height="34.286"/>
<rect y="240" width="640" fill="#fff" x=".90062" height="34.286"/>
<rect y="308.57" width="640" fill="#fff" x=".90062" height="34.286"/>
<rect y="377.14" width="640" fill="#fff" x=".90062" height="34.286"/>
<rect y="445.71" width="640" fill="#fff" x=".90062" height="34.286"/>
<rect y="5.3671e-8" width="245.17" fill="#000689" x="0" height="141.39"/>
<g transform="matrix(.48288 0 0 .48288 0 7.6956)" fill="#fe0">
<path d="m257.76 232.94c-54.627 30.397-122.92 9.8571-152.44-45.2-29.517-55.058-9.1377-123.89 45.49-153.64 33.777-18.395 70.875-18.76 104.58-0.66665-19.02-4.578-36.004-4.3319-54.459 1.1505-53.759 15.97-84.662 73.362-68.979 128.11 15.683 54.745 72.042 86.214 125.8 70.244z"/>
<polygon points="370.61 162.91 438.48 124.35 384.56 180.79 462.44 175.5 389.37 202.96 461.83 231.98 384.09 225.02 436.78 282.6 369.76 242.6 392.24 317.34 349.22 252.22 337.04 329.31 337.04 329.31 326.54 251.97 282.12 316.16 306.21 241.91 238.34 280.47 292.26 224.03 214.38 229.32 287.45 201.86 214.99 172.84 292.73 179.8 240.04 122.22 307.06 162.22 284.58 87.482 327.6 152.6 339.78 75.507 350.28 152.85 394.7 88.666" transform="matrix(.84992 0 0 .84992 34.931 -42.019)"/>
</g>
</g>
</svg>
</g>
</g>
<image y="0" width="1280" xlink:href="fore.png" x="0" height="960"/>
<defs xmlns:inkscape="http://www.inkscape.org/namespaces/inkscape">
<clipPath id="d" clipPathUnits="userSpaceOnUse">
<rect rx="67" ry="67" height="745" width="1065" y="107" x="107"/>
</clipPath>
<linearGradient id="b" y2="271.72" gradientUnits="userSpaceOnUse" x2="334.98" y1="-224.86" x1="10.981">
<stop stop-color="#fff" offset="0"/>
<stop stop-color="#fff" stop-opacity="0" offset="1"/>
</linearGradient>
</defs>
<g xmlns:inkscape="http://www.inkscape.org/namespaces/inkscape" xmlns:rdf="http://www.w3.org/1999/02/22-rdf-syntax-ns#" clip-path="url(#d)" height="745" width="1065" y="107" x="107" xmlns:cc="http://creativecommons.org/ns#" xmlns:sodipodi="http://sodipodi.sourceforge.net/DTD/sodipodi-0.dtd" xmlns:dc="http://purl.org/dc/elements/1.1/">
<g transform="translate(106,75) scale(1.667)" height="960" width="1280" y="75" x="106">
<svg height="480" width="640" version="1" y="0" x="0">
<metadata>
<rdf:RDF>
<cc:Work rdf:about="">
<dc:format>image/svg+xml</dc:format>
<dc:type rdf:resource="http://purl.org/dc/dcmitype/StillImage"/>
<dc:title/>
</cc:Work>
</rdf:RDF>
</metadata>
<rect fill-rule="evenodd" height="480" width="640" y="0" x="0" stroke-width="1pt" fill="url(#b)"/>
</svg>
</g>
</g>
</svg>
