<?xml version="1.0" encoding="UTF-8" standalone="no"?>
<svg xmlns="http://www.w3.org/2000/svg" viewBox="0 0 1280 960" version="1.1" xmlns:xlink="http://www.w3.org/1999/xlink" viewbox="0 0 1280.0px 960.0px">
<defs xmlns:inkscape="http://www.inkscape.org/namespaces/inkscape">
<filter id="d" style="color-interpolation-filters:sRGB" height="1.14" width="1.0979" y="-.069990" x="-.048937">
<feGaussianBlur stdDeviation="21.6452"/>
</filter>
</defs>
<metadata xmlns:rdf="http://www.w3.org/1999/02/22-rdf-syntax-ns#" xmlns:cc="http://creativecommons.org/ns#" xmlns:dc="http://purl.org/dc/elements/1.1/">
<rdf:RDF>
<cc:Work rdf:about="">
<dc:title/>
<dc:format>image/svg+xml</dc:format>
<dc:type rdf:resource="http://purl.org/dc/dcmitype/StillImage"/>
</cc:Work>
</rdf:RDF>
</metadata>
<g xmlns:inkscape="http://www.inkscape.org/namespaces/inkscape" height="745" width="1065" y="107" x="107">
<g opacity=".74438" transform="translate(-36.847 .94915)" filter="url(#d)">
<g height="745" width="1065" y="107" x="107">
<rect opacity=".978" stroke-linejoin="round" ry="68.009" height="742.22" width="1061.5" stroke="#000" y="107.87" x="147.87" stroke-width="2.2345"/>
</g>
</g>
</g>
<defs>
<clipPath id="g" clipPathUnits="userSpaceOnUse">
<rect rx="67" ry="67" height="745" width="1065" y="107" x="107"/>
</clipPath>
</defs>
<image y="0" width="1280" xlink:href="back.png" x="0" height="960"/>
<g y="107" width="1065" height="745" x="107" clip-path="url(#g)">
<g y="75" width="1280" x="106" transform="translate(106,75) scale(1.667)" height="960">
<svg xmlns:rdf="http://www.w3.org/1999/02/22-rdf-syntax-ns#" height="480" width="640" version="1" y="0" x="0" xmlns:cc="http://creativecommons.org/ns#" xmlns:dc="http://purl.org/dc/elements/1.1/">
<metadata>
<rdf:RDF>
<cc:Work rdf:about="">
<dc:format>image/svg+xml</dc:format>
<dc:type rdf:resource="http://purl.org/dc/dcmitype/StillImage"/>
</cc:Work>
</rdf:RDF>
</metadata>
<defs>
<clipPath id="f" clipPathUnits="userSpaceOnUse">
<rect y="0" width="640" height="480" x="0" fill-opacity=".67"/>
</clipPath>
</defs>
<g clip-path="url(#f)" fill-rule="evenodd">
<rect y="2.1858e-15" width="640" fill="#fff" x="0" height="480"/>
<g transform="matrix(.9375 0 0 .9375 -20.901 0)">
<path d="m-5.8379 0.23864 0.8561 368.58 573.98-368.82-574.84 0.23864z" fill="#3662a2"/>
<path d="m733.09 511.53-1.3468-383.25-578.98 383.54 580.33-0.2831z" fill="#38a100"/>
<path d="m-5.4684 396.61 0.4866 115.39 125.25-0.16 611.76-410.14-0.69-100.32-123.76-1.1414-613.05 396.37z" fill="#c70000"/>
</g>
<g transform="matrix(.9375 0 0 .9375 75.102 0)">
<polygon stroke-width="1pt" points="223.81 249.35 185.84 228.38 165.9 266.9 143.51 229.75 106.98 253.15 106.16 209.78 62.824 211.77 83.799 173.8 45.275 153.86 82.424 131.47 59.031 94.937 102.4 94.117 100.41 50.785 138.38 71.759 158.32 33.235 180.71 70.385 217.24 46.991 218.06 90.362 261.39 88.367 240.42 126.34 278.94 146.28 241.79 168.67 265.19 205.2 221.82 206.02" fill="#ffe700" transform="matrix(.62436 .023795 -.024998 .62440 20.58 22.369)" d="m 223.81121,249.35391 -37.97017,-20.97471 -19.93871,38.52427 -22.39578,-37.14972 -36.52956,23.39363 -0.82045,-43.37048 -43.332351,1.9947 20.97471,-37.97017 -38.524264,-19.93871 37.149716,-22.39578 -23.393635,-36.529562 43.370484,-0.820453 -1.9947,-43.332348 37.97017,20.97471 19.93871,-38.524264 22.39578,37.149717 36.52956,-23.393636 0.82046,43.370487 43.33234,-1.994702 -20.97471,37.970171 38.52427,19.93871 -37.14972,22.39578 23.39364,36.52956 -43.37049,0.82045 z"/>
<path fill="#3662a2" d="m239.52 185.41c0 31.289-25.365 56.654-56.654 56.654s-56.654-25.365-56.654-56.654 25.365-56.654 56.654-56.654 56.654 25.365 56.654 56.654z" transform="matrix(.87763 0 0 .87083 -42.442 -41.528)"/>
<path fill="#ffe700" d="m239.52 185.41c0 31.289-25.365 56.654-56.654 56.654s-56.654-25.365-56.654-56.654 25.365-56.654 56.654-56.654 56.654 25.365 56.654 56.654z" transform="matrix(.68714 0 0 .68714 -7.608 -7.4702)"/>
</g>
</g>
</svg>
</g>
</g>
<image y="0" width="1280" xlink:href="fore.png" x="0" height="960"/>
<defs xmlns:inkscape="http://www.inkscape.org/namespaces/inkscape">
<clipPath id="e" clipPathUnits="userSpaceOnUse">
<rect rx="67" ry="67" height="745" width="1065" y="107" x="107"/>
</clipPath>
<linearGradient id="c" y2="271.72" gradientUnits="userSpaceOnUse" x2="334.98" y1="-224.86" x1="10.981">
<stop stop-color="#fff" offset="0"/>
<stop stop-color="#fff" stop-opacity="0" offset="1"/>
</linearGradient>
</defs>
<g xmlns:inkscape="http://www.inkscape.org/namespaces/inkscape" xmlns:rdf="http://www.w3.org/1999/02/22-rdf-syntax-ns#" clip-path="url(#e)" height="745" width="1065" y="107" x="107" xmlns:cc="http://creativecommons.org/ns#" xmlns:sodipodi="http://sodipodi.sourceforge.net/DTD/sodipodi-0.dtd" xmlns:dc="http://purl.org/dc/elements/1.1/">
<g transform="translate(106,75) scale(1.667)" height="960" width="1280" y="75" x="106">
<svg height="480" width="640" version="1" y="0" x="0">
<metadata>
<rdf:RDF>
<cc:Work rdf:about="">
<dc:format>image/svg+xml</dc:format>
<dc:type rdf:resource="http://purl.org/dc/dcmitype/StillImage"/>
<dc:title/>
</cc:Work>
</rdf:RDF>
</metadata>
<rect fill-rule="evenodd" height="480" width="640" y="0" x="0" stroke-width="1pt" fill="url(#c)"/>
</svg>
</g>
</g>
</svg>
