<?xml version="1.0" encoding="UTF-8" standalone="no"?>
<svg xmlns="http://www.w3.org/2000/svg" viewBox="0 0 1280 960" version="1.1" xmlns:xlink="http://www.w3.org/1999/xlink" viewbox="0 0 1280.0px 960.0px">
<defs xmlns:inkscape="http://www.inkscape.org/namespaces/inkscape">
<filter id="d" style="color-interpolation-filters:sRGB" height="1.14" width="1.0979" y="-.069990" x="-.048937">
<feGaussianBlur stdDeviation="21.6452"/>
</filter>
</defs>
<metadata xmlns:rdf="http://www.w3.org/1999/02/22-rdf-syntax-ns#" xmlns:cc="http://creativecommons.org/ns#" xmlns:dc="http://purl.org/dc/elements/1.1/">
<rdf:RDF>
<cc:Work rdf:about="">
<dc:title/>
<dc:format>image/svg+xml</dc:format>
<dc:type rdf:resource="http://purl.org/dc/dcmitype/StillImage"/>
</cc:Work>
</rdf:RDF>
</metadata>
<g xmlns:inkscape="http://www.inkscape.org/namespaces/inkscape" height="745" width="1065" y="107" x="107">
<g opacity=".74438" transform="translate(-36.847 .94915)" filter="url(#d)">
<g height="745" width="1065" y="107" x="107">
<rect opacity=".978" stroke-linejoin="round" ry="68.009" height="742.22" width="1061.5" stroke="#000" y="107.87" x="147.87" stroke-width="2.2345"/>
</g>
</g>
</g>
<defs>
<clipPath id="g" clipPathUnits="userSpaceOnUse">
<rect rx="67" ry="67" height="745" width="1065" y="107" x="107"/>
</clipPath>
</defs>
<image y="0" width="1280" xlink:href="back.png" x="0" height="960"/>
<g y="107" width="1065" height="745" x="107" clip-path="url(#g)">
<g y="75" width="1280" x="106" transform="translate(106,75) scale(1.667)" height="960">
<svg xmlns:rdf="http://www.w3.org/1999/02/22-rdf-syntax-ns#" height="480" width="640" version="1" y="0" x="0" xmlns:cc="http://creativecommons.org/ns#" xmlns:dc="http://purl.org/dc/elements/1.1/">
<metadata>
<rdf:RDF>
<cc:Work rdf:about="">
<dc:format>image/svg+xml</dc:format>
<dc:type rdf:resource="http://purl.org/dc/dcmitype/StillImage"/>
</cc:Work>
</rdf:RDF>
</metadata>
<defs>
<clipPath id="f" clipPathUnits="userSpaceOnUse">
<rect y="-.0000018825" width="682.67" height="512" x="-52.334" fill-opacity=".67"/>
</clipPath>
</defs>
<g stroke-width="1pt" clip-path="url(#f)" transform="matrix(.93750 0 0 .93750 49.063 .0000017649)" fill-rule="evenodd">
<rect y=".000016585" width="768" fill="#0c590b" x="-95" height="512"/>
<rect y="-7.5494e-7" width="192.52" fill="#fff" x="-95" height="512"/>
<g transform="matrix(.78618 0 0 .78618 1.1148 55.129)" fill="#fff">
<path d="m512.08 216.58-39.641-8.3395-20.846 34.733-4.3191-40.278-39.476-9.0939 36.972-16.554-3.5504-40.353 27.169 30.047 37.281-15.846-20.18 35.124 26.591 30.56z"/>
<path d="m527.03 319.21c-35.19 77.54-127.55 111.41-205.31 75.39-77.77-36.03-111.65-128.38-75.62-206.15 18.376-39.665 48.448-66.923 90.898-81.8-4.8826 4.129-9.7139 8.4119-15.008 13.875-54.836 56.591-53.411 147.03 3.179 201.86 56.591 54.836 147.03 53.412 201.86-3.179z"/>
</g>
</g>
</svg>
</g>
</g>
<image y="0" width="1280" xlink:href="fore.png" x="0" height="960"/>
<defs xmlns:inkscape="http://www.inkscape.org/namespaces/inkscape">
<clipPath id="e" clipPathUnits="userSpaceOnUse">
<rect rx="67" ry="67" height="745" width="1065" y="107" x="107"/>
</clipPath>
<linearGradient id="c" y2="271.72" gradientUnits="userSpaceOnUse" x2="334.98" y1="-224.86" x1="10.981">
<stop stop-color="#fff" offset="0"/>
<stop stop-color="#fff" stop-opacity="0" offset="1"/>
</linearGradient>
</defs>
<g xmlns:inkscape="http://www.inkscape.org/namespaces/inkscape" xmlns:rdf="http://www.w3.org/1999/02/22-rdf-syntax-ns#" clip-path="url(#e)" height="745" width="1065" y="107" x="107" xmlns:cc="http://creativecommons.org/ns#" xmlns:sodipodi="http://sodipodi.sourceforge.net/DTD/sodipodi-0.dtd" xmlns:dc="http://purl.org/dc/elements/1.1/">
<g transform="translate(106,75) scale(1.667)" height="960" width="1280" y="75" x="106">
<svg height="480" width="640" version="1" y="0" x="0">
<metadata>
<rdf:RDF>
<cc:Work rdf:about="">
<dc:format>image/svg+xml</dc:format>
<dc:type rdf:resource="http://purl.org/dc/dcmitype/StillImage"/>
<dc:title/>
</cc:Work>
</rdf:RDF>
</metadata>
<rect fill-rule="evenodd" height="480" width="640" y="0" x="0" stroke-width="1pt" fill="url(#c)"/>
</svg>
</g>
</g>
</svg>
