<?xml version="1.0" encoding="UTF-8" standalone="no"?>
<svg xmlns="http://www.w3.org/2000/svg" viewBox="0 0 1280 960" version="1.1" xmlns:xlink="http://www.w3.org/1999/xlink" viewbox="0 0 1280.0px 960.0px">
<defs xmlns:inkscape="http://www.inkscape.org/namespaces/inkscape">
<filter id="d" style="color-interpolation-filters:sRGB" height="1.14" width="1.0979" y="-.069990" x="-.048937">
<feGaussianBlur stdDeviation="21.6452"/>
</filter>
</defs>
<metadata xmlns:rdf="http://www.w3.org/1999/02/22-rdf-syntax-ns#" xmlns:cc="http://creativecommons.org/ns#" xmlns:dc="http://purl.org/dc/elements/1.1/">
<rdf:RDF>
<cc:Work rdf:about="">
<dc:title/>
<dc:format>image/svg+xml</dc:format>
<dc:type rdf:resource="http://purl.org/dc/dcmitype/StillImage"/>
</cc:Work>
</rdf:RDF>
</metadata>
<g xmlns:inkscape="http://www.inkscape.org/namespaces/inkscape" height="745" width="1065" y="107" x="107">
<g opacity=".74438" transform="translate(-36.847 .94915)" filter="url(#d)">
<g height="745" width="1065" y="107" x="107">
<rect opacity=".978" stroke-linejoin="round" ry="68.009" height="742.22" width="1061.5" stroke="#000" y="107.87" x="147.87" stroke-width="2.2345"/>
</g>
</g>
</g>
<defs>
<clipPath id="g" clipPathUnits="userSpaceOnUse">
<rect rx="67" ry="67" height="745" width="1065" y="107" x="107"/>
</clipPath>
</defs>
<image y="0" width="1280" xlink:href="back.png" x="0" height="960"/>
<g y="107" width="1065" height="745" x="107" clip-path="url(#g)">
<g y="75" width="1280" x="106" transform="translate(106,75) scale(1.667)" height="960">
<svg xmlns:rdf="http://www.w3.org/1999/02/22-rdf-syntax-ns#" height="480" width="640" version="1" y="0" x="0" xmlns:cc="http://creativecommons.org/ns#" xmlns:dc="http://purl.org/dc/elements/1.1/">
<metadata>
<rdf:RDF>
<cc:Work rdf:about="">
<dc:format>image/svg+xml</dc:format>
<dc:type rdf:resource="http://purl.org/dc/dcmitype/StillImage"/>
</cc:Work>
</rdf:RDF>
</metadata>
<defs>
<clipPath id="f" clipPathUnits="userSpaceOnUse">
<rect y="0" width="640" height="480" x="0" fill-opacity=".67"/>
</clipPath>
</defs>
<g clip-path="url(#f)">
<g transform="matrix(.9375 0 0 .9375 -1.2495 -.0000022609)" fill-rule="evenodd">
<rect height="512" width="768" y=".0000024116" x="-20" stroke-width="1pt" fill="#fff"/>
<rect height="256" width="768" y=".0000024116" x="-20" stroke-width="1pt" fill="#df0000"/>
<path stroke-width=".52437" d="m157.12 42.909c-35.46 8.13-61.807 34.386-69.256 70.081-10.121 48.5 21.466 95.99 70.066 106.12-49.1 14-99.829-14.22-113.7-62.86-13.863-48.64 14.358-99.372 63-113.24 17.075-4.8694 32.795-4.9 49.892-0.10094z" fill="#fff"/>
<polygon stroke-width=".52437" points="262.25 522.28 266.19 534.45 266.19 534.45 255.78 527.02 245.42 534.52 249.27 522.33 238.94 514.8 251.72 514.69 255.69 502.53 259.74 514.66 272.53 514.68" transform="matrix(1.3251 0 0 1.3251 -204.33 -574.79)" fill="#fff"/>
<polygon stroke-width=".52437" points="262.25 522.28 266.19 534.45 266.19 534.45 255.78 527.02 245.42 534.52 249.27 522.33 238.94 514.8 251.72 514.69 255.69 502.53 259.74 514.66 272.53 514.68" transform="matrix(1.3251 0 0 1.3251 -185.6 -519.26)" fill="#fff"/>
<polygon stroke-width=".52437" points="262.25 522.28 266.19 534.45 266.19 534.45 255.78 527.02 245.42 534.52 249.27 522.33 238.94 514.8 251.72 514.69 255.69 502.53 259.74 514.66 272.53 514.68" transform="matrix(1.3251 0 0 1.3251 -123.28 -519.66)" fill="#fff"/>
<polygon stroke-width=".52437" points="262.25 522.28 266.19 534.45 266.19 534.45 255.78 527.02 245.42 534.52 249.27 522.33 238.94 514.8 251.72 514.69 255.69 502.53 259.74 514.66 272.53 514.68" transform="matrix(1.3251 0 0 1.3251 -104.69 -574.74)" fill="#fff"/>
<polygon stroke-width=".52437" points="262.25 522.28 266.19 534.45 266.19 534.45 255.78 527.02 245.42 534.52 249.27 522.33 238.94 514.8 251.72 514.69 255.69 502.53 259.74 514.66 272.53 514.68" transform="matrix(1.3251 0 0 1.3251 -154.03 -611.28)" fill="#fff"/>
</g>
</g>
</svg>
</g>
</g>
<image y="0" width="1280" xlink:href="fore.png" x="0" height="960"/>
<defs xmlns:inkscape="http://www.inkscape.org/namespaces/inkscape">
<clipPath id="e" clipPathUnits="userSpaceOnUse">
<rect rx="67" ry="67" height="745" width="1065" y="107" x="107"/>
</clipPath>
<linearGradient id="c" y2="271.72" gradientUnits="userSpaceOnUse" x2="334.98" y1="-224.86" x1="10.981">
<stop stop-color="#fff" offset="0"/>
<stop stop-color="#fff" stop-opacity="0" offset="1"/>
</linearGradient>
</defs>
<g xmlns:inkscape="http://www.inkscape.org/namespaces/inkscape" xmlns:rdf="http://www.w3.org/1999/02/22-rdf-syntax-ns#" clip-path="url(#e)" height="745" width="1065" y="107" x="107" xmlns:cc="http://creativecommons.org/ns#" xmlns:sodipodi="http://sodipodi.sourceforge.net/DTD/sodipodi-0.dtd" xmlns:dc="http://purl.org/dc/elements/1.1/">
<g transform="translate(106,75) scale(1.667)" height="960" width="1280" y="75" x="106">
<svg height="480" width="640" version="1" y="0" x="0">
<metadata>
<rdf:RDF>
<cc:Work rdf:about="">
<dc:format>image/svg+xml</dc:format>
<dc:type rdf:resource="http://purl.org/dc/dcmitype/StillImage"/>
<dc:title/>
</cc:Work>
</rdf:RDF>
</metadata>
<rect fill-rule="evenodd" height="480" width="640" y="0" x="0" stroke-width="1pt" fill="url(#c)"/>
</svg>
</g>
</g>
</svg>
