<?xml version="1.0" encoding="UTF-8" standalone="no"?>
<svg xmlns="http://www.w3.org/2000/svg" viewBox="0 0 1280 960" version="1.1" xmlns:xlink="http://www.w3.org/1999/xlink" viewbox="0 0 1280.0px 960.0px">
<defs xmlns:inkscape="http://www.inkscape.org/namespaces/inkscape">
<filter id="d" style="color-interpolation-filters:sRGB" height="1.14" width="1.0979" y="-.069990" x="-.048937">
<feGaussianBlur stdDeviation="21.6452"/>
</filter>
</defs>
<metadata xmlns:rdf="http://www.w3.org/1999/02/22-rdf-syntax-ns#" xmlns:cc="http://creativecommons.org/ns#" xmlns:dc="http://purl.org/dc/elements/1.1/">
<rdf:RDF>
<cc:Work rdf:about="">
<dc:title/>
<dc:format>image/svg+xml</dc:format>
<dc:type rdf:resource="http://purl.org/dc/dcmitype/StillImage"/>
</cc:Work>
</rdf:RDF>
</metadata>
<g xmlns:inkscape="http://www.inkscape.org/namespaces/inkscape" height="745" width="1065" y="107" x="107">
<g opacity=".74438" transform="translate(-36.847 .94915)" filter="url(#d)">
<g height="745" width="1065" y="107" x="107">
<rect opacity=".978" stroke-linejoin="round" ry="68.009" height="742.22" width="1061.5" stroke="#000" y="107.87" x="147.87" stroke-width="2.2345"/>
</g>
</g>
</g>
<defs>
<clipPath id="g" clipPathUnits="userSpaceOnUse">
<rect rx="67" ry="67" height="745" width="1065" y="107" x="107"/>
</clipPath>
</defs>
<image y="0" width="1280" xlink:href="back.png" x="0" height="960"/>
<g y="107" width="1065" height="745" x="107" clip-path="url(#g)">
<g y="75" width="1280" x="106" transform="translate(106,75) scale(1.667)" height="960">
<svg xmlns:rdf="http://www.w3.org/1999/02/22-rdf-syntax-ns#" height="480" width="640" version="1.1" xmlns:cc="http://creativecommons.org/ns#" xmlns:dc="http://purl.org/dc/elements/1.1/">
<metadata>
<rdf:RDF>
<cc:Work rdf:about="">
<dc:format>image/svg+xml</dc:format>
<dc:type rdf:resource="http://purl.org/dc/dcmitype/StillImage"/>
</cc:Work>
</rdf:RDF>
</metadata>
<defs>
<clipPath id="f" clipPathUnits="userSpaceOnUse">
<rect y="-.000016209" width="682.67" height="512" x="-15.067" fill-opacity=".67"/>
</clipPath>
</defs>
<g fill-rule="evenodd" stroke-width="1pt" transform="matrix(.9375 0 0 .9375 14.125 .000015196)" clip-path="url(#f)">
<rect y="-.000017159" width="1024" fill="#fff" x="-62" height="512"/>
<rect y="341.33" width="1024" fill="#de2918" x="-62" height="170.67"/>
<rect y="170.67" width="1024" fill="#08399c" x="-62" height="170.67"/>
<path d="m228.37 92.976c-4.0191 61.651-6.3219 95.436-15.709 111.07-10.15 16.789-20.025 29.081-59.63 43.882-39.61-14.81-49.48-27.1-59.633-43.89-9.387-15.63-11.69-49.41-15.709-111.06l5.853-1.9715c11.783-3.5933 20.574-6.4837 27.077-7.7665 9.3132-1.971 17.228-4.1995 42.257-4.7225 25.029 0.43054 32.983 2.7977 42.296 4.7687 6.4491 1.3752 15.617 4.0808 27.312 7.744l5.8842 1.9478z" fill="#de2918"/>
<path d="m222.6 90.955c-3.802 61.518-6.9828 89.69-11.943 103.24-9.6262 23.193-24.866 35.909-57.665 48.038-32.8-12.14-48.04-24.86-57.664-48.05-4.961-13.54-8.095-41.64-11.788-103.3 11.534-3.6024 20.577-6.4175 27.08-7.7008 9.3132-1.9715 17.228-4.2932 42.257-4.7238 25.029 0.43066 33.037 2.7523 42.35 4.7238 6.503 1.2832 15.732 4.0983 27.373 7.7625z" fill="#08399c"/>
<path d="m152.96 109.79 1.5726 3.7226 6.9103 0.94737-4.4779 2.7 4.3295 2.8941-6.2974 1.0554-1.9165 3.3733-2.1551-3.4739-5.995-0.85074 4.0799-2.957-4.2006-2.6912 6.6357-1.0172 1.5144-3.7027z" fill="#fc0"/>
<path d="m208.28 179.62-3.8308-3.0278-2.7682-4.5545-5.4224-4.7038-2.8257-4.7532-5.4224-4.852-2.653-4.7522-2.8833-2.3277-1.9034-1.8315-4.8983 4.2951-2.6698 4.6646-3.3271 3.0164-3.6545-2.8548-2.7634-4.8664-10.258-18.217-10.259 18.217-2.7634 4.8664-3.6545 2.8548-3.3271-3.0164-2.6698-4.6646-4.8983-4.2951-1.9034 1.8315-2.8833 2.3277-2.653 4.7522-5.4224 4.852-2.8257 4.7532-5.4224 4.7038-2.7682 4.5545-3.8212 3.0988c1.9838 16.886 12.748 30.116 18.613 36.168 6.545 6.3551 20.039 14.858 36.54 20.486 16.548-5.5078 30.229-14.131 36.774-20.486 5.865-6.0524 16.629-19.282 18.625-36.239z" fill="#fff"/>
<path d="m169.45 83.89 1.5726 3.7226 6.9103 0.94737-4.4779 2.7 4.3295 2.8941-6.2974 1.0554-1.9165 3.3733-2.1551-3.4739-5.995-0.85075 4.0799-2.957-4.2006-2.6912 6.6357-1.0172 1.5144-3.7027z" fill="#fc0"/>
<path d="m136.47 83.834 1.5726 3.7226 6.9103 0.94737-4.4779 2.7 4.3295 2.8941-6.2974 1.0554-1.9165 3.3733-2.1551-3.4739-5.995-0.85075 4.0799-2.957-4.2006-2.6912 6.6357-1.0172 1.5144-3.7027z" fill="#fc0"/>
<path d="m199.72 203.03-7.4685 0.0226-6.8916-0.51269-8.3477-4.0943-9.4091 0.0566-8.1486 3.9811-6.4275 0.56828-6.4275-0.56828-8.1486-3.9811-9.4091-0.0566-8.3477 4.0943-6.8916 0.51269-7.5621-0.10398-3.6521-6.1862 0.13553-0.14207 11.172 1.848 6.8916-0.51269 8.3477-4.0943 9.4091 0.0566 8.1486 3.9811 6.4275 0.56828 6.4275-0.56828 8.1486-3.9811 9.4091-0.0566 8.3477 4.0943 6.8916 0.51269 10.874-1.9066 0.14393 0.2862-3.6425 6.1821z" fill="#08399c"/>
<path d="m113.25 212.54 7.393-0.51269 8.3477-4.0943 9.4091 0.0566 8.1486 3.9811 6.4275 0.56828 6.4275-0.56828 8.1486-3.9811 9.4091-0.0566 8.3477 4.0943 7.4937 0.51269 4.8347-5.9598-0.16311-0.13487-5.1801 1.5103-6.8916-0.51269-8.3477-4.0943-9.4091 0.0566-8.1486 3.9811-6.4275 0.56829-6.4275-0.56829-8.1486-3.9811-9.4091-0.0566-8.3477 4.0943-6.8916 0.51269-5.077-1.2797-0.0612 0.24914 4.5432 5.6149z" fill="#08399c"/>
</g>
</svg>
</g>
</g>
<image y="0" width="1280" xlink:href="fore.png" x="0" height="960"/>
<defs xmlns:inkscape="http://www.inkscape.org/namespaces/inkscape">
<clipPath id="e" clipPathUnits="userSpaceOnUse">
<rect rx="67" ry="67" height="745" width="1065" y="107" x="107"/>
</clipPath>
<linearGradient id="c" y2="271.72" gradientUnits="userSpaceOnUse" x2="334.98" y1="-224.86" x1="10.981">
<stop stop-color="#fff" offset="0"/>
<stop stop-color="#fff" stop-opacity="0" offset="1"/>
</linearGradient>
</defs>
<g xmlns:inkscape="http://www.inkscape.org/namespaces/inkscape" xmlns:rdf="http://www.w3.org/1999/02/22-rdf-syntax-ns#" clip-path="url(#e)" height="745" width="1065" y="107" x="107" xmlns:cc="http://creativecommons.org/ns#" xmlns:sodipodi="http://sodipodi.sourceforge.net/DTD/sodipodi-0.dtd" xmlns:dc="http://purl.org/dc/elements/1.1/">
<g transform="translate(106,75) scale(1.667)" height="960" width="1280" y="75" x="106">
<svg height="480" width="640" version="1" y="0" x="0">
<metadata>
<rdf:RDF>
<cc:Work rdf:about="">
<dc:format>image/svg+xml</dc:format>
<dc:type rdf:resource="http://purl.org/dc/dcmitype/StillImage"/>
<dc:title/>
</cc:Work>
</rdf:RDF>
</metadata>
<rect fill-rule="evenodd" height="480" width="640" y="0" x="0" stroke-width="1pt" fill="url(#c)"/>
</svg>
</g>
</g>
</svg>
