<?xml version="1.0" encoding="UTF-8" standalone="no"?>
<svg xmlns="http://www.w3.org/2000/svg" viewBox="0 0 1280 960" version="1.1" xmlns:xlink="http://www.w3.org/1999/xlink" viewbox="0 0 1280.0px 960.0px">
<defs xmlns:inkscape="http://www.inkscape.org/namespaces/inkscape">
<filter id="d" style="color-interpolation-filters:sRGB" height="1.14" width="1.0979" y="-.069990" x="-.048937">
<feGaussianBlur stdDeviation="21.6452"/>
</filter>
</defs>
<metadata xmlns:rdf="http://www.w3.org/1999/02/22-rdf-syntax-ns#" xmlns:cc="http://creativecommons.org/ns#" xmlns:dc="http://purl.org/dc/elements/1.1/">
<rdf:RDF>
<cc:Work rdf:about="">
<dc:title/>
<dc:format>image/svg+xml</dc:format>
<dc:type rdf:resource="http://purl.org/dc/dcmitype/StillImage"/>
</cc:Work>
</rdf:RDF>
</metadata>
<g xmlns:inkscape="http://www.inkscape.org/namespaces/inkscape" height="745" width="1065" y="107" x="107">
<g opacity=".74438" transform="translate(-36.847 .94915)" filter="url(#d)">
<g height="745" width="1065" y="107" x="107">
<rect opacity=".978" stroke-linejoin="round" ry="68.009" height="742.22" width="1061.5" stroke="#000" y="107.87" x="147.87" stroke-width="2.2345"/>
</g>
</g>
</g>
<defs>
<clipPath id="g" clipPathUnits="userSpaceOnUse">
<rect rx="67" ry="67" height="745" width="1065" y="107" x="107"/>
</clipPath>
</defs>
<image y="0" width="1280" xlink:href="back.png" x="0" height="960"/>
<g y="107" width="1065" height="745" x="107" clip-path="url(#g)">
<g y="75" width="1280" x="106" transform="translate(106,75) scale(1.667)" height="960">
<svg xmlns:rdf="http://www.w3.org/1999/02/22-rdf-syntax-ns#" height="480" width="640" version="1" y="0" x="0" xmlns:cc="http://creativecommons.org/ns#" xmlns:dc="http://purl.org/dc/elements/1.1/">
<metadata>
<rdf:RDF>
<cc:Work rdf:about="">
<dc:format>image/svg+xml</dc:format>
<dc:type rdf:resource="http://purl.org/dc/dcmitype/StillImage"/>
</cc:Work>
</rdf:RDF>
</metadata>
<defs>
<clipPath id="f" clipPathUnits="userSpaceOnUse">
<rect y=".0000033739" width="682.67" height="512" x="-26.334" fill-opacity=".67"/>
</clipPath>
</defs>
<g fill-rule="evenodd" stroke-width="1pt" transform="matrix(.93750 0 0 .93750 24.688 -.0000031630)" clip-path="url(#f)">
<rect y=".0000024116" width="768" fill="#fff" x="-69" height="512"/>
<rect y="170.67" width="768" fill="#01017e" x="-69" height="341.33"/>
<rect y="341.33" width="768" fill="#fe0101" x="-69" height="170.67"/>
<path d="m64.736 116.2v143.57c9.8331 56.051 35.893 113.09 123.9 142.09 87.519-29.009 115.54-83.586 125.87-143.08v-142.59h-249.77z" fill="#fff"/>
<path d="m74.569 127.51v125.38c8.8498 45.726 26.059 108.17 114.07 137.18 87.519-29.009 107.68-91.452 115.54-137.18v-125.38h-229.61z" fill="#fe0101"/>
<path d="m202.41 203.23v20.159h40.318c5.4057 0 10.489-2.6226 15.734-3.934v37.859c-5.4086-1.1473-10.696-3.4412-16.226-3.4412h-39.334v46.218l-27.043-0.98331v-45.234h-38.35c-5.764 0-11.144 2.9499-16.717 4.4245v-40.317c5.2446 1.6386 10.239 4.9165 15.734 4.9165h39.334v-20.159h-29.009c-5.0834 0-9.5058 3.606-14.259 5.4086v-38.35c5.4086 2.2946 10.35 6.8832 16.226 6.8832h27.534v-17.209c0-8.0377-4.5892-15.406-6.8839-23.109h38.842c-1.9666 7.8672-5.8998 15.492-5.8998 23.601v16.717h26.059c6.7994 0 13.112-3.6052 19.668-5.4078v37.859c-5.9006-1.9666-11.482-5.9006-17.701-5.9006h-28.025z" fill="#fff"/>
<path d="m152.75 305.5c-23.11-11.555-45.184-5.1022-55.744 13.398 16.41 31.344 47.632 56.666 91.637 71.17 43.76-14.505 75.596-39.826 93.05-69.695-13.597-25.94-39.457-22.495-56.174-14.381-11.8-29.009-59.985-27.534-72.768-0.49202z" fill="#01017e"/>
</g>
</svg>
</g>
</g>
<image y="0" width="1280" xlink:href="fore.png" x="0" height="960"/>
<defs xmlns:inkscape="http://www.inkscape.org/namespaces/inkscape">
<clipPath id="e" clipPathUnits="userSpaceOnUse">
<rect rx="67" ry="67" height="745" width="1065" y="107" x="107"/>
</clipPath>
<linearGradient id="c" y2="271.72" gradientUnits="userSpaceOnUse" x2="334.98" y1="-224.86" x1="10.981">
<stop stop-color="#fff" offset="0"/>
<stop stop-color="#fff" stop-opacity="0" offset="1"/>
</linearGradient>
</defs>
<g xmlns:inkscape="http://www.inkscape.org/namespaces/inkscape" xmlns:rdf="http://www.w3.org/1999/02/22-rdf-syntax-ns#" clip-path="url(#e)" height="745" width="1065" y="107" x="107" xmlns:cc="http://creativecommons.org/ns#" xmlns:sodipodi="http://sodipodi.sourceforge.net/DTD/sodipodi-0.dtd" xmlns:dc="http://purl.org/dc/elements/1.1/">
<g transform="translate(106,75) scale(1.667)" height="960" width="1280" y="75" x="106">
<svg height="480" width="640" version="1" y="0" x="0">
<metadata>
<rdf:RDF>
<cc:Work rdf:about="">
<dc:format>image/svg+xml</dc:format>
<dc:type rdf:resource="http://purl.org/dc/dcmitype/StillImage"/>
<dc:title/>
</cc:Work>
</rdf:RDF>
</metadata>
<rect fill-rule="evenodd" height="480" width="640" y="0" x="0" stroke-width="1pt" fill="url(#c)"/>
</svg>
</g>
</g>
</svg>
