<?xml version="1.0" encoding="UTF-8" standalone="no"?>
<svg xmlns="http://www.w3.org/2000/svg" viewBox="0 0 1280 960" version="1.1" xmlns:xlink="http://www.w3.org/1999/xlink" viewbox="0 0 1280.0px 960.0px">
<defs xmlns:inkscape="http://www.inkscape.org/namespaces/inkscape">
<filter id="d" style="color-interpolation-filters:sRGB" height="1.14" width="1.0979" y="-.069990" x="-.048937">
<feGaussianBlur stdDeviation="21.6452"/>
</filter>
</defs>
<metadata xmlns:rdf="http://www.w3.org/1999/02/22-rdf-syntax-ns#" xmlns:cc="http://creativecommons.org/ns#" xmlns:dc="http://purl.org/dc/elements/1.1/">
<rdf:RDF>
<cc:Work rdf:about="">
<dc:title/>
<dc:format>image/svg+xml</dc:format>
<dc:type rdf:resource="http://purl.org/dc/dcmitype/StillImage"/>
</cc:Work>
</rdf:RDF>
</metadata>
<g xmlns:inkscape="http://www.inkscape.org/namespaces/inkscape" height="745" width="1065" y="107" x="107">
<g opacity=".74438" transform="translate(-36.847 .94915)" filter="url(#d)">
<g height="745" width="1065" y="107" x="107">
<rect opacity=".978" stroke-linejoin="round" ry="68.009" height="742.22" width="1061.5" stroke="#000" y="107.87" x="147.87" stroke-width="2.2345"/>
</g>
</g>
</g>
<defs>
<clipPath id="g" clipPathUnits="userSpaceOnUse">
<rect rx="67" ry="67" height="745" width="1065" y="107" x="107"/>
</clipPath>
</defs>
<image y="0" width="1280" xlink:href="back.png" x="0" height="960"/>
<g y="107" width="1065" height="745" x="107" clip-path="url(#g)">
<g y="75" width="1280" x="106" transform="translate(106,75) scale(1.667)" height="960">
<svg xmlns:rdf="http://www.w3.org/1999/02/22-rdf-syntax-ns#" height="480" width="640" version="1.1" xmlns:cc="http://creativecommons.org/ns#" xmlns:dc="http://purl.org/dc/elements/1.1/">
<metadata>
<rdf:RDF>
<cc:Work rdf:about="">
<dc:format>image/svg+xml</dc:format>
<dc:type rdf:resource="http://purl.org/dc/dcmitype/StillImage"/>
</cc:Work>
</rdf:RDF>
</metadata>
<defs>
<clipPath id="f" clipPathUnits="userSpaceOnUse">
<rect y=".000023337" width="682.67" height="512" x="-85.648" fill-opacity=".67"/>
</clipPath>
</defs>
<g clip-path="url(#f)" transform="matrix(.93750 0 0 .93750 80.295 -.000021879)" fill-rule="evenodd">
<rect height="512" width="1023.4" y=".000022212" x="-256" stroke-width="1pt" fill="#fff"/>
<rect height="139.12" width="1022.6" y="372.43" x="-256" stroke-width="1pt" fill="#239f40"/>
<rect height="139.12" width="1022.6" y=".000022212" x="-256" stroke-width="1pt" fill="#cd1738"/>
<polygon points="391.56 256.53 395.13 267.77 406.69 267.52 397.1 274.39 400.91 285.31 391.42 278.32 382.21 285.31 385.93 274.12 376.43 267.52 388.22 267.6" fill="#ff0" d="m 391.56052,256.53049 3.57095,11.242 11.56027,-0.24853 -9.58829,6.87015 3.80868,10.91768 -9.49685,-6.99602 -9.20637,6.99602 3.71892,-11.19393 -9.49854,-6.59389 11.79527,0.0778 z" transform="matrix(1.0307 0 0 1.0782 -243.7 -64.335)"/>
<polygon points="391.56 256.53 395.13 267.77 406.69 267.52 397.1 274.39 400.91 285.31 391.42 278.32 382.21 285.31 385.93 274.12 376.43 267.52 388.22 267.6" fill="#ff0" d="m 391.56052,256.53049 3.57095,11.242 11.56027,-0.24853 -9.58829,6.87015 3.80868,10.91768 -9.49685,-6.99602 -9.20637,6.99602 3.71892,-11.19393 -9.49854,-6.59389 11.79527,0.0778 z" transform="matrix(1.0307 0 0 1.0782 -255.54 -12.408)"/>
<polygon points="391.56 256.53 395.13 267.77 406.69 267.52 397.1 274.39 400.91 285.31 391.42 278.32 382.21 285.31 385.93 274.12 376.43 267.52 388.22 267.6" fill="#ff0" d="m 391.56052,256.53049 3.57095,11.242 11.56027,-0.24853 -9.58829,6.87015 3.80868,10.91768 -9.49685,-6.99602 -9.20637,6.99602 3.71892,-11.19393 -9.49854,-6.59389 11.79527,0.0778 z" transform="matrix(1.0307 0 0 1.0782 -203.62 -106.7)"/>
<polygon points="391.56 256.53 395.13 267.77 406.69 267.52 397.1 274.39 400.91 285.31 391.42 278.32 382.21 285.31 385.93 274.12 376.43 267.52 388.22 267.6" fill="#ff0" d="m 391.56052,256.53049 3.57095,11.242 11.56027,-0.24853 -9.58829,6.87015 3.80868,10.91768 -9.49685,-6.99602 -9.20637,6.99602 3.71892,-11.19393 -9.49854,-6.59389 11.79527,0.0778 z" transform="matrix(1.0307 0 0 1.0782 -149.64 -120.82)"/>
<polygon points="391.56 256.53 395.13 267.77 406.69 267.52 397.1 274.39 400.91 285.31 391.42 278.32 382.21 285.31 385.93 274.12 376.43 267.52 388.22 267.6" fill="#ff0" d="m 391.56052,256.53049 3.57095,11.242 11.56027,-0.24853 -9.58829,6.87015 3.80868,10.91768 -9.49685,-6.99602 -9.20637,6.99602 3.71892,-11.19393 -9.49854,-6.59389 11.79527,0.0778 z" transform="matrix(1.0307 0 0 1.0782 -95.208 -106.7)"/>
<polygon points="391.56 256.53 395.13 267.77 406.69 267.52 397.1 274.39 400.91 285.31 391.42 278.32 382.21 285.31 385.93 274.12 376.43 267.52 388.22 267.6" fill="#ff0" d="m 391.56052,256.53049 3.57095,11.242 11.56027,-0.24853 -9.58829,6.87015 3.80868,10.91768 -9.49685,-6.99602 -9.20637,6.99602 3.71892,-11.19393 -9.49854,-6.59389 11.79527,0.0778 z" transform="matrix(1.0307 0 0 1.0782 -55.124 -64.107)"/>
<polygon points="391.56 256.53 395.13 267.77 406.69 267.52 397.1 274.39 400.91 285.31 391.42 278.32 382.21 285.31 385.93 274.12 376.43 267.52 388.22 267.6" fill="#ff0" d="m 391.56052,256.53049 3.57095,11.242 11.56027,-0.24853 -9.58829,6.87015 3.80868,10.91768 -9.49685,-6.99602 -9.20637,6.99602 3.71892,-11.19393 -9.49854,-6.59389 11.79527,0.0778 z" transform="matrix(1.0307 0 0 1.0782 -43.509 -12.408)"/>
<path fill="#ff0" d="m516.09 230.63c0 9.2551-9.3391 16.758-20.859 16.758s-20.859-7.5027-20.859-16.758c0-9.2551 9.3391-16.758 20.859-16.758s20.859 7.5028 20.859 16.758z" transform="matrix(.99015 0 0 .92977 -236.29 21.42)"/>
<rect y="246.85" width="11.796" fill="#ff0" x="248.11" height="54.916"/>
<path d="m357.58 297.62c-5.1338 10.894-12.042 14.76-23.319 14.458-19.735 0.46793-24.195-14.028-26.768-20.427-6.9756 9.1937-10.941 12.848-22.52 12.627-16.498 0.36898-24.827-9.0216-30.977-26.776-6.1501 17.641-14.479 27.032-30.977 26.663-11.58 0.2216-15.545-3.4332-22.52-12.627-2.5726 6.3995-7.0323 20.895-26.768 20.427-11.277 0.30199-18.185-3.5641-22.807-14.61 5.3647 15.426 10.679 24.058 27.152 24.596 14.92 0.17933 21.753-8.4619 24.986-14.372 10.749 5.71 11.854 6.9777 27.093 6.6201 11.376-0.36589 17.91-7.7981 23.797-14.87 5.8872 7.0715 12.422 14.504 23.797 14.87 15.24 0.35765 16.345-0.91009 27.093-6.6201 3.2332 5.9099 10.066 14.551 24.986 14.372 16.473-0.53802 21.788-9.17 27.751-24.331z" fill="#ff0"/>
<path d="m204.17 313.52 5.3853 7.4632 10.326-0.30302-7.9692 9.0308-15.601 0.39887-4.8803-6.5366 9.0112-1.4564 3.7836-8.5753" fill="#ff0"/>
<path d="m303.62 313.52-5.3853 7.4632-10.326-0.30302 7.9692 9.0308 15.601 0.39888 4.8803-6.5366-9.0112-1.4564-3.7836-8.5752" fill="#ff0"/>
<path d="m241.02 318.31c0-0.0402 7.0859 0.0402 7.0859 0.0402l5.9584-4.7504 5.8172 4.6906 7.0261 0.101-6.3212 9.34h-13.286l-6.2799-9.4214z" fill="#ff0"/>
<path d="m330.66 351.58c-27.551-5.6883-45.991-8.4866-76.696-8.4866s-49.145 2.7983-76.522 8.4186l-0.0381-11.879c27.415-5.6718 45.855-8.4712 76.56-8.4712s49.145 2.7993 76.56 8.4712l0.13605 11.947z" fill="#ff0"/>
<path fill="#fff" d="m505.31 228.88c0 3.2792-4.687 5.9375-10.469 5.9375-5.7817 0-10.469-2.6583-10.469-5.9375s4.687-5.9375 10.469-5.9375c5.7817 0 10.469 2.6583 10.469 5.9375z" transform="matrix(1.0307 0 0 1.0307 -256 .000022212)"/>
</g>
</svg>
</g>
</g>
<image y="0" width="1280" xlink:href="fore.png" x="0" height="960"/>
<defs xmlns:inkscape="http://www.inkscape.org/namespaces/inkscape">
<clipPath id="e" clipPathUnits="userSpaceOnUse">
<rect rx="67" ry="67" height="745" width="1065" y="107" x="107"/>
</clipPath>
<linearGradient id="c" y2="271.72" gradientUnits="userSpaceOnUse" x2="334.98" y1="-224.86" x1="10.981">
<stop stop-color="#fff" offset="0"/>
<stop stop-color="#fff" stop-opacity="0" offset="1"/>
</linearGradient>
</defs>
<g xmlns:inkscape="http://www.inkscape.org/namespaces/inkscape" xmlns:rdf="http://www.w3.org/1999/02/22-rdf-syntax-ns#" clip-path="url(#e)" height="745" width="1065" y="107" x="107" xmlns:cc="http://creativecommons.org/ns#" xmlns:sodipodi="http://sodipodi.sourceforge.net/DTD/sodipodi-0.dtd" xmlns:dc="http://purl.org/dc/elements/1.1/">
<g transform="translate(106,75) scale(1.667)" height="960" width="1280" y="75" x="106">
<svg height="480" width="640" version="1" y="0" x="0">
<metadata>
<rdf:RDF>
<cc:Work rdf:about="">
<dc:format>image/svg+xml</dc:format>
<dc:type rdf:resource="http://purl.org/dc/dcmitype/StillImage"/>
<dc:title/>
</cc:Work>
</rdf:RDF>
</metadata>
<rect fill-rule="evenodd" height="480" width="640" y="0" x="0" stroke-width="1pt" fill="url(#c)"/>
</svg>
</g>
</g>
</svg>
