<?xml version="1.0" encoding="UTF-8" standalone="no"?>
<svg xmlns="http://www.w3.org/2000/svg" viewBox="0 0 1280 960" version="1.1" xmlns:xlink="http://www.w3.org/1999/xlink" viewbox="0 0 1280.0px 960.0px">
<defs xmlns:inkscape="http://www.inkscape.org/namespaces/inkscape">
<filter id="d" style="color-interpolation-filters:sRGB" height="1.14" width="1.0979" y="-.069990" x="-.048937">
<feGaussianBlur stdDeviation="21.6452"/>
</filter>
</defs>
<metadata xmlns:rdf="http://www.w3.org/1999/02/22-rdf-syntax-ns#" xmlns:cc="http://creativecommons.org/ns#" xmlns:dc="http://purl.org/dc/elements/1.1/">
<rdf:RDF>
<cc:Work rdf:about="">
<dc:title/>
<dc:format>image/svg+xml</dc:format>
<dc:type rdf:resource="http://purl.org/dc/dcmitype/StillImage"/>
</cc:Work>
</rdf:RDF>
</metadata>
<g xmlns:inkscape="http://www.inkscape.org/namespaces/inkscape" height="745" width="1065" y="107" x="107">
<g opacity=".74438" transform="translate(-36.847 .94915)" filter="url(#d)">
<g height="745" width="1065" y="107" x="107">
<rect opacity=".978" stroke-linejoin="round" ry="68.009" height="742.22" width="1061.5" stroke="#000" y="107.87" x="147.87" stroke-width="2.2345"/>
</g>
</g>
</g>
<defs>
<clipPath id="g" clipPathUnits="userSpaceOnUse">
<rect rx="67" ry="67" height="745" width="1065" y="107" x="107"/>
</clipPath>
</defs>
<image y="0" width="1280" xlink:href="back.png" x="0" height="960"/>
<g y="107" width="1065" height="745" x="107" clip-path="url(#g)">
<g y="75" width="1280" x="106" transform="translate(106,75) scale(1.667)" height="960">
<svg xmlns:rdf="http://www.w3.org/1999/02/22-rdf-syntax-ns#" height="480" width="640" version="1.1" xmlns:cc="http://creativecommons.org/ns#" xmlns:dc="http://purl.org/dc/elements/1.1/">
<metadata>
<rdf:RDF>
<cc:Work rdf:about="">
<dc:format>image/svg+xml</dc:format>
<dc:type rdf:resource="http://purl.org/dc/dcmitype/StillImage"/>
</cc:Work>
</rdf:RDF>
</metadata>
<defs>
<clipPath id="f" clipPathUnits="userSpaceOnUse">
<rect y="-.000010707" width="682.67" height="512" x="0" fill-opacity=".67"/>
</clipPath>
</defs>
<g fill-rule="evenodd" stroke-width="1pt" transform="matrix(.93750 0 0 .93750 0 .000010038)" clip-path="url(#f)">
<rect y="-.0000039058" width="768" fill="#de2110" x="0" height="512"/>
<rect y="-.000012047" width="385.69" fill="#08399c" x="0" height="256"/>
<polygon points="272.53 171.99 226.67 162.56 236.44 208.35 201.43 177.26 186.99 221.8 172.22 177.36 137.45 208.72 146.88 162.86 101.09 172.62 132.18 137.62 87.641 123.18 132.07 108.41 100.72 73.637 146.58 83.064 136.82 37.272 171.82 68.367 186.26 23.827 201.03 68.259 235.8 36.905 226.37 82.768 272.16 73.001 241.07 108.01 285.61 122.44 241.18 137.21" fill="#fff" d="m 272.53271,171.98603 -45.86308,-9.42646 9.76653,45.79186 -35.00536,-31.09509 -14.43787,44.54018 -14.76798,-44.43182 -34.77366,31.35399 9.42647,-45.86307 -45.79187,9.76652 31.0951,-35.00536 -44.540187,-14.43787 44.431827,-14.76798 -31.354,-34.773654 45.86308,9.426464 -9.76653,-45.791867 35.00536,31.095097 14.43787,-44.540185 14.76798,44.431823 34.77366,-31.353996 -9.42647,45.863079 45.79187,-9.766529 -31.0951,35.005358 44.54019,14.43787 -44.43182,14.76798 z" transform="matrix(1.0321 0 0 1.0321 .81976 1.0439)"/>
<polygon points="230.41 167.62 216.1 175.24 202.14 183.51 185.93 182.95 169.72 183.14 155.96 174.55 141.82 166.6 134.2 152.28 125.93 138.33 126.48 122.12 126.3 105.9 134.89 92.143 142.84 78.005 157.15 70.383 171.11 62.114 187.32 62.671 203.54 62.486 217.3 71.074 231.43 79.024 239.05 93.34 247.32 107.29 246.77 123.5 246.95 139.72 238.36 153.48" fill="#005387" d="m 230.41383,167.61855 -14.31689,7.62192 -13.95306,8.26918 -16.20975,-0.55767 -16.21829,0.18478 -13.75923,-8.58783 -14.13784,-7.94911 -7.62192,-14.3169 -8.26917,-13.95306 0.55767,-16.20975 -0.18479,-16.21829 8.58784,-13.759224 7.94911,-14.137842 14.3169,-7.621921 13.95305,-8.269174 16.20976,0.557671 16.21828,-0.184788 13.75923,8.587836 14.13784,7.949113 7.62192,14.316896 8.26918,13.953053 -0.55768,16.20976 0.18479,16.21829 -8.58783,13.75922 z" transform="matrix(1.0437 0 0 1.0409 -2.0083 .44858)"/>
<path fill="#fff" d="m236.88 122.81c0 27.754-22.499 50.253-50.253 50.253s-50.253-22.499-50.253-50.253 22.499-50.253 50.253-50.253 50.253 22.499 50.253 50.253z" transform="matrix(1.0321 0 0 1.0321 .15286 1.5287)"/>
</g>
</svg>
</g>
</g>
<image y="0" width="1280" xlink:href="fore.png" x="0" height="960"/>
<defs xmlns:inkscape="http://www.inkscape.org/namespaces/inkscape">
<clipPath id="e" clipPathUnits="userSpaceOnUse">
<rect rx="67" ry="67" height="745" width="1065" y="107" x="107"/>
</clipPath>
<linearGradient id="c" y2="271.72" gradientUnits="userSpaceOnUse" x2="334.98" y1="-224.86" x1="10.981">
<stop stop-color="#fff" offset="0"/>
<stop stop-color="#fff" stop-opacity="0" offset="1"/>
</linearGradient>
</defs>
<g xmlns:inkscape="http://www.inkscape.org/namespaces/inkscape" xmlns:rdf="http://www.w3.org/1999/02/22-rdf-syntax-ns#" clip-path="url(#e)" height="745" width="1065" y="107" x="107" xmlns:cc="http://creativecommons.org/ns#" xmlns:sodipodi="http://sodipodi.sourceforge.net/DTD/sodipodi-0.dtd" xmlns:dc="http://purl.org/dc/elements/1.1/">
<g transform="translate(106,75) scale(1.667)" height="960" width="1280" y="75" x="106">
<svg height="480" width="640" version="1" y="0" x="0">
<metadata>
<rdf:RDF>
<cc:Work rdf:about="">
<dc:format>image/svg+xml</dc:format>
<dc:type rdf:resource="http://purl.org/dc/dcmitype/StillImage"/>
<dc:title/>
</cc:Work>
</rdf:RDF>
</metadata>
<rect fill-rule="evenodd" height="480" width="640" y="0" x="0" stroke-width="1pt" fill="url(#c)"/>
</svg>
</g>
</g>
</svg>
