<?xml version="1.0" encoding="UTF-8" standalone="no"?>
<svg xmlns="http://www.w3.org/2000/svg" viewBox="0 0 1280 960" version="1.1" xmlns:xlink="http://www.w3.org/1999/xlink" viewbox="0 0 1280.0px 960.0px">
<defs xmlns:inkscape="http://www.inkscape.org/namespaces/inkscape">
<filter id="d" style="color-interpolation-filters:sRGB" height="1.14" width="1.0979" y="-.069990" x="-.048937">
<feGaussianBlur stdDeviation="21.6452"/>
</filter>
</defs>
<metadata xmlns:rdf="http://www.w3.org/1999/02/22-rdf-syntax-ns#" xmlns:cc="http://creativecommons.org/ns#" xmlns:dc="http://purl.org/dc/elements/1.1/">
<rdf:RDF>
<cc:Work rdf:about="">
<dc:title/>
<dc:format>image/svg+xml</dc:format>
<dc:type rdf:resource="http://purl.org/dc/dcmitype/StillImage"/>
</cc:Work>
</rdf:RDF>
</metadata>
<g xmlns:inkscape="http://www.inkscape.org/namespaces/inkscape" height="745" width="1065" y="107" x="107">
<g opacity=".74438" transform="translate(-36.847 .94915)" filter="url(#d)">
<g height="745" width="1065" y="107" x="107">
<rect opacity=".978" stroke-linejoin="round" ry="68.009" height="742.22" width="1061.5" stroke="#000" y="107.87" x="147.87" stroke-width="2.2345"/>
</g>
</g>
</g>
<defs>
<clipPath id="g" clipPathUnits="userSpaceOnUse">
<rect rx="67" ry="67" height="745" width="1065" y="107" x="107"/>
</clipPath>
</defs>
<image y="0" width="1280" xlink:href="back.png" x="0" height="960"/>
<g y="107" width="1065" height="745" x="107" clip-path="url(#g)">
<g y="75" width="1280" x="106" transform="translate(106,75) scale(1.667)" height="960">
<svg xmlns:rdf="http://www.w3.org/1999/02/22-rdf-syntax-ns#" height="480" width="640" version="1.1" xmlns:cc="http://creativecommons.org/ns#" xmlns:dc="http://purl.org/dc/elements/1.1/">
<metadata>
<rdf:RDF>
<cc:Work rdf:about="">
<dc:format>image/svg+xml</dc:format>
<dc:type rdf:resource="http://purl.org/dc/dcmitype/StillImage"/>
</cc:Work>
</rdf:RDF>
</metadata>
<defs>
<clipPath id="f" clipPathUnits="userSpaceOnUse">
<rect y="0" width="640" height="480" x="0" fill-opacity=".67"/>
</clipPath>
</defs>
<g clip-path="url(#f)" fill-rule="evenodd">
<rect height="480" width="960" y="-.0000082911" x="0" stroke-width="1pt" fill="#fff"/>
<rect height="166.14" width="960" y=".00029167" x="0" stroke-width="1pt" fill="#94acd4"/>
<rect height="11.005" width="960" y="155.14" x="0" stroke-width="1pt" fill="#b73000"/>
<rect height="155.14" width="960" y="324.86" x="0" stroke-width="1pt" fill="#00a900"/>
<rect height="11.005" width="960" y="324.86" x="0" stroke-width="1pt" fill="#b73000"/>
<polygon stroke-width="1pt" points="205.58 128.74 195.57 121.89 185.66 128.9 189.08 117.26 179.36 110.01 191.48 109.66 195.37 98.165 199.45 109.59 211.58 109.74 201.98 117.15" fill="#feffff" d="m 205.58449,128.73621 -10.01635,-6.84893 -9.90282,7.01206 3.41849,-11.64254 -9.72901,-7.2513 12.12909,-0.34657 3.88997,-11.493607 4.0777,11.428357 12.13314,0.14786 -9.60893,7.40967 z" transform="matrix(.89301 0 0 .89794 69.068 -66.212)"/>
<polygon stroke-width="1pt" points="205.58 128.74 195.57 121.89 185.66 128.9 189.08 117.26 179.36 110.01 191.48 109.66 195.37 98.165 199.45 109.59 211.58 109.74 201.98 117.15" fill="#feffff" d="m 205.58449,128.73621 -10.01635,-6.84893 -9.90282,7.01206 3.41849,-11.64254 -9.72901,-7.2513 12.12909,-0.34657 3.88997,-11.493607 4.0777,11.428357 12.13314,0.14786 -9.60893,7.40967 z" transform="matrix(.89301 0 0 .89794 26.91 16.736)"/>
<polygon stroke-width="1pt" points="205.58 128.74 195.57 121.89 185.66 128.9 189.08 117.26 179.36 110.01 191.48 109.66 195.37 98.165 199.45 109.59 211.58 109.74 201.98 117.15" fill="#feffff" d="m 205.58449,128.73621 -10.01635,-6.84893 -9.90282,7.01206 3.41849,-11.64254 -9.72901,-7.2513 12.12909,-0.34657 3.88997,-11.493607 4.0777,11.428357 12.13314,0.14786 -9.60893,7.40967 z" transform="matrix(.89301 0 0 .89794 69.474 16.736)"/>
<polygon stroke-width="1pt" points="205.58 128.74 195.57 121.89 185.66 128.9 189.08 117.26 179.36 110.01 191.48 109.66 195.37 98.165 199.45 109.59 211.58 109.74 201.98 117.15" fill="#feffff" d="m 205.58449,128.73621 -10.01635,-6.84893 -9.90282,7.01206 3.41849,-11.64254 -9.72901,-7.2513 12.12909,-0.34657 3.88997,-11.493607 4.0777,11.428357 12.13314,0.14786 -9.60893,7.40967 z" transform="matrix(.89301 0 0 .89794 108.79 16.736)"/>
<polygon stroke-width="1pt" points="205.58 128.74 195.57 121.89 185.66 128.9 189.08 117.26 179.36 110.01 191.48 109.66 195.37 98.165 199.45 109.59 211.58 109.74 201.98 117.15" fill="#feffff" d="m 205.58449,128.73621 -10.01635,-6.84893 -9.90282,7.01206 3.41849,-11.64254 -9.72901,-7.2513 12.12909,-0.34657 3.88997,-11.493607 4.0777,11.428357 12.13314,0.14786 -9.60893,7.40967 z" transform="matrix(.89301 0 0 .89794 145.28 16.736)"/>
<polygon stroke-width="1pt" points="205.58 128.74 195.57 121.89 185.66 128.9 189.08 117.26 179.36 110.01 191.48 109.66 195.37 98.165 199.45 109.59 211.58 109.74 201.98 117.15" fill="#feffff" d="m 205.58449,128.73621 -10.01635,-6.84893 -9.90282,7.01206 3.41849,-11.64254 -9.72901,-7.2513 12.12909,-0.34657 3.88997,-11.493607 4.0777,11.428357 12.13314,0.14786 -9.60893,7.40967 z" transform="matrix(.89301 0 0 .89794 -17.681 16.736)"/>
<polygon stroke-width="1pt" points="205.58 128.74 195.57 121.89 185.66 128.9 189.08 117.26 179.36 110.01 191.48 109.66 195.37 98.165 199.45 109.59 211.58 109.74 201.98 117.15" fill="#feffff" d="m 205.58449,128.73621 -10.01635,-6.84893 -9.90282,7.01206 3.41849,-11.64254 -9.72901,-7.2513 12.12909,-0.34657 3.88997,-11.493607 4.0777,11.428357 12.13314,0.14786 -9.60893,7.40967 z" transform="matrix(.89301 0 0 .89794 26.099 -24.432)"/>
<polygon stroke-width="1pt" points="205.58 128.74 195.57 121.89 185.66 128.9 189.08 117.26 179.36 110.01 191.48 109.66 195.37 98.165 199.45 109.59 211.58 109.74 201.98 117.15" fill="#feffff" d="m 205.58449,128.73621 -10.01635,-6.84893 -9.90282,7.01206 3.41849,-11.64254 -9.72901,-7.2513 12.12909,-0.34657 3.88997,-11.493607 4.0777,11.428357 12.13314,0.14786 -9.60893,7.40967 z" transform="matrix(.89301 0 0 .89794 69.068 -24.432)"/>
<polygon stroke-width="1pt" points="205.58 128.74 195.57 121.89 185.66 128.9 189.08 117.26 179.36 110.01 191.48 109.66 195.37 98.165 199.45 109.59 211.58 109.74 201.98 117.15" fill="#feffff" d="m 205.58449,128.73621 -10.01635,-6.84893 -9.90282,7.01206 3.41849,-11.64254 -9.72901,-7.2513 12.12909,-0.34657 3.88997,-11.493607 4.0777,11.428357 12.13314,0.14786 -9.60893,7.40967 z" transform="matrix(.89301 0 0 .89794 109.6 -24.432)"/>
<polygon stroke-width="1pt" points="205.58 128.74 195.57 121.89 185.66 128.9 189.08 117.26 179.36 110.01 191.48 109.66 195.37 98.165 199.45 109.59 211.58 109.74 201.98 117.15" fill="#feffff" d="m 205.58449,128.73621 -10.01635,-6.84893 -9.90282,7.01206 3.41849,-11.64254 -9.72901,-7.2513 12.12909,-0.34657 3.88997,-11.493607 4.0777,11.428357 12.13314,0.14786 -9.60893,7.40967 z" transform="matrix(.89301 0 0 .89794 144.87 -24.432)"/>
<polygon stroke-width="1pt" points="205.58 128.74 195.57 121.89 185.66 128.9 189.08 117.26 179.36 110.01 191.48 109.66 195.37 98.165 199.45 109.59 211.58 109.74 201.98 117.15" fill="#feffff" d="m 205.58449,128.73621 -10.01635,-6.84893 -9.90282,7.01206 3.41849,-11.64254 -9.72901,-7.2513 12.12909,-0.34657 3.88997,-11.493607 4.0777,11.428357 12.13314,0.14786 -9.60893,7.40967 z" transform="matrix(.89301 0 0 .89794 144.47 -66.212)"/>
<polygon stroke-width="1pt" points="205.58 128.74 195.57 121.89 185.66 128.9 189.08 117.26 179.36 110.01 191.48 109.66 195.37 98.165 199.45 109.59 211.58 109.74 201.98 117.15" fill="#feffff" d="m 205.58449,128.73621 -10.01635,-6.84893 -9.90282,7.01206 3.41849,-11.64254 -9.72901,-7.2513 12.12909,-0.34657 3.88997,-11.493607 4.0777,11.428357 12.13314,0.14786 -9.60893,7.40967 z" transform="matrix(.89301 0 0 .89794 109.2 -66.212)"/>
<path d="m137.83 25.111c-47.838-13.111-78.139 20.754-77.683 51.103 0.456 30.346 28.426 62.486 71.603 54.466-67.837 31.79-102.53-18.28-101.14-58.032 2.378-46.988 55.193-85.309 107.22-47.537z" fill="#fff"/>
</g>
</svg>
</g>
</g>
<image y="0" width="1280" xlink:href="fore.png" x="0" height="960"/>
<defs xmlns:inkscape="http://www.inkscape.org/namespaces/inkscape">
<clipPath id="e" clipPathUnits="userSpaceOnUse">
<rect rx="67" ry="67" height="745" width="1065" y="107" x="107"/>
</clipPath>
<linearGradient id="c" y2="271.72" gradientUnits="userSpaceOnUse" x2="334.98" y1="-224.86" x1="10.981">
<stop stop-color="#fff" offset="0"/>
<stop stop-color="#fff" stop-opacity="0" offset="1"/>
</linearGradient>
</defs>
<g xmlns:inkscape="http://www.inkscape.org/namespaces/inkscape" xmlns:rdf="http://www.w3.org/1999/02/22-rdf-syntax-ns#" clip-path="url(#e)" height="745" width="1065" y="107" x="107" xmlns:cc="http://creativecommons.org/ns#" xmlns:sodipodi="http://sodipodi.sourceforge.net/DTD/sodipodi-0.dtd" xmlns:dc="http://purl.org/dc/elements/1.1/">
<g transform="translate(106,75) scale(1.667)" height="960" width="1280" y="75" x="106">
<svg height="480" width="640" version="1" y="0" x="0">
<metadata>
<rdf:RDF>
<cc:Work rdf:about="">
<dc:format>image/svg+xml</dc:format>
<dc:type rdf:resource="http://purl.org/dc/dcmitype/StillImage"/>
<dc:title/>
</cc:Work>
</rdf:RDF>
</metadata>
<rect fill-rule="evenodd" height="480" width="640" y="0" x="0" stroke-width="1pt" fill="url(#c)"/>
</svg>
</g>
</g>
</svg>
