<?xml version="1.0" encoding="UTF-8" standalone="no"?>
<svg xmlns="http://www.w3.org/2000/svg" viewBox="0 0 1280 960" version="1.1" xmlns:xlink="http://www.w3.org/1999/xlink" viewbox="0 0 1280.0px 960.0px">
<defs xmlns:inkscape="http://www.inkscape.org/namespaces/inkscape">
<filter id="d" style="color-interpolation-filters:sRGB" height="1.14" width="1.0979" y="-.069990" x="-.048937">
<feGaussianBlur stdDeviation="21.6452"/>
</filter>
</defs>
<metadata xmlns:rdf="http://www.w3.org/1999/02/22-rdf-syntax-ns#" xmlns:cc="http://creativecommons.org/ns#" xmlns:dc="http://purl.org/dc/elements/1.1/">
<rdf:RDF>
<cc:Work rdf:about="">
<dc:title/>
<dc:format>image/svg+xml</dc:format>
<dc:type rdf:resource="http://purl.org/dc/dcmitype/StillImage"/>
</cc:Work>
</rdf:RDF>
</metadata>
<g xmlns:inkscape="http://www.inkscape.org/namespaces/inkscape" height="745" width="1065" y="107" x="107">
<g opacity=".74438" transform="translate(-36.847 .94915)" filter="url(#d)">
<g height="745" width="1065" y="107" x="107">
<rect opacity=".978" stroke-linejoin="round" ry="68.009" height="742.22" width="1061.5" stroke="#000" y="107.87" x="147.87" stroke-width="2.2345"/>
</g>
</g>
</g>
<defs>
<clipPath id="g" clipPathUnits="userSpaceOnUse">
<rect rx="67" ry="67" height="745" width="1065" y="107" x="107"/>
</clipPath>
</defs>
<image y="0" width="1280" xlink:href="back.png" x="0" height="960"/>
<g y="107" width="1065" height="745" x="107" clip-path="url(#g)">
<g y="75" width="1280" x="106" transform="translate(106,75) scale(1.667)" height="960">
<svg xmlns:rdf="http://www.w3.org/1999/02/22-rdf-syntax-ns#" height="480" width="640" version="1.0" y="0" x="0" xmlns:cc="http://creativecommons.org/ns#" xmlns:dc="http://purl.org/dc/elements/1.1/">
<metadata>
<rdf:RDF>
<cc:Work rdf:about="">
<dc:format>image/svg+xml</dc:format>
<dc:type rdf:resource="http://purl.org/dc/dcmitype/StillImage"/>
</cc:Work>
</rdf:RDF>
</metadata>
<defs>
<clipPath id="f" clipPathUnits="userSpaceOnUse">
<rect y=".0000051327" width="682.67" height="512" x="-84.605" fill-opacity=".67"/>
</clipPath>
</defs>
<g fill-rule="evenodd" transform="matrix(.93750 0 0 .93750 79.318 -.0000048119)" clip-path="url(#f)">
<rect height="170.67" width="769.46" y="341.33" x="-128" stroke-width="1pt" fill="#dc0000"/>
<rect height="170.67" width="769.46" y=".0000048041" x="-128" stroke-width="1pt" fill="#ffcb00"/>
<rect height="170.67" width="769.46" y="170.67" x="-128" stroke-width="1pt" fill="#0000ba"/>
<path stroke-width=".11287" d="m269.58 228.72-12.397-8.856-12.336 8.943 4.5881-14.533-12.314-8.9739 15.234-0.12511 4.7251-14.489 4.8264 14.455 15.234 0.0191-12.25 9.0585 4.6894 14.501z" fill="#fff"/>
<path stroke-width=".11287" d="m331.27 236.3-12.397-8.856-12.336 8.943 4.5881-14.533-12.314-8.9739 15.234-0.12511 4.7251-14.489 4.8264 14.455 15.234 0.0191-12.25 9.0585 4.6894 14.501z" fill="#fff"/>
<path stroke-width=".11287" d="m384.74 269.67-12.397-8.856-12.336 8.943 4.5881-14.533-12.314-8.9739 15.234-0.12511 4.7251-14.489 4.8264 14.455 15.234 0.0191-12.25 9.0585 4.6894 14.501z" fill="#fff"/>
<path stroke-width=".11287" d="m414.9 319.72-12.397-8.856-12.336 8.943 4.5881-14.533-12.314-8.9739 15.234-0.12511 4.7251-14.489 4.8264 14.455 15.234 0.0191-12.25 9.0585 4.6894 14.501z" fill="#fff"/>
<path stroke-width=".11287" d="m182.99 236.3 12.397-8.856 12.336 8.943-4.5881-14.533 12.314-8.9739-15.234-0.12511-4.7251-14.489-4.8264 14.455-15.234 0.0191 12.25 9.0585-4.6894 14.501z" fill="#fff"/>
<path stroke-width=".11287" d="m129.53 269.67 12.397-8.856 12.336 8.943-4.5881-14.533 12.314-8.9739-15.234-0.12511-4.7251-14.489-4.8264 14.455-15.234 0.0191 12.25 9.0585-4.6894 14.501z" fill="#fff"/>
<path stroke-width=".11287" d="m99.369 319.72 12.397-8.856 12.336 8.943-4.5881-14.533 12.314-8.9739-15.234-0.12511-4.7251-14.489-4.8264 14.455-15.234 0.0191 12.25 9.0585-4.6894 14.501z" fill="#fff"/>
</g>
</svg>
</g>
</g>
<image y="0" width="1280" xlink:href="fore.png" x="0" height="960"/>
<defs xmlns:inkscape="http://www.inkscape.org/namespaces/inkscape">
<clipPath id="e" clipPathUnits="userSpaceOnUse">
<rect rx="67" ry="67" height="745" width="1065" y="107" x="107"/>
</clipPath>
<linearGradient id="c" y2="271.72" gradientUnits="userSpaceOnUse" x2="334.98" y1="-224.86" x1="10.981">
<stop stop-color="#fff" offset="0"/>
<stop stop-color="#fff" stop-opacity="0" offset="1"/>
</linearGradient>
</defs>
<g xmlns:inkscape="http://www.inkscape.org/namespaces/inkscape" xmlns:rdf="http://www.w3.org/1999/02/22-rdf-syntax-ns#" clip-path="url(#e)" height="745" width="1065" y="107" x="107" xmlns:cc="http://creativecommons.org/ns#" xmlns:sodipodi="http://sodipodi.sourceforge.net/DTD/sodipodi-0.dtd" xmlns:dc="http://purl.org/dc/elements/1.1/">
<g transform="translate(106,75) scale(1.667)" height="960" width="1280" y="75" x="106">
<svg height="480" width="640" version="1" y="0" x="0">
<metadata>
<rdf:RDF>
<cc:Work rdf:about="">
<dc:format>image/svg+xml</dc:format>
<dc:type rdf:resource="http://purl.org/dc/dcmitype/StillImage"/>
<dc:title/>
</cc:Work>
</rdf:RDF>
</metadata>
<rect fill-rule="evenodd" height="480" width="640" y="0" x="0" stroke-width="1pt" fill="url(#c)"/>
</svg>
</g>
</g>
</svg>
