<?xml version="1.0" encoding="UTF-8" standalone="no"?>
<svg xmlns="http://www.w3.org/2000/svg" viewBox="0 0 1280 960" version="1.1" xmlns:xlink="http://www.w3.org/1999/xlink" viewbox="0 0 1280.0px 960.0px">
<defs xmlns:inkscape="http://www.inkscape.org/namespaces/inkscape">
<filter id="c" style="color-interpolation-filters:sRGB" height="1.14" width="1.0979" y="-.069990" x="-.048937">
<feGaussianBlur stdDeviation="21.6452"/>
</filter>
</defs>
<metadata xmlns:rdf="http://www.w3.org/1999/02/22-rdf-syntax-ns#" xmlns:cc="http://creativecommons.org/ns#" xmlns:dc="http://purl.org/dc/elements/1.1/">
<rdf:RDF>
<cc:Work rdf:about="">
<dc:title/>
<dc:format>image/svg+xml</dc:format>
<dc:type rdf:resource="http://purl.org/dc/dcmitype/StillImage"/>
</cc:Work>
</rdf:RDF>
</metadata>
<g xmlns:inkscape="http://www.inkscape.org/namespaces/inkscape" height="745" width="1065" y="107" x="107">
<g opacity=".74438" transform="translate(-36.847 .94915)" filter="url(#c)">
<g height="745" width="1065" y="107" x="107">
<rect opacity=".978" stroke-linejoin="round" ry="68.009" height="742.22" width="1061.5" stroke="#000" y="107.87" x="147.87" stroke-width="2.2345"/>
</g>
</g>
</g>
<defs>
<clipPath id="e" clipPathUnits="userSpaceOnUse">
<rect rx="67" ry="67" height="745" width="1065" y="107" x="107"/>
</clipPath>
</defs>
<image y="0" width="1280" xlink:href="back.png" x="0" height="960"/>
<g y="107" width="1065" height="745" x="107" clip-path="url(#e)">
<g y="75" width="1280" x="106" transform="translate(106,75) scale(1.667)" height="960">
<svg xmlns:rdf="http://www.w3.org/1999/02/22-rdf-syntax-ns#" height="480" width="640" version="1.1" xmlns:cc="http://creativecommons.org/ns#" xmlns:dc="http://purl.org/dc/elements/1.1/">
<metadata>
<rdf:RDF>
<cc:Work rdf:about="">
<dc:format>image/svg+xml</dc:format>
<dc:type rdf:resource="http://purl.org/dc/dcmitype/StillImage"/>
</cc:Work>
</rdf:RDF>
</metadata>
<g stroke-width="1pt" fill-rule="evenodd">
<rect y=".0000047684" width="640" fill="#f00" x="0" height="480"/>
<g transform="scale(1.3126)">
<rect y=".00000118" width="239.53" fill="#00006b" x="0" height="119.77"/>
<g transform="matrix(.42837 0 0 .42837 114.71 5.6278)" fill="#fff">
<polygon points="246.75 218.42 211.31 195.56 177.34 218.8 188.13 178.03 155.52 152.9 197.64 150.57 211.46 111.79 226.69 151.12 267.84 152.28 235.14 178.93" transform="matrix(.62565 0 0 .65463 -132.68 100.69)" d="m 246.7536,218.4237 -35.44182,-22.86769 -33.97697,23.2468 10.79635,-40.77369 -32.60848,-25.13035 42.11433,-2.33183 13.82381,-38.77821 15.23175,39.33253 41.15207,1.1641 -32.7006,26.64067 z"/>
<polygon points="248.18 42.711 233.32 33.623 218.73 42.642 222.78 25.696 209.7 14.613 227.07 13.228 233.56 -2.6396 240.25 13.45 257.35 14.726 244.11 26.055" transform="matrix(1.1939 0 0 1.2544 -278.4 12.56)" d="m 248.18091,42.711273 -14.86513,-9.087931 -14.58304,9.018406 4.04956,-16.945898 -13.08343,-11.082461 17.36789,-1.385211 6.49705,-15.8677433 6.68439,16.0897913 17.09882,1.275656 -13.23672,11.329248 z"/>
<polygon points="248.18 42.614 233.66 33.049 218.82 42.612 223.44 25.848 209.76 14.692 227.12 13.897 233.51 -2.5608 239.63 13.711 257.25 14.696 243.67 25.548" transform="matrix(1.1891 0 0 1.2384 -355.61 77.249)" d="m 248.18089,42.613914 -14.51812,-9.565093 -14.83744,9.562826 4.61059,-16.763332 -13.67981,-11.156171 17.36763,-0.795215 6.38286,-16.4577199 6.12319,16.2718619 17.62463,0.984741 -13.58329,10.851779 z"/>
<polygon points="248.24 42.53 233.38 33.326 218.92 42.643 223.08 25.665 209.76 14.796 227.19 13.507 233.41 -2.5282 240.02 13.654 257.19 14.612 243.85 25.902" transform="matrix(1.1148 0 0 1.161 -180.05 66.37)" d="m 248.24168,42.529491 -14.86174,-9.204036 -14.45554,9.31792 4.16103,-16.978562 -13.32888,-10.868637 17.4334,-1.289293 6.21784,-16.0351067 6.61341,16.1817357 17.17171,0.958396 -13.34609,11.290155 z"/>
<polygon points="248.4 42.789 233.54 33.902 218.73 42.878 222.59 25.997 209.47 14.682 226.72 13.136 233.43 -2.8337 240.23 13.092 257.49 14.538 244.44 25.926" transform="matrix(.74318 0 0 .77399 -134.25 129.31)" d="m 248.40399,42.789136 -14.86166,-8.88744 -14.81471,8.976278 3.85995,-16.880653 -13.11494,-11.315799 17.24724,-1.545378 6.70923,-15.9698264 6.79943,15.9255574 17.26147,1.445903 -13.04496,11.387913 z"/>
</g>
</g>
</g>
</svg>
</g>
</g>
<image y="0" width="1280" xlink:href="fore.png" x="0" height="960"/>
<defs xmlns:inkscape="http://www.inkscape.org/namespaces/inkscape">
<clipPath id="d" clipPathUnits="userSpaceOnUse">
<rect rx="67" ry="67" height="745" width="1065" y="107" x="107"/>
</clipPath>
<linearGradient id="b" y2="271.72" gradientUnits="userSpaceOnUse" x2="334.98" y1="-224.86" x1="10.981">
<stop stop-color="#fff" offset="0"/>
<stop stop-color="#fff" stop-opacity="0" offset="1"/>
</linearGradient>
</defs>
<g xmlns:inkscape="http://www.inkscape.org/namespaces/inkscape" xmlns:rdf="http://www.w3.org/1999/02/22-rdf-syntax-ns#" clip-path="url(#d)" height="745" width="1065" y="107" x="107" xmlns:cc="http://creativecommons.org/ns#" xmlns:sodipodi="http://sodipodi.sourceforge.net/DTD/sodipodi-0.dtd" xmlns:dc="http://purl.org/dc/elements/1.1/">
<g transform="translate(106,75) scale(1.667)" height="960" width="1280" y="75" x="106">
<svg height="480" width="640" version="1" y="0" x="0">
<metadata>
<rdf:RDF>
<cc:Work rdf:about="">
<dc:format>image/svg+xml</dc:format>
<dc:type rdf:resource="http://purl.org/dc/dcmitype/StillImage"/>
<dc:title/>
</cc:Work>
</rdf:RDF>
</metadata>
<rect fill-rule="evenodd" height="480" width="640" y="0" x="0" stroke-width="1pt" fill="url(#b)"/>
</svg>
</g>
</g>
</svg>
