<?xml version="1.0" encoding="UTF-8" standalone="no"?>
<svg xmlns="http://www.w3.org/2000/svg" viewBox="0 0 1280 960" version="1.1" xmlns:xlink="http://www.w3.org/1999/xlink" viewbox="0 0 1280.0px 960.0px">
<defs xmlns:inkscape="http://www.inkscape.org/namespaces/inkscape">
<filter id="d" style="color-interpolation-filters:sRGB" height="1.14" width="1.0979" y="-.069990" x="-.048937">
<feGaussianBlur stdDeviation="21.6452"/>
</filter>
</defs>
<metadata xmlns:rdf="http://www.w3.org/1999/02/22-rdf-syntax-ns#" xmlns:cc="http://creativecommons.org/ns#" xmlns:dc="http://purl.org/dc/elements/1.1/">
<rdf:RDF>
<cc:Work rdf:about="">
<dc:title/>
<dc:format>image/svg+xml</dc:format>
<dc:type rdf:resource="http://purl.org/dc/dcmitype/StillImage"/>
</cc:Work>
</rdf:RDF>
</metadata>
<g xmlns:inkscape="http://www.inkscape.org/namespaces/inkscape" height="745" width="1065" y="107" x="107">
<g opacity=".74438" transform="translate(-36.847 .94915)" filter="url(#d)">
<g height="745" width="1065" y="107" x="107">
<rect opacity=".978" stroke-linejoin="round" ry="68.009" height="742.22" width="1061.5" stroke="#000" y="107.87" x="147.87" stroke-width="2.2345"/>
</g>
</g>
</g>
<defs>
<clipPath id="g" clipPathUnits="userSpaceOnUse">
<rect rx="67" ry="67" height="745" width="1065" y="107" x="107"/>
</clipPath>
</defs>
<image y="0" width="1280" xlink:href="back.png" x="0" height="960"/>
<g y="107" width="1065" height="745" x="107" clip-path="url(#g)">
<g y="75" width="1280" x="106" transform="translate(106,75) scale(1.667)" height="960">
<svg xmlns:rdf="http://www.w3.org/1999/02/22-rdf-syntax-ns#" height="480" width="640" version="1" y="0" x="0" xmlns:cc="http://creativecommons.org/ns#" xmlns:dc="http://purl.org/dc/elements/1.1/">
<metadata>
<rdf:RDF>
<cc:Work rdf:about="">
<dc:format>image/svg+xml</dc:format>
<dc:type rdf:resource="http://purl.org/dc/dcmitype/StillImage"/>
</cc:Work>
</rdf:RDF>
</metadata>
<defs>
<clipPath id="f" clipPathUnits="userSpaceOnUse">
<rect y="-.012254" width="682.68" height="512.01" x="-71.873" fill-opacity=".67"/>
</clipPath>
</defs>
<g transform="matrix(.93748 0 0 .93748 67.379 .011488)" clip-path="url(#f)">
<g stroke-width="1pt" transform="matrix(2.0478 0 0 2.0484 -148.57 -1592.2)" fill-rule="evenodd">
<path d="m37.451 976.39v-148.12l110.28 74.022-110.28 74.103z"/>
<path d="m112.7 1027.3 123.81-83.306h175.98v83.306h-299.79z" fill="#00c"/>
<path d="m104.74 777.32 307.74 0.006v83.32h-175.98s-130.11-84.15-131.76-83.326z" fill="#f00"/>
<path d="m37.451 808.57v19.688l110.28 74.022-110.28 74.103v19.687l138.9-93.79-138.9-93.71z" fill="#fc0"/>
<path d="m37.451 808.57v-31.25h46.338l147.14 99.531h181.55v50.899h-181.55l-147.14 99.517h-46.338v-31.197l138.9-93.79-138.9-93.71z" fill="#093"/>
<path d="m83.789 777.32h28.906l123.81 83.32h175.98v16.211h-181.55l-147.14-99.531z" fill="#fff"/>
<path d="m83.789 1027.3h28.906l123.81-83.306h175.98v-16.211h-181.55l-147.14 99.517z" fill="#fff"/>
</g>
</g>
</svg>
</g>
</g>
<image y="0" width="1280" xlink:href="fore.png" x="0" height="960"/>
<defs xmlns:inkscape="http://www.inkscape.org/namespaces/inkscape">
<clipPath id="e" clipPathUnits="userSpaceOnUse">
<rect rx="67" ry="67" height="745" width="1065" y="107" x="107"/>
</clipPath>
<linearGradient id="c" y2="271.72" gradientUnits="userSpaceOnUse" x2="334.98" y1="-224.86" x1="10.981">
<stop stop-color="#fff" offset="0"/>
<stop stop-color="#fff" stop-opacity="0" offset="1"/>
</linearGradient>
</defs>
<g xmlns:inkscape="http://www.inkscape.org/namespaces/inkscape" xmlns:rdf="http://www.w3.org/1999/02/22-rdf-syntax-ns#" clip-path="url(#e)" height="745" width="1065" y="107" x="107" xmlns:cc="http://creativecommons.org/ns#" xmlns:sodipodi="http://sodipodi.sourceforge.net/DTD/sodipodi-0.dtd" xmlns:dc="http://purl.org/dc/elements/1.1/">
<g transform="translate(106,75) scale(1.667)" height="960" width="1280" y="75" x="106">
<svg height="480" width="640" version="1" y="0" x="0">
<metadata>
<rdf:RDF>
<cc:Work rdf:about="">
<dc:format>image/svg+xml</dc:format>
<dc:type rdf:resource="http://purl.org/dc/dcmitype/StillImage"/>
<dc:title/>
</cc:Work>
</rdf:RDF>
</metadata>
<rect fill-rule="evenodd" height="480" width="640" y="0" x="0" stroke-width="1pt" fill="url(#c)"/>
</svg>
</g>
</g>
</svg>
