<?xml version="1.0" encoding="UTF-8" standalone="no"?>
<svg xmlns="http://www.w3.org/2000/svg" version="1.1" xmlns:xlink="http://www.w3.org/1999/xlink" viewBox="0 0 1280 960">
<defs>
<clipPath id="a" clipPathUnits="userSpaceOnUse">
<rect rx="67" ry="67" height="745" width="1065" y="107" x="107"/>
</clipPath>
</defs>
<g>
<image xlink:href="back.png" height="960" width="1280" y="0" x="0"/>
</g>
<g clip-path="url(#a)" height="745" width="1065" y="107" x="107">
<g transform="translate(106,75) scale(1.667)" height="960" width="1280" y="75" x="106">
<svg xmlns:rdf="http://www.w3.org/1999/02/22-rdf-syntax-ns#" xmlns="http://www.w3.org/2000/svg" xmlns:svg="http://www.w3.org/2000/svg" width="640" version="1.1" xmlns:cc="http://creativecommons.org/ns#" height="480" xmlns:dc="http://purl.org/dc/elements/1.1/">
<metadata>
<rdf:RDF>
<cc:Work rdf:about="">
<dc:format>image/svg+xml</dc:format>
<dc:type rdf:resource="http://purl.org/dc/dcmitype/StillImage"/>
<dc:title/>
</cc:Work>
</rdf:RDF>
</metadata>
<desc>The United States of America flag, produced by Daniel McRae</desc>
<defs>
<clipPath id="d" clipPathUnits="userSpaceOnUse">
<rect opacity=".744" stroke-linejoin="round" height="557.95" width="995.3" stroke="#000" y="59.012" x="-160.84" stroke-width="2.1409"/>
</clipPath>
<clipPath id="c" clipPathUnits="userSpaceOnUse">
<rect opacity=".744" stroke-linejoin="round" height="557.95" width="995.3" stroke="#000" y="59.012" x="-160.84" stroke-width="2.1409"/>
</clipPath>
<clipPath id="b" clipPathUnits="userSpaceOnUse">
<rect opacity=".744" stroke-linejoin="round" height="557.95" width="995.3" stroke="#000" y="59.012" x="-160.84" stroke-width="2.1409"/>
</clipPath>
</defs>
<path d="m-163.19 57.985v560h1e3v-560z" clip-path="url(#b)" transform="matrix(.64302 0 0 .86030 103.42 -50.768)" fill="#d52b1e"/>
<path d="m-163.19 57.985 1e3 560m0-560l-1e3 560.01" clip-path="url(#c)" transform="matrix(.64302 0 0 .86030 103.42 -50.768)" stroke="#009b48" stroke-width="86"/>
<path d="m336.81 57.985v560m-500-280h1e3" clip-path="url(#d)" transform="matrix(.64302 0 0 .86030 103.42 -50.768)" stroke="#fff" stroke-width="86"/>
</svg>
</g>
</g>
<g>
<image xlink:href="fore.png" height="960" width="1280" y="0" x="0"/>
</g>
</svg>
