<?xml version="1.0" encoding="UTF-8" standalone="no"?>
<svg xmlns="http://www.w3.org/2000/svg" version="1.1" xmlns:xlink="http://www.w3.org/1999/xlink" viewBox="0 0 1280 960">
<defs>
<clipPath id="l" clipPathUnits="userSpaceOnUse">
<rect rx="67" ry="67" height="745" width="1065" y="107" x="107"/>
</clipPath>
</defs>
<g>
<image xlink:href="back.png" height="960" width="1280" y="0" x="0"/>
</g>
<g clip-path="url(#l)" height="745" width="1065" y="107" x="107">
<g transform="translate(106,75) scale(1.667)" height="960" width="1280" y="75" x="106">
<svg xmlns:rdf="http://www.w3.org/1999/02/22-rdf-syntax-ns#" xmlns="http://www.w3.org/2000/svg" xmlns:svg="http://www.w3.org/2000/svg" height="480" width="640" version="1.1" xmlns:cc="http://creativecommons.org/ns#" xmlns:xlink="http://www.w3.org/1999/xlink" xmlns:dc="http://purl.org/dc/elements/1.1/">
<metadata>
<rdf:RDF>
<cc:Work rdf:about="">
<dc:format>image/svg+xml</dc:format>
<dc:type rdf:resource="http://purl.org/dc/dcmitype/StillImage"/>
<dc:title/>
</cc:Work>
</rdf:RDF>
</metadata>
<desc>The United States of America flag, produced by Daniel McRae</desc>
<defs>
<circle id="c" stroke="#013ba6" stroke-width="39.03" r="145.66" fill="none"/>
<circle id="b" stroke="#fff" stroke-width="17.347" r="145.66" fill="none"/>
<clipPath id="e">
<path d="m0-200v400h200v-400zm-200 0v400h100v-400z"/>
</clipPath>
<clipPath id="k">
<path d="m-200-200h400v250h-400z"/>
</clipPath>
<clipPath id="j">
<path d="m0 0-200-150v300z"/>
</clipPath>
<clipPath id="i">
<path d="m0 0-200-200v400z"/>
</clipPath>
<clipPath id="g">
<path d="m0 0-50-200h-150v350z"/>
</clipPath>
<clipPath id="f">
<path d="m0 0v-200h-200v400z"/>
</clipPath>
</defs>
<g transform="matrix(.53333 0 0 .6 320 240)">
<rect height="800" width="1200" y="-400" x="-600" fill="#013ba6"/>
<g id="a" transform="translate(145.66)">
<use clip-path="url(#e)" xlink:href="#c" height="100%" width="100%" y="0" x="0"/>
<use xlink:href="#b" height="100%" width="100%" y="0" x="0"/>
</g>
<use xlink:href="#a" transform="rotate(-60.001)" height="100%" width="100%" y="0" x="0"/>
<use xlink:href="#a" transform="rotate(60.001)" height="100%" width="100%" y="0" x="0"/>
<use xlink:href="#a" transform="rotate(120)" height="100%" width="100%" y="0" x="0"/>
<use xlink:href="#a" transform="scale(-1)" height="100%" width="100%" y="0" x="0"/>
<use xlink:href="#a" transform="rotate(240)" height="100%" width="100%" y="0" x="0"/>
<use clip-path="url(#k)" xlink:href="#c" height="100%" width="100%" y="0" x="0"/>
<use xlink:href="#b" height="100%" width="100%" y="0" x="0"/>
<g transform="translate(145.66)">
<use clip-path="url(#j)" xlink:href="#c" height="100%" width="100%" y="0" x="0"/>
<use clip-path="url(#i)" xlink:href="#b" height="100%" width="100%" y="0" x="0"/>
</g>
<g id="d" transform="matrix(-.5 .86603 -.86603 -.5 -72.832 126.15)">
<use clip-path="url(#g)" xlink:href="#c" height="100%" width="100%" y="0" x="0"/>
<use clip-path="url(#f)" xlink:href="#b" height="100%" width="100%" y="0" x="0"/>
</g>
<use xlink:href="#d" transform="scale(-1,1)" height="100%" width="100%" y="0" x="0"/>
</g>
</svg>
</g>
</g>
<g>
<image xlink:href="fore.png" height="960" width="1280" y="0" x="0"/>
</g>
</svg>
