<?xml version="1.0" encoding="UTF-8" standalone="no"?>
<svg xmlns="http://www.w3.org/2000/svg" version="1.1" xmlns:xlink="http://www.w3.org/1999/xlink" viewBox="0 0 1280 960">
<defs>
<clipPath id="c" clipPathUnits="userSpaceOnUse">
<rect rx="67" ry="67" height="745" width="1065" y="107" x="107"/>
</clipPath>
</defs>
<g>
<image xlink:href="back.png" height="960" width="1280" y="0" x="0"/>
</g>
<g clip-path="url(#c)" height="745" width="1065" y="107" x="107">
<g transform="translate(106,75) scale(1.667)" height="960" width="1280" y="75" x="106">
<svg xmlns:rdf="http://www.w3.org/1999/02/22-rdf-syntax-ns#" xmlns="http://www.w3.org/2000/svg" xmlns:svg="http://www.w3.org/2000/svg" width="640" version="1.1" xmlns:cc="http://creativecommons.org/ns#" height="480" xmlns:dc="http://purl.org/dc/elements/1.1/">
<metadata>
<rdf:RDF>
<cc:Work rdf:about="">
<dc:format>image/svg+xml</dc:format>
<dc:type rdf:resource="http://purl.org/dc/dcmitype/StillImage"/>
<dc:title/>
</cc:Work>
</rdf:RDF>
</metadata>
<desc>The United States of America flag, produced by Daniel McRae</desc>
<defs>
<clipPath id="a">
<path d="m0 0l-11-5.5v11l11-5.5 0.2-11h10z"/>
</clipPath>
<clipPath id="b">
<path d="m0 0l-11-11v22l11-11v-11h11z"/>
</clipPath>
</defs>
<g transform="matrix(7.1111 0 0 8 320 200)">
<rect height="60" width="90" y="-25" x="-45" fill="#fff"/>
<g stroke-width="2" stroke="#fff" fill="none">
<circle stroke-width="3" cy="9" cx="-11" r="9"/>
<circle stroke-width="3" cy="9" cx="11" r="9"/>
<circle stroke="#f4c300" cy="9" cx="-11" r="9"/>
<circle stroke="#009f3d" cy="9" cx="11" r="9"/>
<circle stroke-width="3" cy="0" cx="-22" r="9"/>
<circle stroke-width="3" cy="0" cx="0" r="9"/>
<circle stroke-width="3" cy="0" cx="22" r="9"/>
<circle stroke="#0085c7" cy="0" cx="-22" r="9"/>
<circle stroke="#000" cy="0" cx="0" r="9"/>
<circle stroke="#df0024" cy="0" cx="22" r="9"/>
<g transform="translate(-11,9)">
<circle stroke-width="3" clip-path="url(#a)" cy="0" cx="0" r="9"/>
<circle clip-path="url(#b)" stroke="#f4c300" cy="0" cx="0" r="9"/>
</g>
<g transform="translate(11,9)">
<circle stroke-width="3" clip-path="url(#a)" cy="0" cx="0" r="9"/>
<circle clip-path="url(#b)" stroke="#009f3d" cy="0" cx="0" r="9"/>
</g>
</g>
</g>
</svg>
</g>
</g>
<g>
<image xlink:href="fore.png" height="960" width="1280" y="0" x="0"/>
</g>
</svg>
