<?xml version="1.0" encoding="UTF-8" standalone="no"?>
<svg xmlns="http://www.w3.org/2000/svg" version="1.1" xmlns:xlink="http://www.w3.org/1999/xlink" viewBox="0 0 1280 960">
<defs>
<clipPath id="a" clipPathUnits="userSpaceOnUse">
<rect rx="67" ry="67" height="745" width="1065" y="107" x="107"/>
</clipPath>
</defs>
<g>
<image xlink:href="back.png" height="960" width="1280" y="0" x="0"/>
</g>
<g clip-path="url(#a)" height="745" width="1065" y="107" x="107">
<g transform="translate(106,75) scale(1.667)" height="960" width="1280" y="75" x="106">
<svg xmlns:rdf="http://www.w3.org/1999/02/22-rdf-syntax-ns#" xmlns="http://www.w3.org/2000/svg" xmlns:svg="http://www.w3.org/2000/svg" width="640" version="1.1" xmlns:cc="http://creativecommons.org/ns#" height="480" xmlns:dc="http://purl.org/dc/elements/1.1/">
<metadata>
<rdf:RDF>
<cc:Work rdf:about="">
<dc:format>image/svg+xml</dc:format>
<dc:type rdf:resource="http://purl.org/dc/dcmitype/StillImage"/>
</cc:Work>
</rdf:RDF>
</metadata>
<defs>
<clipPath id="b" clipPathUnits="userSpaceOnUse">
<rect fill-opacity="0.67" height="216" width="288" y="-.000060480" x="0"/>
</clipPath>
</defs>
<g transform="matrix(2.2222 0 0 2.2222 0 .0001344)" clip-path="url(#b)">
<path fill="#39c" d="m0-0.000064185v216h324v-216h-324z"/>
<path fill="#ff0" d="m0 144v12h324v-12h-324z"/>
<path fill="#ff0" d="m0 168v12h324v-12h-324z"/>
</g>
<g transform="matrix(2.9521 0 0 2.9521 0.946 -7.3585)">
<path fill="#9cc" d="m48 12 1 1-1-1z"/>
<path fill="#9cc" d="m47 14 1 1-1-1m2 0 1 1-1-1z"/>
<path fill="#ccf" d="m47 15 1 1-1-1m2 0 1 1-1-1z"/>
<path fill="#6cc" d="m46 17 1 1-1-1z"/>
<path fill="#c66" d="m48 17 1 1-1-1z"/>
<path fill="#6cc" d="m50 17 1 1-1-1z"/>
<path fill="#ccf" d="m46 18 1 1-1-1z"/>
<path fill="#ccf" d="m50 18 1 1-1-1z"/>
<path fill="#fcc" d="m47 19 1 1-1-1m2 0 1 1-1-1z"/>
<path fill="#6cc" d="m45 20 1 1-1-1z"/>
<path d="m47.835 14.032-7.01 26.574-26.652 7.238 26.575 6.936 7.087 26.574 7.086-26.574 26.575-7.087-26.575-7.087-7.086-26.574z" stroke="#fff" stroke-width="1.25" fill="#c00"/>
<path fill="#6cc" d="m51 20 1 1-1-1z"/>
<path fill="#9cf" d="m45 21 1 1-1-1m6 0 1 1-1-1z"/>
<path fill="#fcc" d="m46 22 1 1-1-1m4 0 1 1-1-1z"/>
<path fill="#69c" d="m44 23 1 1-1-1z"/>
<path fill="#c33" d="m46.333 23.667 0.3334 0.6666-0.3334-0.6666m4 0 0.3334 0.6666-0.3334-0.6666z"/>
<path fill="#69c" d="m52 23 1 1-1-1z"/>
<path fill="#9cf" d="m44 24 1 1-1-1m8 0 1 1-1-1z"/>
<path fill="#fcc" d="m45 25 1 1-1-1m6 0 1 1-1-1z"/>
<path fill="#69c" d="m43 26 1 1-1-1z"/>
<path fill="#69c" d="m53 26 1 1-1-1z"/>
<path fill="#9cc" d="m43 27 1 1-1-1m10 0 1 1-1-1z"/>
<path fill="#cff" d="m43 28 1 1-1-1m10 0 1 1-1-1z"/>
<path fill="#69c" d="m42 29 1 1-1-1z"/>
<path fill="#fcc" d="m44 29 1 1-1-1m8 0 1 1-1-1z"/>
<path fill="#69c" d="m54 29 1 1-1-1z"/>
<path fill="#9cc" d="m42 30 1 1-1-1z"/>
<path fill="#c33" d="m44.333 30.667 0.3334 0.6666-0.3334-0.6666m8 0 0.3334 0.6666-0.3334-0.6666z"/>
<path fill="#9cc" d="m54 30 1 1-1-1z"/>
<path fill="#cff" d="m42 31 1 1-1-1m12 0 1 1-1-1z"/>
<path fill="#fcc" d="m43 32 1 1-1-1m10 0 1 1-1-1z"/>
<path fill="#9cc" d="m41 33 1 1-1-1z"/>
<path fill="#c33" d="m43.333 33.667 0.3334 0.6666-0.3334-0.6666m10 0 0.3334 0.6666-0.3334-0.6666z"/>
<path fill="#9cc" d="m55 33 1 1-1-1z"/>
<path fill="#ccf" d="m41 34 1 1-1-1m14 0 1 1-1-1z"/>
<path fill="#fcc" d="m42 35 1 1-1-1m12 0 1 1-1-1z"/>
<path fill="#9cc" d="m40 36 1 1-1-1z"/>
<path fill="#c33" d="m42.333 36.667 0.3334 0.6666-0.3334-0.6666m12 0 0.3334 0.6666-0.3334-0.6666z"/>
<path fill="#9cc" d="m56 36 1 1-1-1z"/>
<path fill="#ccf" d="m40 37 1 1-1-1m16 0 1 1-1-1z"/>
<path fill="#fcc" d="m41 38 1 1-1-1m14 0 1 1-1-1z"/>
<path fill="#9cc" d="m39 39 1 1-1-1z"/>
<path fill="#c33" d="m41 39 1 1-1-1m14 0 1 1-1-1z"/>
<path fill="#9cc" d="m57 39 1 1-1-1m-21 1 1 1-1-1z"/>
<path fill="#ccf" d="m37 40 1 1-1-1m22 0 1 1-1-1z"/>
<path fill="#9cc" d="m60 40 1 1-1-1m-27 1 1 1-1-1z"/>
<path fill="#ccf" d="m34 41 1 1-1-1z"/>
<path fill="#fcc" d="m38 41 1 1-1-1z"/>
<path fill="#c33" d="m39 41 1 1-1-1m18 0 1 1-1-1z"/>
<path fill="#fcc" d="m58 41 1 1-1-1z"/>
<path fill="#ccf" d="m62 41 1 1-1-1z"/>
<path fill="#9cc" d="m63 41 1 1-1-1z"/>
<path fill="#69c" d="m29 42 1 1-1-1z"/>
<path fill="#9cc" d="m30 42 1 1-1-1z"/>
<path fill="#cff" d="m31 42 1 1-1-1z"/>
<path fill="#fcc" d="m35 42 1 1-1-1z"/>
<path fill="#c33" d="m36.667 42.333 0.6666 0.3334-0.6666-0.3334m23 0 0.6666 0.3334-0.6666-0.3334z"/>
<path fill="#fcc" d="m61 42 1 1-1-1z"/>
<path fill="#cff" d="m65 42 1 1-1-1z"/>
<path fill="#9cc" d="m66 42 1 1-1-1z"/>
<path fill="#69c" d="m67 42 1 1-1-1m-41 1 1 1-1-1z"/>
<path fill="#9cc" d="m27 43 1 1-1-1z"/>
<path fill="#cff" d="m28 43 1 1-1-1z"/>
<path fill="#fcc" d="m32 43 1 1-1-1z"/>
<path fill="#c33" d="m33.667 43.333 0.6666 0.3334-0.6666-0.3334m29 0 0.6666 0.3334-0.6666-0.3334z"/>
<path fill="#fcc" d="m64 43 1 1-1-1z"/>
<path fill="#cff" d="m68 43 1 1-1-1z"/>
<path fill="#9cc" d="m69 43 1 1-1-1z"/>
<path fill="#69c" d="m70 43 1 1-1-1m-47 1 1 1-1-1z"/>
<path fill="#9cf" d="m24 44 1 1-1-1z"/>
<path fill="#fcc" d="m29 44 1 1-1-1z"/>
<path fill="#c33" d="m30.667 44.333 0.6666 0.3334-0.6666-0.3334m35 0 0.6666 0.3334-0.6666-0.3334z"/>
<path fill="#fcc" d="m67 44 1 1-1-1z"/>
<path fill="#9cf" d="m72 44 1 1-1-1z"/>
<path fill="#69c" d="m73 44 1 1-1-1z"/>
<path fill="#6cc" d="m20 45 1 1-1-1z"/>
<path fill="#9cf" d="m21 45 1 1-1-1z"/>
<path fill="#fcc" d="m25 45 1 1-1-1z"/>
<path fill="#fcc" d="m71 45 1 1-1-1z"/>
<path fill="#9cf" d="m75 45 1 1-1-1z"/>
<path fill="#6cc" d="m76 45 1 1-1-1m-59 1 1 1-1-1z"/>
<path fill="#ccf" d="m18 46 1 1-1-1z"/>
<path fill="#fcc" d="m22 46 1 1-1-1z"/>
<path fill="#c33" d="m23.667 46.333 0.6666 0.3334-0.6666-0.3334m49 0 0.6666 0.3334-0.6666-0.3334z"/>
<path fill="#fcc" d="m74 46 1 1-1-1z"/>
<path fill="#ccf" d="m78 46 1 1-1-1z"/>
<path fill="#6cc" d="m79 46 1 1-1-1z"/>
<path fill="#9cc" d="m14 47 1 1-1-1z"/>
<path fill="#ccf" d="m15 47 1 1-1-1z"/>
<path fill="#fcc" d="m19 47 1 1-1-1z"/>
<path fill="#fcc" d="m77 47 1 1-1-1z"/>
<path fill="#ccf" d="m81 47 1 1-1-1z"/>
<path fill="#9cc" d="m82 47 1 1-1-1m-70 1 1 1-1-1z"/>
<path fill="#c66" d="m17 48 1 1-1-1z"/>
<path fill="#c66" d="m79 48 1 1-1-1z"/>
<path fill="#9cc" d="m84 48 1 1-1-1m-70 1 1 1-1-1z"/>
<path fill="#ccf" d="m15 49 1 1-1-1z"/>
<path fill="#fcc" d="m19 49 1 1-1-1m58 0 1 1-1-1z"/>
<path fill="#ccf" d="m81 49 1 1-1-1z"/>
<path fill="#9cc" d="m82 49 1 1-1-1z"/>
<path fill="#6cc" d="m17 50 1 1-1-1z"/>
<path fill="#ccf" d="m18 50 1 1-1-1z"/>
<path fill="#fcc" d="m22 50 1 1-1-1z"/>
<path fill="#c33" d="m23.667 50.333 0.6666 0.3334-0.6666-0.3334m49 0 0.6666 0.3334-0.6666-0.3334z"/>
<path fill="#fcc" d="m74 50 1 1-1-1z"/>
<path fill="#ccf" d="m78 50 1 1-1-1z"/>
<path fill="#6cc" d="m79 50 1 1-1-1m-59 1 1 1-1-1z"/>
<path fill="#9cf" d="m21 51 1 1-1-1z"/>
<path fill="#fcc" d="m25 51 1 1-1-1z"/>
<path fill="#fcc" d="m71 51 1 1-1-1z"/>
<path fill="#9cf" d="m75 51 1 1-1-1z"/>
<path fill="#6cc" d="m76 51 1 1-1-1z"/>
<path fill="#69c" d="m23 52 1 1-1-1z"/>
<path fill="#9cf" d="m24 52 1 1-1-1z"/>
<path fill="#fcc" d="m29 52 1 1-1-1z"/>
<path fill="#c33" d="m30.667 52.333 0.6666 0.3334-0.6666-0.3334m35 0 0.6666 0.3334-0.6666-0.3334z"/>
<path fill="#fcc" d="m67 52 1 1-1-1z"/>
<path fill="#9cf" d="m72 52 1 1-1-1z"/>
<path fill="#69c" d="m73 52 1 1-1-1m-47 1 1 1-1-1z"/>
<path fill="#9cc" d="m27 53 1 1-1-1z"/>
<path fill="#cff" d="m28 53 1 1-1-1z"/>
<path fill="#fcc" d="m32 53 1 1-1-1z"/>
<path fill="#c33" d="m33.667 53.333 0.6666 0.3334-0.6666-0.3334m29 0 0.6666 0.3334-0.6666-0.3334z"/>
<path fill="#fcc" d="m64 53 1 1-1-1z"/>
<path fill="#cff" d="m68 53 1 1-1-1z"/>
<path fill="#9cc" d="m69 53 1 1-1-1z"/>
<path fill="#69c" d="m70 53 1 1-1-1m-41 1 1 1-1-1z"/>
<path fill="#9cc" d="m30 54 1 1-1-1z"/>
<path fill="#cff" d="m31 54 1 1-1-1z"/>
<path fill="#fcc" d="m35 54 1 1-1-1z"/>
<path fill="#c33" d="m36.667 54.333 0.6666 0.3334-0.6666-0.3334m23 0 0.6666 0.3334-0.6666-0.3334z"/>
<path fill="#fcc" d="m61 54 1 1-1-1z"/>
<path fill="#cff" d="m65 54 1 1-1-1z"/>
<path fill="#9cc" d="m66 54 1 1-1-1z"/>
<path fill="#69c" d="m67 54 1 1-1-1z"/>
<path fill="#9cc" d="m33 55 1 1-1-1z"/>
<path fill="#ccf" d="m34 55 1 1-1-1z"/>
<path fill="#fcc" d="m38 55 1 1-1-1z"/>
<path fill="#c33" d="m39 55 1 1-1-1m18 0 1 1-1-1z"/>
<path fill="#fcc" d="m58 55 1 1-1-1z"/>
<path fill="#ccf" d="m62 55 1 1-1-1z"/>
<path fill="#9cc" d="m63 55 1 1-1-1m-27 1 1 1-1-1z"/>
<path fill="#ccf" d="m37 56 1 1-1-1m22 0 1 1-1-1z"/>
<path fill="#9cc" d="m60 56 1 1-1-1m-21 1 1 1-1-1z"/>
<path fill="#c33" d="m41 57 1 1-1-1m14 0 1 1-1-1z"/>
<path fill="#9cc" d="m57 57 1 1-1-1z"/>
<path fill="#fcc" d="m41 58 1 1-1-1m14 0 1 1-1-1z"/>
<path fill="#ccf" d="m40 59 1 1-1-1z"/>
<path fill="#c33" d="m42.333 59.667 0.3334 0.6666-0.3334-0.6666m12 0 0.3334 0.6666-0.3334-0.6666z"/>
<path fill="#ccf" d="m56 59 1 1-1-1z"/>
<path fill="#9cc" d="m40 60 1 1-1-1m16 0 1 1-1-1z"/>
<path fill="#fcc" d="m42 61 1 1-1-1m12 0 1 1-1-1z"/>
<path fill="#ccf" d="m41 62 1 1-1-1z"/>
<path fill="#c33" d="m43.333 62.667 0.3334 0.6666-0.3334-0.6666m10 0 0.3334 0.6666-0.3334-0.6666z"/>
<path fill="#ccf" d="m55 62 1 1-1-1z"/>
<path fill="#9cc" d="m41 63 1 1-1-1m14 0 1 1-1-1z"/>
<path fill="#fcc" d="m43 64 1 1-1-1m10 0 1 1-1-1z"/>
<path fill="#cff" d="m42 65 1 1-1-1z"/>
<path fill="#c33" d="m44.333 65.667 0.3334 0.6666-0.3334-0.6666m8 0 0.3334 0.6666-0.3334-0.6666z"/>
<path fill="#cff" d="m54 65 1 1-1-1z"/>
<path fill="#9cc" d="m42 66 1 1-1-1m12 0 1 1-1-1z"/>
<path fill="#69c" d="m42 67 1 1-1-1z"/>
<path fill="#fcc" d="m44 67 1 1-1-1m8 0 1 1-1-1z"/>
<path fill="#69c" d="m54 67 1 1-1-1z"/>
<path fill="#cff" d="m43 68 1 1-1-1z"/>
<path fill="#cff" d="m53 68 1 1-1-1z"/>
<path fill="#9cc" d="m43 69 1 1-1-1m10 0 1 1-1-1z"/>
<path fill="#69c" d="m43 70 1 1-1-1m10 0 1 1-1-1z"/>
<path fill="#fcc" d="m45 71 1 1-1-1m6 0 1 1-1-1z"/>
<path fill="#9cf" d="m44 72 1 1-1-1z"/>
<path fill="#c33" d="m46.333 72.667 0.3334 0.6666-0.3334-0.6666m4 0 0.3334 0.6666-0.3334-0.6666z"/>
<path fill="#9cf" d="m52 72 1 1-1-1z"/>
<path fill="#69c" d="m44 73 1 1-1-1m8 0 1 1-1-1z"/>
<path fill="#fcc" d="m46 74 1 1-1-1m4 0 1 1-1-1z"/>
<path fill="#9cf" d="m45 75 1 1-1-1z"/>
<path fill="#9cf" d="m51 75 1 1-1-1z"/>
<path fill="#6cc" d="m45 76 1 1-1-1m6 0 1 1-1-1z"/>
<path fill="#fcc" d="m47 77 1 1-1-1m2 0 1 1-1-1z"/>
<path fill="#ccf" d="m46 78 1 1-1-1m4 0 1 1-1-1z"/>
<path fill="#6cc" d="m46 79 1 1-1-1z"/>
<path fill="#c66" d="m48 79 1 1-1-1z"/>
<path fill="#6cc" d="m50 79 1 1-1-1z"/>
<path fill="#ccf" d="m47 81 1 1-1-1m2 0 1 1-1-1z"/>
<path fill="#9cc" d="m47 82 1 1-1-1m2 0 1 1-1-1m-1 2 1 1-1-1z"/>
</g>
</svg>
</g>
</g>
<g>
<image xlink:href="fore.png" height="960" width="1280" y="0" x="0"/>
</g>
</svg>
