<?xml version="1.0" encoding="UTF-8" standalone="no"?>
<svg xmlns="http://www.w3.org/2000/svg" version="1.1" xmlns:xlink="http://www.w3.org/1999/xlink" viewBox="0 0 1280 960">
<defs>
<clipPath id="a" clipPathUnits="userSpaceOnUse">
<rect rx="67" ry="67" height="745" width="1065" y="107" x="107"/>
</clipPath>
</defs>
<g>
<image xlink:href="back.png" height="960" width="1280" y="0" x="0"/>
</g>
<g clip-path="url(#a)" height="745" width="1065" y="107" x="107">
<g transform="translate(106,75) scale(1.667)" height="960" width="1280" y="75" x="106">
<svg xmlns:rdf="http://www.w3.org/1999/02/22-rdf-syntax-ns#" xmlns="http://www.w3.org/2000/svg" xmlns:svg="http://www.w3.org/2000/svg" height="480" viewBox="0 0 512 512" width="640" version="1.0" y="0" x="0" xmlns:cc="http://creativecommons.org/ns#" xmlns:dc="http://purl.org/dc/elements/1.1/">
<metadata>
<rdf:RDF>
<cc:Work rdf:about="">
<dc:format>image/svg+xml</dc:format>
<dc:type rdf:resource="http://purl.org/dc/dcmitype/StillImage"/>
</cc:Work>
</rdf:RDF>
</metadata>
<defs>
<clipPath id="b" clipPathUnits="userSpaceOnUse">
<rect fill-opacity="0.67" height="512" width="682.67" y="7.1054e-15" x="-85.333"/>
</clipPath>
</defs>
<g fill-rule="evenodd" clip-path="url(#b)">
<rect height="512" width="682.67" y="0" x="-85.333" fill="#009"/>
<path d="m-85.333 0 682.67 512v-512h-682.67z" fill="#fc0"/>
<polygon transform="matrix(.43691 0 0 .43691 -188.29 47.624)" points="381.84 62.857 326 22.287 270.16 62.857 291.49 -2.7868 235.65 -43.357 304.67 -43.357 326 -109 326 -109 347.33 -43.357 416.35 -43.357 360.51 -2.7868" fill="#fff"/>
<polygon transform="matrix(.43691 0 0 .43691 -112.34 102.24)" points="326 22.287 270.16 62.857 291.49 -2.7868 235.65 -43.357 304.67 -43.357 326 -109 326 -109 347.33 -43.357 416.35 -43.357 360.51 -2.7868 381.84 62.857" fill="#fff"/>
<polygon transform="matrix(.43691 0 0 .43691 -36.397 156.85)" points="270.16 62.857 291.49 -2.7868 235.65 -43.357 304.67 -43.357 326 -109 326 -109 347.33 -43.357 416.35 -43.357 360.51 -2.7868 381.84 62.857 326 22.287" fill="#fff"/>
<polygon transform="matrix(.43691 0 0 .43691 39.551 211.47)" points="291.49 -2.7868 235.65 -43.357 304.67 -43.357 326 -109 326 -109 347.33 -43.357 416.35 -43.357 360.51 -2.7868 381.84 62.857 326 22.287 270.16 62.857" fill="#fff"/>
<polygon transform="matrix(.43691 0 0 .43691 115.5 266.08)" points="235.65 -43.357 304.67 -43.357 326 -109 326 -109 347.33 -43.357 416.35 -43.357 360.51 -2.7868 381.84 62.857 326 22.287 270.16 62.857 291.49 -2.7868" fill="#fff"/>
<polygon transform="matrix(.43691 0 0 .43691 191.45 320.69)" points="304.67 -43.357 326 -109 326 -109 347.33 -43.357 416.35 -43.357 360.51 -2.7868 381.84 62.857 326 22.287 270.16 62.857 291.49 -2.7868 235.65 -43.357" fill="#fff"/>
<polygon transform="matrix(.43691 0 0 .43691 267.39 375.31)" points="326 -109 326 -109 347.33 -43.357 416.35 -43.357 360.51 -2.7868 381.84 62.857 326 22.287 270.16 62.857 291.49 -2.7868 235.65 -43.357 304.67 -43.357" fill="#fff"/>
<polygon transform="matrix(.43691 0 0 .43691 343.34 429.92)" points="326 -109 347.33 -43.357 416.35 -43.357 360.51 -2.7868 381.84 62.857 326 22.287 270.16 62.857 291.49 -2.7868 235.65 -43.357 304.67 -43.357" fill="#fff"/>
<polygon transform="matrix(.43691 0 0 .43691 419.29 484.54)" points="347.33 -43.357 416.35 -43.357 360.51 -2.7868 381.84 62.857 326 22.287 270.16 62.857 291.49 -2.7868 235.65 -43.357 304.67 -43.357 326 -109 326 -109" fill="#fff"/>
</g>
</svg>
</g>
</g>
<g>
<image xlink:href="fore.png" height="960" width="1280" y="0" x="0"/>
</g>
</svg>
