<?xml version="1.0" encoding="UTF-8" standalone="no"?>
<svg xmlns="http://www.w3.org/2000/svg" version="1.1" xmlns:xlink="http://www.w3.org/1999/xlink" viewBox="0 0 1280 960">
<defs>
<clipPath id="a" clipPathUnits="userSpaceOnUse">
<rect rx="67" ry="67" height="745" width="1065" y="107" x="107"/>
</clipPath>
</defs>
<g>
<image xlink:href="back.png" height="960" width="1280" y="0" x="0"/>
</g>
<g clip-path="url(#a)" height="745" width="1065" y="107" x="107">
<g transform="translate(106,75) scale(1.667)" height="960" width="1280" y="75" x="106">
<svg xmlns:rdf="http://www.w3.org/1999/02/22-rdf-syntax-ns#" xmlns="http://www.w3.org/2000/svg" xmlns:svg="http://www.w3.org/2000/svg" width="640" version="1.1" xmlns:cc="http://creativecommons.org/ns#" height="480" xmlns:dc="http://purl.org/dc/elements/1.1/">
<metadata>
<rdf:RDF>
<cc:Work rdf:about="">
<dc:format>image/svg+xml</dc:format>
<dc:type rdf:resource="http://purl.org/dc/dcmitype/StillImage"/>
</cc:Work>
</rdf:RDF>
</metadata>
<defs>
<clipPath id="b" clipPathUnits="userSpaceOnUse">
<rect fill-opacity="0.67" height="512" width="682.67" y=".000038539" x="-90.533"/>
</clipPath>
</defs>
<g fill-rule="evenodd" clip-path="url(#b)" transform="matrix(.93750 0 0 .93750 84.875 -.000036130)">
<path d="m-178 0.000038 428.8 256-428.8 256z" stroke-width="1pt" fill="#00cf00"/>
<path d="m679.6 0.000038-428.8 256 428.8 256z" stroke-width="1pt" fill="#00cf00"/>
<path d="m-178 0.000038 428.8 256 428.8-256z" stroke-width="1pt" fill="#f00"/>
<path d="m-178 512 428.8-256 428.8 256z" stroke-width="1pt" fill="#f00"/>
<path d="m679.6 0.000038h-79.902l-777.7 464.3v47.703h79.902l777.7-464.3z" stroke-width="1pt" fill="#fff"/>
<path d="m196.84 88.136c0 27.948-22.656 50.604-50.604 50.604s-50.604-22.656-50.604-50.604 22.656-50.604 50.604-50.604 50.604 22.656 50.604 50.604z" transform="matrix(2.9257 0 0 2.9257 -177.04 -1.8602)" fill="#fff"/>
<path d="m-178 0.000038v47.703l777.7 464.3h79.902v-47.703l-777.7-464.3z" stroke-width="1pt" fill="#fff"/>
<polygon d="m 134.28087,105.86726 -6.57603,0.1131 -3.40832,5.62497 -3.38596,-5.63845 -6.57553,-0.13921 3.19007,-5.75156 -3.16721,-5.764175 6.57603,-0.1131 3.40832,-5.624968 3.38596,5.638455 6.57553,0.139209 -3.19007,5.751559 z" transform="matrix(2.9257 0 0 2.9257 -112.92 -109.58)" stroke="#00de00" points="134.28 105.87 127.7 105.98 124.3 111.6 120.91 105.97 114.34 105.83 117.52 100.08 114.36 94.312 120.93 94.199 124.34 88.574 127.73 94.212 134.3 94.352 131.11 100.1" stroke-width="1pt" fill="#f00"/>
<polygon d="m 134.28087,105.86726 -6.57603,0.1131 -3.40832,5.62497 -3.38596,-5.63845 -6.57553,-0.13921 3.19007,-5.75156 -3.16721,-5.764175 6.57603,-0.1131 3.40832,-5.624968 3.38596,5.638455 6.57553,0.139209 -3.19007,5.751559 z" transform="matrix(2.9257 0 0 2.9257 -177.42 2.0402)" stroke="#00de00" points="134.28 105.87 127.7 105.98 124.3 111.6 120.91 105.97 114.34 105.83 117.52 100.08 114.36 94.312 120.93 94.199 124.34 88.574 127.73 94.212 134.3 94.352 131.11 100.1" stroke-width="1pt" fill="#f00"/>
<polygon d="m 134.28087,105.86726 -6.57603,0.1131 -3.40832,5.62497 -3.38596,-5.63845 -6.57553,-0.13921 3.19007,-5.75156 -3.16721,-5.764175 6.57603,-0.1131 3.40832,-5.624968 3.38596,5.638455 6.57553,0.139209 -3.19007,5.751559 z" transform="matrix(2.9257 0 0 2.9257 -46.85 2.0402)" stroke="#00de00" points="134.28 105.87 127.7 105.98 124.3 111.6 120.91 105.97 114.34 105.83 117.52 100.08 114.36 94.312 120.93 94.199 124.34 88.574 127.73 94.212 134.3 94.352 131.11 100.1" stroke-width="1pt" fill="#f00"/>
</g>
</svg>
</g>
</g>
<g>
<image xlink:href="fore.png" height="960" width="1280" y="0" x="0"/>
</g>
</svg>
