<?xml version="1.0" encoding="UTF-8" standalone="no"?>
<svg xmlns="http://www.w3.org/2000/svg" version="1.1" xmlns:xlink="http://www.w3.org/1999/xlink" viewBox="0 0 1280 960">
<defs>
<clipPath id="a" clipPathUnits="userSpaceOnUse">
<rect rx="67" ry="67" height="745" width="1065" y="107" x="107"/>
</clipPath>
</defs>
<g>
<image xlink:href="back.png" height="960" width="1280" y="0" x="0"/>
</g>
<g clip-path="url(#a)" height="745" width="1065" y="107" x="107">
<g transform="translate(106,75) scale(1.667)" height="960" width="1280" y="75" x="106">
<svg xmlns:rdf="http://www.w3.org/1999/02/22-rdf-syntax-ns#" xmlns="http://www.w3.org/2000/svg" xmlns:svg="http://www.w3.org/2000/svg" height="480" width="640" version="1" y="0" x="0" xmlns:cc="http://creativecommons.org/ns#" xmlns:dc="http://purl.org/dc/elements/1.1/">
<metadata>
<rdf:RDF>
<cc:Work rdf:about="">
<dc:format>image/svg+xml</dc:format>
<dc:type rdf:resource="http://purl.org/dc/dcmitype/StillImage"/>
</cc:Work>
</rdf:RDF>
</metadata>
<defs>
<clipPath id="b" clipPathUnits="userSpaceOnUse">
<rect fill-opacity="0.67" height="480" width="640" y="0" x="-12"/>
</clipPath>
</defs>
<g fill-rule="evenodd" clip-path="url(#b)" transform="translate(12)">
<rect transform="scale(-1)" height="478.23" width="978.98" y="-480" x="-968.53" fill="#fff"/>
<rect transform="scale(-1)" height="201.18" width="978.98" y="-344.48" x="-968.53" fill="#ffe900"/>
<rect transform="scale(-1)" height="159.41" width="978.98" y="-480" x="-968.53" fill="#08ced6"/>
<rect transform="scale(-1)" height="159.41" width="978.98" y="-161.31" x="-968.53" fill="#08ced6"/>
<path d="m-10.913 0c2.1734 0 391.71 236.82 391.71 236.82l-392.8 242.38 1.087-479.2z"/>
</g>
</svg>
</g>
</g>
<g>
<image xlink:href="fore.png" height="960" width="1280" y="0" x="0"/>
</g>
</svg>
