<?xml version="1.0" encoding="UTF-8" standalone="no"?>
<svg xmlns="http://www.w3.org/2000/svg" version="1.1" xmlns:xlink="http://www.w3.org/1999/xlink" viewBox="0 0 1280 960">
<defs>
<clipPath id="a" clipPathUnits="userSpaceOnUse">
<rect rx="67" ry="67" height="745" width="1065" y="107" x="107"/>
</clipPath>
</defs>
<g>
<image xlink:href="back.png" height="960" width="1280" y="0" x="0"/>
</g>
<g clip-path="url(#a)" height="745" width="1065" y="107" x="107">
<g transform="translate(106,75) scale(1.667)" height="960" width="1280" y="75" x="106">
<svg xmlns:rdf="http://www.w3.org/1999/02/22-rdf-syntax-ns#" xmlns="http://www.w3.org/2000/svg" xmlns:svg="http://www.w3.org/2000/svg" height="480" width="640" version="1" y="0" x="0" xmlns:cc="http://creativecommons.org/ns#" xmlns:dc="http://purl.org/dc/elements/1.1/">
<metadata>
<rdf:RDF>
<cc:Work rdf:about="">
<dc:format>image/svg+xml</dc:format>
<dc:type rdf:resource="http://purl.org/dc/dcmitype/StillImage"/>
</cc:Work>
</rdf:RDF>
</metadata>
<defs>
<clipPath id="b" clipPathUnits="userSpaceOnUse">
<rect fill-opacity="0.67" height="480" width="640" y="0" x="0"/>
</clipPath>
</defs>
<g fill-rule="evenodd" stroke-width="1pt" clip-path="url(#b)">
<rect height="512" width="699.74" y=".000014216" x="-28" fill="#fff"/>
<rect height="276.26" width="218.72" y="-77.837" x="-52.992" fill="#d72828"/>
<rect height="199" width="380.91" y="-.57225" x="289.42" fill="#d72828"/>
<rect height="190.33" width="190.33" y="320.01" x="-27.545" fill="#d72828"/>
<rect height="188.21" width="378.34" y="322.12" x="292" fill="#d72828"/>
<rect height="535.78" width="64.425" y="-25.447" x="196.65" fill="#003897"/>
<rect height="63.444" width="697.88" y="224.84" x="-27.545" fill="#003897"/>
</g>
</svg>
</g>
</g>
<g>
<image xlink:href="fore.png" height="960" width="1280" y="0" x="0"/>
</g>
</svg>
