<?xml version="1.0" encoding="UTF-8" standalone="no"?>
<svg xmlns="http://www.w3.org/2000/svg" version="1.1" xmlns:xlink="http://www.w3.org/1999/xlink" viewBox="0 0 1280 960">
<defs>
<clipPath id="a" clipPathUnits="userSpaceOnUse">
<rect rx="67" ry="67" height="745" width="1065" y="107" x="107"/>
</clipPath>
</defs>
<g>
<image xlink:href="back.png" height="960" width="1280" y="0" x="0"/>
</g>
<g clip-path="url(#a)" height="745" width="1065" y="107" x="107">
<g transform="translate(106,75) scale(1.667)" height="960" width="1280" y="75" x="106">
<svg xmlns:rdf="http://www.w3.org/1999/02/22-rdf-syntax-ns#" xmlns="http://www.w3.org/2000/svg" xmlns:svg="http://www.w3.org/2000/svg" width="640" version="1.1" xmlns:cc="http://creativecommons.org/ns#" height="480" xmlns:dc="http://purl.org/dc/elements/1.1/">
<metadata>
<rdf:RDF>
<cc:Work rdf:about="">
<dc:format>image/svg+xml</dc:format>
<dc:type rdf:resource="http://purl.org/dc/dcmitype/StillImage"/>
</cc:Work>
</rdf:RDF>
</metadata>
<g fill-rule="evenodd" stroke-width="1pt">
<rect width="640" y="0" x="0" height="480" fill="#03f"/>
<g fill="#ffde00" transform="translate(0 -31.779)">
<polygon d="m 192.26143,142.48953 -29.10156,-21.17346 -29.16367,21.08783 11.14428,-34.22019 -29.06779,-21.219794 35.98911,0.02422 11.19878,-34.202391 11.09821,34.235161 35.98902,0.08156 -29.13003,21.134274 z" points="192.26 142.49 163.16 121.32 134 142.4 145.14 108.18 116.07 86.964 152.06 86.988 163.26 52.786 174.36 87.021 210.35 87.102 181.22 108.24" transform="matrix(.67929 0 0 .68033 -52.284 397.79)"/>
<polygon d="m 192.26143,142.48953 -29.10156,-21.17346 -29.16367,21.08783 11.14428,-34.22019 -29.06779,-21.219794 35.98911,0.02422 11.19878,-34.202391 11.09821,34.235161 35.98902,0.08156 -29.13003,21.134274 z" points="192.26 142.49 163.16 121.32 134 142.4 145.14 108.18 116.07 86.964 152.06 86.988 163.26 52.786 174.36 87.021 210.35 87.102 181.22 108.24" transform="matrix(.67929 0 0 .68033 -52.284 320.75)"/>
<polygon d="m 192.26143,142.48953 -29.10156,-21.17346 -29.16367,21.08783 11.14428,-34.22019 -29.06779,-21.219794 35.98911,0.02422 11.19878,-34.202391 11.09821,34.235161 35.98902,0.08156 -29.13003,21.134274 z" points="192.26 142.49 163.16 121.32 134 142.4 145.14 108.18 116.07 86.964 152.06 86.988 163.26 52.786 174.36 87.021 210.35 87.102 181.22 108.24" transform="matrix(.67929 0 0 .68033 -52.284 245.17)"/>
<polygon d="m 192.26143,142.48953 -29.10156,-21.17346 -29.16367,21.08783 11.14428,-34.22019 -29.06779,-21.219794 35.98911,0.02422 11.19878,-34.202391 11.09821,34.235161 35.98902,0.08156 -29.13003,21.134274 z" points="192.26 142.49 163.16 121.32 134 142.4 145.14 108.18 116.07 86.964 152.06 86.988 163.26 52.786 174.36 87.021 210.35 87.102 181.22 108.24" transform="matrix(.67929 0 0 .68033 -52.284 168.14)"/>
<polygon d="m 192.26143,142.48953 -29.10156,-21.17346 -29.16367,21.08783 11.14428,-34.22019 -29.06779,-21.219794 35.98911,0.02422 11.19878,-34.202391 11.09821,34.235161 35.98902,0.08156 -29.13003,21.134274 z" points="192.26 142.49 163.16 121.32 134 142.4 145.14 108.18 116.07 86.964 152.06 86.988 163.26 52.786 174.36 87.021 210.35 87.102 181.22 108.24" transform="matrix(.67929 0 0 .68033 -52.284 90.527)"/>
<polygon d="m 192.26143,142.48953 -29.10156,-21.17346 -29.16367,21.08783 11.14428,-34.22019 -29.06779,-21.219794 35.98911,0.02422 11.19878,-34.202391 11.09821,34.235161 35.98902,0.08156 -29.13003,21.134274 z" points="192.26 142.49 163.16 121.32 134 142.4 145.14 108.18 116.07 86.964 152.06 86.988 163.26 52.786 174.36 87.021 210.35 87.102 181.22 108.24" transform="matrix(.67929 0 0 .68033 -52.284 12.919)"/>
</g>
<polygon transform="matrix(3.3083 0 0 3.3134 -155.46 -83.508)" d="m 192.26143,142.48953 -29.10156,-21.17346 -29.16367,21.08783 11.14428,-34.22019 -29.06779,-21.219794 35.98911,0.02422 11.19878,-34.202391 11.09821,34.235161 35.98902,0.08156 -29.13003,21.134274 z" points="192.26 142.49 163.16 121.32 134 142.4 145.14 108.18 116.07 86.964 152.06 86.988 163.26 52.786 174.36 87.021 210.35 87.102 181.22 108.24" fill="#ffde00"/>
</g>
</svg>
</g>
</g>
<g>
<image xlink:href="fore.png" height="960" width="1280" y="0" x="0"/>
</g>
</svg>
