<?xml version="1.0" encoding="UTF-8" standalone="no"?>
<svg xmlns="http://www.w3.org/2000/svg" version="1.1" xmlns:xlink="http://www.w3.org/1999/xlink" viewBox="0 0 1280 960">
<defs>
<clipPath id="a" clipPathUnits="userSpaceOnUse">
<rect rx="67" ry="67" height="745" width="1065" y="107" x="107"/>
</clipPath>
</defs>
<g>
<image xlink:href="back.png" height="960" width="1280" y="0" x="0"/>
</g>
<g clip-path="url(#a)" height="745" width="1065" y="107" x="107">
<g transform="translate(106,75) scale(1.667)" height="960" width="1280" y="75" x="106">
<svg xmlns:rdf="http://www.w3.org/1999/02/22-rdf-syntax-ns#" xmlns="http://www.w3.org/2000/svg" xmlns:svg="http://www.w3.org/2000/svg" height="480" width="640" version="1" y="0" x="0" xmlns:cc="http://creativecommons.org/ns#" xmlns:dc="http://purl.org/dc/elements/1.1/">
<metadata>
<rdf:RDF>
<cc:Work rdf:about="">
<dc:format>image/svg+xml</dc:format>
<dc:type rdf:resource="http://purl.org/dc/dcmitype/StillImage"/>
</cc:Work>
</rdf:RDF>
</metadata>
<defs>
<clipPath id="b" clipPathUnits="userSpaceOnUse">
<rect fill-opacity="0.67" height="512" width="682.67" y=".0000033142" x="0"/>
</clipPath>
</defs>
<g clip-path="url(#b)" transform="matrix(.93750 0 0 .93750 0 -.0000031071)" fill-rule="evenodd">
<rect fill-opacity=".99608" height="256" width="512.01" y=".00014245" x="255.99" stroke-width="1pt" fill="#fdfdfd"/>
<rect fill-opacity=".99608" height="256" width="256" y=".0000022924" x="0" stroke-width="1pt" fill="#5651a9"/>
<path d="m167.82 191.71-39.653-29.737-39.458 30.029 14.675-48.799-39.386-30.133 48.728-0.42012 15.114-48.651 15.437 48.538 48.728 0.064-39.184 30.417 14.999 48.691z" fill-opacity=".99608" stroke-width=".11287" fill="#fdfdfd"/>
<rect fill-opacity=".99608" height="256" width="768" y="256" x="0" stroke-width="1pt" fill="#ed2800"/>
</g>
</svg>
</g>
</g>
<g>
<image xlink:href="fore.png" height="960" width="1280" y="0" x="0"/>
</g>
</svg>
