<?xml version="1.0" encoding="UTF-8" standalone="no"?>
<svg xmlns="http://www.w3.org/2000/svg" version="1.1" xmlns:xlink="http://www.w3.org/1999/xlink" viewBox="0 0 1280 960">
<defs>
<clipPath id="a" clipPathUnits="userSpaceOnUse">
<rect rx="67" ry="67" height="745" width="1065" y="107" x="107"/>
</clipPath>
</defs>
<g>
<image xlink:href="back.png" height="960" width="1280" y="0" x="0"/>
</g>
<g clip-path="url(#a)" height="745" width="1065" y="107" x="107">
<g transform="translate(106,75) scale(1.667)" height="960" width="1280" y="75" x="106">
<svg xmlns:rdf="http://www.w3.org/1999/02/22-rdf-syntax-ns#" xmlns="http://www.w3.org/2000/svg" xmlns:svg="http://www.w3.org/2000/svg" width="640" version="1.1" xmlns:cc="http://creativecommons.org/ns#" height="480" xmlns:dc="http://purl.org/dc/elements/1.1/">
<metadata>
<rdf:RDF>
<cc:Work rdf:about="">
<dc:format>image/svg+xml</dc:format>
<dc:type rdf:resource="http://purl.org/dc/dcmitype/StillImage"/>
</cc:Work>
</rdf:RDF>
</metadata>
<defs>
<clipPath id="b" clipPathUnits="userSpaceOnUse">
<rect fill-opacity="0.67" height="480" width="640" y="0" x="0"/>
</clipPath>
</defs>
<g clip-path="url(#b)">
<g transform="matrix(1.25 0 0 1.25 0 -80)">
<rect fill-rule="evenodd" height="512" width="170.67" y=".000039684" x="341.33" stroke-width="1pt" fill="#fff001"/>
<rect fill-rule="evenodd" height="512" width="169.61" y=".000012443" x="-1.2356e-8" stroke-width="1pt" fill="#009811"/>
<rect fill-rule="evenodd" height="512" width="172.79" y="6.1508e-8" x="169.61" stroke-width="1pt" fill="#c20000"/>
<path d="m308.99 327.55-46.899-35.456-51.387 36.542 19.528-60.826-53.25-36.098 63.956-1.1152 16.813-59.148 19.981 59.393 62.655-0.84038-52.363 38.53z" fill="#fff001"/>
</g>
</g>
</svg>
</g>
</g>
<g>
<image xlink:href="fore.png" height="960" width="1280" y="0" x="0"/>
</g>
</svg>
