<?xml version="1.0" encoding="UTF-8" standalone="no"?>
<svg xmlns="http://www.w3.org/2000/svg" version="1.1" xmlns:xlink="http://www.w3.org/1999/xlink" viewBox="0 0 1280 960">
<defs>
<clipPath id="b" clipPathUnits="userSpaceOnUse">
<rect rx="67" ry="67" height="745" width="1065" y="107" x="107"/>
</clipPath>
</defs>
<g>
<image xlink:href="back.png" height="960" width="1280" y="0" x="0"/>
</g>
<g clip-path="url(#b)" height="745" width="1065" y="107" x="107">
<g transform="translate(106,75) scale(1.667)" height="960" width="1280" y="75" x="106">
<svg xmlns:rdf="http://www.w3.org/1999/02/22-rdf-syntax-ns#" xmlns="http://www.w3.org/2000/svg" xmlns:svg="http://www.w3.org/2000/svg" height="480" width="640" version="1.1" xmlns:cc="http://creativecommons.org/ns#" xmlns:xlink="http://www.w3.org/1999/xlink" viewBox="-5 -5 12.8 9.6" xmlns:dc="http://purl.org/dc/elements/1.1/">
<metadata>
<rdf:RDF>
<cc:Work rdf:about="">
<dc:format>image/svg+xml</dc:format>
<dc:type rdf:resource="http://purl.org/dc/dcmitype/StillImage"/>
</cc:Work>
</rdf:RDF>
</metadata>
<title>Flag of the People&apos;s Republic of China</title>
<defs>
<polygon id="a" points="-3.0193e5 4.1557e5 0 -5.1367e5 3.0193e5 4.1557e5 -4.8853e5 -1.5873e5 4.8853e5 -1.5873e5" fill="#ffde00" transform="scale(.0000019468)"/>
<clipPath id="c" clipPathUnits="userSpaceOnUse">
<rect height="20" width="26.667" y="-15.4" x="-5"/>
</clipPath>
</defs>
<g clip-path="url(#c)" transform="matrix(.48 0 0 .48 -2.6 2.392)">
<rect height="20" width="30" y="-15.4" x="-5" fill="#de2910"/>
<use xlink:href="#a" transform="matrix(3,0,0,3,0,-10.4)" height="20" width="30" y="0" x="0"/>
<use xlink:href="#a" transform="matrix(-.51450 -.85749 .85749 -.51450 5 -13.4)" height="20" width="30" y="0" x="0"/>
<use xlink:href="#a" transform="matrix(-.14142 -.98995 .98995 -.14142 7 -11.4)" height="20" width="30" y="0" x="0"/>
<use xlink:href="#a" transform="matrix(.27472 -.96152 .96152 .27472 7 -8.4)" height="20" width="30" y="0" x="0"/>
<use xlink:href="#a" transform="matrix(.62470 -.78087 .78087 .62470 5 -6.4)" height="20" width="30" y="0" x="0"/>
</g>
</svg>
</g>
</g>
<g>
<image xlink:href="fore.png" height="960" width="1280" y="0" x="0"/>
</g>
</svg>
