<?xml version="1.0" encoding="UTF-8" standalone="no"?>
<svg xmlns="http://www.w3.org/2000/svg" version="1.1" xmlns:xlink="http://www.w3.org/1999/xlink" viewBox="0 0 1280 960">
<defs>
<clipPath id="a" clipPathUnits="userSpaceOnUse">
<rect rx="67" ry="67" height="745" width="1065" y="107" x="107"/>
</clipPath>
</defs>
<g>
<image xlink:href="back.png" height="960" width="1280" y="0" x="0"/>
</g>
<g clip-path="url(#a)" height="745" width="1065" y="107" x="107">
<g transform="translate(106,75) scale(1.667)" height="960" width="1280" y="75" x="106">
<svg xmlns:rdf="http://www.w3.org/1999/02/22-rdf-syntax-ns#" xmlns="http://www.w3.org/2000/svg" xmlns:svg="http://www.w3.org/2000/svg" height="480" width="640" version="1" y="0" x="0" xmlns:cc="http://creativecommons.org/ns#" xmlns:dc="http://purl.org/dc/elements/1.1/">
<metadata>
<rdf:RDF>
<cc:Work rdf:about="">
<dc:format>image/svg+xml</dc:format>
<dc:type rdf:resource="http://purl.org/dc/dcmitype/StillImage"/>
</cc:Work>
</rdf:RDF>
</metadata>
<defs>
<clipPath id="b" clipPathUnits="userSpaceOnUse">
<rect fill-opacity="0.67" height="512" width="682.67" y="-3.7109e-7" x="-32"/>
</clipPath>
</defs>
<g clip-path="url(#b)" transform="matrix(.9375 0 0 .9375 30 3.479e-7)" fill-rule="evenodd">
<rect height="512" width="768" y="0" x="-32" stroke-width="1pt" fill="#0050f0"/>
<rect height="102.4" width="768" y="102.4" x="-32" stroke-width="1pt" fill="#fff"/>
<rect height="102.4" width="768" y="307.2" x="-32" stroke-width="1pt" fill="#fff"/>
<path d="m-32-7.4219e-7 440.69 255.67-440.69 255.34v-511.01z" stroke-width="1pt" fill="#ed0000"/>
<path d="m161.75 325.47-47.447-35.432-47.214 35.78 17.56-58.144-47.128-35.904 58.305-0.50059 18.084-57.968 18.472 57.835 58.305 0.0763-46.886 36.243 17.947 58.016z" stroke-width=".11287" fill="#fff"/>
</g>
</svg>
</g>
</g>
<g>
<image xlink:href="fore.png" height="960" width="1280" y="0" x="0"/>
</g>
</svg>
