<?xml version="1.0" encoding="UTF-8" standalone="no"?>
<svg xmlns="http://www.w3.org/2000/svg" version="1.1" xmlns:xlink="http://www.w3.org/1999/xlink" viewBox="0 0 1280 960">
<defs>
<clipPath id="b" clipPathUnits="userSpaceOnUse">
<rect rx="67" ry="67" height="745" width="1065" y="107" x="107"/>
</clipPath>
</defs>
<g>
<image xlink:href="back.png" height="960" width="1280" y="0" x="0"/>
</g>
<g clip-path="url(#b)" height="745" width="1065" y="107" x="107">
<g transform="translate(106,75) scale(1.667)" height="960" width="1280" y="75" x="106">
<svg xmlns:rdf="http://www.w3.org/1999/02/22-rdf-syntax-ns#" xmlns="http://www.w3.org/2000/svg" xmlns:svg="http://www.w3.org/2000/svg" height="480" width="640" version="1.1" xmlns:cc="http://creativecommons.org/ns#" xmlns:xlink="http://www.w3.org/1999/xlink" xmlns:dc="http://purl.org/dc/elements/1.1/">
<metadata>
<rdf:RDF>
<cc:Work rdf:about="">
<dc:format>image/svg+xml</dc:format>
<dc:type rdf:resource="http://purl.org/dc/dcmitype/StillImage"/>
</cc:Work>
</rdf:RDF>
</metadata>
<defs>
<polygon id="a" points="0 -1 0.22451 -0.30902 0.95106 -0.30902 0.36327 0.11803 0.58779 0.80902 0 0.38197 -0.58779 0.80902 -0.36327 0.11803 -0.95106 -0.30902 -0.22451 -0.30902"/>
<clipPath id="c" clipPathUnits="userSpaceOnUse">
<rect fill-opacity="0.67" height="512" width="682.67" y="-0.00001" x="0"/>
</clipPath>
</defs>
<g clip-path="url(#c)" transform="matrix(.9375 0 0 .9375 0 .0000093750)">
<rect height="512" width="768" y="-0.00001" x="0" fill="#002b7f"/>
<rect height="64" width="768" y="320" x="0" fill="#f9e814"/>
<use xlink:href="#a" transform="scale(42.667)" height="9000" width="13500" y="2" x="2" fill="#ffffff"/>
<use xlink:href="#a" transform="scale(56.889)" height="9000" width="13500" y="3" x="3" fill="#ffffff"/>
</g>
</svg>
</g>
</g>
<g>
<image xlink:href="fore.png" height="960" width="1280" y="0" x="0"/>
</g>
</svg>
