<?xml version="1.0" encoding="UTF-8" standalone="no"?>
<svg xmlns="http://www.w3.org/2000/svg" version="1.1" xmlns:xlink="http://www.w3.org/1999/xlink" viewBox="0 0 1280 960">
<defs>
<clipPath id="a" clipPathUnits="userSpaceOnUse">
<rect rx="67" ry="67" height="745" width="1065" y="107" x="107"/>
</clipPath>
</defs>
<g>
<image xlink:href="back.png" height="960" width="1280" y="0" x="0"/>
</g>
<g clip-path="url(#a)" height="745" width="1065" y="107" x="107">
<g transform="translate(106,75) scale(1.667)" height="960" width="1280" y="75" x="106">
<svg xmlns:rdf="http://www.w3.org/1999/02/22-rdf-syntax-ns#" xmlns="http://www.w3.org/2000/svg" xmlns:svg="http://www.w3.org/2000/svg" height="480" width="640" version="1" y="0" x="0" xmlns:cc="http://creativecommons.org/ns#" xmlns:dc="http://purl.org/dc/elements/1.1/">
<metadata>
<rdf:RDF>
<cc:Work rdf:about="">
<dc:format>image/svg+xml</dc:format>
<dc:type rdf:resource="http://purl.org/dc/dcmitype/StillImage"/>
</cc:Work>
</rdf:RDF>
</metadata>
<defs>
<clipPath id="b" clipPathUnits="userSpaceOnUse">
<rect fill-opacity="0.67" height="512" width="682.67" y=".0000024116" x="-40"/>
</clipPath>
</defs>
<g clip-path="url(#b)" fill-rule="evenodd" transform="matrix(.9375 0 0 .9375 37.5 -.0000022609)">
<rect height="512" width="768" y=".0000024116" x="-40" stroke-width="1pt" fill="#0c0"/>
<rect height="256" width="768" y=".000047206" x="-40" stroke-width="1pt" fill="#69f"/>
<path d="m-40 0.000025157 382.73 255.67-382.73 255.34v-511.01z" stroke-width="1pt" fill="#fffefe"/>
<path d="m119.8 292.07-30.82-22.18-30.67 22.4 11.407-36.41-30.613-22.48 37.874-0.31l11.747-36.299 11.999 36.215 37.875 0.0478-30.457 22.695 11.659 36.329z" stroke-width=".11287" fill="#f00"/>
</g>
</svg>
</g>
</g>
<g>
<image xlink:href="fore.png" height="960" width="1280" y="0" x="0"/>
</g>
</svg>
