<?xml version="1.0" encoding="UTF-8" standalone="no"?>
<svg xmlns="http://www.w3.org/2000/svg" version="1.1" xmlns:xlink="http://www.w3.org/1999/xlink" viewBox="0 0 1280 960">
<defs>
<clipPath id="a" clipPathUnits="userSpaceOnUse">
<rect rx="67" ry="67" height="745" width="1065" y="107" x="107"/>
</clipPath>
</defs>
<g>
<image xlink:href="back.png" height="960" width="1280" y="0" x="0"/>
</g>
<g clip-path="url(#a)" height="745" width="1065" y="107" x="107">
<g transform="translate(106,75) scale(1.667)" height="960" width="1280" y="75" x="106">
<svg xmlns:rdf="http://www.w3.org/1999/02/22-rdf-syntax-ns#" xmlns="http://www.w3.org/2000/svg" xmlns:svg="http://www.w3.org/2000/svg" width="640" version="1.1" xmlns:cc="http://creativecommons.org/ns#" height="480" xmlns:dc="http://purl.org/dc/elements/1.1/">
<metadata>
<rdf:RDF>
<cc:Work rdf:about="">
<dc:format>image/svg+xml</dc:format>
<dc:type rdf:resource="http://purl.org/dc/dcmitype/StillImage"/>
</cc:Work>
</rdf:RDF>
</metadata>
<defs>
<clipPath id="b" clipPathUnits="userSpaceOnUse">
<rect fill-opacity="0.67" height="512" width="682.67" y="-.000032843" x="-158.67"/>
</clipPath>
</defs>
<g clip-path="url(#b)" fill-rule="evenodd" transform="matrix(.93750 0 0 .93750 148.75 .000030790)">
<rect height="256" width="1024" y="-.000030518" x="-180" stroke-width="1pt"/>
<rect height="256" width="1024" y="256" x="-180" stroke-width="1pt" fill="#107b00"/>
<rect height="176.13" width="1024" y="169.31" x="-180" stroke-width="1pt" fill="#fff"/>
<path d="m309.98 195.55c-45.202-19.423-84.107 20.644-84.063 58.085 0.0459 39.158 38.021 80.919 86.168 62.431-34.087-10.038-48.156-35.216-48.149-60.68-0.24576-25.217 15.886-54.541 46.044-59.836z" fill="#f0f"/>
<polygon d="m 331.8761,176.56204 -15.90909,-11.31718 -15.71867,11.7239 5.8471,-18.62764 -16.00743,-11.32646 19.5228,-0.19533 5.82553,-18.72404 6.21865,18.50692 19.60781,-0.24564 -15.67946,11.63324 z" points="331.88 176.56 315.97 165.24 300.25 176.97 306.1 158.34 290.09 147.02 309.61 146.82 315.44 128.1 321.66 146.6 341.26 146.36 325.58 157.99" transform="matrix(1.6383 .020298 -.020298 1.6383 -176.99 -1.7807)" stroke-width="1pt" fill="#ff1800"/>
<path d="m314.34 315.65c-50.517 17.536-88.554-20.48-89.216-59.456-0.66027-38.976 37.59-79.167 89.473-60.865-29.355 4.3532-50.912 30.081-51.169 59.169-0.19661 21.994 12.811 53.345 50.912 61.152z" fill="#f00"/>
<path d="m-179.98 0.000043252 348.61 256.62l-348.63 255.38 0.002-509.38 0.0148-2.6217z" fill="#f00"/>
</g>
</svg>
</g>
</g>
<g>
<image xlink:href="fore.png" height="960" width="1280" y="0" x="0"/>
</g>
</svg>
