<?xml version="1.0" encoding="UTF-8" standalone="no"?>
<svg xmlns="http://www.w3.org/2000/svg" version="1.1" xmlns:xlink="http://www.w3.org/1999/xlink" viewBox="0 0 1280 960">
<defs>
<clipPath id="a" clipPathUnits="userSpaceOnUse">
<rect rx="67" ry="67" height="745" width="1065" y="107" x="107"/>
</clipPath>
</defs>
<g>
<image xlink:href="back.png" height="960" width="1280" y="0" x="0"/>
</g>
<g clip-path="url(#a)" height="745" width="1065" y="107" x="107">
<g transform="translate(106,75) scale(1.667)" height="960" width="1280" y="75" x="106">
<svg xmlns:rdf="http://www.w3.org/1999/02/22-rdf-syntax-ns#" xmlns="http://www.w3.org/2000/svg" xmlns:svg="http://www.w3.org/2000/svg" height="480" width="640" version="1.0" y="0" x="0" xmlns:cc="http://creativecommons.org/ns#" xmlns:dc="http://purl.org/dc/elements/1.1/">
<metadata>
<rdf:RDF>
<cc:Work rdf:about="">
<dc:format>image/svg+xml</dc:format>
<dc:type rdf:resource="http://purl.org/dc/dcmitype/StillImage"/>
</cc:Work>
</rdf:RDF>
</metadata>
<defs>
<clipPath id="b" clipPathUnits="userSpaceOnUse">
<rect fill-opacity="0.67" height="512" width="682.67" y="-.0000019138" x="-19.451"/>
</clipPath>
</defs>
<g fill-rule="evenodd" clip-path="url(#b)" transform="matrix(.93750 0 0 .93750 18.235 .0000017942)" stroke-width="1pt">
<rect height="186.34" width="249.35" y="325.66" x="-105.62" fill="#fff"/>
<rect height="512" width="149.94" y="-.0000027024" x="143.57" fill="#0062da"/>
<rect height="139.64" width="897.67" y="186.18" x="-105.62" fill="#0062da"/>
<rect height="186.34" width="249.35" y=".0030247" x="-105.62" fill="#fff"/>
<rect height="186.34" width="498.7" y="325.66" x="293.35" fill="#fff"/>
<rect height="186.34" width="498.7" y=".0015173" x="293.35" fill="#fff"/>
<rect height="186.34" width="249.35" y="325.66" x="-105.62" fill="#fff"/>
<rect height="512" width="149.94" y="-.0000027024" x="143.57" fill="#0062da"/>
<rect height="186.34" width="249.35" y=".0030247" x="-105.62" fill="#fff"/>
<rect height="186.34" width="498.7" y="325.66" x="293.35" fill="#fff"/>
<rect height="186.34" width="498.7" y=".0015173" x="293.35" fill="#fff"/>
</g>
</svg>
</g>
</g>
<g>
<image xlink:href="fore.png" height="960" width="1280" y="0" x="0"/>
</g>
</svg>
