<?xml version="1.0" encoding="UTF-8" standalone="no"?>
<svg xmlns="http://www.w3.org/2000/svg" version="1.1" xmlns:xlink="http://www.w3.org/1999/xlink" viewBox="0 0 1280 960">
<defs>
<clipPath id="b" clipPathUnits="userSpaceOnUse">
<rect rx="67" ry="67" height="745" width="1065" y="107" x="107"/>
</clipPath>
</defs>
<g>
<image xlink:href="back.png" height="960" width="1280" y="0" x="0"/>
</g>
<g clip-path="url(#b)" height="745" width="1065" y="107" x="107">
<g transform="translate(106,75) scale(1.667)" height="960" width="1280" y="75" x="106">
<svg xmlns:rdf="http://www.w3.org/1999/02/22-rdf-syntax-ns#" xmlns="http://www.w3.org/2000/svg" xmlns:svg="http://www.w3.org/2000/svg" height="480" width="640" version="1.1" xmlns:cc="http://creativecommons.org/ns#" xmlns:xlink="http://www.w3.org/1999/xlink" viewBox="-18 -12 36 24" xmlns:dc="http://purl.org/dc/elements/1.1/">
<metadata>
<rdf:RDF>
<cc:Work rdf:about="">
<dc:format>image/svg+xml</dc:format>
<dc:type rdf:resource="http://purl.org/dc/dcmitype/StillImage"/>
</cc:Work>
</rdf:RDF>
</metadata>
<defs>
<clipPath id="c" clipPathUnits="userSpaceOnUse">
<rect fill-opacity="0.67" height="27" width="36" y="-13.5" x="-18"/>
</clipPath>
</defs>
<g clip-path="url(#c)">
<rect height="36" width="36" y="-18" x="-18" fill="#fff"/>
<rect height="27" width="36" y="-13.5" x="-18" fill="#fff"/>
<path d="m0-21.586v43.172m-21.586-21.586h43.172" stroke="#e8112d" stroke-width="7.1954" fill="none"/>
<g transform="scale(1.7529)">
<path id="a" fill="#f9dd16" d="m-6.75 1.5 0.75-0.75h6.75v-1.5h-6.75l-0.75-0.75z"/>
<use xlink:href="#a" transform="rotate(90)" height="24" width="36" y="0" x="0"/>
<use xlink:href="#a" transform="rotate(-90)" height="24" width="36" y="0" x="0"/>
<use xlink:href="#a" transform="scale(-1)" height="24" width="36" y="0" x="0"/>
</g>
</g>
</svg>
</g>
</g>
<g>
<image xlink:href="fore.png" height="960" width="1280" y="0" x="0"/>
</g>
</svg>
