<?xml version="1.0" encoding="UTF-8" standalone="no"?>
<svg xmlns="http://www.w3.org/2000/svg" version="1.1" xmlns:xlink="http://www.w3.org/1999/xlink" viewBox="0 0 1280 960">
<defs>
<clipPath id="a" clipPathUnits="userSpaceOnUse">
<rect rx="67" ry="67" height="745" width="1065" y="107" x="107"/>
</clipPath>
</defs>
<g>
<image xlink:href="back.png" height="960" width="1280" y="0" x="0"/>
</g>
<g clip-path="url(#a)" height="745" width="1065" y="107" x="107">
<g transform="translate(106,75) scale(1.667)" height="960" width="1280" y="75" x="106">
<svg xmlns:rdf="http://www.w3.org/1999/02/22-rdf-syntax-ns#" xmlns="http://www.w3.org/2000/svg" xmlns:svg="http://www.w3.org/2000/svg" height="480" width="640" version="1" y="0" x="0" xmlns:cc="http://creativecommons.org/ns#" xmlns:dc="http://purl.org/dc/elements/1.1/">
<metadata>
<rdf:RDF>
<cc:Work rdf:about="">
<dc:format>image/svg+xml</dc:format>
<dc:type rdf:resource="http://purl.org/dc/dcmitype/StillImage"/>
</cc:Work>
</rdf:RDF>
</metadata>
<defs>
<clipPath id="b" clipPathUnits="userSpaceOnUse">
<rect fill-opacity="0.67" height="512" width="682.67" y="0" x="-62.883"/>
</clipPath>
</defs>
<g clip-path="url(#b)" transform="matrix(.9375 0 0 .9375 58.952 0)" fill-rule="evenodd">
<rect transform="scale(-1)" height="512" width="766.65" y="-512" x="-661.1" fill="#fff"/>
<rect transform="scale(-1)" height="255.55" width="766.65" y="-512" x="-661.1" stroke-width="1pt" fill="#df0000"/>
<path d="m628.27 506.38c0 120.04-97.314 217.36-217.36 217.36-120.04 0-217.36-97.314-217.36-217.36v-0.00008" transform="matrix(.72122 0 0 -.72122 -105.55 621.06)" stroke-width="1pt" fill="#df0000"/>
<path d="m628.27 506.38c0 120.04-97.314 217.36-217.36 217.36-120.04 0-217.36-97.314-217.36-217.36v-0.00008" transform="matrix(.72122 0 0 .72122 -105.55 -109.46)" stroke-width="1pt" fill="#fff"/>
</g>
</svg>
</g>
</g>
<g>
<image xlink:href="fore.png" height="960" width="1280" y="0" x="0"/>
</g>
</svg>
