<?xml version="1.0" encoding="UTF-8" standalone="no"?>
<svg xmlns="http://www.w3.org/2000/svg" version="1.1" xmlns:xlink="http://www.w3.org/1999/xlink" viewBox="0 0 1280 960">
<defs>
<clipPath id="a" clipPathUnits="userSpaceOnUse">
<rect rx="67" ry="67" height="745" width="1065" y="107" x="107"/>
</clipPath>
</defs>
<g>
<image xlink:href="back.png" height="960" width="1280" y="0" x="0"/>
</g>
<g clip-path="url(#a)" height="745" width="1065" y="107" x="107">
<g transform="translate(106,75) scale(1.667)" height="960" width="1280" y="75" x="106">
<svg xmlns:rdf="http://www.w3.org/1999/02/22-rdf-syntax-ns#" xmlns="http://www.w3.org/2000/svg" xmlns:svg="http://www.w3.org/2000/svg" width="640" version="1.1" xmlns:cc="http://creativecommons.org/ns#" height="480" xmlns:dc="http://purl.org/dc/elements/1.1/">
<metadata>
<rdf:RDF>
<cc:Work rdf:about="">
<dc:format>image/svg+xml</dc:format>
<dc:type rdf:resource="http://purl.org/dc/dcmitype/StillImage"/>
</cc:Work>
</rdf:RDF>
</metadata>
<defs>
<clipPath id="b" clipPathUnits="userSpaceOnUse">
<rect fill-opacity="0.67" height="90" width="120" y="0" x="0"/>
</clipPath>
</defs>
<g stroke-width="1pt" clip-path="url(#b)" transform="scale(5.3333)" fill-rule="evenodd">
<g>
<rect height="10" width="135" y="0" x="0" fill="#0061f3"/>
<rect height="10" width="135" y="10" x="0" fill="#fff"/>
<rect height="10" width="135" y="20" x="0" fill="#0061f3"/>
<rect height="10" width="135" y="30" x="0" fill="#fff"/>
<rect height="10" width="135" y="40" x="0" fill="#0061f3"/>
<rect height="10" width="135" y="50" x="0" fill="#fff"/>
<rect height="10" width="135" y="60" x="0" fill="#0061f3"/>
<rect height="10" width="135" y="70" x="0" fill="#fff"/>
<rect height="10" width="135" y="80" x="0" fill="#0061f3"/>
</g>
<rect height="50" width="50" y="0" x="0" fill="#0061f3"/>
<g fill="#fff">
<rect height="50" width="10" y="0" x="20"/>
<rect height="10" width="50" y="20" x="0"/>
</g>
</g>
</svg>
</g>
</g>
<g>
<image xlink:href="fore.png" height="960" width="1280" y="0" x="0"/>
</g>
</svg>
