<?xml version="1.0" encoding="UTF-8" standalone="no"?>
<svg xmlns="http://www.w3.org/2000/svg" version="1.1" xmlns:xlink="http://www.w3.org/1999/xlink" viewBox="0 0 1280 960">
<defs>
<clipPath id="a" clipPathUnits="userSpaceOnUse">
<rect rx="67" ry="67" height="745" width="1065" y="107" x="107"/>
</clipPath>
</defs>
<g>
<image xlink:href="back.png" height="960" width="1280" y="0" x="0"/>
</g>
<g clip-path="url(#a)" height="745" width="1065" y="107" x="107">
<g transform="translate(106,75) scale(1.667)" height="960" width="1280" y="75" x="106">
<svg xmlns:rdf="http://www.w3.org/1999/02/22-rdf-syntax-ns#" xmlns="http://www.w3.org/2000/svg" xmlns:svg="http://www.w3.org/2000/svg" width="640" version="1.1" xmlns:cc="http://creativecommons.org/ns#" height="480" xmlns:dc="http://purl.org/dc/elements/1.1/">
<metadata>
<rdf:RDF>
<cc:Work rdf:about="">
<dc:format>image/svg+xml</dc:format>
<dc:type rdf:resource="http://purl.org/dc/dcmitype/StillImage"/>
</cc:Work>
</rdf:RDF>
</metadata>
<g fill-rule="evenodd" transform="matrix(1.3333 0 0 1 -106.67 .0000061225)">
<rect height="480" width="478.18" y=".000024395" x="81.824" stroke-width="1pt" fill="#399408"/>
<path d="m80.13 0.0000012049c-0.629 0.073355 464.71 241.48 464.71 241.48l-464.84 238.29 0.13-479.77z" fill="#fff"/>
<path d="m80.215 20.186c2.5958 0 419.3 217.89 416.93 220.03l-415.74 223.05-1.185-443.08z" fill="#ffde08"/>
<path d="m81.402 0.78343c1.3857 0 218.21 240.92 218.21 240.92l-218.21 235.28v-476.2z"/>
<path d="m80.215 33.902c1.243-14.986 195.68 208.4 195.68 208.4l-195.69 209.4 0.000002-417.79z" fill="#de2110"/>
</g>
</svg>
</g>
</g>
<g>
<image xlink:href="fore.png" height="960" width="1280" y="0" x="0"/>
</g>
</svg>
