<?xml version="1.0" encoding="UTF-8" standalone="no"?>
<svg xmlns="http://www.w3.org/2000/svg" version="1.1" xmlns:xlink="http://www.w3.org/1999/xlink" viewBox="0 0 1280 960">
<defs>
<clipPath id="a" clipPathUnits="userSpaceOnUse">
<rect rx="67" ry="67" height="745" width="1065" y="107" x="107"/>
</clipPath>
</defs>
<g>
<image xlink:href="back.png" height="960" width="1280" y="0" x="0"/>
</g>
<g clip-path="url(#a)" height="745" width="1065" y="107" x="107">
<g transform="translate(106,75) scale(1.667)" height="960" width="1280" y="75" x="106">
<svg xmlns:rdf="http://www.w3.org/1999/02/22-rdf-syntax-ns#" xmlns="http://www.w3.org/2000/svg" xmlns:svg="http://www.w3.org/2000/svg" height="480" width="640" version="1" y="0" x="0" xmlns:cc="http://creativecommons.org/ns#" xmlns:dc="http://purl.org/dc/elements/1.1/">
<metadata>
<rdf:RDF>
<cc:Work rdf:about="">
<dc:format>image/svg+xml</dc:format>
<dc:type rdf:resource="http://purl.org/dc/dcmitype/StillImage"/>
</cc:Work>
</rdf:RDF>
</metadata>
<defs>
<clipPath id="b" clipPathUnits="userSpaceOnUse">
<rect fill-opacity="0.67" height="512" width="682.67" y=".000016181" x="-117.82"/>
</clipPath>
</defs>
<g clip-path="url(#b)" transform="matrix(.93750 0 0 .93750 110.46 -.000015169)">
<g stroke-width="1pt" transform="matrix(24.381 0 0 24.381 -117.82 .00001745)" fill-rule="evenodd">
<rect height="7" width="42" y="0" x="0"/>
<rect height="7" width="42" y="7" x="0" fill="#fff"/>
<rect height="7" width="42" y="14" x="0" fill="#090"/>
<path d="m0 21 21-10.5-21-10.5v21z" fill="#f00"/>
<polygon points="5.8385 11.852 6.0708 10.834 5.027 10.834 5.9674 10.381 5.3166 9.5648 6.2571 10.018 6.4894 9 6.4894 9 6.7216 10.018 7.6621 9.5648 7.0113 10.381 7.9518 10.834 6.9079 10.834 7.1402 11.852 6.4894 11.035" fill="#fff"/>
</g>
</g>
</svg>
</g>
</g>
<g>
<image xlink:href="fore.png" height="960" width="1280" y="0" x="0"/>
</g>
</svg>
