<?xml version="1.0" encoding="UTF-8" standalone="no"?>
<svg xmlns="http://www.w3.org/2000/svg" version="1.1" xmlns:xlink="http://www.w3.org/1999/xlink" viewBox="0 0 1280 960">
<defs>
<clipPath id="a" clipPathUnits="userSpaceOnUse">
<rect rx="67" ry="67" height="745" width="1065" y="107" x="107"/>
</clipPath>
</defs>
<g>
<image xlink:href="back.png" height="960" width="1280" y="0" x="0"/>
</g>
<g clip-path="url(#a)" height="745" width="1065" y="107" x="107">
<g transform="translate(106,75) scale(1.667)" height="960" width="1280" y="75" x="106">
<svg xmlns:rdf="http://www.w3.org/1999/02/22-rdf-syntax-ns#" xmlns="http://www.w3.org/2000/svg" xmlns:svg="http://www.w3.org/2000/svg" height="480" width="640" version="1" y="0" x="0" xmlns:cc="http://creativecommons.org/ns#" xmlns:dc="http://purl.org/dc/elements/1.1/">
<metadata>
<rdf:RDF>
<cc:Work rdf:about="">
<dc:format>image/svg+xml</dc:format>
<dc:type rdf:resource="http://purl.org/dc/dcmitype/StillImage"/>
</cc:Work>
</rdf:RDF>
</metadata>
<defs>
<clipPath id="b" clipPathUnits="userSpaceOnUse">
<rect fill-opacity="0.67" height="480" width="640" y="32" x="-88.001"/>
</clipPath>
</defs>
<g stroke-width="1pt" clip-path="url(#b)" transform="translate(88.001 -32)" fill-rule="evenodd">
<rect height="480" width="720" y="32" x="-128" fill="#fff"/>
<ellipse d="m 718.01048,344.04666 c 0,107.65611 -87.27252,194.92862 -194.92863,194.92862 -107.65611,0 -194.92864,-87.27251 -194.92864,-194.92862 0,-107.6561 87.27253,-194.92862 194.92864,-194.92862 107.65611,0 194.92863,87.27252 194.92863,194.92862 z" rx="194.93" ry="194.93" transform="matrix(.76554 0 0 .76554 -168.44 8.6176)" cy="344.05" cx="523.08" fill="#d30000"/>
</g>
</svg>
</g>
</g>
<g>
<image xlink:href="fore.png" height="960" width="1280" y="0" x="0"/>
</g>
</svg>
