<?xml version="1.0" encoding="UTF-8" standalone="no"?>
<svg xmlns="http://www.w3.org/2000/svg" version="1.1" xmlns:xlink="http://www.w3.org/1999/xlink" viewBox="0 0 1280 960">
<defs>
<clipPath id="a" clipPathUnits="userSpaceOnUse">
<rect rx="67" ry="67" height="745" width="1065" y="107" x="107"/>
</clipPath>
</defs>
<g>
<image xlink:href="back.png" height="960" width="1280" y="0" x="0"/>
</g>
<g clip-path="url(#a)" height="745" width="1065" y="107" x="107">
<g transform="translate(106,75) scale(1.667)" height="960" width="1280" y="75" x="106">
<svg xmlns:rdf="http://www.w3.org/1999/02/22-rdf-syntax-ns#" xmlns="http://www.w3.org/2000/svg" xmlns:svg="http://www.w3.org/2000/svg" width="640" version="1" y="0" x="0" xmlns:cc="http://creativecommons.org/ns#" height="480" xmlns:dc="http://purl.org/dc/elements/1.1/">
<metadata>
<rdf:RDF>
<cc:Work rdf:about="">
<dc:format>image/svg+xml</dc:format>
<dc:type rdf:resource="http://purl.org/dc/dcmitype/StillImage"/>
</cc:Work>
</rdf:RDF>
</metadata>
<defs>
<clipPath id="b" clipPathUnits="userSpaceOnUse">
<rect fill-opacity="0.67" height="512" width="682.67" y=".0000041560" x="-80.109"/>
</clipPath>
</defs>
<g clip-path="url(#b)" transform="matrix(.93750 0 0 .93750 75.102 -.0000038963)" fill-rule="evenodd">
<rect height="511.29" width="737.65" y=".23857" x="-107.85" fill="#ffe900"/>
<path d="m-108.24 0.23864 0.86 368.58 573.98-368.82-574.84 0.23864z" fill="#35a100"/>
<path d="m630.69 511.53-1.3468-383.25-578.98 383.54 580.33-0.2831z" fill="#c70000"/>
<path d="m-107.87 396.61 0.49 115.39 125.25-0.16 611.76-410.14-0.69-100.32-123.76-1.1414-613.05 396.37z"/>
<polygon transform="matrix(.53692 -.34745 .32106 .51439 1.465 167.69)" points="511.95 324.28 533.78 256.9 555.61 324.28 626.44 324.23 569.1 365.81 591.04 433.16 591.04 433.16 533.77 391.48 476.5 433.15 498.45 365.81 441.12 324.21" fill="#fff"/>
<polygon transform="matrix(.53692 -.34745 .32106 .51439 -273.78 346.6)" points="511.95 324.28 533.78 256.9 555.61 324.28 626.44 324.23 569.1 365.81 591.04 433.16 591.04 433.16 533.77 391.48 476.5 433.15 498.45 365.81 441.12 324.21" fill="#fff"/>
</g>
</svg>
</g>
</g>
<g>
<image xlink:href="fore.png" height="960" width="1280" y="0" x="0"/>
</g>
</svg>
