<?xml version="1.0" encoding="UTF-8" standalone="no"?>
<svg xmlns="http://www.w3.org/2000/svg" version="1.1" xmlns:xlink="http://www.w3.org/1999/xlink" viewBox="0 0 1280 960">
<defs>
<clipPath id="a" clipPathUnits="userSpaceOnUse">
<rect rx="67" ry="67" height="745" width="1065" y="107" x="107"/>
</clipPath>
</defs>
<g>
<image xlink:href="back.png" height="960" width="1280" y="0" x="0"/>
</g>
<g clip-path="url(#a)" height="745" width="1065" y="107" x="107">
<g transform="translate(106,75) scale(1.667)" height="960" width="1280" y="75" x="106">
<svg xmlns:rdf="http://www.w3.org/1999/02/22-rdf-syntax-ns#" xmlns="http://www.w3.org/2000/svg" xmlns:svg="http://www.w3.org/2000/svg" height="480" width="640" version="1" y="0" x="0" xmlns:cc="http://creativecommons.org/ns#" xmlns:dc="http://purl.org/dc/elements/1.1/">
<metadata>
<rdf:RDF>
<cc:Work rdf:about="">
<dc:format>image/svg+xml</dc:format>
<dc:type rdf:resource="http://purl.org/dc/dcmitype/StillImage"/>
</cc:Work>
</rdf:RDF>
</metadata>
<defs>
<clipPath id="b" clipPathUnits="userSpaceOnUse">
<rect fill-opacity="0.67" height="511.9" width="682.53" y=".10048" x="5.0774"/>
</clipPath>
</defs>
<g clip-path="url(#b)" transform="matrix(.93768 0 0 .93768 -4.761 -.094216)" fill-rule="evenodd">
<rect transform="scale(-1)" height="510.95" width="851.86" stroke="#000" y="-511.52" x="-775.94" stroke-width=".76014pt" fill="#fff"/>
<rect transform="scale(-1,1)" height="92.457" width="851.86" y="419.07" x="-775.94" stroke-width="1pt" fill="#3e5698"/>
<rect transform="scale(-1)" height="283.21" width="851.86" y="-397.65" x="-775.94" stroke-width="1pt" fill="#c60000"/>
<rect transform="scale(-1,1)" height="92.457" width="851.86" y=".57557" x="-775.94" stroke-width="1pt" fill="#3e5698"/>
<path d="m495.86 1148c0 90.46-73.332 163.79-163.79 163.79-90.46 0-163.79-73.332-163.79-163.79 0-90.46 73.332-163.79 163.79-163.79 90.46 0 163.79 73.332 163.79 163.79z" transform="matrix(.72421 0 0 .70142 -30.589 -549.16)" fill="#fff"/>
<polygon transform="matrix(1.0032 -.0050477 -.010923 .98334 -320.22 -86.633)" points="498.45 365.81 441.12 324.21 511.95 324.28 533.78 256.9 555.61 324.28 626.44 324.23 569.1 365.81 591.04 433.16 591.04 433.16 533.77 391.48 476.5 433.15" fill="#c40000"/>
</g>
</svg>
</g>
</g>
<g>
<image xlink:href="fore.png" height="960" width="1280" y="0" x="0"/>
</g>
</svg>
