<?xml version="1.0" encoding="UTF-8" standalone="no"?>
<svg xmlns="http://www.w3.org/2000/svg" version="1.1" xmlns:xlink="http://www.w3.org/1999/xlink" viewBox="0 0 1280 960">
<defs>
<clipPath id="c" clipPathUnits="userSpaceOnUse">
<rect rx="67" ry="67" height="745" width="1065" y="107" x="107"/>
</clipPath>
</defs>
<g>
<image xlink:href="back.png" height="960" width="1280" y="0" x="0"/>
</g>
<g clip-path="url(#c)" height="745" width="1065" y="107" x="107">
<g transform="translate(106,75) scale(1.667)" height="960" width="1280" y="75" x="106">
<svg xmlns:rdf="http://www.w3.org/1999/02/22-rdf-syntax-ns#" xmlns="http://www.w3.org/2000/svg" xmlns:svg="http://www.w3.org/2000/svg" height="480" width="640" version="1.1" xmlns:cc="http://creativecommons.org/ns#" xmlns:xlink="http://www.w3.org/1999/xlink" viewBox="0 0 6.4 4.8" xmlns:dc="http://purl.org/dc/elements/1.1/">
<metadata>
<rdf:RDF>
<cc:Work rdf:about="">
<dc:format>image/svg+xml</dc:format>
<dc:type rdf:resource="http://purl.org/dc/dcmitype/StillImage"/>
<dc:title/>
</cc:Work>
</rdf:RDF>
</metadata>
<defs>
<polygon id="a" points="0 -0.5 0.16246 0 -0.16246 0" fill="#fff" transform="scale(8.844)"/>
<g id="b">
<use xlink:href="#a" transform="rotate(216)" height="12" width="18" y="0" x="0"/>
<use xlink:href="#a" transform="rotate(-72.001)" height="12" width="18" y="0" x="0"/>
<use xlink:href="#a" height="12" width="18" y="0" x="0"/>
<use xlink:href="#a" transform="rotate(72.001)" height="12" width="18" y="0" x="0"/>
<use xlink:href="#a" transform="rotate(144)" height="12" width="18" y="0" x="0"/>
</g>
<clipPath id="d" clipPathUnits="userSpaceOnUse">
<rect height="12" width="16" y="-7.2" x="1"/>
</clipPath>
</defs>
<g clip-path="url(#d)" transform="matrix(0.4 0 0 0.4 -.4 2.88)">
<rect height="6" width="18" y="-7.2" x="0" fill="#fecb00"/>
<rect height="6" width="18" y="-1.2" x="0" fill="#ea2839"/>
<rect height="4" width="18" y="-3.2" x="0" fill="#34b233"/>
<use xlink:href="#b" transform="translate(0,-7.2)" height="12" width="18" y="6.4219999" x="9"/>
</g>
</svg>
</g>
</g>
<g>
<image xlink:href="fore.png" height="960" width="1280" y="0" x="0"/>
</g>
</svg>
