<?xml version="1.0" encoding="UTF-8" standalone="no"?>
<svg xmlns="http://www.w3.org/2000/svg" version="1.1" xmlns:xlink="http://www.w3.org/1999/xlink" viewBox="0 0 1280 960">
<defs>
<clipPath id="a" clipPathUnits="userSpaceOnUse">
<rect rx="67" ry="67" height="745" width="1065" y="107" x="107"/>
</clipPath>
</defs>
<g>
<image xlink:href="back.png" height="960" width="1280" y="0" x="0"/>
</g>
<g clip-path="url(#a)" height="745" width="1065" y="107" x="107">
<g transform="translate(106,75) scale(1.667)" height="960" width="1280" y="75" x="106">
<svg xmlns:rdf="http://www.w3.org/1999/02/22-rdf-syntax-ns#" xmlns="http://www.w3.org/2000/svg" xmlns:svg="http://www.w3.org/2000/svg" width="640" version="1" y="0" x="0" xmlns:cc="http://creativecommons.org/ns#" height="480" xmlns:dc="http://purl.org/dc/elements/1.1/">
<metadata>
<rdf:RDF>
<cc:Work rdf:about="">
<dc:format>image/svg+xml</dc:format>
<dc:type rdf:resource="http://purl.org/dc/dcmitype/StillImage"/>
</cc:Work>
</rdf:RDF>
</metadata>
<defs>
<clipPath id="b" clipPathUnits="userSpaceOnUse">
<rect fill-opacity="0.67" height="480" width="640" y="6" x="-32"/>
</clipPath>
</defs>
<g clip-path="url(#b)" transform="translate(32,-6)">
<rect height="512" width="512" y="-20" x="0" fill="#fff"/>
<rect fill-rule="evenodd" height="511.84" width="699.74" y="-19.842" x="-70" stroke-width="1pt" fill="#fff"/>
<rect fill-rule="evenodd" height="221.47" width="222.94" y="-43.039" x="-99.213" stroke-width="1pt" fill="#d72828"/>
<rect fill-rule="evenodd" height="221.47" width="431.36" y="-43.039" x="247.42" stroke-width="1pt" fill="#d72828"/>
<rect fill-rule="evenodd" height="225.76" width="220" y="301.67" x="-99.213" stroke-width="1pt" fill="#d72828"/>
<rect fill-rule="evenodd" height="223.65" width="419.68" y="303.79" x="250" stroke-width="1pt" fill="#d72828"/>
<rect fill-rule="evenodd" height="545.67" width="64.425" y="-43.039" x="154.65" stroke-width="1pt" fill="#003897"/>
<rect fill-rule="evenodd" height="63.444" width="763.01" y="204.84" x="-99.213" stroke-width="1pt" fill="#003897"/>
</g>
</svg>
</g>
</g>
<g>
<image xlink:href="fore.png" height="960" width="1280" y="0" x="0"/>
</g>
</svg>
