<?xml version="1.0" encoding="UTF-8" standalone="no"?>
<svg xmlns="http://www.w3.org/2000/svg" version="1.1" xmlns:xlink="http://www.w3.org/1999/xlink" viewBox="0 0 1280 960">
<defs>
<clipPath id="a" clipPathUnits="userSpaceOnUse">
<rect rx="67" ry="67" height="745" width="1065" y="107" x="107"/>
</clipPath>
</defs>
<g>
<image xlink:href="back.png" height="960" width="1280" y="0" x="0"/>
</g>
<g clip-path="url(#a)" height="745" width="1065" y="107" x="107">
<g transform="translate(106,75) scale(1.667)" height="960" width="1280" y="75" x="106">
<svg xmlns:rdf="http://www.w3.org/1999/02/22-rdf-syntax-ns#" xmlns="http://www.w3.org/2000/svg" xmlns:svg="http://www.w3.org/2000/svg" width="640" version="1.1" xmlns:cc="http://creativecommons.org/ns#" height="480" xmlns:dc="http://purl.org/dc/elements/1.1/">
<metadata>
<rdf:RDF>
<cc:Work rdf:about="">
<dc:format>image/svg+xml</dc:format>
<dc:type rdf:resource="http://purl.org/dc/dcmitype/StillImage"/>
</cc:Work>
</rdf:RDF>
</metadata>
<defs>
<clipPath id="b" clipPathUnits="userSpaceOnUse">
<rect fill-opacity="0.67" height="372.05" width="496.06" y="-0.000366" x="-.00023516"/>
</clipPath>
</defs>
<g transform="matrix(1.2902 0 0 1.2902 .00030339 .00047220)" clip-path="url(#b)">
<rect fill-rule="evenodd" height="248.1" width="499.55" y="-0.000366" x=".013254" stroke-width="1pt" fill="#fff"/>
<path d="m0.013255 0.0003312-0.02081 18.621 119.21 61.253 44.86 1.3-164.05-81.174z" fill="#c00"/>
<path d="m51.054 0.0003312 144.53 75.491v-75.491h-144.52z" fill="#006"/>
<path fill="#c00" d="m214.86 0.0003312v96.372h-214.84v55.07h214.84v96.372h66.106v-96.372h214.84v-55.07h-214.84v-96.372h-66.106z"/>
<path d="m300.24 0.0003312v71.132l141.39-70.581-141.39-0.55067z" fill="#006"/>
<path d="m304.71 78.887 39.76-0.32 154.48-78.016-40.99 0.6682-153.25 77.668z" fill="#c00"/>
<path d="m0.013255 167.5v52.775l99.159-52.22-99.159-0.56z" fill="#006"/>
<path d="m381.85 169.68-41.336-0.321 155.82 77.58-1.025-17.749-113.46-59.51zm-343.12 78.57 146.11-76.71-38.38 0.26-146.45 76.34" fill="#c00"/>
<path d="m497.9 21.795-118 58.515 116.43 0.4357v87.194h-99.159l98.242 53.231 1.442 27.079-52.474-0.627-143.62-70.505v71.132h-104.67v-71.132l-134.72 70.941-60.844 0.191v247.81h991.59v-495.63l-493.17-0.42967m-498.41 27.971-0.52326 51.467 104.39 1.308-103.86-52.775z" fill="#006"/>
<g fill-rule="evenodd" stroke-width="1pt" fill="#ffd900">
<rect height="496.06" width="496.06" y="-.000015260" x="496.06"/>
<rect height="248.03" width="523.49" y="248.03" x="0"/>
</g>
<g fill-rule="evenodd" transform="translate(7.6357 -229.39)">
<path d="m284.27 354.68c0 23.619-19.147 42.767-42.767 42.767-23.619 0-42.767-19.147-42.767-42.767s19.147-42.767 42.767-42.767c23.619 0 42.767 19.147 42.767 42.767z" transform="translate(-1.0063 -.000015259)" fill="#000067"/>
<polygon transform="matrix(.37676 0 0 .36496 39.671 225.36)" points="511.95 324.28 533.78 256.9 555.61 324.28 626.44 324.23 569.1 365.81 591.04 433.16 591.04 433.16 533.77 391.48 476.5 433.15 498.45 365.81 441.12 324.21" stroke-width="1pt" fill="#fff40d"/>
<polygon transform="matrix(.18672 0 0 .17086 285.51 292.33)" points="511.95 324.28 533.78 256.9 555.61 324.28 626.44 324.23 569.1 365.81 591.04 433.16 591.04 433.16 533.77 391.48 476.5 433.15 498.45 365.81 441.12 324.21" stroke-width="1pt" fill="#fff40d"/>
<polygon transform="matrix(.18672 0 0 .17086 140.83 377.87)" points="511.95 324.28 533.78 256.9 555.61 324.28 626.44 324.23 569.1 365.81 591.04 433.16 591.04 433.16 533.77 391.48 476.5 433.15 498.45 365.81 441.12 324.21" stroke-width="1pt" fill="#fff40d"/>
<polygon transform="matrix(.18672 0 0 .17086 140.83 210.82)" points="511.95 324.28 533.78 256.9 555.61 324.28 626.44 324.23 569.1 365.81 591.04 433.16 591.04 433.16 533.77 391.48 476.5 433.15 498.45 365.81 441.12 324.21" stroke-width="1pt" fill="#fff40d"/>
<polygon transform="matrix(.18672 0 0 .17086 -4.2973 292.33)" points="511.95 324.28 533.78 256.9 555.61 324.28 626.44 324.23 569.1 365.81 591.04 433.16 591.04 433.16 533.77 391.48 476.5 433.15 498.45 365.81 441.12 324.21" stroke-width="1pt" fill="#fff40d"/>
</g>
</g>
</svg>
</g>
</g>
<g>
<image xlink:href="fore.png" height="960" width="1280" y="0" x="0"/>
</g>
</svg>
