<?xml version="1.0" encoding="UTF-8" standalone="no"?>
<svg xmlns="http://www.w3.org/2000/svg" version="1.1" xmlns:xlink="http://www.w3.org/1999/xlink" viewBox="0 0 1280 960">
<defs>
<clipPath id="a" clipPathUnits="userSpaceOnUse">
<rect rx="67" ry="67" height="745" width="1065" y="107" x="107"/>
</clipPath>
</defs>
<g>
<image xlink:href="back.png" height="960" width="1280" y="0" x="0"/>
</g>
<g clip-path="url(#a)" height="745" width="1065" y="107" x="107">
<g transform="translate(106,75) scale(1.667)" height="960" width="1280" y="75" x="106">
<svg xmlns:rdf="http://www.w3.org/1999/02/22-rdf-syntax-ns#" xmlns="http://www.w3.org/2000/svg" xmlns:svg="http://www.w3.org/2000/svg" width="640" version="1.1" xmlns:cc="http://creativecommons.org/ns#" height="480" xmlns:dc="http://purl.org/dc/elements/1.1/">
<metadata>
<rdf:RDF>
<cc:Work rdf:about="">
<dc:format>image/svg+xml</dc:format>
<dc:type rdf:resource="http://purl.org/dc/dcmitype/StillImage"/>
</cc:Work>
</rdf:RDF>
</metadata>
<defs>
<clipPath id="b" clipPathUnits="userSpaceOnUse">
<rect fill-opacity="0.67" height="512" width="682.67" y=".0000090621" x="-53.421"/>
</clipPath>
</defs>
<g clip-path="url(#b)" transform="matrix(.9375 0 0 .9375 50.082 -.0000084958)">
<g fill-rule="evenodd" stroke-width="1pt" transform="matrix(2.9257 0 0 2.9257 -745.33 -969.48)">
<rect height="70" width="87.5" y="331.47" x="213.36" fill="#004073"/>
<rect height="70" width="87.5" y="436.36" x="213.36" fill="#003f73"/>
<rect height="35" width="87.5" y="401.43" x="213.36" fill="#fc0"/>
<rect height="175" width="35" y="331.37" x="300.5" fill="#fc0"/>
<rect height="35" width="157.5" y="401.44" x="334.39" fill="#fc0"/>
<rect height="70" width="157.5" y="436.37" x="335.47" fill="#003f73"/>
<rect height="70" width="157.5" y="331.47" x="335.47" fill="#003f73"/>
</g>
</g>
</svg>
</g>
</g>
<g>
<image xlink:href="fore.png" height="960" width="1280" y="0" x="0"/>
</g>
</svg>
