<?xml version="1.0" encoding="UTF-8" standalone="no"?>
<svg xmlns="http://www.w3.org/2000/svg" version="1.1" xmlns:xlink="http://www.w3.org/1999/xlink" viewBox="0 0 1280 960">
<defs>
<clipPath id="a" clipPathUnits="userSpaceOnUse">
<rect rx="67" ry="67" height="745" width="1065" y="107" x="107"/>
</clipPath>
</defs>
<g>
<image xlink:href="back.png" height="960" width="1280" y="0" x="0"/>
</g>
<g clip-path="url(#a)" height="745" width="1065" y="107" x="107">
<g transform="translate(106,75) scale(1.667)" height="960" width="1280" y="75" x="106">
<svg xmlns:rdf="http://www.w3.org/1999/02/22-rdf-syntax-ns#" xmlns="http://www.w3.org/2000/svg" xmlns:svg="http://www.w3.org/2000/svg" height="480" width="640" version="1" y="0" x="0" xmlns:cc="http://creativecommons.org/ns#" xmlns:dc="http://purl.org/dc/elements/1.1/">
<metadata>
<rdf:RDF>
<cc:Work rdf:about="">
<dc:format>image/svg+xml</dc:format>
<dc:type rdf:resource="http://purl.org/dc/dcmitype/StillImage"/>
</cc:Work>
</rdf:RDF>
</metadata>
<defs>
<clipPath id="b" clipPathUnits="userSpaceOnUse">
<rect fill-opacity="0.67" height="480" width="640" y="0" x="0"/>
</clipPath>
</defs>
<g clip-path="url(#b)">
<g fill-rule="evenodd" transform="matrix(.9375 0 0 .9375 -1.2495 -.0000022609)">
<rect height="512" width="768" y=".0000024116" x="-20" stroke-width="1pt" fill="#fff"/>
<rect height="256" width="768" y=".0000024116" x="-20" stroke-width="1pt" fill="#df0000"/>
<path d="m157.12 42.909c-35.46 8.13-61.807 34.386-69.256 70.081-10.121 48.5 21.466 95.99 70.066 106.12-49.1 14-99.829-14.22-113.7-62.86-13.863-48.64 14.358-99.372 63-113.24 17.075-4.8694 32.795-4.9 49.892-0.10094z" stroke-width=".52437" fill="#fff"/>
<polygon transform="matrix(1.3251 0 0 1.3251 -204.33 -574.79)" points="262.25 522.28 266.19 534.45 266.19 534.45 255.78 527.02 245.42 534.52 249.27 522.33 238.94 514.8 251.72 514.69 255.69 502.53 259.74 514.66 272.53 514.68" stroke-width=".52437" fill="#fff"/>
<polygon transform="matrix(1.3251 0 0 1.3251 -185.6 -519.26)" points="262.25 522.28 266.19 534.45 266.19 534.45 255.78 527.02 245.42 534.52 249.27 522.33 238.94 514.8 251.72 514.69 255.69 502.53 259.74 514.66 272.53 514.68" stroke-width=".52437" fill="#fff"/>
<polygon transform="matrix(1.3251 0 0 1.3251 -123.28 -519.66)" points="262.25 522.28 266.19 534.45 266.19 534.45 255.78 527.02 245.42 534.52 249.27 522.33 238.94 514.8 251.72 514.69 255.69 502.53 259.74 514.66 272.53 514.68" stroke-width=".52437" fill="#fff"/>
<polygon transform="matrix(1.3251 0 0 1.3251 -104.69 -574.74)" points="262.25 522.28 266.19 534.45 266.19 534.45 255.78 527.02 245.42 534.52 249.27 522.33 238.94 514.8 251.72 514.69 255.69 502.53 259.74 514.66 272.53 514.68" stroke-width=".52437" fill="#fff"/>
<polygon transform="matrix(1.3251 0 0 1.3251 -154.03 -611.28)" points="262.25 522.28 266.19 534.45 266.19 534.45 255.78 527.02 245.42 534.52 249.27 522.33 238.94 514.8 251.72 514.69 255.69 502.53 259.74 514.66 272.53 514.68" stroke-width=".52437" fill="#fff"/>
</g>
</g>
</svg>
</g>
</g>
<g>
<image xlink:href="fore.png" height="960" width="1280" y="0" x="0"/>
</g>
</svg>
