<?xml version="1.0" encoding="UTF-8" standalone="no"?>
<svg xmlns="http://www.w3.org/2000/svg" version="1.1" xmlns:xlink="http://www.w3.org/1999/xlink" viewBox="0 0 1280 960">
<defs>
<clipPath id="a" clipPathUnits="userSpaceOnUse">
<rect rx="67" ry="67" height="745" width="1065" y="107" x="107"/>
</clipPath>
</defs>
<g>
<image xlink:href="back.png" height="960" width="1280" y="0" x="0"/>
</g>
<g clip-path="url(#a)" height="745" width="1065" y="107" x="107">
<g transform="translate(106,75) scale(1.667)" height="960" width="1280" y="75" x="106">
<svg xmlns:rdf="http://www.w3.org/1999/02/22-rdf-syntax-ns#" xmlns="http://www.w3.org/2000/svg" xmlns:svg="http://www.w3.org/2000/svg" height="480" width="640" version="1" y="0" x="0" xmlns:cc="http://creativecommons.org/ns#" xmlns:dc="http://purl.org/dc/elements/1.1/">
<metadata>
<rdf:RDF>
<cc:Work rdf:about="">
<dc:format>image/svg+xml</dc:format>
<dc:type rdf:resource="http://purl.org/dc/dcmitype/StillImage"/>
</cc:Work>
</rdf:RDF>
</metadata>
<defs>
<clipPath id="b" clipPathUnits="userSpaceOnUse">
<rect fill-opacity="0.67" height="427.85" width="570.47" y="48.27" x="-24.803"/>
</clipPath>
</defs>
<g clip-path="url(#b)" transform="matrix(1.1219 0 0 1.1219 27.826 -54.153)">
<rect height="512" width="512" y="0" x="0" fill="#fff"/>
<rect fill-rule="evenodd" height="511.84" width="699.74" y=".15752" x="-80" stroke-width="1pt" fill="#fff"/>
<rect fill-rule="evenodd" height="221.47" width="212.94" y="-23.039" x="-99.213" stroke-width="1pt" fill="#d72828"/>
<rect fill-rule="evenodd" height="221.47" width="407.46" y="-23.039" x="237.42" stroke-width="1pt" fill="#d72828"/>
<rect fill-rule="evenodd" height="225.76" width="210" y="321.67" x="-99.213" stroke-width="1pt" fill="#d72828"/>
<rect fill-rule="evenodd" height="223.65" width="404.88" y="323.79" x="240" stroke-width="1pt" fill="#d72828"/>
<rect fill-rule="evenodd" height="570.47" width="64.425" y="-23.039" x="144.65" stroke-width="1pt" fill="#003897"/>
<rect fill-rule="evenodd" height="63.444" width="768.9" y="224.84" x="-124.02" stroke-width="1pt" fill="#003897"/>
</g>
</svg>
</g>
</g>
<g>
<image xlink:href="fore.png" height="960" width="1280" y="0" x="0"/>
</g>
</svg>
