<?xml version="1.0" encoding="UTF-8" standalone="no"?>
<svg xmlns="http://www.w3.org/2000/svg" version="1.1" xmlns:xlink="http://www.w3.org/1999/xlink" viewBox="0 0 1280 960">
<defs>
<clipPath id="a" clipPathUnits="userSpaceOnUse">
<rect rx="67" ry="67" height="745" width="1065" y="107" x="107"/>
</clipPath>
</defs>
<g>
<image xlink:href="back.png" height="960" width="1280" y="0" x="0"/>
</g>
<g clip-path="url(#a)" height="745" width="1065" y="107" x="107">
<g transform="translate(106,75) scale(1.667)" height="960" width="1280" y="75" x="106">
<svg xmlns:rdf="http://www.w3.org/1999/02/22-rdf-syntax-ns#" xmlns="http://www.w3.org/2000/svg" xmlns:svg="http://www.w3.org/2000/svg" width="640" version="1.1" xmlns:cc="http://creativecommons.org/ns#" height="480" xmlns:dc="http://purl.org/dc/elements/1.1/">
<metadata>
<rdf:RDF>
<cc:Work rdf:about="">
<dc:format>image/svg+xml</dc:format>
<dc:type rdf:resource="http://purl.org/dc/dcmitype/StillImage"/>
</cc:Work>
</rdf:RDF>
</metadata>
<g>
<g fill-rule="evenodd" stroke-width="1pt" transform="matrix(1.3333 0 0 1 -106.67 0)">
<rect height="480" width="160" y="-2.3484e-9" x="80" fill="#0b7226"/>
<rect height="480" width="160" y="-2.3484e-9" x="240" fill="#ff0"/>
<rect height="480" width="160" y="-2.3484e-9" x="400" fill="#bc0000"/>
</g>
<polygon transform="matrix(1.217 0 0 1.2614 108.31 39.077)" points="192.06 142.52 251 142.52 204.47 177.05 221.53 232 175 197.46 128.47 230.43 145.53 177.05 99 142.52 156.39 142.52 175 86" fill="#0b7226"/>
</g>
</svg>
</g>
</g>
<g>
<image xlink:href="fore.png" height="960" width="1280" y="0" x="0"/>
</g>
</svg>
