<?xml version="1.0" encoding="UTF-8" standalone="no"?>
<svg xmlns="http://www.w3.org/2000/svg" version="1.1" xmlns:xlink="http://www.w3.org/1999/xlink" viewBox="0 0 1280 960">
<defs>
<clipPath id="a" clipPathUnits="userSpaceOnUse">
<rect rx="67" ry="67" height="745" width="1065" y="107" x="107"/>
</clipPath>
</defs>
<g>
<image xlink:href="back.png" height="960" width="1280" y="0" x="0"/>
</g>
<g clip-path="url(#a)" height="745" width="1065" y="107" x="107">
<g transform="translate(106,75) scale(1.667)" height="960" width="1280" y="75" x="106">
<svg xmlns:rdf="http://www.w3.org/1999/02/22-rdf-syntax-ns#" xmlns="http://www.w3.org/2000/svg" xmlns:svg="http://www.w3.org/2000/svg" height="480" width="640" version="1.1" xmlns:cc="http://creativecommons.org/ns#" viewBox="0 0 12.8 9.6" xmlns:dc="http://purl.org/dc/elements/1.1/">
<metadata>
<rdf:RDF>
<cc:Work rdf:about="">
<dc:format>image/svg+xml</dc:format>
<dc:type rdf:resource="http://purl.org/dc/dcmitype/StillImage"/>
<dc:title>Flag of South Sudan</dc:title>
</cc:Work>
</rdf:RDF>
</metadata>
<title>Flag of South Sudan</title>
<rect height="2.88" width="12.8" y="6.72" x="0" fill="#078930"/>
<rect height="3.84" width="12.8" y="2.88" x="0" fill="#fff"/>
<rect height="2.88" width="12.8" y="4.278e-9" x="0"/>
<rect height="2.88" width="12.8" y="3.36" x="0" fill="#da121a"/>
<polygon points="0 0 8.6603 5 0 10" fill="#0f47af" transform="scale(.96)"/>
<polygon points="4.1557e5 -3.0193e5 -5.1367e5 0 4.1557e5 3.0193e5 -1.5873e5 -4.8853e5 -1.5873e5 4.8853e5" fill="#fcdd09" transform="matrix(.0000029902 0 0 .0000029902 2.7713 4.8)"/>
</svg>
</g>
</g>
<g>
<image xlink:href="fore.png" height="960" width="1280" y="0" x="0"/>
</g>
</svg>
