<?xml version="1.0" encoding="UTF-8" standalone="no"?>
<svg xmlns="http://www.w3.org/2000/svg" version="1.1" xmlns:xlink="http://www.w3.org/1999/xlink" viewBox="0 0 1280 960">
<defs>
<clipPath id="a" clipPathUnits="userSpaceOnUse">
<rect rx="67" ry="67" height="745" width="1065" y="107" x="107"/>
</clipPath>
</defs>
<g>
<image xlink:href="back.png" height="960" width="1280" y="0" x="0"/>
</g>
<g clip-path="url(#a)" height="745" width="1065" y="107" x="107">
<g transform="translate(106,75) scale(1.667)" height="960" width="1280" y="75" x="106">
<svg xmlns:rdf="http://www.w3.org/1999/02/22-rdf-syntax-ns#" xmlns="http://www.w3.org/2000/svg" xmlns:svg="http://www.w3.org/2000/svg" height="480" width="640" version="1" y="0" x="0" xmlns:cc="http://creativecommons.org/ns#" xmlns:dc="http://purl.org/dc/elements/1.1/">
<metadata>
<rdf:RDF>
<cc:Work rdf:about="">
<dc:format>image/svg+xml</dc:format>
<dc:type rdf:resource="http://purl.org/dc/dcmitype/StillImage"/>
</cc:Work>
</rdf:RDF>
</metadata>
<g fill-rule="evenodd">
<rect rx="0" ry="0" height="480" width="640" y=".0000010549" x="-2.1606e-8" fill="#fff"/>
<rect rx="0" ry="0" height="159.3" width="480" y="320.7" x="-3.457e-7" fill="#fff"/>
<rect height="159.3" width="480" y=".000033733" x="-3.457e-7" fill="#fff"/>
<path d="m201.9 281-28.822-20.867-28.68 21.072 10.667-34.242-28.628-21.145 35.418-0.2948 10.985-34.138 11.221 34.06 35.418 0.0449-28.481 21.344 10.902 34.166z" fill="#fff"/>
<path d="m509.54 281-28.822-20.867-28.68 21.072 10.667-34.242-28.628-21.145 35.418-0.2948 10.985-34.138 11.221 34.06 35.418 0.0449-28.481 21.344 10.902 34.166z" fill="#fff"/>
<rect rx="0" ry="0" height="159.3" width="640" y="320.7" x="-3.457e-7" stroke-width="1pt"/>
<rect height="159.3" width="640" y=".000033733" x="-3.457e-7" stroke-width="1pt" fill="#f00"/>
<path d="m201.9 281-28.822-20.867-28.68 21.072 10.667-34.242-28.628-21.145 35.418-0.2948 10.985-34.138 11.221 34.06 35.418 0.0449-28.481 21.344 10.902 34.166z" stroke-width=".11287" fill="#090"/>
<path d="m509.54 281-28.822-20.867-28.68 21.072 10.667-34.242-28.628-21.145 35.418-0.2948 10.985-34.138 11.221 34.06 35.418 0.0449-28.481 21.344 10.902 34.166z" stroke-width=".11287" fill="#090"/>
</g>
</svg>
</g>
</g>
<g>
<image xlink:href="fore.png" height="960" width="1280" y="0" x="0"/>
</g>
</svg>
