<?xml version="1.0" encoding="UTF-8" standalone="no"?>
<svg xmlns="http://www.w3.org/2000/svg" version="1.1" xmlns:xlink="http://www.w3.org/1999/xlink" viewBox="0 0 1280 960">
<defs>
<clipPath id="a" clipPathUnits="userSpaceOnUse">
<rect rx="67" ry="67" height="745" width="1065" y="107" x="107"/>
</clipPath>
</defs>
<g>
<image xlink:href="back.png" height="960" width="1280" y="0" x="0"/>
</g>
<g clip-path="url(#a)" height="745" width="1065" y="107" x="107">
<g transform="translate(106,75) scale(1.667)" height="960" width="1280" y="75" x="106">
<svg xmlns:rdf="http://www.w3.org/1999/02/22-rdf-syntax-ns#" xmlns="http://www.w3.org/2000/svg" xmlns:svg="http://www.w3.org/2000/svg" width="640" version="1.1" xmlns:cc="http://creativecommons.org/ns#" height="480" xmlns:dc="http://purl.org/dc/elements/1.1/">
<metadata>
<rdf:RDF>
<cc:Work rdf:about="">
<dc:format>image/svg+xml</dc:format>
<dc:type rdf:resource="http://purl.org/dc/dcmitype/StillImage"/>
</cc:Work>
</rdf:RDF>
</metadata>
<defs>
<clipPath id="b" clipPathUnits="userSpaceOnUse">
<rect fill-opacity="0.67" height="512" width="682.67" y="-.000013091" x="0"/>
</clipPath>
</defs>
<g fill-rule="evenodd" clip-path="url(#b)" transform="matrix(.93750 0 0 .93750 0 .000012273)">
<rect height="512" width="767.63" y="-.000013369" x="0" stroke-width="1pt" fill="#ffe300"/>
<rect height="102.81" width="767.63" y="208.14" x="0" stroke-width="1pt" fill="#118600"/>
<rect height="102.81" width="767.63" y=".24819" x="0" stroke-width="1pt" fill="#118600"/>
<rect height="310.71" width="306.51" y=".24813" x="0" stroke-width="1pt" fill="#d80000"/>
<path d="m134.42 128.43c0-0.85625 18.836-53.083 18.836-53.083l17.124 52.227s57.365 1.7125 57.365 0.85625-45.378 34.248-45.378 34.248 21.404 59.933 20.549 58.221c-0.85625-1.7125-49.659-35.96-49.659-35.96s-49.658 34.248-48.802 34.248c0.85625 0 18.835-56.508 18.835-56.508l-44.522-33.392 55.652-0.85625z" fill="#fff"/>
<rect height="102.81" width="767.63" y="409.19" x="0" stroke-width="1pt" fill="#118600"/>
</g>
</svg>
</g>
</g>
<g>
<image xlink:href="fore.png" height="960" width="1280" y="0" x="0"/>
</g>
</svg>
