<?xml version="1.0" encoding="UTF-8" standalone="no"?>
<svg xmlns="http://www.w3.org/2000/svg" version="1.1" xmlns:xlink="http://www.w3.org/1999/xlink" viewBox="0 0 1280 960">
<defs>
<clipPath id="a" clipPathUnits="userSpaceOnUse">
<rect rx="67" ry="67" height="745" width="1065" y="107" x="107"/>
</clipPath>
</defs>
<g>
<image xlink:href="back.png" height="960" width="1280" y="0" x="0"/>
</g>
<g clip-path="url(#a)" height="745" width="1065" y="107" x="107">
<g transform="translate(106,75) scale(1.667)" height="960" width="1280" y="75" x="106">
<svg xmlns:rdf="http://www.w3.org/1999/02/22-rdf-syntax-ns#" xmlns="http://www.w3.org/2000/svg" xmlns:svg="http://www.w3.org/2000/svg" height="480" width="640" version="1" y="0" x="0" xmlns:cc="http://creativecommons.org/ns#" xmlns:dc="http://purl.org/dc/elements/1.1/">
<metadata>
<rdf:RDF>
<cc:Work rdf:about="">
<dc:format>image/svg+xml</dc:format>
<dc:type rdf:resource="http://purl.org/dc/dcmitype/StillImage"/>
</cc:Work>
</rdf:RDF>
</metadata>
<defs>
<clipPath id="b" clipPathUnits="userSpaceOnUse">
<rect fill-opacity="0.67" height="120" width="160" y="8.125e-8" x="10"/>
</clipPath>
</defs>
<g fill-rule="evenodd" clip-path="url(#b)" stroke-width="1pt" transform="matrix(4 0 0 4 -40 -3.25e-7)">
<rect height="120" width="180" y="0" x="0" fill="#09f"/>
<path d="m0 0h180l-180 120v-120z" fill="#090"/>
<path d="m0 120h40l140-95v-25h-40l-140 95v25z"/>
<path d="m0 91.456 137.18-91.456h13.52l-150.7 100.47v-9.014z" fill="#ff0"/>
<path d="m-0.7049 95.47 150.7-100.47v9.014l-137.18 91.456h-13.521z" transform="translate(30,24.53)" fill="#ff0"/>
</g>
</svg>
</g>
</g>
<g>
<image xlink:href="fore.png" height="960" width="1280" y="0" x="0"/>
</g>
</svg>
