<?xml version="1.0" encoding="UTF-8" standalone="no"?>
<svg xmlns="http://www.w3.org/2000/svg" version="1.1" xmlns:xlink="http://www.w3.org/1999/xlink" viewBox="0 0 1280 960">
<defs>
<clipPath id="a" clipPathUnits="userSpaceOnUse">
<rect rx="67" ry="67" height="745" width="1065" y="107" x="107"/>
</clipPath>
</defs>
<g>
<image xlink:href="back.png" height="960" width="1280" y="0" x="0"/>
</g>
<g clip-path="url(#a)" height="745" width="1065" y="107" x="107">
<g transform="translate(106,75) scale(1.667)" height="960" width="1280" y="75" x="106">
<svg xmlns:rdf="http://www.w3.org/1999/02/22-rdf-syntax-ns#" xmlns="http://www.w3.org/2000/svg" xmlns:svg="http://www.w3.org/2000/svg" width="640" version="1.1" xmlns:cc="http://creativecommons.org/ns#" height="480" xmlns:dc="http://purl.org/dc/elements/1.1/">
<metadata>
<rdf:RDF>
<cc:Work rdf:about="">
<dc:format>image/svg+xml</dc:format>
<dc:type rdf:resource="http://purl.org/dc/dcmitype/StillImage"/>
</cc:Work>
</rdf:RDF>
</metadata>
<desc>The United States of America flag, produced by Daniel McRae</desc>
<defs>
<clipPath id="b" clipPathUnits="userSpaceOnUse">
<rect fill-opacity="0.67" height="512" width="682.67" y=".0000052307" x="0"/>
</clipPath>
</defs>
<g clip-path="url(#b)" transform="matrix(.93750 0 0 .93750 0 -.0000049038)" fill-rule="evenodd">
<g stroke-width="1pt" transform="matrix(3.9385 0 0 3.9385 0 .000005)">
<g fill="#bd3d44">
<rect height="10" width="247" y="0" x="0"/>
<rect height="10" width="247" y="20" x="0"/>
<rect height="10" width="247" y="40" x="0"/>
<rect height="10" width="247" y="60" x="0"/>
<rect height="10" width="247" y="80" x="0"/>
<rect height="10" width="247" y="100" x="0"/>
<rect height="10" width="247" y="120" x="0"/>
</g>
<g fill="#fff">
<rect height="10" width="247" y="10" x="0"/>
<rect height="10" width="247" y="30" x="0"/>
<rect height="10" width="247" y="50" x="0"/>
<rect height="10" width="247" y="70" x="0"/>
<rect height="10" width="247" y="90" x="0"/>
<rect height="10" width="247" y="110" x="0"/>
</g>
</g>
<rect height="275.69" width="389.12" y="0.000005" x="0" stroke-width="1pt" fill="#192f5d"/>
<g fill="#fff" transform="matrix(3.9385 0 0 3.9385 0 .000005)">
<polygon transform="translate(8.2333 7)" d="M 1.3084868e-6,-4.0040002 0.89895399,-1.237304 3.8080309,-1.2373029 1.4545381,0.47260808 2.3534912,3.239305 0,1.5293919 l -2.3534933,1.7099115 0.8989552,-2.76669531 -2.353492,-1.70991339 2.9090761,1.3e-6 z" points="0 -4.004 0.89895 -1.2373 3.808 -1.2373 1.4545 0.47261 2.3535 3.2393 0 1.5294 -2.3535 3.2393 -1.4545 0.47261 -3.808 -1.2373 -0.89895 -1.2373"/>
<polygon transform="translate(24.7,7)" d="M 1.3084868e-6,-4.0040002 0.89895399,-1.237304 3.8080309,-1.2373029 1.4545381,0.47260808 2.3534912,3.239305 0,1.5293919 l -2.3534933,1.7099115 0.8989552,-2.76669531 -2.353492,-1.70991339 2.9090761,1.3e-6 z" points="0 -4.004 0.89895 -1.2373 3.808 -1.2373 1.4545 0.47261 2.3535 3.2393 0 1.5294 -2.3535 3.2393 -1.4545 0.47261 -3.808 -1.2373 -0.89895 -1.2373"/>
<polygon transform="translate(41.167 7)" d="M 1.3084868e-6,-4.0040002 0.89895399,-1.237304 3.8080309,-1.2373029 1.4545381,0.47260808 2.3534912,3.239305 0,1.5293919 l -2.3534933,1.7099115 0.8989552,-2.76669531 -2.353492,-1.70991339 2.9090761,1.3e-6 z" points="0 -4.004 0.89895 -1.2373 3.808 -1.2373 1.4545 0.47261 2.3535 3.2393 0 1.5294 -2.3535 3.2393 -1.4545 0.47261 -3.808 -1.2373 -0.89895 -1.2373"/>
<polygon transform="translate(57.633 7)" d="M 1.3084868e-6,-4.0040002 0.89895399,-1.237304 3.8080309,-1.2373029 1.4545381,0.47260808 2.3534912,3.239305 0,1.5293919 l -2.3534933,1.7099115 0.8989552,-2.76669531 -2.353492,-1.70991339 2.9090761,1.3e-6 z" points="0 -4.004 0.89895 -1.2373 3.808 -1.2373 1.4545 0.47261 2.3535 3.2393 0 1.5294 -2.3535 3.2393 -1.4545 0.47261 -3.808 -1.2373 -0.89895 -1.2373"/>
<polygon transform="translate(74.1,7)" d="M 1.3084868e-6,-4.0040002 0.89895399,-1.237304 3.8080309,-1.2373029 1.4545381,0.47260808 2.3534912,3.239305 0,1.5293919 l -2.3534933,1.7099115 0.8989552,-2.76669531 -2.353492,-1.70991339 2.9090761,1.3e-6 z" points="0 -4.004 0.89895 -1.2373 3.808 -1.2373 1.4545 0.47261 2.3535 3.2393 0 1.5294 -2.3535 3.2393 -1.4545 0.47261 -3.808 -1.2373 -0.89895 -1.2373"/>
<polygon transform="translate(90.567 7)" d="M 1.3084868e-6,-4.0040002 0.89895399,-1.237304 3.8080309,-1.2373029 1.4545381,0.47260808 2.3534912,3.239305 0,1.5293919 l -2.3534933,1.7099115 0.8989552,-2.76669531 -2.353492,-1.70991339 2.9090761,1.3e-6 z" points="0 -4.004 0.89895 -1.2373 3.808 -1.2373 1.4545 0.47261 2.3535 3.2393 0 1.5294 -2.3535 3.2393 -1.4545 0.47261 -3.808 -1.2373 -0.89895 -1.2373"/>
<polygon transform="translate(16.467 14)" d="M 1.3084868e-6,-4.0040002 0.89895399,-1.237304 3.8080309,-1.2373029 1.4545381,0.47260808 2.3534912,3.239305 0,1.5293919 l -2.3534933,1.7099115 0.8989552,-2.76669531 -2.353492,-1.70991339 2.9090761,1.3e-6 z" points="0 -4.004 0.89895 -1.2373 3.808 -1.2373 1.4545 0.47261 2.3535 3.2393 0 1.5294 -2.3535 3.2393 -1.4545 0.47261 -3.808 -1.2373 -0.89895 -1.2373"/>
<polygon transform="translate(32.933 14)" d="M 1.3084868e-6,-4.0040002 0.89895399,-1.237304 3.8080309,-1.2373029 1.4545381,0.47260808 2.3534912,3.239305 0,1.5293919 l -2.3534933,1.7099115 0.8989552,-2.76669531 -2.353492,-1.70991339 2.9090761,1.3e-6 z" points="0 -4.004 0.89895 -1.2373 3.808 -1.2373 1.4545 0.47261 2.3535 3.2393 0 1.5294 -2.3535 3.2393 -1.4545 0.47261 -3.808 -1.2373 -0.89895 -1.2373"/>
<polygon transform="translate(49.4,14)" d="M 1.3084868e-6,-4.0040002 0.89895399,-1.237304 3.8080309,-1.2373029 1.4545381,0.47260808 2.3534912,3.239305 0,1.5293919 l -2.3534933,1.7099115 0.8989552,-2.76669531 -2.353492,-1.70991339 2.9090761,1.3e-6 z" points="0 -4.004 0.89895 -1.2373 3.808 -1.2373 1.4545 0.47261 2.3535 3.2393 0 1.5294 -2.3535 3.2393 -1.4545 0.47261 -3.808 -1.2373 -0.89895 -1.2373"/>
<polygon transform="translate(65.867 14)" d="M 1.3084868e-6,-4.0040002 0.89895399,-1.237304 3.8080309,-1.2373029 1.4545381,0.47260808 2.3534912,3.239305 0,1.5293919 l -2.3534933,1.7099115 0.8989552,-2.76669531 -2.353492,-1.70991339 2.9090761,1.3e-6 z" points="0 -4.004 0.89895 -1.2373 3.808 -1.2373 1.4545 0.47261 2.3535 3.2393 0 1.5294 -2.3535 3.2393 -1.4545 0.47261 -3.808 -1.2373 -0.89895 -1.2373"/>
<polygon transform="translate(82.333 14)" d="M 1.3084868e-6,-4.0040002 0.89895399,-1.237304 3.8080309,-1.2373029 1.4545381,0.47260808 2.3534912,3.239305 0,1.5293919 l -2.3534933,1.7099115 0.8989552,-2.76669531 -2.353492,-1.70991339 2.9090761,1.3e-6 z" points="0 -4.004 0.89895 -1.2373 3.808 -1.2373 1.4545 0.47261 2.3535 3.2393 0 1.5294 -2.3535 3.2393 -1.4545 0.47261 -3.808 -1.2373 -0.89895 -1.2373"/>
<g transform="translate(0,14)">
<polygon transform="translate(8.2333 7)" d="M 1.3084868e-6,-4.0040002 0.89895399,-1.237304 3.8080309,-1.2373029 1.4545381,0.47260808 2.3534912,3.239305 0,1.5293919 l -2.3534933,1.7099115 0.8989552,-2.76669531 -2.353492,-1.70991339 2.9090761,1.3e-6 z" points="0 -4.004 0.89895 -1.2373 3.808 -1.2373 1.4545 0.47261 2.3535 3.2393 0 1.5294 -2.3535 3.2393 -1.4545 0.47261 -3.808 -1.2373 -0.89895 -1.2373"/>
<polygon transform="translate(24.7,7)" d="M 1.3084868e-6,-4.0040002 0.89895399,-1.237304 3.8080309,-1.2373029 1.4545381,0.47260808 2.3534912,3.239305 0,1.5293919 l -2.3534933,1.7099115 0.8989552,-2.76669531 -2.353492,-1.70991339 2.9090761,1.3e-6 z" points="0 -4.004 0.89895 -1.2373 3.808 -1.2373 1.4545 0.47261 2.3535 3.2393 0 1.5294 -2.3535 3.2393 -1.4545 0.47261 -3.808 -1.2373 -0.89895 -1.2373"/>
<polygon transform="translate(41.167 7)" d="M 1.3084868e-6,-4.0040002 0.89895399,-1.237304 3.8080309,-1.2373029 1.4545381,0.47260808 2.3534912,3.239305 0,1.5293919 l -2.3534933,1.7099115 0.8989552,-2.76669531 -2.353492,-1.70991339 2.9090761,1.3e-6 z" points="0 -4.004 0.89895 -1.2373 3.808 -1.2373 1.4545 0.47261 2.3535 3.2393 0 1.5294 -2.3535 3.2393 -1.4545 0.47261 -3.808 -1.2373 -0.89895 -1.2373"/>
<polygon transform="translate(57.633 7)" d="M 1.3084868e-6,-4.0040002 0.89895399,-1.237304 3.8080309,-1.2373029 1.4545381,0.47260808 2.3534912,3.239305 0,1.5293919 l -2.3534933,1.7099115 0.8989552,-2.76669531 -2.353492,-1.70991339 2.9090761,1.3e-6 z" points="0 -4.004 0.89895 -1.2373 3.808 -1.2373 1.4545 0.47261 2.3535 3.2393 0 1.5294 -2.3535 3.2393 -1.4545 0.47261 -3.808 -1.2373 -0.89895 -1.2373"/>
<polygon transform="translate(74.1,7)" d="M 1.3084868e-6,-4.0040002 0.89895399,-1.237304 3.8080309,-1.2373029 1.4545381,0.47260808 2.3534912,3.239305 0,1.5293919 l -2.3534933,1.7099115 0.8989552,-2.76669531 -2.353492,-1.70991339 2.9090761,1.3e-6 z" points="0 -4.004 0.89895 -1.2373 3.808 -1.2373 1.4545 0.47261 2.3535 3.2393 0 1.5294 -2.3535 3.2393 -1.4545 0.47261 -3.808 -1.2373 -0.89895 -1.2373"/>
<polygon transform="translate(90.567 7)" d="M 1.3084868e-6,-4.0040002 0.89895399,-1.237304 3.8080309,-1.2373029 1.4545381,0.47260808 2.3534912,3.239305 0,1.5293919 l -2.3534933,1.7099115 0.8989552,-2.76669531 -2.353492,-1.70991339 2.9090761,1.3e-6 z" points="0 -4.004 0.89895 -1.2373 3.808 -1.2373 1.4545 0.47261 2.3535 3.2393 0 1.5294 -2.3535 3.2393 -1.4545 0.47261 -3.808 -1.2373 -0.89895 -1.2373"/>
<polygon transform="translate(16.467 14)" d="M 1.3084868e-6,-4.0040002 0.89895399,-1.237304 3.8080309,-1.2373029 1.4545381,0.47260808 2.3534912,3.239305 0,1.5293919 l -2.3534933,1.7099115 0.8989552,-2.76669531 -2.353492,-1.70991339 2.9090761,1.3e-6 z" points="0 -4.004 0.89895 -1.2373 3.808 -1.2373 1.4545 0.47261 2.3535 3.2393 0 1.5294 -2.3535 3.2393 -1.4545 0.47261 -3.808 -1.2373 -0.89895 -1.2373"/>
<polygon transform="translate(32.933 14)" d="M 1.3084868e-6,-4.0040002 0.89895399,-1.237304 3.8080309,-1.2373029 1.4545381,0.47260808 2.3534912,3.239305 0,1.5293919 l -2.3534933,1.7099115 0.8989552,-2.76669531 -2.353492,-1.70991339 2.9090761,1.3e-6 z" points="0 -4.004 0.89895 -1.2373 3.808 -1.2373 1.4545 0.47261 2.3535 3.2393 0 1.5294 -2.3535 3.2393 -1.4545 0.47261 -3.808 -1.2373 -0.89895 -1.2373"/>
<polygon transform="translate(49.4,14)" d="M 1.3084868e-6,-4.0040002 0.89895399,-1.237304 3.8080309,-1.2373029 1.4545381,0.47260808 2.3534912,3.239305 0,1.5293919 l -2.3534933,1.7099115 0.8989552,-2.76669531 -2.353492,-1.70991339 2.9090761,1.3e-6 z" points="0 -4.004 0.89895 -1.2373 3.808 -1.2373 1.4545 0.47261 2.3535 3.2393 0 1.5294 -2.3535 3.2393 -1.4545 0.47261 -3.808 -1.2373 -0.89895 -1.2373"/>
<polygon transform="translate(65.867 14)" d="M 1.3084868e-6,-4.0040002 0.89895399,-1.237304 3.8080309,-1.2373029 1.4545381,0.47260808 2.3534912,3.239305 0,1.5293919 l -2.3534933,1.7099115 0.8989552,-2.76669531 -2.353492,-1.70991339 2.9090761,1.3e-6 z" points="0 -4.004 0.89895 -1.2373 3.808 -1.2373 1.4545 0.47261 2.3535 3.2393 0 1.5294 -2.3535 3.2393 -1.4545 0.47261 -3.808 -1.2373 -0.89895 -1.2373"/>
<polygon transform="translate(82.333 14)" d="M 1.3084868e-6,-4.0040002 0.89895399,-1.237304 3.8080309,-1.2373029 1.4545381,0.47260808 2.3534912,3.239305 0,1.5293919 l -2.3534933,1.7099115 0.8989552,-2.76669531 -2.353492,-1.70991339 2.9090761,1.3e-6 z" points="0 -4.004 0.89895 -1.2373 3.808 -1.2373 1.4545 0.47261 2.3535 3.2393 0 1.5294 -2.3535 3.2393 -1.4545 0.47261 -3.808 -1.2373 -0.89895 -1.2373"/>
</g>
<g transform="translate(0,28)">
<polygon transform="translate(8.2333 7)" d="M 1.3084868e-6,-4.0040002 0.89895399,-1.237304 3.8080309,-1.2373029 1.4545381,0.47260808 2.3534912,3.239305 0,1.5293919 l -2.3534933,1.7099115 0.8989552,-2.76669531 -2.353492,-1.70991339 2.9090761,1.3e-6 z" points="0 -4.004 0.89895 -1.2373 3.808 -1.2373 1.4545 0.47261 2.3535 3.2393 0 1.5294 -2.3535 3.2393 -1.4545 0.47261 -3.808 -1.2373 -0.89895 -1.2373"/>
<polygon transform="translate(24.7,7)" d="M 1.3084868e-6,-4.0040002 0.89895399,-1.237304 3.8080309,-1.2373029 1.4545381,0.47260808 2.3534912,3.239305 0,1.5293919 l -2.3534933,1.7099115 0.8989552,-2.76669531 -2.353492,-1.70991339 2.9090761,1.3e-6 z" points="0 -4.004 0.89895 -1.2373 3.808 -1.2373 1.4545 0.47261 2.3535 3.2393 0 1.5294 -2.3535 3.2393 -1.4545 0.47261 -3.808 -1.2373 -0.89895 -1.2373"/>
<polygon transform="translate(41.167 7)" d="M 1.3084868e-6,-4.0040002 0.89895399,-1.237304 3.8080309,-1.2373029 1.4545381,0.47260808 2.3534912,3.239305 0,1.5293919 l -2.3534933,1.7099115 0.8989552,-2.76669531 -2.353492,-1.70991339 2.9090761,1.3e-6 z" points="0 -4.004 0.89895 -1.2373 3.808 -1.2373 1.4545 0.47261 2.3535 3.2393 0 1.5294 -2.3535 3.2393 -1.4545 0.47261 -3.808 -1.2373 -0.89895 -1.2373"/>
<polygon transform="translate(57.633 7)" d="M 1.3084868e-6,-4.0040002 0.89895399,-1.237304 3.8080309,-1.2373029 1.4545381,0.47260808 2.3534912,3.239305 0,1.5293919 l -2.3534933,1.7099115 0.8989552,-2.76669531 -2.353492,-1.70991339 2.9090761,1.3e-6 z" points="0 -4.004 0.89895 -1.2373 3.808 -1.2373 1.4545 0.47261 2.3535 3.2393 0 1.5294 -2.3535 3.2393 -1.4545 0.47261 -3.808 -1.2373 -0.89895 -1.2373"/>
<polygon transform="translate(74.1,7)" d="M 1.3084868e-6,-4.0040002 0.89895399,-1.237304 3.8080309,-1.2373029 1.4545381,0.47260808 2.3534912,3.239305 0,1.5293919 l -2.3534933,1.7099115 0.8989552,-2.76669531 -2.353492,-1.70991339 2.9090761,1.3e-6 z" points="0 -4.004 0.89895 -1.2373 3.808 -1.2373 1.4545 0.47261 2.3535 3.2393 0 1.5294 -2.3535 3.2393 -1.4545 0.47261 -3.808 -1.2373 -0.89895 -1.2373"/>
<polygon transform="translate(90.567 7)" d="M 1.3084868e-6,-4.0040002 0.89895399,-1.237304 3.8080309,-1.2373029 1.4545381,0.47260808 2.3534912,3.239305 0,1.5293919 l -2.3534933,1.7099115 0.8989552,-2.76669531 -2.353492,-1.70991339 2.9090761,1.3e-6 z" points="0 -4.004 0.89895 -1.2373 3.808 -1.2373 1.4545 0.47261 2.3535 3.2393 0 1.5294 -2.3535 3.2393 -1.4545 0.47261 -3.808 -1.2373 -0.89895 -1.2373"/>
<polygon transform="translate(16.467 14)" d="M 1.3084868e-6,-4.0040002 0.89895399,-1.237304 3.8080309,-1.2373029 1.4545381,0.47260808 2.3534912,3.239305 0,1.5293919 l -2.3534933,1.7099115 0.8989552,-2.76669531 -2.353492,-1.70991339 2.9090761,1.3e-6 z" points="0 -4.004 0.89895 -1.2373 3.808 -1.2373 1.4545 0.47261 2.3535 3.2393 0 1.5294 -2.3535 3.2393 -1.4545 0.47261 -3.808 -1.2373 -0.89895 -1.2373"/>
<polygon transform="translate(32.933 14)" d="M 1.3084868e-6,-4.0040002 0.89895399,-1.237304 3.8080309,-1.2373029 1.4545381,0.47260808 2.3534912,3.239305 0,1.5293919 l -2.3534933,1.7099115 0.8989552,-2.76669531 -2.353492,-1.70991339 2.9090761,1.3e-6 z" points="0 -4.004 0.89895 -1.2373 3.808 -1.2373 1.4545 0.47261 2.3535 3.2393 0 1.5294 -2.3535 3.2393 -1.4545 0.47261 -3.808 -1.2373 -0.89895 -1.2373"/>
<polygon transform="translate(49.4,14)" d="M 1.3084868e-6,-4.0040002 0.89895399,-1.237304 3.8080309,-1.2373029 1.4545381,0.47260808 2.3534912,3.239305 0,1.5293919 l -2.3534933,1.7099115 0.8989552,-2.76669531 -2.353492,-1.70991339 2.9090761,1.3e-6 z" points="0 -4.004 0.89895 -1.2373 3.808 -1.2373 1.4545 0.47261 2.3535 3.2393 0 1.5294 -2.3535 3.2393 -1.4545 0.47261 -3.808 -1.2373 -0.89895 -1.2373"/>
<polygon transform="translate(65.867 14)" d="M 1.3084868e-6,-4.0040002 0.89895399,-1.237304 3.8080309,-1.2373029 1.4545381,0.47260808 2.3534912,3.239305 0,1.5293919 l -2.3534933,1.7099115 0.8989552,-2.76669531 -2.353492,-1.70991339 2.9090761,1.3e-6 z" points="0 -4.004 0.89895 -1.2373 3.808 -1.2373 1.4545 0.47261 2.3535 3.2393 0 1.5294 -2.3535 3.2393 -1.4545 0.47261 -3.808 -1.2373 -0.89895 -1.2373"/>
<polygon transform="translate(82.333 14)" d="M 1.3084868e-6,-4.0040002 0.89895399,-1.237304 3.8080309,-1.2373029 1.4545381,0.47260808 2.3534912,3.239305 0,1.5293919 l -2.3534933,1.7099115 0.8989552,-2.76669531 -2.353492,-1.70991339 2.9090761,1.3e-6 z" points="0 -4.004 0.89895 -1.2373 3.808 -1.2373 1.4545 0.47261 2.3535 3.2393 0 1.5294 -2.3535 3.2393 -1.4545 0.47261 -3.808 -1.2373 -0.89895 -1.2373"/>
</g>
<g transform="translate(0,42)">
<polygon transform="translate(8.2333 7)" d="M 1.3084868e-6,-4.0040002 0.89895399,-1.237304 3.8080309,-1.2373029 1.4545381,0.47260808 2.3534912,3.239305 0,1.5293919 l -2.3534933,1.7099115 0.8989552,-2.76669531 -2.353492,-1.70991339 2.9090761,1.3e-6 z" points="0 -4.004 0.89895 -1.2373 3.808 -1.2373 1.4545 0.47261 2.3535 3.2393 0 1.5294 -2.3535 3.2393 -1.4545 0.47261 -3.808 -1.2373 -0.89895 -1.2373"/>
<polygon transform="translate(24.7,7)" d="M 1.3084868e-6,-4.0040002 0.89895399,-1.237304 3.8080309,-1.2373029 1.4545381,0.47260808 2.3534912,3.239305 0,1.5293919 l -2.3534933,1.7099115 0.8989552,-2.76669531 -2.353492,-1.70991339 2.9090761,1.3e-6 z" points="0 -4.004 0.89895 -1.2373 3.808 -1.2373 1.4545 0.47261 2.3535 3.2393 0 1.5294 -2.3535 3.2393 -1.4545 0.47261 -3.808 -1.2373 -0.89895 -1.2373"/>
<polygon transform="translate(41.167 7)" d="M 1.3084868e-6,-4.0040002 0.89895399,-1.237304 3.8080309,-1.2373029 1.4545381,0.47260808 2.3534912,3.239305 0,1.5293919 l -2.3534933,1.7099115 0.8989552,-2.76669531 -2.353492,-1.70991339 2.9090761,1.3e-6 z" points="0 -4.004 0.89895 -1.2373 3.808 -1.2373 1.4545 0.47261 2.3535 3.2393 0 1.5294 -2.3535 3.2393 -1.4545 0.47261 -3.808 -1.2373 -0.89895 -1.2373"/>
<polygon transform="translate(57.633 7)" d="M 1.3084868e-6,-4.0040002 0.89895399,-1.237304 3.8080309,-1.2373029 1.4545381,0.47260808 2.3534912,3.239305 0,1.5293919 l -2.3534933,1.7099115 0.8989552,-2.76669531 -2.353492,-1.70991339 2.9090761,1.3e-6 z" points="0 -4.004 0.89895 -1.2373 3.808 -1.2373 1.4545 0.47261 2.3535 3.2393 0 1.5294 -2.3535 3.2393 -1.4545 0.47261 -3.808 -1.2373 -0.89895 -1.2373"/>
<polygon transform="translate(74.1,7)" d="M 1.3084868e-6,-4.0040002 0.89895399,-1.237304 3.8080309,-1.2373029 1.4545381,0.47260808 2.3534912,3.239305 0,1.5293919 l -2.3534933,1.7099115 0.8989552,-2.76669531 -2.353492,-1.70991339 2.9090761,1.3e-6 z" points="0 -4.004 0.89895 -1.2373 3.808 -1.2373 1.4545 0.47261 2.3535 3.2393 0 1.5294 -2.3535 3.2393 -1.4545 0.47261 -3.808 -1.2373 -0.89895 -1.2373"/>
<polygon transform="translate(90.567 7)" d="M 1.3084868e-6,-4.0040002 0.89895399,-1.237304 3.8080309,-1.2373029 1.4545381,0.47260808 2.3534912,3.239305 0,1.5293919 l -2.3534933,1.7099115 0.8989552,-2.76669531 -2.353492,-1.70991339 2.9090761,1.3e-6 z" points="0 -4.004 0.89895 -1.2373 3.808 -1.2373 1.4545 0.47261 2.3535 3.2393 0 1.5294 -2.3535 3.2393 -1.4545 0.47261 -3.808 -1.2373 -0.89895 -1.2373"/>
<polygon transform="translate(16.467 14)" d="M 1.3084868e-6,-4.0040002 0.89895399,-1.237304 3.8080309,-1.2373029 1.4545381,0.47260808 2.3534912,3.239305 0,1.5293919 l -2.3534933,1.7099115 0.8989552,-2.76669531 -2.353492,-1.70991339 2.9090761,1.3e-6 z" points="0 -4.004 0.89895 -1.2373 3.808 -1.2373 1.4545 0.47261 2.3535 3.2393 0 1.5294 -2.3535 3.2393 -1.4545 0.47261 -3.808 -1.2373 -0.89895 -1.2373"/>
<polygon transform="translate(32.933 14)" d="M 1.3084868e-6,-4.0040002 0.89895399,-1.237304 3.8080309,-1.2373029 1.4545381,0.47260808 2.3534912,3.239305 0,1.5293919 l -2.3534933,1.7099115 0.8989552,-2.76669531 -2.353492,-1.70991339 2.9090761,1.3e-6 z" points="0 -4.004 0.89895 -1.2373 3.808 -1.2373 1.4545 0.47261 2.3535 3.2393 0 1.5294 -2.3535 3.2393 -1.4545 0.47261 -3.808 -1.2373 -0.89895 -1.2373"/>
<polygon transform="translate(49.4,14)" d="M 1.3084868e-6,-4.0040002 0.89895399,-1.237304 3.8080309,-1.2373029 1.4545381,0.47260808 2.3534912,3.239305 0,1.5293919 l -2.3534933,1.7099115 0.8989552,-2.76669531 -2.353492,-1.70991339 2.9090761,1.3e-6 z" points="0 -4.004 0.89895 -1.2373 3.808 -1.2373 1.4545 0.47261 2.3535 3.2393 0 1.5294 -2.3535 3.2393 -1.4545 0.47261 -3.808 -1.2373 -0.89895 -1.2373"/>
<polygon transform="translate(65.867 14)" d="M 1.3084868e-6,-4.0040002 0.89895399,-1.237304 3.8080309,-1.2373029 1.4545381,0.47260808 2.3534912,3.239305 0,1.5293919 l -2.3534933,1.7099115 0.8989552,-2.76669531 -2.353492,-1.70991339 2.9090761,1.3e-6 z" points="0 -4.004 0.89895 -1.2373 3.808 -1.2373 1.4545 0.47261 2.3535 3.2393 0 1.5294 -2.3535 3.2393 -1.4545 0.47261 -3.808 -1.2373 -0.89895 -1.2373"/>
<polygon transform="translate(82.333 14)" d="M 1.3084868e-6,-4.0040002 0.89895399,-1.237304 3.8080309,-1.2373029 1.4545381,0.47260808 2.3534912,3.239305 0,1.5293919 l -2.3534933,1.7099115 0.8989552,-2.76669531 -2.353492,-1.70991339 2.9090761,1.3e-6 z" points="0 -4.004 0.89895 -1.2373 3.808 -1.2373 1.4545 0.47261 2.3535 3.2393 0 1.5294 -2.3535 3.2393 -1.4545 0.47261 -3.808 -1.2373 -0.89895 -1.2373"/>
</g>
<g transform="translate(0,56)">
<polygon transform="translate(8.2333 7)" d="M 1.3084868e-6,-4.0040002 0.89895399,-1.237304 3.8080309,-1.2373029 1.4545381,0.47260808 2.3534912,3.239305 0,1.5293919 l -2.3534933,1.7099115 0.8989552,-2.76669531 -2.353492,-1.70991339 2.9090761,1.3e-6 z" points="0 -4.004 0.89895 -1.2373 3.808 -1.2373 1.4545 0.47261 2.3535 3.2393 0 1.5294 -2.3535 3.2393 -1.4545 0.47261 -3.808 -1.2373 -0.89895 -1.2373"/>
<polygon transform="translate(24.7,7)" d="M 1.3084868e-6,-4.0040002 0.89895399,-1.237304 3.8080309,-1.2373029 1.4545381,0.47260808 2.3534912,3.239305 0,1.5293919 l -2.3534933,1.7099115 0.8989552,-2.76669531 -2.353492,-1.70991339 2.9090761,1.3e-6 z" points="0 -4.004 0.89895 -1.2373 3.808 -1.2373 1.4545 0.47261 2.3535 3.2393 0 1.5294 -2.3535 3.2393 -1.4545 0.47261 -3.808 -1.2373 -0.89895 -1.2373"/>
<polygon transform="translate(41.167 7)" d="M 1.3084868e-6,-4.0040002 0.89895399,-1.237304 3.8080309,-1.2373029 1.4545381,0.47260808 2.3534912,3.239305 0,1.5293919 l -2.3534933,1.7099115 0.8989552,-2.76669531 -2.353492,-1.70991339 2.9090761,1.3e-6 z" points="0 -4.004 0.89895 -1.2373 3.808 -1.2373 1.4545 0.47261 2.3535 3.2393 0 1.5294 -2.3535 3.2393 -1.4545 0.47261 -3.808 -1.2373 -0.89895 -1.2373"/>
<polygon transform="translate(57.633 7)" d="M 1.3084868e-6,-4.0040002 0.89895399,-1.237304 3.8080309,-1.2373029 1.4545381,0.47260808 2.3534912,3.239305 0,1.5293919 l -2.3534933,1.7099115 0.8989552,-2.76669531 -2.353492,-1.70991339 2.9090761,1.3e-6 z" points="0 -4.004 0.89895 -1.2373 3.808 -1.2373 1.4545 0.47261 2.3535 3.2393 0 1.5294 -2.3535 3.2393 -1.4545 0.47261 -3.808 -1.2373 -0.89895 -1.2373"/>
<polygon transform="translate(74.1,7)" d="M 1.3084868e-6,-4.0040002 0.89895399,-1.237304 3.8080309,-1.2373029 1.4545381,0.47260808 2.3534912,3.239305 0,1.5293919 l -2.3534933,1.7099115 0.8989552,-2.76669531 -2.353492,-1.70991339 2.9090761,1.3e-6 z" points="0 -4.004 0.89895 -1.2373 3.808 -1.2373 1.4545 0.47261 2.3535 3.2393 0 1.5294 -2.3535 3.2393 -1.4545 0.47261 -3.808 -1.2373 -0.89895 -1.2373"/>
<polygon transform="translate(90.567 7)" d="M 1.3084868e-6,-4.0040002 0.89895399,-1.237304 3.8080309,-1.2373029 1.4545381,0.47260808 2.3534912,3.239305 0,1.5293919 l -2.3534933,1.7099115 0.8989552,-2.76669531 -2.353492,-1.70991339 2.9090761,1.3e-6 z" points="0 -4.004 0.89895 -1.2373 3.808 -1.2373 1.4545 0.47261 2.3535 3.2393 0 1.5294 -2.3535 3.2393 -1.4545 0.47261 -3.808 -1.2373 -0.89895 -1.2373"/>
</g>
</g>
</g>
</svg>
</g>
</g>
<g>
<image xlink:href="fore.png" height="960" width="1280" y="0" x="0"/>
</g>
</svg>
