<?xml version="1.0" encoding="UTF-8" standalone="no"?>
<svg xmlns="http://www.w3.org/2000/svg" version="1.1" xmlns:xlink="http://www.w3.org/1999/xlink" viewBox="0 0 1280 960">
<defs>
<clipPath id="a" clipPathUnits="userSpaceOnUse">
<rect rx="67" ry="67" height="745" width="1065" y="107" x="107"/>
</clipPath>
</defs>
<g>
<image xlink:href="back.png" height="960" width="1280" y="0" x="0"/>
</g>
<g clip-path="url(#a)" height="745" width="1065" y="107" x="107">
<g transform="translate(106,75) scale(1.667)" height="960" width="1280" y="75" x="106">
<svg xmlns:rdf="http://www.w3.org/1999/02/22-rdf-syntax-ns#" xmlns="http://www.w3.org/2000/svg" xmlns:svg="http://www.w3.org/2000/svg" width="640" version="1.1" xmlns:cc="http://creativecommons.org/ns#" height="480" xmlns:dc="http://purl.org/dc/elements/1.1/">
<metadata>
<rdf:RDF>
<cc:Work rdf:about="">
<dc:format>image/svg+xml</dc:format>
<dc:type rdf:resource="http://purl.org/dc/dcmitype/StillImage"/>
</cc:Work>
</rdf:RDF>
</metadata>
<g fill-rule="evenodd">
<rect height="480" width="640" y=".000091553" x="0" stroke-width="1pt" fill="#f4f100"/>
<rect height="480" width="150" y="-2.2039e-13" x="490" stroke-width="1pt" fill="#199a00"/>
<rect height="480" width="150" y="-2.2039e-13" x="0" stroke-width="1pt" fill="#0058aa"/>
<path d="m259.26 129.95-46.376 71.391 44.748 74.391 43.82-73.735-42.192-72.046z" fill="#199a00"/>
<path d="m380.54 129.95-46.376 71.391 44.748 74.391 43.82-73.735-42.192-72.046z" fill="#199a00"/>
<path d="m319.28 227.34-46.376 71.391 44.748 74.391 43.82-73.735-42.192-72.046z" fill="#199a00"/>
</g>
</svg>
</g>
</g>
<g>
<image xlink:href="fore.png" height="960" width="1280" y="0" x="0"/>
</g>
</svg>
