<?xml version="1.0" encoding="UTF-8" standalone="no"?>
<svg xmlns="http://www.w3.org/2000/svg" version="1.1" xmlns:xlink="http://www.w3.org/1999/xlink" viewBox="0 0 1280 960">
<defs>
<clipPath id="a" clipPathUnits="userSpaceOnUse">
<rect rx="67" ry="67" height="745" width="1065" y="107" x="107"/>
</clipPath>
</defs>
<g>
<image xlink:href="back.png" height="960" width="1280" y="0" x="0"/>
</g>
<g clip-path="url(#a)" height="745" width="1065" y="107" x="107">
<g transform="translate(106,75) scale(1.667)" height="960" width="1280" y="75" x="106">
<svg xmlns:rdf="http://www.w3.org/1999/02/22-rdf-syntax-ns#" xmlns="http://www.w3.org/2000/svg" xmlns:svg="http://www.w3.org/2000/svg" height="480" width="640" version="1.0" y="0" x="0" xmlns:cc="http://creativecommons.org/ns#" xmlns:dc="http://purl.org/dc/elements/1.1/">
<metadata>
<rdf:RDF>
<cc:Work rdf:about="">
<dc:format>image/svg+xml</dc:format>
<dc:type rdf:resource="http://purl.org/dc/dcmitype/StillImage"/>
</cc:Work>
</rdf:RDF>
</metadata>
<defs>
<clipPath id="b" clipPathUnits="userSpaceOnUse">
<rect fill-opacity="0.67" height="512" width="682.67" y=".0000051327" x="-84.605"/>
</clipPath>
</defs>
<g clip-path="url(#b)" transform="matrix(.93750 0 0 .93750 79.318 -.0000048119)" fill-rule="evenodd">
<rect height="170.67" width="769.46" y="341.33" x="-128" stroke-width="1pt" fill="#dc0000"/>
<rect height="170.67" width="769.46" y=".0000048041" x="-128" stroke-width="1pt" fill="#ffcb00"/>
<rect height="170.67" width="769.46" y="170.67" x="-128" stroke-width="1pt" fill="#0000ba"/>
<path d="m269.58 228.72-12.397-8.856-12.336 8.943 4.5881-14.533-12.314-8.9739 15.234-0.12511 4.7251-14.489 4.8264 14.455 15.234 0.0191-12.25 9.0585 4.6894 14.501z" stroke-width=".11287" fill="#fff"/>
<path d="m331.27 236.3-12.397-8.856-12.336 8.943 4.5881-14.533-12.314-8.9739 15.234-0.12511 4.7251-14.489 4.8264 14.455 15.234 0.0191-12.25 9.0585 4.6894 14.501z" stroke-width=".11287" fill="#fff"/>
<path d="m384.74 269.67-12.397-8.856-12.336 8.943 4.5881-14.533-12.314-8.9739 15.234-0.12511 4.7251-14.489 4.8264 14.455 15.234 0.0191-12.25 9.0585 4.6894 14.501z" stroke-width=".11287" fill="#fff"/>
<path d="m414.9 319.72-12.397-8.856-12.336 8.943 4.5881-14.533-12.314-8.9739 15.234-0.12511 4.7251-14.489 4.8264 14.455 15.234 0.0191-12.25 9.0585 4.6894 14.501z" stroke-width=".11287" fill="#fff"/>
<path d="m182.99 236.3 12.397-8.856 12.336 8.943-4.5881-14.533 12.314-8.9739-15.234-0.12511-4.7251-14.489-4.8264 14.455-15.234 0.0191 12.25 9.0585-4.6894 14.501z" stroke-width=".11287" fill="#fff"/>
<path d="m129.53 269.67 12.397-8.856 12.336 8.943-4.5881-14.533 12.314-8.9739-15.234-0.12511-4.7251-14.489-4.8264 14.455-15.234 0.0191 12.25 9.0585-4.6894 14.501z" stroke-width=".11287" fill="#fff"/>
<path d="m99.369 319.72 12.397-8.856 12.336 8.943-4.5881-14.533 12.314-8.9739-15.234-0.12511-4.7251-14.489-4.8264 14.455-15.234 0.0191 12.25 9.0585-4.6894 14.501z" stroke-width=".11287" fill="#fff"/>
</g>
</svg>
</g>
</g>
<g>
<image xlink:href="fore.png" height="960" width="1280" y="0" x="0"/>
</g>
</svg>
